<?xml version="1.0" encoding="UTF-8" standalone="no"?>
<svg
   xmlns:dc="http://purl.org/dc/elements/1.1/"
   xmlns:cc="http://creativecommons.org/ns#"
   xmlns:rdf="http://www.w3.org/1999/02/22-rdf-syntax-ns#"
   xmlns:svg="http://www.w3.org/2000/svg"
   xmlns="http://www.w3.org/2000/svg"
   xmlns:sodipodi="http://sodipodi.sourceforge.net/DTD/sodipodi-0.dtd"
   xmlns:inkscape="http://www.inkscape.org/namespaces/inkscape"
   version="1.1"
   style=""
   xml:space="preserve"
   width="286.054"
   height="286.054"
   id="svg3736"
   sodipodi:docname="r1c.svg"
   inkscape:version="0.92.4 (5da689c313, 2019-01-14)"><metadata
   id="metadata3742"><rdf:RDF><cc:Work
       rdf:about=""><dc:format>image/svg+xml</dc:format><dc:type
         rdf:resource="http://purl.org/dc/dcmitype/StillImage" /><dc:title></dc:title></cc:Work></rdf:RDF></metadata><defs
   id="defs3740" /><sodipodi:namedview
   pagecolor="#ffffff"
   bordercolor="#666666"
   borderopacity="1"
   objecttolerance="10"
   gridtolerance="10"
   guidetolerance="10"
   inkscape:pageopacity="0"
   inkscape:pageshadow="2"
   inkscape:window-width="1920"
   inkscape:window-height="1008"
   id="namedview3738"
   showgrid="false"
   inkscape:zoom="2.7442372"
   inkscape:cx="143.02699"
   inkscape:cy="143.02699"
   inkscape:window-x="-11"
   inkscape:window-y="-11"
   inkscape:window-maximized="1"
   inkscape:current-layer="svg3736" /><rect
   id="backgroundrect"
   width="100%"
   height="100%"
   x="0"
   y="0"
   fill="none"
   stroke="none" />
















<g
   class="currentLayer"
   style=""
   id="g3734"><title
     id="title3714">Layer 1</title><g
     id="svg_1"
     class="selected"
     fill="#eb1a1a"
     fill-opacity="1">
	<path
   style=""
   d="M143.027,0C64.031,0,0,64.04,0,143.027c0,78.996,64.031,143.027,143.027,143.027   s143.027-64.031,143.027-143.027C286.054,64.04,222.022,0,143.027,0z M143.027,259.236c-64.183,0-116.209-52.026-116.209-116.209   S78.844,26.818,143.027,26.818s116.209,52.026,116.209,116.209S207.21,259.236,143.027,259.236z"
   id="svg_2"
   fill="#eb1a1a"
   fill-opacity="1" />
	<path
   style=""
   d="M150.026,80.39h-22.84c-6.91,0-10.933,7.044-10.933,13.158c0,5.936,3.209,13.158,10.933,13.158   h7.259v85.36c0,8.734,6.257,13.605,13.176,13.605s13.185-4.881,13.185-13.605V92.771C160.798,85.789,156.945,80.39,150.026,80.39z"
   id="svg_3"
   fill="#eb1a1a"
   fill-opacity="1" />
</g><g
     id="svg_4">
</g><g
     id="svg_5">
</g><g
     id="svg_6">
</g><g
     id="svg_7">
</g><g
     id="svg_8">
</g><g
     id="svg_9">
</g><g
     id="svg_10">
</g><g
     id="svg_11">
</g><g
     id="svg_12">
</g><g
     id="svg_13">
</g><g
     id="svg_14">
</g><g
     id="svg_15">
</g><g
     id="svg_16">
</g><g
     id="svg_17">
</g><g
     id="svg_18">
</g></g><path
   style="fill:#eb1a1a;fill-opacity:1;stroke-width:0.36439997"
   d="M 132.71447,258.65273 C 93.111964,255.09509 57.935912,231.31897 39.668221,195.7611 31.223252,179.32306 27.123139,162.08795 27.123139,143.02699 c 0,-19.06095 4.100113,-36.29606 12.545082,-52.734104 15.787851,-30.730887 43.9725,-52.665805 77.655209,-60.435755 8.05644,-1.858467 12.93298,-2.405128 23.22564,-2.603602 10.88215,-0.209841 16.29203,0.230943 25.508,2.078329 47.01217,9.423813 83.74541,47.456918 91.43903,94.674742 2.34364,14.38359 1.87218,30.89957 -1.27355,44.61464 -10.25206,44.69789 -45.49151,79.12888 -90.16548,88.0969 -8.36495,1.67922 -14.06447,2.19484 -23.5038,2.12635 -4.60966,-0.0335 -9.03712,-0.11974 -9.8388,-0.19176 z m 20.7708,-54.17145 c 2.75285,-1.26626 5.33001,-3.95343 6.45034,-6.72569 l 0.83766,-2.0728 v -53.2024 c 0,-52.289766 -0.0125,-53.236094 -0.72821,-55.167021 -0.87642,-2.364449 -3.00308,-4.878481 -5.05547,-5.976309 -1.46375,-0.78296 -1.8778,-0.807747 -15.35152,-0.919031 -14.96345,-0.123586 -15.68042,-0.05335 -18.18424,1.781322 -8.23264,6.032474 -6.46138,21.451869 2.77946,24.196099 1.19564,0.35507 3.35978,0.55594 5.98949,0.55594 h 4.11743 l 0.0981,44.5479 0.0981,44.5479 0.94386,2.0042 c 1.63607,3.47408 4.13551,5.78463 7.61954,7.04372 2.63289,0.9515 7.62365,0.65652 10.3854,-0.61383 z"
   id="path3815"
   inkscape:connector-curvature="0" /><path
   style="fill:#eb1a1a;fill-opacity:1"
   id="path3819"
   d="m 34.530155,174.9779 c -1.304682,-0.41266 -2.738812,-0.63634 -3.907808,-1.39392 -0.271596,-0.17601 -0.509893,-0.39872 -0.764839,-0.59809 -1.811848,-1.86862 -3.135397,-4.14536 -4.256532,-6.47712 -1.380034,-3.29584 -2.432201,-6.70805 -3.225299,-10.18827 -0.675037,-3.38916 -0.883045,-6.84327 -1.028097,-10.28837 0.08601,-1.43444 -0.323291,-2.97585 0.08592,-4.38614 0.06404,-0.2207 0.167818,-0.42789 0.251728,-0.64184 0.287475,-0.54782 0.655833,-1.05997 1.208829,-1.36954 1.709204,-0.95684 3.400453,-1.95238 5.165734,-2.80132 0.160176,-0.077 0.360709,0.007 0.529541,0.0624 0.167256,0.055 0.305551,0.17508 0.458326,0.26261 0.139429,0.11057 0.299064,0.19961 0.418288,0.33171 0.833248,0.92328 1.230212,2.72313 1.490906,3.89348 0.447886,2.58009 0.492479,5.20765 0.537671,7.81931 0.0097,3.6692 -0.01492,7.33844 -0.02211,11.00767 -0.0066,3.07453 0.01762,6.14899 0.05275,9.22329 0.06346,3.26554 -0.244218,2.80249 -5.042129,4.69741 -0.219428,0.0867 -0.297422,-0.36996 -0.407872,-0.57843 -0.151006,-0.28502 -0.247921,-0.59555 -0.371882,-0.89333 -1.528883,-4.2787 -2.398743,-8.74281 -3.289432,-13.18687 -1.138864,-5.77383 -1.655866,-11.6335 -1.97151,-17.50125 -0.145249,-3.2939 -0.215638,-6.59097 -0.244829,-9.88783 -0.01073,-1.69843 -0.0033,-3.397 0.01183,-5.0954 -0.01696,-2.56991 0.543034,-5.06723 1.161337,-7.54506 0.568313,-2.22689 1.193837,-4.50702 2.362521,-6.50388 1.336735,-1.64178 4.288294,-4.56164 5.911923,-2.78346 0.570406,0.6247 0.674283,1.54868 0.830748,2.33449 0.321394,2.37428 0.3173,4.77657 0.312811,7.16771 -0.02893,3.98326 -0.05875,7.96629 -0.0533,11.94969 0.0036,2.9904 0.03258,5.98062 0.06198,8.97084 -0.06736,2.67174 0.02655,2.00331 -4.950969,3.33814 -0.261708,0.0702 -0.0522,-0.53963 -0.06439,-0.81032 -0.0227,-0.50422 -0.03795,-2.20039 -0.04306,-2.63319 -0.01748,-4.37917 -0.02714,-8.7581 0.140279,-13.13434 0.686114,-7.49951 2.285947,-14.87928 4.035672,-22.1918 1.294438,-5.402989 2.966707,-10.701706 4.853516,-15.923909 1.253176,-3.322658 2.576305,-6.627167 4.354295,-9.707176 0.840368,-1.477731 2.015101,-2.703324 3.19145,-3.911855 1.844647,-1.64275 3.890899,-2.639264 6.17253,-3.848074 0.109265,-0.05789 0.264003,-0.02337 0.368484,0.04276 0.157114,0.09945 0.243479,0.2811 0.365219,0.421649 0.425099,1.100103 0.100062,2.023538 -0.281425,3.114817 -0.282839,0.809087 -0.597694,1.606946 -0.92241,2.400155 -1.149546,2.808084 -2.046682,4.70613 -3.330801,7.538721 -4.930311,10.316099 -9.169553,20.934972 -13.421588,31.541982 -1.927162,4.82357 -3.813838,9.66319 -5.779083,14.47152 -0.740414,1.63041 -1.451396,3.66627 -4.877801,1.86283 -0.936392,-0.49286 0.887456,-1.92175 1.363806,-2.86665 3.157662,-6.26359 6.742777,-12.30895 10.195988,-18.41102 7.790936,-13.759111 15.397086,-27.62602 23.421789,-41.251288 2.684513,-4.472019 5.331604,-8.973081 8.237291,-13.306995 0.810806,-1.06615 1.672058,-2.113851 2.731423,-2.942651 1.930946,-1.339474 0.190203,-0.145966 5.34085,-3.132184 0.284413,-0.164896 1.149513,-0.638516 0.865324,-0.473234 -4.445997,2.585756 -5.186255,1.026142 -4.312386,2.700933 0.01879,0.176285 0.162252,0.386674 0.05636,0.528857 -0.160444,0.215427 -0.479934,0.241384 -0.719901,0.362077 1.130488,-0.620239 2.20632,-1.352646 3.391463,-1.860716 0.563085,-0.241394 -1.012809,0.69006 -1.506612,1.052682 -1.064957,0.782044 -2.811784,2.171865 -3.818008,2.963581 -4.854273,3.572274 -9.219122,7.740562 -13.334974,12.127977 -3.514877,3.980929 -6.963192,8.00897 -10.184881,12.231894 -1.391817,1.939751 -2.942306,3.784762 -4.189939,5.824377 -1.077235,2.241319 -0.161057,1.134716 -5.194911,2.827303 -0.220013,0.07398 0.272764,-0.37579 0.416188,-0.558295 0.273248,-0.347705 0.555743,-0.688043 0.833614,-1.032064 4.881286,-5.699036 9.78452,-11.379079 14.740893,-17.013069 3.796344,-4.241488 7.733006,-8.368473 11.916589,-12.231138 2.682731,-2.561222 5.900176,-4.132081 9.124675,-5.9514 0.0685,-0.01616 0.706496,-0.250609 0.849857,-0.03845 0.6363,0.941669 -0.727223,1.903959 -1.252918,2.406423 -0.492262,0.470508 -1.002824,0.921489 -1.504236,1.382233 -4.362878,3.819976 -8.918775,7.41125 -13.399855,11.090162 -4.713067,3.916262 -9.095707,8.200987 -13.437312,12.518119 -2.040467,2.030009 -4.092611,4.077945 -5.867892,6.350219 -0.07729,0.12278 -0.154574,0.24556 -0.231861,0.36834 -0.01507,-0.05811 0.01,-0.198018 -0.0452,-0.174332 -1.543841,0.662904 -2.991568,1.544468 -4.558394,2.151053 -0.351979,0.136266 0.587597,-0.474239 0.871008,-0.72351 1.275297,-1.121675 2.523548,-2.273757 3.791553,-3.403669 8.259657,-7.383113 16.120522,-15.197822 23.924509,-23.056472 4.959561,-4.969531 9.686155,-10.165044 14.672404,-15.108314 2.328647,-2.444893 4.91654,-3.767589 7.974914,-5.433653 0.125019,-0.06811 0.315541,-0.148268 0.423483,-0.05544 0.176599,0.151868 0.176167,0.431244 0.264251,0.646866 -0.14517,0.240252 -0.249258,0.510743 -0.43551,0.720757 -0.333248,0.375763 -0.733887,0.686003 -1.108638,1.02039 -1.21881,1.087538 -3.192076,2.774903 -4.349745,3.751367 -1.360366,1.147433 -5.882721,4.904844 -7.079411,5.900293 -10.255939,8.605031 -19.278642,18.523512 -28.017698,28.628083 -3.245118,3.913509 -6.525532,7.801446 -9.689018,11.782024 -1.718543,2.162423 -3.348132,4.392695 -5.04555,6.571414 -0.42699,0.54517 -1.204745,1.51566 -1.636574,2.13633 -0.08779,0.12619 -0.172719,0.53708 -0.235267,0.39665 -0.106057,-0.2381 0.317805,-0.84213 0.06483,-0.77929 -1.15998,0.28816 -2.203749,2.18346 -3.226324,1.56465 -0.897936,-0.54339 1.567502,-1.39613 2.351252,-2.09419 8.814172,-8.260742 17.137435,-17.033067 25.377647,-25.86148 4.910813,-5.186958 9.604262,-10.584778 14.6372,-15.655615 2.780924,-2.8899 2.595934,-2.778052 7.433033,-4.317746 0.311803,-0.09925 -0.53027,0.383538 -0.795405,0.575308 -4.946611,3.375955 -9.75335,6.944523 -14.43479,10.678295 -4.34139,3.56644 -8.220902,7.646607 -11.894859,11.885495 -1.403502,1.545352 -2.528226,3.319567 -4.000521,4.803178 -1.621619,0.590775 -3.188787,1.36068 -4.864858,1.772326 -0.237584,0.05835 0.193614,-0.451828 0.325982,-0.657571 0.181377,-0.281919 0.394459,-0.542887 0.610993,-0.798796 1.160559,-1.371591 2.46741,-2.631196 3.726352,-3.909609 2.899163,-2.916442 6.055838,-5.550027 9.18516,-8.210801 2.18938,-1.809279 4.619463,-3.050457 7.193211,-4.357866 0.301142,-0.152974 0.783366,-0.05789 0.966955,0.246063 0.108727,0.180008 0.104179,0.407486 0.156269,0.611229 -0.08216,0.259357 -0.138275,0.528457 -0.246484,0.778071 -0.146703,0.338413 -0.971007,1.775765 -1.119528,2.020487 -0.798488,1.315678 -1.671932,2.588482 -2.533277,3.863169 -1.245731,1.635773 -2.294455,3.437021 -3.664095,4.976056 -1.5939,1.458994 -1.238057,1.178112 -5.234583,2.896666 -0.140541,0.06043 -0.415391,-0.503778 -0.443925,-0.947195 -0.03691,-0.573559 0.165339,-1.227678 0.287566,-1.763834 0.126213,-0.446705 0.228455,-0.900888 0.378638,-1.340114 0.428183,-1.252268 0.798254,-1.938054 1.348834,-3.151725 0.672997,-1.483521 1.305105,-2.979726 2.012349,-4.447383 0.356669,-0.663483 1.2246,-2.552795 1.93014,-2.938196 5.085014,-2.77769 3.761479,-3.94905 5.397634,-2.19483 0.05736,0.180281 0.153835,0.352539 0.172075,0.540843 0.121502,1.254327 -1.097442,3.197627 -1.667435,4.260865 -1.095136,2.00008 -2.347377,3.906307 -3.456307,5.899211 -0.138988,0.227021 -0.277975,0.454041 -0.416963,0.681062 0,0 -4.906161,2.154134 -4.906161,2.154134 v 0 c 0.149377,-0.21782 0.298754,-0.43564 0.448131,-0.65346 1.098862,-2.006518 2.387285,-3.900106 3.484968,-5.906263 0.610684,-1.126412 1.690376,-2.820629 1.736074,-4.119284 -1.679733,-0.786358 -0.213505,-0.05022 4.212552,-2.668785 0.158065,-0.09351 -0.327861,0.173269 -0.465249,0.295146 -0.750933,0.666157 -1.206506,1.611499 -1.668904,2.477045 -0.752415,1.458941 -1.377837,2.957017 -2.056166,4.451095 -0.450655,0.992605 -0.984847,2.012608 -1.338201,3.049687 -0.144486,0.424062 -0.229018,0.866239 -0.343527,1.299358 -0.132578,0.569413 -0.252845,0.980779 -0.312774,1.54161 -0.21284,1.991839 6.272536,-3.405081 -4.426358,2.839453 -0.115357,0.06733 0.235179,-0.126696 0.352769,-0.190044 0.592799,-0.544275 1.004825,-1.123625 1.483595,-1.769171 0.782312,-1.054825 1.593442,-2.088919 2.340365,-3.170506 1.393138,-2.035802 2.745982,-4.096156 3.902701,-6.277332 0.317496,-0.358135 -0.425769,0.0293 -0.507388,-0.01403 1.278741,-0.765746 2.557482,-1.531491 3.836224,-2.297237 0.683202,-0.404144 -2.984966,1.793105 -1.958558,1.354599 -3.162949,2.65174 -6.367905,5.261616 -9.27899,8.195619 -1.215897,1.250746 -2.449681,2.48963 -3.602448,3.799944 -0.206353,0.234556 -0.405412,0.475547 -0.601025,0.719132 -0.127399,0.158641 -0.190842,0.386646 -0.367726,0.487191 -1.646123,0.935695 -3.368932,1.729535 -5.053397,2.594302 1.753415,-1.103514 2.77685,-3.411161 4.272148,-4.807338 3.733732,-4.280124 7.67152,-8.402483 12.039743,-12.04405 4.578043,-3.68077 9.274073,-7.211 14.106455,-10.552211 2.078272,-1.779659 0.537283,-0.587114 5.885344,-2.658662 0.114306,-0.04428 -0.219764,0.111031 -0.318919,0.183104 -0.202974,0.147533 -0.395016,0.30985 -0.584922,0.473862 -0.863671,0.745905 -0.977666,0.897732 -1.844832,1.769566 -5.283292,5.076591 -10.124816,10.595586 -15.205334,15.870102 -8.186208,8.699314 -16.390506,17.39409 -24.952735,25.725703 -2.976457,2.805348 -3.394909,3.451938 -8.029607,5.804308 -0.256464,0.13017 -0.629799,-0.14195 -0.767333,-0.39454 -0.08993,-0.16517 0.1797,-0.33146 0.28851,-0.48485 0.224847,-0.31697 0.468497,-0.62029 0.710907,-0.92404 0.343899,-0.43092 0.698548,-0.85315 1.047822,-1.27973 1.801266,-2.205058 3.506315,-4.483665 5.305572,-6.690464 3.274251,-4.015888 6.664113,-7.938056 9.980217,-11.918987 8.731325,-10.026608 17.652774,-19.946468 27.774514,-28.608259 1.409651,-1.18704 5.345568,-4.494132 6.878976,-5.811102 1.742714,-1.496733 3.409962,-3.083777 5.166685,-4.563286 0.164011,-0.138131 0.339267,-0.262329 0.508901,-0.393494 0.101644,0.0746 0.305628,0.09773 0.304933,0.223812 -6.15e-4,0.111537 -0.402485,0.190825 -0.306903,0.133336 1.312227,-0.789259 2.626423,-1.575883 3.959139,-2.330029 0.284437,-0.160955 -0.550439,0.35353 -0.812174,0.54925 -0.926394,0.692741 -1.244562,1.037473 -2.130965,1.860189 -5.200963,4.958901 -10.070393,10.249005 -15.173328,15.306551 -7.73537,7.757086 -15.490975,15.501569 -23.545664,22.928965 -0.717809,0.655842 -1.442295,1.304451 -2.153428,1.967527 -0.473096,0.441125 -0.930989,0.89829 -1.398988,1.34482 -0.254251,0.242587 -0.461465,0.550194 -0.767735,0.722506 -1.682576,0.946638 -3.384647,1.874774 -5.167073,2.616491 -0.132787,0.05526 -0.198663,-0.242907 -0.191679,-0.386563 0.0082,-0.168933 0.154937,-0.300696 0.232405,-0.451044 0.620398,-0.818072 1.313621,-1.544743 2.000855,-2.307209 1.309799,-1.453183 2.639407,-2.883338 4.081148,-4.210426 4.389517,-4.30725 8.763131,-8.641234 13.486495,-12.588218 4.435968,-3.6489 8.94195,-7.215443 13.262484,-11.001755 0.136975,-0.127825 2.065319,-1.922687 2.407091,-2.255846 0.15469,-0.150793 0.251564,-0.378818 0.448332,-0.467979 0.09818,-0.04449 0.241354,0.03775 0.29571,0.130831 0.114992,0.196909 -1.278034,-0.226131 -0.644967,0.228005 7.973276,-4.686 3.658087,-2.234558 1.986489,-1.060738 -0.694066,0.487383 -1.426716,1.140108 -2.063822,1.681546 -4.337986,3.839395 -8.354878,8.034434 -12.257065,12.310819 -4.894171,5.52095 -9.705384,11.114136 -14.375525,16.826162 -0.252568,0.330906 -0.503166,0.663325 -0.757703,0.992717 -0.126477,0.163672 -0.203017,0.38866 -0.3853,0.486424 -6.258644,3.356696 -5.709547,3.954161 -4.676413,1.545419 0.455429,-0.812608 0.995349,-1.489261 1.546522,-2.238003 0.916539,-1.245074 1.80347,-2.51212 2.776628,-3.715965 1.426421,-1.857234 2.874544,-3.706814 4.379399,-5.501456 1.368631,-1.632187 2.504825,-2.837869 3.905578,-4.455703 0.680476,-0.785933 1.344777,-1.585726 2.017166,-2.378589 4.079869,-4.396027 8.402595,-8.592883 13.232365,-12.168347 0.301909,-0.240789 3.285716,-2.624924 3.714711,-2.951244 0.473992,-0.360547 0.940949,-0.733938 1.446891,-1.048082 1.880927,-1.167884 3.791041,-2.288658 5.708831,-3.394967 0.258884,-0.149341 0.518067,-0.366781 0.816924,-0.369521 0.214739,-0.002 0.357473,0.238075 0.536209,0.357113 0.02839,0.09692 0.169547,0.23527 0.08517,0.290768 -0.6716,0.441723 -12.308242,7.059475 -1.473593,0.845435 0.125144,-0.07177 -0.235402,0.166839 -0.353104,0.250259 -1.170887,0.693952 -2.002432,1.803733 -2.903461,2.802006 -3.116386,4.37817 -5.942093,8.956517 -8.786283,13.513146 -8.305071,13.579717 -16.101336,27.462369 -23.78897,41.398819 -1.418662,2.58542 -5.840275,10.58878 -7.357355,13.54455 -0.764913,1.4903 -1.474447,3.00865 -2.180315,4.52781 -0.409383,0.88106 -0.462066,2.00092 -1.164889,2.67168 -7.296299,6.96339 -5.858909,4.64778 -4.734036,2.64263 2.206726,-4.83875 4.187508,-9.77844 6.253343,-14.67779 4.356959,-10.5491 8.617072,-21.14116 13.355107,-31.527607 1.267411,-2.929517 1.99871,-4.51564 3.093171,-7.393783 0.291085,-0.765477 0.553757,-1.541563 0.815979,-2.317401 0.288356,-0.853162 0.626341,-1.622226 0.416251,-2.519691 -0.184008,-0.04899 -0.06964,-0.04179 -0.333846,0.08211 1.41875,-0.831659 2.837499,-1.663318 4.256249,-2.494977 0.1413,-0.08184 -0.281039,0.167832 -0.410388,0.267494 -1.043314,0.80386 0.31832,-0.110914 -0.82262,0.627955 -1.22597,1.169581 -2.425827,2.393302 -3.340885,3.828439 -1.86556,3.04749 -3.234,6.351132 -4.522074,9.677377 -1.940688,5.226999 -3.654504,10.53929 -5.03159,15.944284 -1.769646,7.26111 -3.430614,14.58716 -3.998248,22.05745 -0.09223,4.33853 -0.03869,8.67792 0.03329,13.0167 0.03137,1.05366 0.03368,1.54486 0.106453,2.56046 0.01679,0.23433 0.25532,0.55933 0.06827,0.70147 -5.97884,4.54368 -4.749286,4.24893 -4.558126,1.66639 0.03087,-3.01335 0.06313,-6.02668 0.0732,-9.04021 0.01413,-3.96738 0.0026,-7.93466 -0.03316,-11.90192 -0.02897,-2.35053 -0.0075,-4.7133 -0.323973,-7.04745 -0.101343,-0.51053 -0.171431,-1.05298 -0.393503,-1.53336 -0.06084,-0.13161 -0.136359,-0.26618 -0.250501,-0.35559 -0.07655,-0.06 -0.365502,-0.01 -0.284705,-0.0636 8.594111,-5.75541 5.121091,-3.23041 3.805215,-2.26655 -0.681538,0.91692 -0.897122,1.53501 -1.318709,2.59987 -0.487749,1.23199 -0.92327,2.47832 -1.198755,3.77837 -0.619259,2.42705 -1.186551,4.87549 -1.155112,7.39702 0.0078,1.70139 -0.0017,3.40288 -0.02908,5.10409 -0.04247,3.3184 -0.06419,6.63782 0.05691,9.95512 0.240287,5.85589 0.704518,11.71126 1.868101,17.46612 0.925262,4.37554 1.822853,8.78229 3.49478,12.94792 0.118194,0.25048 0.216166,0.51155 0.354584,0.75145 0.04403,0.0763 0.259252,0.13674 0.186848,0.18694 -1.418591,0.98347 -2.932391,1.82197 -4.398586,2.73295 0.06793,-0.095 0.172155,-0.17254 0.203783,-0.28495 0.08744,-0.31075 0.07113,-1.32916 0.07347,-1.5725 0.03792,-3.0948 0.06738,-6.18974 0.06742,-9.28482 3.3e-4,-3.65288 0.0022,-7.3059 -0.05318,-10.95848 -0.04433,-2.57265 -0.07634,-5.16218 -0.526811,-7.70284 -0.205863,-0.9056 -0.65442,-2.85023 -1.360717,-3.51979 -0.103955,-0.0985 -0.241317,-0.15441 -0.361975,-0.23161 -1.743099,-0.4323 -4.556216,2.38966 3.373073,-2.46103 0.165734,-0.10139 -0.360174,0.15027 -0.52512,0.25293 -0.457945,0.28503 -0.488476,0.40313 -0.815781,0.82549 -0.249789,0.46573 -0.370202,0.60332 -0.46874,1.12871 -0.22824,1.21695 0.02881,2.49424 -0.06027,3.71859 0.07305,3.4273 0.244829,6.86467 0.912902,10.23587 0.772398,3.44051 1.838444,6.80831 3.222389,10.05457 1.08563,2.25318 2.383707,4.46384 4.187254,6.22187 0.239994,0.17091 0.466472,0.36259 0.719981,0.51272 1.153833,0.68331 2.551854,0.93849 3.84518,1.2003 0,0 -4.405516,3.13419 -4.405516,3.13419 z"
   inkscape:connector-curvature="0" /><path
   style="fill:#eb1a1a;fill-opacity:1"
   id="path3821"
   d="m 76.940936,47.587581 c 0.202118,-0.03916 0.407236,-0.06517 0.606354,-0.117489 0.839277,-0.220532 1.661079,-0.525619 2.496886,-0.759983 1.985616,-0.556775 0.01443,0.0795 1.936128,-0.567507 1.791636,-0.524039 3.454815,-1.382751 5.187446,-2.059301 1.574578,-0.6309 3.072715,-1.437984 4.651841,-2.056407 0.197141,-0.111971 0.394163,-0.224153 0.591424,-0.335913 1.216652,-0.689307 -0.152573,0.06551 1.057071,-0.532827 0.180514,-0.08929 0.704731,-0.39014 0.530288,-0.289505 -4.924925,2.841135 -5.607469,3.25557 -4.038549,2.307846 0.08381,0.105935 0.166097,0.150411 -0.08816,0.260508 -0.166633,0.07215 -0.356801,0.07124 -0.530119,0.125404 -0.310961,0.09717 -0.621512,0.199027 -0.920703,0.32796 -0.842516,0.363071 -2.090313,1.053926 -2.859154,1.463702 -0.6232,0.364043 -2.513267,1.418624 -1.869601,1.092127 0.88033,-0.446544 1.602566,-1.318518 2.580508,-1.452731 0.840152,-0.115303 -1.435946,0.903909 -2.130181,1.390928 -2.125559,1.491118 -4.05353,3.209844 -5.98459,4.937724 -2.559716,2.253122 -4.869789,4.75453 -6.95783,7.445573 -1.868284,2.501271 -0.372243,1.174666 -5.782133,3.264244 -0.14159,0.05469 0.248694,-0.174153 0.370549,-0.264652 0.198336,-0.147299 0.393281,-0.29911 0.589922,-0.448665 0.24524,-0.204172 0.499118,-0.398393 0.735721,-0.612514 0.655685,-0.593384 1.271816,-1.229092 1.912961,-1.838156 1.249349,-1.186837 2.518397,-2.337992 3.824732,-3.461796 2.764343,-2.376193 5.418051,-4.87629 8.149535,-7.289645 1.328802,-1.368378 2.831908,-2.524217 4.366743,-3.644806 0.03937,-0.0076 0.09213,-0.05336 0.118115,-0.02282 0.241394,0.283639 -1.229168,0.12286 -1.267529,0.126241 -0.215269,0.01898 -0.42553,0.07569 -0.638295,0.113532 -1.742998,0.273674 -3.372901,1.043888 -4.950185,1.808405 -0.278203,0.159261 -0.557114,0.317292 -0.83461,0.477783 -3.842916,2.222567 5.79257,-3.537134 1.871573,-0.967162 -0.314398,0.206069 -0.629503,0.411095 -0.941611,0.620618 -0.30557,0.205133 -0.607568,0.415537 -0.911352,0.623305 -1.767524,1.154867 -3.443766,2.434513 -5.041771,3.812108 -0.869574,0.796365 -2.072748,1.414188 -2.660044,2.480098 -0.498115,0.0013 0.785658,-0.800993 0.512962,-0.651483 -6.219027,3.409691 -4.968914,3.05435 -3.276942,1.754126 0.347238,-0.266841 0.68087,-0.550935 1.021305,-0.826402 3.460561,-3.229722 6.960589,-6.412124 10.546031,-9.503687 3.054651,-2.645418 6.288657,-5.05878 9.637446,-7.315271 3.101887,-2.029523 6.355981,-3.80928 9.559139,-5.669905 1.173666,-0.681749 -4.724181,2.675025 -3.532132,2.025955 1.961582,-1.068079 3.89405,-2.188781 5.841075,-3.283172 1.67115,-0.92721 3.4261,-1.728489 5.2785,-2.211993 1.04062,-0.497433 2.10493,-0.87402 3.26566,-0.898673 0.0982,0.0092 0.20965,-0.02259 0.2946,0.02753 0.38721,0.228437 0.31966,0.8617 -0.0393,1.076904 -4.24635,2.545479 -3.63316,2.235947 -6.10476,3.368203 -1.71829,0.864992 -3.571489,1.431467 -5.304704,2.262191 -0.831976,0.398763 -2.317728,1.264941 -3.112952,1.718276 1.040532,-0.599088 2.064798,-1.227359 3.121595,-1.797265 0.544743,-0.293767 -1.062729,0.635012 -1.584277,0.968225 -1.752948,1.119943 -3.44021,2.353451 -5.141059,3.550364 -1.58976,1.163182 -2.98704,2.546399 -4.243908,4.056205 -0.351753,0.475487 -0.740027,0.921857 -1.122327,1.372533 0,0 -5.02735,2.145439 -5.02735,2.145439 v 0 c 0.363921,-0.473955 0.79838,-0.871372 1.119565,-1.379019 0.353268,-0.428684 0.68158,-0.878439 1.051344,-1.292979 0.947197,-1.0619 2.047392,-1.989483 3.137884,-2.896676 4.165342,-2.956073 8.355105,-5.86132 12.940077,-8.162162 1.156052,-0.643257 1.951832,-1.114375 3.151412,-1.670121 1.74212,-0.807091 3.57499,-1.414028 5.29253,-2.277552 2.46499,-1.168107 -0.0436,-0.009 -3.26799,2.013976 -0.11355,0.07125 0.25933,-0.09064 0.39323,-0.08429 0.12937,0.0061 0.42059,0.160391 0.3122,0.231284 -0.0735,0.04806 -0.17528,0.01054 -0.26292,0.01581 -1.12293,0.155294 -2.14187,0.59931 -3.19954,0.986369 -1.818968,0.56543 -3.545952,1.377308 -5.212785,2.295646 5.578705,-3.321303 4.500435,-2.661346 -2.293236,1.276723 -1.162339,0.67377 2.320974,-1.353947 3.48584,-2.023336 0.393704,-0.226241 -0.78375,0.458848 -1.172285,0.693854 -0.392274,0.237269 -2.192512,1.357769 -2.533084,1.569416 -3.361288,2.227919 -6.602633,4.622061 -9.662087,7.253427 -3.590294,3.087847 -7.125986,6.234343 -10.541179,9.515693 -2.703991,2.25063 -2.698982,2.110562 -7.082116,4.5298 -0.243416,0.134352 -0.595413,0.19243 -0.845514,0.02281 -0.125057,-0.08481 -0.194225,-0.231529 -0.291338,-0.347294 -0.01084,-0.12368 -0.06031,-0.250037 -0.03251,-0.371039 0.189726,-0.825975 1.874174,-1.986859 2.519013,-2.493497 1.597919,-1.385126 3.231362,-2.728929 5.019964,-3.866694 3.251749,-2.276067 6.674975,-4.296604 10.179451,-6.159004 1.61773,-0.737333 3.270401,-1.48106 5.057748,-1.668701 0.747323,-0.04597 2.045733,-0.218218 2.441363,0.642723 0.05213,0.11343 0.02428,0.248484 0.03642,0.372726 -0.709112,0.600809 0.03324,-0.0042 -0.934937,0.685614 -0.845699,0.602542 -1.656567,1.238634 -2.417491,1.945979 -0.347259,0.322807 -0.683602,0.657159 -1.025403,0.985738 -2.743339,2.401705 -5.390939,4.909609 -8.146241,7.297762 -2.240906,1.888414 -4.357418,3.909158 -6.459042,5.94833 -2.448032,1.743866 -0.302808,0.680709 -6.144597,2.952991 -0.08006,0.03114 0.0689,-0.157699 0.111008,-0.232576 0.299194,-0.532066 0.343655,-0.548297 0.753399,-1.095626 2.038864,-2.746083 4.370735,-5.256762 6.918031,-7.540528 1.923185,-1.743787 3.842394,-3.495382 5.954165,-5.0139 2.60225,-1.871209 6.592966,-4.032989 8.888799,-5.367193 0.625038,-0.363236 1.256002,-0.716177 1.884003,-1.074266 0.904357,-0.463133 3.418993,-1.951138 4.543195,-1.604332 0.463424,0.142962 0.46027,0.318126 0.608169,0.675847 -0.04011,0.108939 -0.02199,0.265113 -0.120325,0.326817 -2.366184,1.484812 -4.816938,2.854059 -7.329121,4.078995 -1.557889,0.669231 -3.078524,1.423451 -4.653448,2.054366 -1.71916,0.721116 -3.419974,1.497696 -5.212321,2.027453 -2.071824,0.63376 0.153472,-0.03625 -1.940886,0.56136 -0.841321,0.240064 -1.683099,0.547914 -2.549397,0.690914 -0.214931,0.03548 -0.434026,0.03791 -0.651039,0.05687 0,0 4.422086,-3.212834 4.422086,-3.212834 z"
   inkscape:connector-curvature="0" /><path
   style="fill:#eb1a1a;fill-opacity:1"
   id="path3823"
   d="m 109.68411,33.174919 c 0.21192,-0.05713 0.4232,-0.116662 0.63575,-0.171393 0.70748,-0.182175 1.42722,-0.293009 2.13623,-0.464412 0.12687,-0.03067 0.48078,-0.190783 0.37412,-0.115551 -1.5475,1.091557 -3.14089,2.116579 -4.71133,3.174869 -3.53537,0.190116 -6.91862,1.375554 -10.299245,2.328031 -5.955188,1.758839 -11.676827,4.197833 -17.344704,6.710768 -1.730799,0.775445 -3.407975,1.647117 -5.056488,2.58122 -0.389531,0.220722 -1.558532,0.882142 -1.17035,0.659056 1.222101,-0.702335 4.88681,-2.811924 3.672138,-2.096819 -1.84433,1.085798 -3.707478,2.139308 -5.561217,3.208962 8.954326,-6.184413 4.820368,-2.84155 3.656065,-2.064814 -0.03808,0.0254 -0.08953,0.10315 -0.119151,0.06825 -0.26451,-0.311707 0.583733,-0.342799 1.011488,-0.434341 0.858629,-0.346592 1.753556,-0.599052 2.609961,-0.951139 0.70376,-0.289331 1.38919,-0.621384 2.084863,-0.929652 3.1061,-1.376384 6.189369,-2.790488 9.265084,-4.233832 6.314904,-3.033351 12.744406,-5.832308 19.206856,-8.53622 2.87434,-1.065608 5.7499,-2.15565 8.69552,-3.013041 2.20591,-0.59803 1.14477,-0.295022 3.18504,-0.903371 2.09946,-0.580969 4.17912,-1.247344 6.33273,-1.599503 1.44892,-0.29797 2.95454,-0.124584 4.39413,-0.45338 0.0367,-0.03927 0.15558,-0.146467 0.1101,-0.117813 -1.67345,1.054407 -3.2547,2.264152 -4.9984,3.197818 -0.26595,0.142406 -0.60273,-0.02814 -0.90428,-0.03723 -0.40227,-0.01212 -0.80467,-0.01998 -1.20707,-0.02639 -1.85011,-0.02947 -1.37467,-0.01832 -3.46915,0.02351 -3.39553,0.08603 -6.80042,0.245278 -10.16948,0.698748 -2.10411,0.28321 -3.5466,0.561619 -5.64844,0.933481 -5.50723,0.957407 -10.832192,2.598991 -16.162281,4.236058 -2.842566,0.898883 -5.667979,1.904299 -8.317004,3.282858 9.237148,-6.311427 4.992644,-2.882469 3.76807,-2.12199 -0.04409,0.02738 -0.09256,0.09618 -0.138265,0.07159 -0.434987,-0.233987 0.555345,-0.167531 0.631705,-0.165737 2.002457,0.164332 3.976055,-0.11309 5.955664,-0.372584 4.46892,-0.802612 8.858621,-2.019181 13.253671,-3.153456 5.57221,-1.363142 11.21682,-2.362052 16.91436,-3.009776 1.55676,-0.172003 3.11984,-0.265796 4.68325,-0.348361 0,0 -4.40403,3.237542 -4.40403,3.237542 v 0 c -1.55707,0.09233 -3.11371,0.195887 -4.66385,0.374587 -5.68243,0.674501 -11.31348,1.690302 -16.86952,3.069155 -4.4052,1.129557 -8.802251,2.368647 -13.294407,3.099583 -2.003198,0.25401 -4.01398,0.483103 -6.033923,0.265016 -0.171258,-0.03366 -0.348948,-0.04359 -0.513774,-0.100986 -0.586987,-0.204412 -0.899265,-0.857758 -0.275625,-1.229804 1.736313,-1.035834 3.502941,-2.019986 5.254412,-3.029979 2.694213,-1.306673 5.510854,-2.337303 8.373506,-3.211027 5.334333,-1.643884 10.691741,-3.2336 16.203861,-4.181579 2.16419,-0.373855 3.50387,-0.630913 5.66872,-0.906388 3.38131,-0.430269 6.79514,-0.578637 10.20012,-0.657138 1.56766,-0.02086 3.13313,-0.04261 4.69981,0.03549 0.30898,0.0154 1.12248,-0.171458 0.92564,0.06719 -2.73257,3.31286 -2.11652,3.22584 -3.9373,3.369027 -1.45945,0.198539 -2.94571,0.158091 -4.39505,0.452167 -2.13191,0.410719 -4.20799,1.060259 -6.296,1.647663 -3.99849,1.167271 -7.98502,2.377619 -11.84336,3.96409 -6.454203,2.719704 -12.882664,5.513532 -19.193104,8.553582 -3.761026,1.758502 -7.518587,3.594444 -11.381985,5.122825 -1.167953,0.462049 -1.549117,0.543281 -2.67813,0.86191 -0.347061,0.02445 -0.883233,0.139411 -1.226492,-0.08008 -0.432356,-0.276458 -0.522057,-0.817247 -0.0496,-1.105056 1.760663,-1.072559 3.569808,-2.063429 5.354711,-3.095144 -1.262555,0.732409 -5.046602,2.935841 -3.787666,2.197227 3.909112,-2.293466 7.78543,-4.669444 11.938333,-6.506239 5.678258,-2.508943 11.422205,-4.915494 17.392413,-6.649658 2.98007,-0.84104 6.53787,-2.086863 9.66256,-2.168449 0.26152,-0.0068 0.52251,0.02724 0.78377,0.04086 -1.36811,1.095116 -2.70271,2.23346 -4.10433,3.285349 -0.10762,0.08077 -0.26198,0.06164 -0.39348,0.09017 -0.91806,0.199195 -1.84136,0.383281 -2.73261,0.687097 0,0 4.31644,-3.353427 4.31644,-3.353427 z"
   inkscape:connector-curvature="0" /><path
   style="fill:#eb1a1a;fill-opacity:1"
   id="path3825"
   d="m 180.9568,91.513795 c -1.09515,-0.137244 -2.21014,-0.07558 -3.30587,-0.185191 -0.72405,-0.07243 -1.43941,-0.215078 -2.16058,-0.312107 -3.67491,-0.669211 -7.04736,-2.266083 -10.35878,-3.926212 -4.28206,-2.267771 -8.27939,-5.02266 -12.21884,-7.831782 -1.41058,-0.950436 -2.69411,-2.184339 -4.24989,-2.912514 -0.0866,-0.04053 -0.1828,-0.05614 -0.27419,-0.08422 3.7617,-0.0862 7.5234,-0.172405 11.2851,-0.258608 0.54738,1.666124 1.27562,3.28384 1.95844,4.904273 0.43003,1.448615 1.00908,2.853463 1.44852,4.298261 0.58193,1.913295 0.99897,3.884985 1.52018,5.815718 0.99254,3.587466 1.86037,7.20053 2.58129,10.852057 1.03641,5.84992 1.07582,3.35068 -11.14144,2.95308 -0.3144,-0.0102 -0.33606,-0.53262 -0.48257,-0.81099 -0.21563,-0.40972 -0.4019,-0.83424 -0.60285,-1.25136 -0.27042,-0.64617 -0.56609,-1.28235 -0.81125,-1.93852 -2.70763,-7.246967 -4.35126,-14.888212 -5.97091,-22.430875 -2.17216,-12.139172 -3.93445,-24.349292 -5.2752,-36.607519 -0.28786,-2.981122 -0.66416,-5.96208 -0.6159,-8.963055 0.017,-1.058002 0.0918,-1.862752 0.54675,-2.797129 3.82907,0.0096 7.67369,-0.316058 11.48722,0.02877 0.35037,0.03168 0.15585,0.686161 0.22774,1.030536 0.87124,4.173134 0.7234,8.546576 0.78567,12.778275 -0.18946,13.041186 -0.82119,26.068994 -1.30529,39.100885 -0.42173,11.352982 -0.40926,11.680652 -0.74156,23.011132 -0.34294,10.85759 -0.40033,21.72087 -0.59009,32.58126 -0.16364,9.3653 -0.44066,18.72937 -0.67687,28.09304 -0.24178,9.89991 -0.45575,19.80069 -0.58294,29.7028 -0.11789,1.23593 -0.0176,2.53258 -0.45347,3.71994 -0.0702,0.19134 -0.0579,0.54833 -0.26173,0.55264 -11.48351,0.24313 -9.84127,3.10829 -11.83112,-1.0014 -2.48517,-6.52291 -3.09951,-13.57836 -4.03936,-20.43859 -2.27792,-18.99863 -3.01098,-38.13526 -3.5576,-57.24805 -0.16561,-9.04803 -0.45934,-18.10086 -0.22572,-27.150107 0.10559,-2.26798 -0.0403,-4.643444 0.92525,-6.754149 1.84286,-3.797368 11.57234,-4.042713 11.84315,0.407178 0.0839,1.378499 -0.47553,2.830002 -0.8539,4.113483 -1.63847,5.223018 -3.65699,10.314255 -5.79555,15.349465 -1.44006,3.25575 -2.8109,6.55693 -3.68913,10.01268 -0.30607,1.25072 -0.62764,2.4985 -0.87867,3.76192 -0.17186,0.86495 -0.29011,1.6793 -0.59935,2.50624 -3.86496,0.20834 -7.72836,0.80215 -11.59487,0.62503 -0.43208,-0.0198 -0.38204,-0.77737 -0.53799,-1.18082 -0.22943,-0.59356 -0.42588,-1.19965 -0.61679,-1.80671 -0.74726,-2.37616 -1.37978,-4.64204 -1.87956,-7.10263 -0.37627,-1.85247 -0.64805,-3.72464 -0.97208,-5.58696 -2.36573,-14.730925 -3.0706,-29.655837 -3.6546,-44.543099 -0.064,-2.846774 -0.18912,-7.361008 -0.17412,-10.321577 0.0137,-2.694936 0.0256,-5.492873 0.68236,-8.129151 0.1101,-0.441964 0.287,-0.864551 0.4305,-1.296827 0.16779,-0.299527 0.30755,-0.616579 0.50337,-0.898582 2.30558,-3.32029 8.07464,-0.820591 12.11145,-0.610499 0.18312,0.0095 0.80118,1.513561 0.81283,1.548355 0.12664,0.378358 0.19953,0.77263 0.2993,1.158946 1.13088,8.339426 1.2414,16.773087 1.44993,25.173098 0.25181,12.730656 0.98478,25.442321 1.56785,38.160096 0.24054,5.43902 0.44735,10.87988 0.55252,16.32333 -0.7604,-0.38837 0.39534,1.13522 0.0184,1.13084 -3.76905,-0.0438 -7.56952,0.0558 -11.29651,-0.5074 -0.39124,-0.0591 0.063,-0.78994 0.12964,-1.17996 0.26844,-1.56969 0.75922,-3.32549 1.14197,-4.83156 2.94024,-10.50269 7.09267,-20.599097 11.09859,-30.725068 2.39581,-5.977677 4.72274,-11.993497 7.56542,-17.777255 0.77847,-1.833413 1.88016,-3.440339 3.2217,-4.895302 0.18092,-0.186146 0.35517,-0.379022 0.54276,-0.558439 0.0584,-0.05588 1.28832,-1.114875 1.3742,-1.105293 11.42988,1.275277 13.34943,-1.298908 10.47876,2.063857 -2.49769,2.221617 -5.39249,3.934612 -8.07887,5.912173 -1.0476,0.771178 -2.07278,1.572335 -3.10917,2.358503 -5.01337,3.833247 -10.03678,7.666963 -14.71149,11.91274 -0.48172,0.475522 -1.18397,1.126517 -1.62568,1.688726 -0.0748,0.09523 -0.29454,0.34268 -0.17602,0.317821 0.18452,-0.0387 0.24562,-0.320257 0.42733,-0.370531 0.34524,-0.09552 0.71549,-0.04571 1.07369,-0.04476 0.64787,0.0017 1.29526,0.03513 1.94289,0.0527 -2.75933,-0.01792 -5.51975,0.02568 -8.27799,-0.05375 -1.17581,-0.03386 2.35202,-0.05194 3.52791,-0.08304 5.46128,-0.144459 10.92336,-0.283845 16.38242,-0.494687 6.3916,-0.341846 12.76491,-1.14179 19.06045,-2.294016 1.23777,-0.257895 1.73735,-0.320668 2.85999,-0.681692 0.19466,-0.0626 0.37152,-0.280215 0.56934,-0.228425 0.11804,0.0309 0.0227,0.278201 -0.0682,0.359629 -0.23075,0.206778 -0.51345,0.395377 -0.82051,0.436773 -0.61621,0.08307 -1.24256,-0.04992 -1.86385,-0.07488 -7.11699,-0.241283 -14.23974,-0.239146 -21.36003,-0.251662 -8.13931,4.83e-4 4.10598,-0.009 6.15894,2.02e-4 0.57011,0.0026 -1.14048,0.0063 -1.71004,0.03123 -0.83041,0.03642 -1.62554,0.143041 -2.43732,0.302237 -0.0346,0.01998 -0.10552,0.02 -0.10386,0.05993 0.0256,0.618588 0.79523,1.937627 1.03612,2.410425 0.25208,0.494744 0.50136,0.99091 0.75203,1.486365 0.27561,0.540439 0.55121,1.080878 0.82682,1.621317 1.70808,3.894692 2.94422,7.982416 3.83127,12.139312 0.27828,1.30407 0.49032,2.62141 0.73547,3.93212 1.57256,8.53163 2.36732,17.17182 2.84206,25.82538 0.34454,5.91366 0.17704,11.84079 0.39439,17.75683 0.23679,3.98132 0.29143,7.97157 0.74186,11.93635 0.0803,0.30752 -0.046,0.78594 0.24097,0.92257 0.22197,0.10567 0.65643,-0.58545 0.412,-0.6117 -3.52217,-0.37826 -7.19956,0.45127 -10.61624,-0.48418 -0.75582,-0.20693 0.60078,-1.44812 0.86825,-2.1847 1.12259,-3.09154 1.46366,-4.40792 2.45547,-7.69664 2.08505,-7.75197 4.15638,-15.51005 6.06679,-23.3073 0.5553,-2.42733 1.07701,-4.87407 1.36424,-7.34993 0.2411,-5.82266 0.0452,-11.65778 -0.0411,-17.4832 0.0423,-2.19649 -0.14141,-4.39689 -0.10451,-6.593253 0.006,-0.330954 0.0304,-0.661825 0.0684,-0.990648 0.0212,-0.184063 -0.076,-0.53027 0.10868,-0.545117 3.81057,-0.306321 7.64141,-0.256686 11.46211,-0.385029 0.11368,0.387306 0.24619,0.769576 0.34103,1.161919 0.34451,1.425171 0.5971,2.871008 0.89225,4.307218 0.93511,4.55013 1.76541,9.11356 2.57508,13.68761 2.40117,14.95973 3.33641,30.08757 3.99849,45.20656 0.36713,9.61862 0.54334,19.24334 0.58391,28.86852 -0.0291,2.18058 0.11984,4.39334 -0.28984,6.54895 -0.17066,1.20382 -1.08547,1.92492 -1.87093,2.75527 -1.46767,1.84599 -2.98054,3.65488 -4.42156,5.52202 -3.72269,5.35218 -2.75213,4.47393 -13.9725,2.91931 -0.57699,-0.0799 -0.40894,-1.09086 -0.61341,-1.63629 -2.12339,-7.05457 -3.01847,-14.39325 -3.70943,-21.70352 -0.39659,-4.80556 -0.51267,-9.64825 -0.21789,-14.46399 0.17904,-2.925 0.31815,-3.67358 0.67835,-6.55014 0.8168,-5.01526 2.1095,-9.93253 3.58468,-14.78903 0.83727,-1.99396 1.25648,-4.20427 2.41356,-6.05163 2.58887,-3.38092 10.71125,-3.9947 12.23653,0.15787 0.42641,1.16091 0.40292,2.34437 0.42465,3.56353 -0.12845,3.75349 -0.63071,7.47541 -1.01819,11.20661 -0.24378,2.34748 -0.46398,4.69735 -0.70103,7.04552 -0.83775,8.10692 -1.53706,16.22553 -2.21271,24.3475 -0.5268,5.00386 -0.86865,10.06517 -2.00416,14.97992 -0.37078,1.85355 -1.13665,3.29721 -2.3474,4.71964 -1.37,1.37189 -3.03743,2.34361 -4.85026,2.99557 -0.90558,0.23179 -1.8509,0.48374 -2.7953,0.48072 -12.00136,-0.0384 -8.20612,1.34259 -12.63967,-0.39151 -1.81382,-0.65192 -3.14093,-1.97194 -4.52078,-3.24572 -0.24399,-0.23243 -0.51055,-0.44327 -0.73197,-0.69731 -0.53797,-0.61722 -1.46848,-2.05315 -1.84094,-2.63825 -1.74642,-2.74353 -3.27091,-5.61249 -4.84848,-8.45455 -2.35727,-4.31732 -4.83533,-8.61914 -6.40604,-13.29984 -0.14596,-0.61791 -0.33772,-1.21259 -0.32225,-1.8555 0.099,-4.1169 8.6204,-1.57289 12.51097,-1.53054 0.2145,0.16821 0.44101,0.32213 0.64349,0.50462 0.25409,0.22901 1.93021,1.93444 2.01036,2.01642 1.41956,1.45201 2.73981,2.94673 4.02644,4.51732 2.07514,2.67191 3.95209,5.48388 5.76057,8.33945 0.92085,1.42645 1.5747,2.99412 2.38941,4.47816 0.55756,1.16009 1.03964,2.35159 1.79358,3.40084 0.13379,0.58923 0.79772,0.86338 0.98983,1.41527 0.15139,0.43488 0.13755,1.63565 -0.62273,1.66823 -4.40019,0.18855 -8.80448,-0.2647 -13.20671,-0.39705 -1.46125,-0.56715 -2.93875,-1.0941 -4.38375,-1.70145 -5.72036,-2.40435 -9.5689,-4.28125 -15.27817,-7.11261 -9.41285,-4.66805 -18.639905,-9.64968 -27.844999,-14.71081 -2.703216,-1.55538 -5.41406,-3.09759 -8.109648,-4.66616 -7.913368,-4.60481 -15.61444,-9.55925 -23.570528,-14.08848 -3.154811,-1.74232 -6.365852,-3.45623 -9.783361,-4.63018 -1.017671,-0.0763 -1.852809,-0.78363 -2.840874,-0.95326 -0.179341,-0.0308 -0.363671,-0.0137 -0.545507,-0.0206 3.549658,0.0331 7.099316,0.0663 10.648974,0.0994 -0.203579,0.0235 -0.413348,0.0155 -0.610735,0.0706 -0.581721,0.16239 -1.19646,0.54809 -1.692037,0.85767 -1.305299,0.81542 -2.454421,1.75031 -3.6089,2.76406 -2.162653,2.13182 -4.575824,3.99318 -6.770738,6.08868 -0.51874,0.49524 -1.010019,1.01847 -1.515029,1.52771 -3.088311,3.24308 -5.979673,6.68492 -8.446375,10.42675 -0.113883,0.20291 -0.227766,0.40581 -0.34165,0.60871 -0.01316,0.0586 -0.06667,0.22937 -0.03949,0.17581 0.05871,-0.11569 0.07343,-0.25093 0.135447,-0.36489 0.0756,-0.13891 0.431989,-0.38147 0.273945,-0.38738 -9.74059,-0.36427 -14.207381,1.06964 -10.227887,-0.1594 1.073239,-0.4273 1.968553,-1.1926 2.8719,-1.89486 0.391162,-0.30199 0.599417,-0.73195 0.855057,-1.13819 2.385571,-3.79089 5.393285,-0.89771 12.015734,-1.05848 0.862027,1.01214 1.059186,2.35399 1.228802,3.62973 0.144773,1.36019 0.152114,2.72931 0.157266,4.09558 0.01481,0.82949 -0.04481,1.67444 0.09822,2.49739 0.0404,0.23245 0.253595,0.9255 0.31834,1.14354 0.276688,1.30204 1.007806,2.4206 1.569511,3.60608 0.664716,1.00696 1.366206,1.98437 2.006192,3.00712 0.631617,0.90258 1.1873,1.89505 1.988049,2.66429 0.385828,0.43194 0.675602,0.95032 1.044778,1.3927 0.109999,0.13181 0.256144,0.22988 0.369369,0.35893 0.239164,0.27259 0.483966,0.66353 0.682772,0.96259 0.672056,0.95594 1.484841,1.81176 2.098936,2.80916 0.44442,0.95211 1.180982,1.71878 1.781114,2.57191 0.623191,1.03492 1.107552,2.1359 1.554903,3.25582 0.561342,1.04126 1.056751,2.14085 1.412931,3.27102 0.294356,0.5131 0.386012,1.11214 0.613092,1.64989 0.06206,0.14696 0.161142,0.27551 0.234921,0.41695 0.258591,0.49574 0.239618,0.49605 0.442545,1.03391 0.590005,0.97243 0.823926,2.10365 1.363219,3.09787 0.08002,0.17613 0.142928,0.36109 0.240077,0.52839 0.262029,0.45123 0.616551,0.8612 0.877247,1.31809 0.516754,0.90565 -0.004,0.18515 0.563456,0.91357 0.370414,0.46744 0.845744,0.84237 1.236304,1.28994 0.551134,0.63157 0.672005,0.86925 1.386232,1.35058 0.762219,0.73497 1.572621,1.38178 2.48572,1.91742 0.729375,0.72056 1.59042,1.2831 2.480288,1.78917 0.801787,0.64805 1.520489,1.3846 2.346852,2.00763 0.10012,0.12986 0.186359,0.27173 0.300361,0.3896 0.09344,0.0966 0.224141,0.15194 0.317207,0.24891 0.469094,0.48876 0.836588,1.06747 1.26198,1.59375 0.495379,0.78653 1.054303,1.62536 1.851944,2.13402 0.111639,0.12207 0.217041,0.25015 0.334917,0.3662 0.10182,0.10025 0.228565,0.17456 0.323123,0.28168 0.443638,0.5026 0.762523,1.09113 1.22936,1.57384 0.901824,0.94856 1.695394,1.99009 2.551402,2.98324 0.17374,0.19332 0.335301,0.39832 0.521219,0.57996 0.175374,0.17133 0.37349,0.31773 0.560235,0.4766 0.187125,0.17345 0.37999,0.34092 0.561376,0.52037 0.518811,0.51327 0.999734,1.07184 1.495948,1.60678 1.103368,1.23434 2.355531,1.08647 3.819489,1.54273 1.279265,0.39868 2.605932,0.53564 3.937492,0.59825 1.24457,0.22095 2.505018,0.30313 3.765893,0.35465 1.028426,0.41332 2.112944,0.68942 3.223764,0.60855 -26.376517,-0.67708 -11.573149,0.89432 -8.806945,-0.39051 0.605149,-0.28108 0.910554,-0.54526 1.4534,-0.93929 2.053654,-1.45342 3.935795,-3.12734 5.991808,-4.57523 1.732553,-1.20826 3.525206,-2.32875 5.249073,-3.54914 1.214879,-0.90246 2.510809,-1.69531 3.712449,-2.61403 1.19354,-0.97322 2.21923,-2.12547 3.29259,-3.22404 0.50132,-0.56459 1.02343,-1.11045 1.53098,-1.66924 0.11232,-0.12367 0.22256,-0.24928 0.3298,-0.37738 0.0466,-0.0556 0.0689,-0.13677 0.13142,-0.17357 0.0426,-0.025 -0.0425,0.0892 -0.0638,0.1338 -0.42513,0.48705 -1.15223,0.32183 -1.72806,0.31619 -0.48684,-0.005 -0.83833,-0.003 -1.32722,-0.001 -4.15584,0.0237 -0.43306,0.001 9.7613,0.006 0.26039,1.3e-4 -0.52078,0.001 -0.78117,0.002 -0.75474,0.003 -1.50765,0.006 -2.26199,0.0313 -1.56286,0.0869 -2.34758,0.66878 -3.49207,1.65223 -0.98524,0.93794 -2.07336,1.75549 -3.08224,2.66519 -1.11275,0.90169 -2.13903,1.89249 -3.16392,2.89059 -1.78848,1.80073 -3.067162,4.0061 -4.312,6.19562 -1.828746,3.44058 -3.702092,6.87789 -5.268406,10.44926 -0.157165,0.50407 -1.304419,2.74082 -0.462715,3.13906 0.10016,0.0474 0.219125,0.0331 0.328688,0.0496 3.935319,-0.65881 5.893698,-0.11033 -10.032297,-0.17539 -0.119263,-4.9e-4 0.241791,0.0319 0.357768,0.004 0.337367,-0.0809 0.517313,-0.28041 0.775156,-0.4918 0.815746,-0.84639 1.655401,-1.66212 2.410561,-2.56466 0.817835,-0.91992 1.887407,-1.39506 3.061405,-1.67111 1.210556,-0.23021 2.447667,-0.23586 3.67541,-0.24665 3.263865,11.18609 8.30481,-0.61085 12.38832,0.003 0.19674,0.0296 0.37948,0.11975 0.57014,0.17662 0.52878,0.15771 1.04967,0.28688 1.59263,0.38352 0.71076,0.39113 1.50213,0.50341 2.27135,0.70209 0.71389,0.23883 0.35651,0.13493 1.07161,0.31345 0.5625,0.15454 0.77057,0.18556 0.71581,0.87393 -0.0237,0.29817 -0.0502,0.60776 -0.17289,0.88054 -0.0835,0.1855 -0.59592,0.20676 -0.7101,0.22272 -5.22624,0.11655 -10.50265,0.46154 -15.693425,-0.22192 -1.694196,-0.22263 -3.308648,-0.79441 -5.002829,-1.03917 -0.18862,-0.0282 -0.378174,-0.0507 -0.565858,-0.0845 -1.087721,-0.19617 -0.922758,-1.48364 -0.178776,-1.79141 0.10818,-0.0448 0.233149,-0.0216 0.349724,-0.0323 2.077944,1.28454 8.702749,-0.43752 12.734724,0.20458 0.62303,0.0992 1.23234,0.24422 1.85987,0.32855 0.23722,0.0715 0.46988,0.16045 0.71167,0.21451 0.31498,0.0704 0.63911,0.0933 0.95527,0.1582 0.72551,0.14902 1.86798,0.46804 2.55577,0.63596 2.88275,0.70378 0.0788,-0.0432 3.17293,0.808 3.28344,0.82337 6.53907,1.74877 9.84463,2.48219 1.98043,0.5547 4.00354,0.84283 6.05177,0.95872 0.71266,0.23642 1.48859,0.26439 2.20592,0.47274 0.22724,0.066 0.43495,0.18789 0.65918,0.26349 0.48163,0.16239 0.98094,0.25982 1.47562,0.37028 1.71441,0.47568 3.41427,1.01099 5.14365,1.43074 0.75606,0.12837 1.49725,0.32085 2.24599,0.48452 0.0525,0.0115 0.89288,0.1962 0.9373,0.24349 0.0926,0.0985 0.0656,0.2623 0.0984,0.39345 -0.0728,0.40255 -0.0589,0.83091 -0.21834,1.20764 -0.0828,0.19556 -1.91101,0.21195 -2.12969,0.20976 -3.99311,-0.0399 -7.98608,-0.092 -11.97912,-0.13797 -0.3195,-0.0897 -0.63683,-0.18754 -0.95851,-0.26909 -1.2048,-0.3054 -1.12811,-0.19935 -2.40331,-0.63713 -0.52349,-0.17972 -1.03063,-0.40408 -1.54947,-0.59678 -3.99157,-1.4825 0.41843,0.22638 -4.10182,-1.55088 -3.44371,-1.39311 -6.88716,-2.83849 -10.15816,-4.60975 -1.65162,-0.89435 -2.6136,-1.55168 -4.16249,-2.54908 -1.61455,-1.16689 -3.343152,-2.3447 -4.596361,-3.92539 -0.540349,-0.68155 -0.583721,-0.87528 -0.946416,-1.63255 -0.565908,-1.79375 -0.02821,-3.11373 0.936217,-4.62669 1.542324,-2.29773 3.44819,-4.31092 5.26872,-6.38373 1.81858,-2.23856 3.5661,-4.56087 5.01461,-7.05936 0.23596,-0.56871 1.05065,-2.02742 0.85984,-2.67055 -0.048,-0.16191 -0.49502,-0.29768 -0.58191,-0.33258 -3.80674,-0.20521 -9.002175,-0.2945 9.14486,0.0638 0.30989,0.006 -0.61899,0.0391 -0.92676,0.0758 -0.89935,0.10735 -1.11629,0.18447 -2.0174,0.39291 -2.42535,0.72621 -4.28881,2.39362 -6.15798,4.01224 -1.60862,1.37831 -2.92892,3.03238 -4.30449,4.63056 -0.0932,0.11663 -0.18648,0.23327 -0.27972,0.3499 -0.0226,0.0273 -0.0758,0.11625 -0.0678,0.0818 0.0229,-0.099 0.3193,-0.73931 0.31787,-0.73938 -8.526639,-0.40278 -14.499302,0.47938 -10.25576,-0.12794 1.822282,-0.5495 3.543241,-1.3749 5.311644,-2.06898 1.789466,-0.70234 2.833186,-1.06306 4.670296,-1.72533 4.29782,-1.55277 8.65508,-2.92176 13.03496,-4.22089 1.06453,-0.31291 2.14511,-0.5607 3.21428,-0.85569 0.1048,-0.0289 0.27138,-0.18482 0.31483,-0.0852 0.20653,0.4737 -0.27442,0.68697 -0.5286,0.87779 -0.25107,-0.005 -0.50223,-0.006 -0.75322,-0.0141 -0.72281,-0.0228 -2.89139,-0.0743 -2.16822,-0.0745 3.28914,0.0103 6.57828,0.0207 9.86743,0.031 -0.45739,0.01 -0.91515,0.008 -1.37215,0.0289 -0.50257,0.0232 -1.00382,0.0694 -1.50573,0.10402 -3.26457,0.21942 -6.41358,1.14639 -9.57182,1.9356 -1.73973,0.45682 -3.51674,0.87315 -5.16882,1.59911 -0.39742,0.0739 -0.87237,0.50593 -1.28086,0.54499 -0.0244,0.002 -0.0367,-0.0662 -0.013,-0.0725 0.13908,-0.037 0.27208,0.0941 0.40681,0.14471 1.00592,0.72501 2.14887,1.25692 3.10711,2.04118 1.20638,1.45191 1.38419,2.18796 0.53686,3.92682 -1.08451,1.50749 -2.65653,2.56835 -4.18484,3.58477 -1.1772,0.70027 -1.80611,1.25087 -2.13625,2.58924 -0.15351,0.80885 -0.0946,1.64378 -0.35143,2.43515 -0.17658,0.54415 -0.32739,0.7354 -0.61575,1.21544 -0.76329,1.06312 -1.80896,1.85255 -2.81352,2.66971 -0.99961,0.7321 -1.94854,1.51607 -2.819816,2.39654 -0.335394,0.47135 -1.355553,1.06855 -1.450347,1.67827 -0.02666,0.1715 0.310273,0.20018 0.353272,0.21222 1.945001,0.28443 3.932231,0.26619 5.895361,0.29548 2.02781,0.0266 4.07641,0.13482 6.09114,0.38912 0.94116,0.11879 1.87381,0.29801 2.8132,0.43004 2.65174,0.5432 5.27207,1.2176 7.90179,1.85734 0.95741,0.12327 1.84805,0.49625 2.76672,0.76613 0.24573,0.0722 0.49952,0.11684 0.7422,0.19871 0.47494,0.16023 0.93229,0.3692 1.40525,0.53518 0.21606,0.0918 0.42894,0.1915 0.64819,0.27544 0.63637,0.24363 1.26951,0.482 1.87846,0.79467 1.23096,0.63204 -0.0394,0.11316 1.31357,0.61758 1.32201,0.81141 2.84549,1.1499 4.25314,1.75268 1.46888,0.54911 2.93916,1.00709 4.49429,1.22517 2.72537,0.26865 5.46971,0.24965 8.20538,0.26671 0.59051,0.001 1.18102,0.003 1.77152,0.004 0.59853,9.3e-4 1.19706,10e-4 1.79559,10e-4 7.9747,9.1e-4 -13.62373,0.005 -6.20579,-0.003 0.44608,-4.9e-4 0.89215,-10e-4 1.33822,-0.002 1.7455,-0.002 3.49099,-0.005 5.23649,-0.006 4.96661,-0.0229 9.93112,0.0954 14.89773,0.16549 1.07172,0.31576 2.18942,0.37936 3.28484,0.56407 0.5081,0.38476 0.32619,0.18828 0.0562,1.5844 -0.047,0.24285 -0.93184,0.17965 -1.04205,0.1791 -3.93199,-0.0195 -7.86393,-0.0489 -11.79589,-0.0733 -1.8513,-0.2025 -3.7166,-0.22882 -5.57701,-0.25825 -2.72658,-0.0328 -5.45342,-0.0324 -8.18016,-0.0334 -4.81015,4.6e-4 0.68977,-1.2e-4 8.93297,3e-4 0.31475,2e-5 -0.6295,1.6e-4 -0.94425,2.7e-4 -0.78311,2.9e-4 -1.56622,7.4e-4 -2.34933,0.001 -4.69182,0.009 -9.38203,-0.0388 -14.07394,-0.15072 -0.24253,-0.006 -0.47341,-0.10712 -0.71223,-0.14976 -0.25731,-0.046 -0.51701,-0.0773 -0.77551,-0.11588 -1.11563,-0.15151 -2.24112,-0.21925 -3.36557,-0.26213 -0.27658,-0.0106 -0.55535,0.009 -0.82995,-0.0254 -0.24827,-0.0313 -0.48724,-0.11435 -0.73086,-0.17152 -0.64306,-0.1655 -0.96508,-0.4101 -0.93395,-1.1259 0.0188,-0.43314 0.0927,-0.80268 0.4388,-1.0832 0.12216,-0.099 0.28459,-0.13381 0.42689,-0.20071 2.16142,-0.40569 4.40293,-0.2947 6.59518,-0.30567 6.82958,-0.0131 13.65919,-0.005 20.48877,2.5e-4 3.99824,-0.0431 10.72603,0.23688 -7.69237,-0.0395 -0.31996,-0.005 0.63724,-0.0596 0.95512,-0.0964 0.29891,-0.0346 1.40676,-0.18967 1.69871,-0.23008 1.50151,-0.10262 2.96762,-0.37583 4.43678,-0.68521 1.12233,-0.25725 2.1843,-0.69059 3.31808,-0.91575 1.57925,-0.19761 3.15455,-0.41181 4.7187,-0.70981 4.7993,-1.08473 9.67048,-1.80914 14.51304,-2.67045 2.52874,-0.5729 5.14111,-0.69084 7.6709,-1.24107 1.09646,-0.23428 2.08161,-0.76342 3.0376,-1.32847 1.02572,-0.65412 2.1054,-1.20167 3.21046,-1.70725 0.95402,-0.35409 1.84664,-0.8752 2.70094,-1.42555 0.53491,-0.31823 1.02448,-0.69726 1.55852,-1.01883 0.0664,-0.04 0.15626,-0.19016 0.19654,-0.12399 0.0567,0.0932 -0.0524,0.21173 -0.0787,0.3176 -0.11107,0.12877 -0.17681,0.31951 -0.33319,0.3863 -0.22255,0.0951 -0.48205,0.0432 -0.72308,0.0649 3.34234,0.0275 6.68607,-0.0179 10.02702,0.0825 0.48943,0.0147 -0.97709,0.0856 -1.45851,0.17511 -1.30496,0.24249 -2.48022,0.64288 -3.75042,1.02914 -3.83988,1.21147 -7.51244,2.86685 -11.19214,4.48424 -1.8307,0.86453 -3.68416,1.67565 -5.48956,2.59181 -0.43507,0.1749 -1.90735,1.01278 -2.30229,0.92955 0.0291,-0.18668 0.0244,-0.56654 0.23981,-0.70238 0.11422,-0.072 0.25832,-0.086 0.39265,-0.0996 0.41382,-0.042 0.83186,0.008 1.24776,0.0139 -3.43558,-0.0121 -6.87115,-0.0242 -10.30673,-0.0363 4.83994,-0.38583 9.54333,-1.79621 14.19698,-3.10951 4.71338,-1.33608 9.37158,-2.88297 13.79646,-4.99671 1.79907,-0.83998 3.29934,-1.69488 4.65781,-3.14398 0.8047,-0.8124 1.42644,-1.7668 2.02329,-2.73462 0.10955,-0.2149 0.69174,-1.00032 0.5679,-1.2588 -0.0582,-0.12153 -1.25475,0.30025 -0.7514,0.32532 3.43184,0.1709 6.8714,0.10396 10.3071,0.15594 -0.37302,0.0825 -0.75397,0.13506 -1.11907,0.24755 -0.68844,0.21211 -2.17609,0.87255 -2.78773,1.14353 -1.71771,0.761 -3.35327,1.59933 -4.98965,2.52177 -3.98779,2.34755 -7.76135,5.03333 -11.58227,7.63821 -1.2498,0.7831 -2.44814,1.64265 -3.66182,2.47914 -0.42804,0.29502 -0.98288,0.56629 -1.34044,0.95677 -3.72866,-0.3722 -7.47864,-0.57155 -11.18597,-1.11661 -0.18131,-0.0267 0.14052,-0.34172 0.24559,-0.49187 0.13937,-0.19914 0.31021,-0.37519 0.48172,-0.54743 1.09492,-1.0995 2.39534,-2.03364 3.60417,-2.9946 5.86031,-4.22465 11.71054,-8.46203 17.51634,-12.76212 5.04159,-3.58575 10.08679,-7.16767 15.22373,-10.61608 2.35979,-1.55019 4.7903,-3.00138 7.06256,-4.68065 1.12843,-0.85417 2.14522,-1.83311 3.08971,-2.88385 3.38312,-4.05406 -1.77587,-1.22851 11.57575,-0.85987 -1.59126,0.16805 -3.08029,0.86651 -4.56051,1.44165 -1.8231,0.6904 -3.33192,1.92589 -4.87299,3.08322 -0.63611,0.53398 -1.34439,0.9674 -2.03291,1.42737 -0.16288,0.10881 -0.32355,0.22091 -0.48422,0.33296 -0.11115,0.0775 -0.19612,0.24617 -0.33121,0.23569 -3.72416,-0.28905 -7.43286,-0.75117 -11.14929,-1.12675 0.14747,-0.2392 0.27156,-0.4945 0.4424,-0.7176 0.25745,-0.33621 1.3392,-1.45006 1.59169,-1.71589 1.13595,-1.19592 2.28309,-2.3573 3.48503,-3.48754 2.32105,-2.04743 4.49662,-4.26068 6.8547,-6.26529 1.46303,-1.14782 2.87068,-2.35016 4.11348,-3.73476 1.34708,-1.50876 2.29304,-3.31064 3.30387,-5.04888 0.71124,-1.39138 1.42867,-2.7794 2.11903,-4.1813 0.84075,-1.53204 1.91524,-2.92041 2.8856,-4.37238 1.13074,-1.71473 2.34548,-3.36858 3.22937,-5.22901 0.66155,-1.45365 1.25906,-2.93929 1.82768,-4.43227 0.47787,-1.4472 0.80396,-2.93679 1.17489,-4.4133 0.39238,-1.74694 0.76917,-3.48877 1.24167,-5.21662 0.43583,-1.6638 0.95566,-3.29931 1.27357,-4.99187 0.44792,-1.62628 0.82592,-3.27169 1.19097,-4.9187 0.2714,-1.53183 0.7574,-3.00957 1.03425,-4.54051 0.33411,-1.77336 0.5639,-3.5595 0.79438,-5.34916 0.25287,-1.9026 0.40439,-3.81515 0.47668,-5.73247 0.0216,-2.76324 0.0194,-5.51666 0.25184,-8.27162 0.1273,-2.18293 0.38547,-4.33445 0.80034,-6.47917 0.3066,-1.30809 0.31969,-2.65491 0.51283,-3.97771 0.36229,-1.68981 0.49767,-3.40731 0.58372,-5.12942 0.12233,-2.06021 0.0564,-4.11583 -0.0832,-6.17205 -0.0897,-0.94167 -0.13752,-1.90756 -0.32548,-2.83754 -0.009,-0.0464 -0.33208,-1.17535 -0.33545,-1.18718 -0.45696,-1.04538 -1.17325,-1.93573 -1.7233,-2.92769 -0.88694,-0.7965 -1.05603,-1.90459 -1.39426,-2.98145 -0.37273,-1.36426 -0.72219,-2.73336 -0.949,-4.13023 -0.12779,-1.32028 -0.58129,-2.57361 -0.95124,-3.83734 -0.29605,-0.71678 -0.42492,-1.48542 -0.64365,-2.224246 -0.20027,-0.676433 -0.46296,-1.332175 -0.65859,-2.011879 -0.50356,-1.089985 -1.03379,-2.18496 -1.7155,-3.177164 -0.35514,-0.771801 -0.99076,-1.339254 -1.53905,-1.964756 -0.30283,-0.34548 -0.56742,-0.72271 -0.85498,-1.081005 -1.2485,-1.274873 -2.06105,-2.843275 -2.88488,-4.405686 -1.35427,-2.624879 -2.63972,-5.284347 -3.99095,-7.910711 -1.23385,-2.12745 -2.28625,-4.363873 -3.65492,-6.411263 -0.28776,-0.499028 -0.67776,-1.087366 -1.0501,-1.531539 -0.30907,-0.368688 -0.75958,-0.677944 -1.12086,-0.992216 -1.34403,-0.891404 -2.90082,-1.363131 -4.30996,-2.117072 -1.20623,-0.596291 -2.46928,-1.011262 -3.79555,-1.224192 -0.58685,-0.228728 -1.19283,-0.418827 -1.80913,-0.551484 -0.19694,-0.04239 -0.40331,-0.04376 -0.59508,-0.105462 -0.36457,-0.117297 -0.62551,-0.316927 -0.93545,-0.522909 -0.35306,-0.415406 -0.42225,-0.368884 -0.20645,-1.158821 0.27682,-1.013304 1.44323,-1.171296 2.29954,-1.377999 4.92903,-0.772046 10.00223,-0.738442 14.95365,-0.12773 3.94561,0.442201 8.32196,-0.131454 -9.9224,0.04739 -0.0556,5.45e-4 0.0642,0.09959 0.0614,0.15512 -0.0189,0.368157 0.0106,0.756222 -0.12569,1.09876 -0.0373,0.09378 -0.15723,-0.126581 -0.23584,-0.189872 -1.02186,-0.269945 -1.80199,-0.995831 -2.7219,-1.482877 -0.48859,-0.217981 -1.10786,-0.396132 -1.56364,-0.678543 -0.15272,-0.09463 -0.26676,-0.24176 -0.41215,-0.347301 -0.12683,-0.09207 -0.26804,-0.162512 -0.40206,-0.243768 -0.14813,-0.109925 -0.29625,-0.219851 -0.44437,-0.329777 -0.15022,-0.09327 -0.30044,-0.186538 -0.45066,-0.279807 -0.13545,-0.110275 -0.26158,-0.23309 -0.40633,-0.330825 -0.12979,-0.08763 -0.28788,-0.129434 -0.41362,-0.222786 -0.45202,-0.335616 -0.84236,-0.847801 -1.22834,-1.253025 -0.34964,-0.225607 -0.57124,-0.583937 -0.87564,-0.855809 -0.13054,-0.116593 -0.29347,-0.193222 -0.4237,-0.310167 -0.1413,-0.126888 -0.24651,-0.290368 -0.38716,-0.417978 -0.9568,-0.868077 0.16794,0.346293 -0.76765,-0.712384 -0.11564,-0.135264 -0.24396,-0.260637 -0.3469,-0.405793 -0.11322,-0.159641 -0.1856,-0.345811 -0.29917,-0.505199 -0.14814,-0.207898 -0.53847,-0.57646 -0.69845,-0.756272 -0.79497,-0.893499 0.0457,-0.03498 -0.72717,-0.802796 -0.8122,-1.156227 0.15624,0.154631 -0.6526,-0.760513 -0.11708,-0.132466 -0.19572,-0.296196 -0.31494,-0.426739 -0.10181,-0.111481 -0.2406,-0.184632 -0.34393,-0.29471 -0.43332,-0.556496 -0.20383,-0.293094 -0.6871,-0.791397 -0.73814,-0.988105 -1.71066,-1.743581 -2.65764,-2.518396 -1.66546,-1.439889 0.66187,0.532589 -1.05057,-0.791543 -0.69728,-0.539164 -1.16615,-1.042842 -1.97767,-1.439212 -1.15919,-0.770067 -2.42638,-1.359365 -3.66423,-1.994942 -1.58362,-0.656758 -3.12249,-1.411948 -4.73657,-1.99314 -0.89882,-0.377249 -1.77453,-0.849797 -2.70971,-1.136194 -1.29872,-0.397735 0.0311,0.109002 -1.2957,-0.431155 -0.20865,-0.07752 -0.42279,-0.141632 -0.62595,-0.23257 -1.59392,-0.713463 0.3286,0.03368 -1.26314,-0.599792 -0.57775,-0.229929 -1.17195,-0.364047 -1.75096,-0.589597 -1.16234,-0.343731 -2.17645,-1.055799 -3.25283,-1.605206 -0.19579,-0.07274 -0.40069,-0.124547 -0.58737,-0.218229 -0.18942,-0.09506 -0.35064,-0.238842 -0.53427,-0.344648 -0.83151,-0.479116 -0.19955,-0.06294 -1.01441,-0.467475 -0.39521,-0.1962 -0.76735,-0.435825 -1.15348,-0.649341 -1.65256,-0.830249 -3.3614,-1.553821 -4.9957,-2.427817 -1.432,-0.786124 -2.74725,-1.279938 -4.35671,-1.527804 -0.62671,0.03493 -1.15995,-0.265307 -1.74259,-0.436977 -0.16743,-0.04933 -0.34269,-0.07385 -0.50533,-0.137194 -1.52237,-0.592959 0.56168,0.04835 -1.15555,-0.445316 -1.54573,-0.413805 -3.05411,-0.957412 -4.61647,-1.312962 -0.45752,-0.14159 -0.94514,-0.105855 -1.40847,-0.20879 -0.44937,-0.09984 -0.87736,-0.281785 -1.32486,-0.389677 -0.6419,-0.154758 -0.71301,-0.14713 -1.37885,-0.23877 -0.2483,-0.02488 -0.49874,-0.0337 -0.74491,-0.07465 -0.56964,-0.09475 -1.12421,-0.266957 -1.69229,-0.37071 -0.97112,-0.177365 -1.95451,-0.249704 -2.93684,-0.331443 -1.81302,-0.123961 -3.63061,-0.149403 -5.44721,-0.156871 -0.2312,-1.82e-4 -0.46396,0.02624 -0.69361,-5.46e-4 -0.45365,-0.0529 -0.88797,-0.215112 -1.33552,-0.30622 -0.63386,-0.129038 -1.26931,-0.220881 -1.91147,-0.294636 -1.21827,-0.114226 -2.4426,-0.120202 -3.66508,-0.125471 -0.68761,-5.15e-4 -0.56385,-7.51e-4 -1.26081,7.8e-5 -0.20631,2.45e-4 -0.82527,9.31e-4 -0.61895,9.57e-4 18.35854,0.0023 13.17375,-0.0033 9.29211,0.0016 -1.39511,-0.03121 -2.78373,0.01927 -4.1741,0.128119 -2.07951,0.161405 -4.16551,0.195677 -6.25017,0.222308 -5.75296,0.04112 -11.50652,0.02012 -17.25943,0.01998 -4.3796,7e-4 -12.74739,-0.02107 6.69627,0.02031 -1.33638,0.16507 -2.66442,0.357988 -3.94394,0.783077 -0.51953,0.229544 -1.18028,0.29298 -1.64102,0.648615 -0.15435,0.119146 -0.3959,0.412337 -0.52672,0.563793 -0.55236,0.710782 -1.1443,1.396133 -1.79197,2.022249 -0.64702,0.582741 -1.22196,1.236192 -1.84429,1.844185 -0.74371,0.872989 -1.61493,1.61713 -2.15048,2.653396 -0.27379,0.529771 -0.49313,1.085954 -0.73969,1.628931 -4.11707,8.903956 -6.9085,18.321833 -9.63886,27.719103 -2.17583,7.688215 -4.3809,15.367344 -6.36236,23.108324 -0.12427,0.47519 -0.24366,0.951681 -0.372796,1.425571 -0.246366,0.904085 -0.18996,0.681993 -0.428249,1.37854 -0.04095,0.1197 0.0062,0.36112 -0.120298,0.359963 -11.501913,-0.105149 -11.114821,3.291632 -11.367016,-1.032494 0.0012,-1.050543 -0.08292,-2.11237 0.08459,-3.155979 0.159022,-0.99072 0.351254,-1.468926 0.656739,-2.435983 0.650705,-2.21733 1.507867,-4.358215 2.576051,-6.404932 0.959022,-1.944553 2.579973,-2.957886 4.387392,-4.042931 6.022157,-3.06052 12.767287,-3.951609 19.392257,-4.712328 7.36404,-0.636753 14.76131,-0.578151 22.14766,-0.425471 1.13697,0.0235 2.26848,0.190096 3.39182,0.367164 3.29341,0.519125 3.59405,0.773158 6.77857,1.847681 4.79952,2.019711 9.19261,4.940224 12.88443,8.618456 2.50907,2.499824 3.11833,3.47385 5.25599,6.247147 2.68224,3.779666 4.808,7.904251 6.06009,12.377008 0.2956,1.055929 0.58662,2.119089 0.74473,3.204149 0.19462,1.3356 0.20695,2.69146 0.31043,4.03719 -0.12696,1.69907 -0.16119,3.40762 -0.38087,5.0972 -0.43959,3.38101 -1.86219,10.01805 -2.62544,13.14998 -0.96425,3.95676 -3.17613,11.83161 -4.34616,15.66862 -0.79658,2.61232 -1.67235,5.19983 -2.50852,7.79975 -3.19314,9.21327 -5.93487,18.66367 -10.36419,27.38614 -0.72685,1.31136 -1.51859,2.65665 -2.78012,3.53268 -0.61623,0.42793 -1.48443,0.79907 -2.24899,0.79526 -4.26649,-0.0212 -8.53029,-0.2184 -12.79543,-0.32761 -0.69142,-0.29549 -1.41433,-0.5261 -2.07426,-0.88646 -2.11044,-1.15243 -3.75266,-2.51945 -5.55786,-4.1247 -2.40708,-2.14045 -4.34171,-4.11504 -6.44477,-6.57467 -1.05287,-1.23138 -2.02189,-2.53206 -3.03283,-3.79809 -3.20031,-4.29027 -5.96578,-8.92782 -7.91186,-13.92519 -0.77726,-1.99591 -0.9816,-2.88227 -1.53942,-4.86025 -0.2472,-1.48811 -1.09277,-3.95207 -0.58617,-5.46654 0.34189,-1.0221 0.70283,-1.16506 1.47957,-1.88436 1.72328,-1.0293 3.69565,-1.40297 5.69219,-1.40482 2.24688,-0.002 11.37654,-0.81002 15.98463,0.74802 0.76128,0.2574 1.46557,0.65978 2.19835,0.98967 0.64363,0.46715 1.37707,0.83068 1.93087,1.40146 2.76077,2.84542 3.74919,8.01177 4.37635,11.68493 1.09113,6.39054 1.08916,9.39573 1.5194,16.0796 0.48668,14.56973 -0.20578,29.22534 -2.60346,43.61823 -0.30492,1.83033 -0.69386,3.64567 -1.04079,5.46851 -1.0599,4.42992 -1.87837,9.04867 -4.17382,13.04513 -0.73128,1.15421 -1.52914,1.65932 -2.75931,2.15408 -1.40024,0.48969 -2.69,1.2481 -4.10047,1.71412 -0.41542,0.13725 -0.84205,0.23787 -1.26308,0.3568 -5.37979,0.92395 -11.10583,1.25145 -16.34573,-0.38641 -2.3813,-0.74433 -4.58992,-1.86075 -6.82082,-2.95795 -2.434849,-1.48826 -5.2277,-3.11755 -6.99263,-5.43272 -0.216138,-0.28352 -0.387736,-0.59838 -0.581605,-0.89757 -0.535574,-1.05301 -1.183354,-2.47999 -0.332843,-3.57169 0.150158,-0.19274 0.366088,-0.32367 0.549132,-0.48551 5.106068,-1.60909 11.096246,-1.20943 16.019426,0.90967 0.91251,0.39277 3.10164,1.46423 3.95109,1.87494 3.88153,2.11829 7.75145,4.27752 11.38629,6.80091 4.27951,2.73897 8.48435,5.59297 12.81143,8.25731 2.32155,1.28723 4.64946,2.55941 6.94881,3.88584 0,0 -11.23408,1.18492 -11.23408,1.18492 v 0 c -2.31448,-1.31472 -4.65359,-2.58453 -6.95296,-3.9259 -4.31502,-2.70064 -8.54899,-5.52794 -12.81604,-8.30343 -3.65613,-2.42789 -7.4701,-4.61479 -11.36829,-6.63021 -1.82249,-0.8556 -3.633872,-1.77613 -5.592609,-2.28823 -0.443293,-0.1159 -1.808048,-0.2365 -1.350319,-0.25712 5.921648,-0.26677 13.848458,-0.036 9.412788,-0.15946 -0.16526,-0.0253 -0.3286,-0.0783 -0.49577,-0.076 -0.97571,0.0137 0.15747,1.8272 0.33923,2.09354 1.94472,2.5414 4.75055,4.24666 7.52434,5.75607 2.20872,1.04186 4.40422,2.10905 6.78869,2.69955 0.66196,0.16393 2.69365,0.31882 2.0132,0.36419 -2.68,0.17868 -13.76307,0.31553 -8.05771,0.0498 0.72647,-0.15492 1.63289,-0.31899 2.34102,-0.57681 0.2979,-0.10846 0.57238,-0.27303 0.86254,-0.40079 0.72087,-0.31742 1.44498,-0.62142 2.14587,-0.98351 1.01628,-0.31228 1.9716,-0.52607 2.69034,-1.37563 0.32017,-0.51625 0.7719,-1.21561 1.01596,-1.75205 1.57141,-3.45383 2.22279,-7.2492 3.14354,-10.89921 0.34667,-1.8071 0.73564,-3.60659 1.04,-5.42129 2.40038,-14.31202 3.08617,-28.88941 2.60248,-43.37931 -0.42411,-6.54086 -0.42836,-9.64599 -1.51685,-15.90152 -0.59756,-3.4342 -1.49303,-8.34001 -4.32492,-10.83048 -0.55992,-0.49241 -1.27056,-0.78078 -1.90584,-1.17118 -0.724,-0.26147 -1.42783,-0.58756 -2.17201,-0.78442 -0.77215,-0.20426 -3.1554,-0.3416 -2.36002,-0.41444 2.89946,-0.26553 5.82202,-0.1171 8.73314,-0.16921 0.77354,-0.0138 -1.54873,-0.002 -2.32033,0.0544 -0.63712,0.0465 -1.27444,0.12228 -1.89955,0.25386 -0.47594,0.10017 -0.92769,0.29256 -1.39153,0.43885 -0.31445,0.17739 -1.20949,0.58515 -1.43218,1.00702 -0.52096,0.98695 0.41521,3.97732 0.58308,4.9818 0.5607,1.93487 0.75434,2.76024 1.53437,4.71323 1.9555,4.89612 4.7147,9.42927 7.89531,13.62096 1.00912,1.24043 1.97624,2.51623 3.02734,3.72128 2.00577,2.29955 4.11192,4.42816 6.43123,6.40983 1.78183,1.52243 3.40028,2.79245 5.52037,3.76932 0.65193,0.30039 1.36403,0.44768 2.04604,0.67152 -3.18705,0.0754 -6.37515,0.11508 -9.56116,0.22619 -0.31493,0.011 1.13954,0.27244 2.17215,-0.1634 1.32065,-0.55741 2.06509,-1.84988 2.74422,-3.02197 0.36221,-0.69485 0.74725,-1.37826 1.08663,-2.08454 1.09987,-2.28893 1.97042,-4.44419 2.88555,-6.83337 2.3095,-6.02957 4.33843,-12.16178 6.38475,-18.28381 0.83583,-2.58848 1.71171,-5.16436 2.5075,-7.76543 1.13474,-3.70889 3.4041,-11.76034 4.34435,-15.59588 0.73285,-2.98951 2.18825,-9.72873 2.62311,-12.99063 0.21751,-1.63157 0.25392,-3.2822 0.38088,-4.9233 -0.10258,-1.28795 -0.1152,-2.58624 -0.30774,-3.86384 -0.15838,-1.05094 -0.44781,-2.0796 -0.74186,-3.10092 -1.25253,-4.350387 -3.38858,-8.339448 -6.04114,-11.992933 -2.11943,-2.673793 -2.7506,-3.652821 -5.24052,-6.042491 -3.69031,-3.541735 -8.06161,-6.319997 -12.83487,-8.149806 -3.15719,-0.946602 -3.49676,-1.191647 -6.74546,-1.607442 -1.12007,-0.143357 -4.50319,-0.188728 -3.37688,-0.269705 2.55443,-0.183654 5.12249,-0.09269 7.68297,-0.03989 2.50095,0.05158 -10.13203,0.162468 -7.49626,0.351085 -6.58013,0.682675 -13.24586,1.482703 -19.33385,4.249531 -1.62744,0.894287 -3.38784,1.724874 -4.3385,3.406007 -0.2778,0.526101 -0.58937,1.035096 -0.84195,1.573762 -0.70123,1.495466 -1.22672,3.071846 -1.72656,4.642822 -0.262844,0.772621 -0.507681,1.387281 -0.651601,2.18709 -0.176083,0.978541 -0.07789,1.980434 -0.08436,2.967052 0.388808,4.008929 0.106064,0.114516 -11.18669,0.177237 -0.06345,3.52e-4 0.04236,0.211578 0.08883,0.168373 0.107422,-0.09986 0.120846,-0.267815 0.167658,-0.406813 0.09488,-0.281721 0.177606,-0.567504 0.256958,-0.853986 0.130544,-0.471299 0.248423,-0.946013 0.372634,-1.41902 1.982777,-7.752713 4.181817,-15.44537 6.363317,-23.144226 2.734137,-9.444179 5.521124,-18.914495 9.643994,-27.866522 0.59124,-1.397087 1.12923,-2.881112 2.24307,-3.967326 0.10695,-0.104297 0.24903,-0.16838 0.35452,-0.274153 0.11859,-0.118899 0.20852,-0.26328 0.31278,-0.394921 1.02256,-1.297237 -0.31891,0.339734 0.6483,-0.663996 0.11314,-0.117409 0.18294,-0.271929 0.29593,-0.389477 0.0899,-0.09357 0.2181,-0.144671 0.30774,-0.238531 0.74629,-0.781432 -0.1635,-0.03696 0.5976,-0.621831 0.20639,-0.210549 0.45168,-0.380816 0.65552,-0.593828 0.11317,-0.118258 0.18344,-0.272894 0.29561,-0.3921 0.0878,-0.0933 0.21381,-0.145533 0.29971,-0.240574 0.79951,-0.884575 -0.22171,0.03776 0.52801,-0.610251 0.31406,-0.506338 0.77079,-1.256197 1.29727,-1.545234 0.29672,-0.162896 0.674,-0.146821 0.93868,-0.38738 0.59195,-0.177636 1.16966,-0.478766 1.76597,-0.626502 0.7185,-0.178009 1.49497,-0.143787 2.20703,-0.36905 5.21344,-0.06643 10.42485,-0.175455 15.63824,-0.150001 -19.88004,3.4e-4 -9.60954,0.0097 -5.05708,-0.0087 2.08038,-0.0164 4.16203,-0.0291 6.23947,-0.152859 1.39654,-0.09361 2.78298,-0.281348 4.18637,-0.207524 4.9683,-0.0077 9.93686,-0.0388 14.90493,0.01093 1.23216,0.02806 2.46689,0.07353 3.68635,0.266804 1.29986,0.21702 2.58991,0.534952 3.9186,0.455422 1.82282,0.02673 3.64737,0.07534 5.46247,0.25676 1.80995,0.208234 3.58822,0.577887 5.38652,0.863243 1.37658,0.299994 2.74053,0.64789 4.12337,0.919113 1.55067,0.436439 3.0899,0.914127 4.6271,1.395293 1.09625,0.417642 2.22391,0.718103 3.38585,0.885515 1.55115,0.399124 2.97977,1.087775 4.39432,1.83146 1.66603,0.818444 3.36648,1.568643 4.99851,2.4536 1.08529,0.577231 2.18845,1.119145 3.28821,1.667585 1.03996,0.568456 2.09006,1.114054 3.23415,1.444301 1.2451,0.403444 2.4074,0.998885 3.64135,1.432519 1.368,0.44821 2.67668,1.038726 4.00751,1.584649 1.60321,0.657567 3.19157,1.357994 4.75056,2.114377 1.2486,0.645402 2.49193,1.300518 3.67193,2.067116 1.0552,0.74691 2.037,1.59458 3.04476,2.403373 0.96474,0.814396 1.8649,1.692833 2.66978,2.667627 0.66423,0.755822 1.35318,1.48964 1.99778,2.262927 0.70626,0.801857 1.35445,1.647147 2.06924,2.438205 0.8424,0.739527 1.65961,1.507438 2.4543,2.298214 0.75185,0.728479 1.60392,1.307078 2.48065,1.877595 0.28186,0.180106 0.55076,0.381737 0.8435,0.543578 0.63935,0.353479 1.35803,0.563475 1.97022,0.971313 0.90173,0.577145 1.87649,1.019165 2.73783,1.646919 0.53997,0.430165 0.34566,0.180802 0.32504,1.458065 -0.001,0.08319 -0.0303,0.220945 -0.11349,0.222312 -4.34567,0.0714 -8.2818,0.322233 -12.41468,-0.126945 -3.79275,-0.299085 -9.37508,-0.07406 9.48117,-0.09438 0.22571,-2.43e-4 -0.45125,0.0135 -0.67667,0.0249 -0.5754,0.02909 -0.81768,0.05544 -1.39581,0.10555 -0.31468,0.04011 -1.60991,0.315387 -1.85776,0.280689 -0.25722,-0.03601 -0.52759,-0.336411 -0.41262,-0.621636 0.0283,-0.07034 0.14464,0.04565 0.21696,0.06847 1.07943,0.358794 2.2111,0.579433 3.30413,0.893278 1.33017,0.351235 2.60237,0.880971 3.82994,1.500563 1.51283,0.674217 3.08389,1.326627 4.3408,2.432553 0.87385,0.824948 1.59547,1.772719 2.19173,2.818591 1.31749,2.117695 2.45377,4.342131 3.66076,6.52285 1.33981,2.625423 2.62516,5.27841 3.99,7.891083 0.81497,1.503476 1.68986,2.943231 2.87241,4.192777 0.83819,1.029863 1.7674,1.995881 2.40207,3.174903 0.65938,1.118709 1.29978,2.259899 1.72886,3.490008 0.43098,1.412434 0.88251,2.816764 1.30214,4.232734 0.39978,1.30419 0.80296,2.61801 0.95448,3.97934 0.23078,1.34644 0.57578,2.66902 0.94561,3.98332 0.11087,0.37581 0.19216,0.76199 0.3362,1.12638 0.23641,0.5981 0.74571,1.02691 1.04698,1.58733 0.65031,1.03326 1.34108,2.05502 1.73512,3.22133 0.38101,1.39081 0.59077,2.81464 0.66486,4.25614 0.14123,2.10014 0.20474,4.20003 0.0833,6.30408 -0.0861,1.76098 -0.20934,3.5214 -0.58494,5.24874 -0.22396,1.33115 -0.19362,2.69852 -0.51353,4.01855 -0.16776,0.86621 -0.37856,1.73759 -0.48068,2.61472 -0.14473,1.24308 -0.15902,2.50234 -0.31801,3.74451 -0.0833,0.96768 -0.17873,1.92757 -0.20823,2.89931 -0.0538,1.77136 0.0335,3.54701 -0.0433,5.31843 -0.0721,1.95179 -0.22219,3.89903 -0.47754,5.83609 -0.2361,1.80584 -0.45459,3.61136 -0.79515,5.39995 -0.26526,1.55104 -0.74694,3.04277 -1.03517,4.58751 -0.35399,1.63533 -0.71374,3.27594 -1.19018,4.87901 -0.30673,1.72893 -0.82071,3.39746 -1.27577,5.09007 -0.47301,1.72312 -0.8733,3.45161 -1.24124,5.19995 -0.40088,1.50939 -0.71224,3.04052 -1.17853,4.53272 -0.56107,1.52215 -1.17785,3.0273 -1.83071,4.50939 -0.84845,1.9453 -2.05116,3.66461 -3.23883,5.41473 -0.95401,1.41374 -1.93565,2.8061 -2.87782,4.22447 -0.70717,1.41679 -1.42705,2.82554 -2.12228,4.24771 -1.57892,2.81131 0.67099,-1.16515 -1.00912,1.70452 -0.71628,1.22341 -1.34282,2.51191 -2.30872,3.56967 -0.18035,0.21118 -1.06435,1.25381 -1.26382,1.45752 -0.88072,0.89942 -1.91329,1.64786 -2.86491,2.46665 -2.42856,1.89188 -4.50719,4.19971 -6.84877,6.19624 -1.91353,1.73005 -3.64418,3.62825 -5.48911,5.42714 -3.78667,-0.2036 -7.57334,-0.40719 -11.36002,-0.61079 0.10374,-0.0165 0.21531,-0.007 0.31121,-0.0495 0.32066,-0.14326 0.82352,-0.58352 1.08773,-0.75414 2.02721,-1.30909 -0.71938,0.62762 1.42058,-0.9132 1.62617,-1.33525 -0.0937,0.0384 1.65229,-1.2363 1.05688,-0.77162 1.99083,-1.68854 3.25132,-2.14145 1.49781,-0.69853 3.08103,-1.20042 4.6112,-1.81908 3.90032,0.0762 7.81365,-0.0988 11.70095,0.22864 0.28151,0.0237 0.26395,0.50754 0.32179,0.78407 0.18917,0.90439 -0.66464,1.68416 -1.1598,2.31462 -0.89021,1.17988 -1.98668,2.18553 -3.11016,3.13902 -2.21472,1.78289 -4.69124,3.21028 -7.06993,4.75816 -5.14508,3.41489 -10.16434,7.01262 -15.21833,10.5598 -5.78972,4.30873 -11.61733,8.56497 -17.51317,12.72754 -0.96249,0.75798 -1.93911,1.49843 -2.88604,2.27576 -0.009,0.007 -1.25935,1.12576 -1.40584,1.11744 -3.76831,-0.21426 -7.52982,-0.53481 -11.29474,-0.80221 0.22457,0.21196 0.12168,0.18947 0.5605,-0.0455 1.55416,-0.83206 2.81895,-2.13241 4.38917,-2.94319 3.82898,-2.62424 7.62386,-5.30746 11.59065,-7.72109 0.5868,-0.35029 1.16427,-0.7167 1.76039,-1.05088 2.30764,-1.2936 4.78219,-2.26654 7.19607,-3.33687 4.0204,-0.008 8.04484,-0.20396 12.06122,-0.0238 0.76386,0.0343 0.91298,1.48678 0.79247,1.98866 -0.0835,0.34775 -0.35637,0.80678 -0.52501,1.11884 -0.67858,0.97768 -1.19744,2.06722 -2.03654,2.93329 -0.34716,0.36803 -0.6467,0.77978 -1.00129,1.14066 -1.03037,1.04865 -2.40906,1.73797 -3.69396,2.40355 -4.39265,2.25682 -9.08529,3.82968 -13.82105,5.20046 -4.68542,1.35791 -9.39691,2.71546 -14.23754,3.39333 -4.00708,0.002 -8.0142,0.0237 -12.02125,0.006 -0.48009,-0.002 -1.34448,-0.0246 -1.70705,-0.42817 -0.30088,-0.33488 -0.24965,-0.81212 -0.28032,-1.21247 0.0497,-0.12744 0.0693,-0.27125 0.14916,-0.38233 0.5196,-0.72279 1.5512,-0.57911 2.20311,-1.10912 0.71516,-0.29983 1.35201,-0.71224 2.05295,-1.03862 1.14153,-0.53154 2.34642,-0.93988 3.43961,-1.57926 3.70741,-1.60061 7.36233,-3.34153 11.20665,-4.60328 0.6912,-0.22454 2.99724,-0.98755 3.77189,-1.18874 0.48682,-0.12644 0.9749,-0.29325 1.47773,-0.30518 4.10308,-0.0974 8.20889,-0.0822 12.31268,-0.0221 0.26337,0.004 0.54928,0.0565 0.76079,0.2135 0.20771,0.15415 0.27502,0.43818 0.41254,0.65726 0.0195,0.25612 0.0933,0.51385 0.0585,0.76834 -0.10654,0.77966 -1.36528,0.99192 -1.79199,1.57248 -0.98035,0.49697 0.12291,-0.0924 -0.86815,0.53996 -0.45463,0.29008 -0.94325,0.52328 -1.4108,0.78686 -0.1541,0.0869 -0.29591,0.19393 -0.44387,0.2909 -0.55291,0.15134 -0.9898,0.38796 -1.50922,0.62237 -0.58715,0.26497 -1.19429,0.4665 -1.68178,0.91557 -1.03362,0.52419 -1.96401,1.23908 -3.07255,1.61881 -0.26365,0.0735 -1.36065,0.38439 -1.57678,0.42222 -0.36904,0.0646 -0.74529,0.0779 -1.11716,0.12337 -1.67023,0.20437 -3.33079,0.47788 -4.98737,0.77149 -1.6231,0.28695 -3.24131,0.60158 -4.86629,0.87765 -2.59275,0.4405 -5.20451,0.8046 -7.78424,1.32104 -0.62345,0.12481 -1.23822,0.28959 -1.85733,0.43439 -1.56399,0.36493 -3.1367,0.62761 -4.7293,0.78525 -1.15255,0.0983 -2.27561,0.32169 -3.31092,0.8652 -1.48828,0.24853 -2.92445,0.74055 -4.4464,0.75274 -1.28029,0.14778 -0.4313,0.0377 -1.699,0.23207 -0.32049,0.0491 -0.63791,0.13674 -0.96208,0.14352 -4.87938,0.10213 -9.75731,0.14152 -14.63659,0.1305 -0.47536,-4e-4 -2.39954,-0.002 -2.83367,-0.002 -0.51206,-3.7e-4 -2.04824,-9e-4 -1.53618,-10e-4 17.88903,-0.004 10.15908,-0.001 6.1965,0 -2.18642,0.005 -4.37308,0.008 -6.55902,0.0593 -0.46877,-0.0144 -0.6925,-0.0134 -0.76769,-0.54431 -0.0119,-0.0841 -0.0445,-0.19991 0.0211,-0.25383 0.2083,-0.17126 0.66093,0.3688 0.80361,0.0933 1.64592,0.1131 3.29934,0.17174 4.92715,0.46457 4.01121,0.66611 8.16535,0.20263 -8.93562,0.24256 -0.24764,5.8e-4 0.49528,-5e-5 0.74292,-9e-5 0.24152,-4e-5 0.48303,-8e-5 0.72455,-1.4e-4 0.22961,-6e-5 0.45922,-1.4e-4 0.68883,-2.2e-4 5.55848,-0.002 11.11697,-0.005 16.67546,-10e-4 2.72799,0.003 5.45624,0.004 8.18382,0.0566 1.86465,0.0509 3.72654,0.13925 5.58464,0.30789 -3.51062,0.003 -7.02123,0.007 -10.53184,0.0102 0.0792,6.7e-4 0.96055,-0.0833 0.99842,0.12487 0.25958,1.42676 0.52739,1.31082 -0.0361,1.46856 -1.10194,-0.14561 -2.18596,-0.38469 -3.28357,-0.5553 19.34644,-0.015 11.76243,-0.007 7.44088,-0.008 -1.74545,5.7e-4 -3.4909,0.002 -5.23635,0.005 -7.0053,0.01 -14.01068,0.0229 -21.01592,-0.009 -2.74682,-0.03 -5.51645,-0.007 -8.23402,-0.45935 -1.54671,-0.34841 -3.04483,-0.86277 -4.52194,-1.43743 -1.45823,-0.50776 -2.86848,-1.1193 -4.25793,-1.79304 -1.24774,-0.60799 -2.51474,-1.16834 -3.83127,-1.61331 -1.59964,-0.57084 -3.24166,-1.02039 -4.89965,-1.38731 -2.61478,-0.6411 -5.22717,-1.31227 -7.88637,-1.7463 -2.943681,-0.41775 -5.907696,-0.69967 -8.884555,-0.68733 -1.426794,-0.0423 -4.356312,0.0572 -5.554463,-0.81394 -0.173531,-0.12618 -0.300146,-0.30667 -0.450219,-0.46001 -0.09766,-0.20816 -0.23136,-0.40297 -0.29297,-0.6245 -0.341627,-1.22838 0.547961,-2.15604 1.397625,-2.89825 0.870234,-0.91704 1.746995,-1.85022 2.829918,-2.51887 0.930581,-0.78716 1.92215,-1.49217 2.789624,-2.34458 0.08493,-0.11222 0.527773,-0.68018 0.599764,-0.83687 0.342491,-0.74542 0.166378,-1.61242 0.350428,-2.3924 0.302915,-1.52416 0.838804,-2.62687 2.192358,-3.49551 1.491022,-0.83777 2.865852,-1.89306 4.1417,-3.02785 0.0385,-0.0533 0.49581,-0.64591 0.52184,-0.80449 0.0991,-0.60389 -0.64894,-1.14277 -1.0241,-1.46474 -1.084116,-0.68358 -2.221877,-1.33146 -3.125089,-2.25235 -0.773472,-1.31012 -0.629783,-2.28849 0.928402,-2.75721 0.414312,-0.1967 0.804244,-0.44605 1.229917,-0.61679 0.25911,-0.10393 0.5357,-0.15754 0.80217,-0.2408 1.05058,-0.32825 2.07434,-0.74547 3.16191,-0.94475 1.89069,-0.48297 0.9213,-0.24238 2.90863,-0.71985 2.20697,-0.56169 4.3979,-1.25477 6.68783,-1.39043 5.07929,-0.57866 10.28564,-0.24618 15.34855,-0.21607 0.4282,0.003 1.7215,0.10301 2.18514,0.18835 0.26494,0.0488 0.51989,0.14143 0.77983,0.21215 0.16655,0.20836 0.40992,0.37389 0.49966,0.6251 0.5571,1.5596 -1.09967,1.69709 -2.15329,1.94891 -0.45239,0.10812 -0.90163,0.22906 -1.35244,0.34359 -4.38107,1.26238 -8.73064,2.62584 -13.02665,4.15508 -2.20062,0.77934 -4.41527,1.5366 -6.5724,2.43254 -0.50145,0.20827 -0.98934,0.44798 -1.48869,0.66123 -0.71172,0.30394 -1.22016,0.48817 -1.92769,0.75489 -4.02157,1.8375 -1.40255,0.7364 -12.128237,0.31153 -0.365823,-0.0145 -0.468545,-1.35596 -0.345392,-1.66228 0.06571,-0.16343 0.19065,-0.29624 0.285975,-0.44436 1.379191,-1.65458 2.745424,-3.3262 4.31822,-4.80608 1.256182,-1.08153 0.697025,-0.59192 1.962308,-1.71513 0.331092,-0.29391 0.641546,-0.61279 0.992796,-0.88229 1.00024,-0.76747 2.15939,-1.31345 3.25759,-1.91819 0.83094,-0.25664 2.10287,-0.69865 2.97813,-0.70743 3.99217,-0.0401 7.9857,-0.0591 11.97708,0.0298 0.2511,0.006 0.48817,0.13466 0.70977,0.25288 0.21757,0.11607 0.3954,0.29479 0.5931,0.44219 0.12839,0.18475 0.28864,0.35103 0.38518,0.55424 0.62232,1.30996 -0.14031,2.73655 -0.64012,3.94714 -1.40687,2.59968 -3.22349,4.95973 -5.02885,7.29139 -1.77854,2.06282 -3.70591,4.00924 -5.26027,6.25573 -0.79772,1.06674 -1.50253,2.03765 -0.92905,3.39792 1.27744,2.16555 3.46662,3.58035 5.49885,4.97054 1.7108,1.06021 2.30891,1.47076 4.15023,2.43374 3.28118,1.716 6.70639,3.14661 10.14628,4.50737 2.92091,1.11462 5.85337,2.33363 8.9732,2.7565 -18.14824,0.0552 -12.86847,-0.01 -9.03316,0.0339 0.23326,0.003 0.74103,0.001 0.7676,0.0672 0.13987,0.34615 0.10162,0.73972 0.15243,1.10958 -0.0105,0.084 0.0464,0.21904 -0.0316,0.25212 -0.005,0.002 -0.92185,-0.20142 -0.93196,-0.20373 -0.75153,-0.17125 -1.50393,-0.33923 -2.25164,-0.52664 -1.71329,-0.47652 -3.42376,-0.96335 -5.14232,-1.42067 -1.41785,-0.39456 -2.83486,-0.82254 -4.31402,-0.91838 -2.05586,-0.2031 -4.07382,-0.61264 -6.07532,-1.12347 -3.29915,-0.77765 -6.5648,-1.68745 -9.84988,-2.52143 -2.443913,-0.62779 -4.894526,-1.24682 -7.3788,-1.69403 -4.326168,-0.72938 -11.677591,-0.83637 7.74978,-0.39318 -0.11416,-0.005 -0.23531,0.0247 -0.34246,-0.0149 -0.52779,-0.19536 -0.28495,-1.45706 -0.28166,-1.52266 0.002,-0.0444 0.24108,-0.004 0.47572,0.0346 0.18964,0.0312 0.37863,0.0662 0.56795,0.0993 1.66127,0.34332 3.2939,0.84479 4.99358,0.97471 4.41437,0.44974 1.33691,0.0995 -9.138616,0.14442 -0.277672,0.001 0.555348,6.4e-4 0.833022,0.001 0.397424,7.1e-4 0.794848,0.002 1.192272,0.003 0.154451,3.7e-4 0.308902,8.7e-4 0.463353,0.001 0.01654,6.5e-4 0.609829,-0.0186 0.663599,0.11494 0.0981,0.24366 0.0692,0.52092 0.093,0.78252 0.0137,0.15005 0.0846,0.31581 0.0193,0.45159 -0.0951,0.19772 -0.675616,-0.49756 -0.642408,-0.14345 -1.110801,-0.32087 -2.219389,-0.65272 -3.334392,-0.95182 -0.517847,-0.12428 -1.052325,-0.28674 -1.585303,-0.33103 -3.716432,-0.30885 -10.440564,2.42593 9.383343,-0.005 -1.21588,-0.005 -2.4335,-0.0191 -3.64753,0.0603 -1.077957,0.11358 -2.088428,0.26229 -2.981716,0.9304 -0.874763,0.86149 0.183608,-0.22229 -0.71047,0.84924 -0.517544,0.62026 -1.13398,1.14038 -1.699908,1.71296 -2.935542,3.9866 -6.181188,1.41522 -12.795077,1.33808 -0.157674,-0.002 -0.302009,-0.0995 -0.437182,-0.1807 -0.141632,-0.0851 -0.256303,-0.20856 -0.384455,-0.31284 -0.120036,-0.16531 -0.26297,-0.3162 -0.360108,-0.49592 -0.729722,-1.3501 -0.02333,-2.87344 0.457676,-4.16874 0.928975,-2.19203 2.0422,-4.28139 3.106964,-6.40934 0.353738,-0.70695 0.685747,-1.42486 1.050985,-2.12594 0.357242,-0.68574 0.743973,-1.3557 1.11596,-2.03355 1.274383,-2.28374 2.57797,-4.56189 4.333327,-6.52 1.031351,-0.99604 1.994004,-2.07198 3.165502,-2.91 0.983891,-0.95621 2.071321,-1.76554 3.084117,-2.68778 1.042773,-0.98042 2.092101,-2.11958 3.570485,-2.3356 0.24533,-0.0522 0.48661,-0.12977 0.73599,-0.15666 0.75265,-0.0812 1.57044,-0.0122 2.32777,-0.0125 3.96619,-0.002 7.93239,-0.003 11.89858,-0.001 0.21922,1.2e-4 0.43841,0.005 0.65762,0.008 0.80934,0.024 2.42638,-0.083 2.97136,0.63807 0.11246,0.14879 0.14467,0.34382 0.21701,0.51574 0.0193,0.20312 0.0748,0.40602 0.058,0.60936 -0.0804,0.9709 -1.54369,1.82782 -2.01709,2.63935 -1.10622,1.1087 -2.13947,2.28615 -3.30209,3.33819 -0.31256,0.27714 -0.76213,0.69486 -1.11176,0.92944 -0.20082,0.13473 -0.4279,0.22674 -0.63107,0.35791 -0.67736,0.43731 -1.2582,1.01261 -1.97551,1.39142 -1.69268,1.28453 -3.52205,2.36695 -5.25366,3.59685 -0.36639,0.23296 -0.74318,0.45031 -1.09916,0.69888 -1.09692,0.76597 -2.04208,1.71161 -3.1042,2.51944 -0.30611,0.23282 -0.6382,0.42954 -0.95043,0.65407 -0.28166,0.20254 -0.55387,0.41791 -0.830811,0.62687 -0.851898,0.69804 -2.103733,1.91922 -3.295696,1.9382 -3.921431,0.0625 -7.843688,0.0515 -11.765532,0.0772 -1.084628,-0.1753 -2.131178,-0.54214 -3.225428,-0.61941 -1.260835,-0.0901 -2.511493,-0.26314 -3.769628,-0.3793 -1.347684,-0.14751 -2.672039,-0.41192 -3.968094,-0.81617 -1.618416,-0.40152 -2.777019,-0.83274 -3.882689,-2.1577 -1.029411,-1.09832 -2.155206,-2.09763 -3.142447,-3.234 -0.843855,-1.00123 -1.672548,-2.01345 -2.551479,-2.98435 -0.561449,-0.73805 -1.143131,-1.45896 -1.873121,-2.04027 -0.692695,-0.73153 -1.304176,-1.52319 -1.869123,-2.35767 -0.553737,-0.7203 -1.164623,-1.40153 -1.860464,-1.98692 -0.745954,-0.65731 -1.490981,-1.32719 -2.332829,-1.86056 -0.854293,-0.57256 -1.656057,-1.20701 -2.482974,-1.81582 -0.874625,-0.62847 -1.679189,-1.33513 -2.496861,-2.03564 -0.957498,-0.91155 -1.833419,-1.92482 -2.646717,-2.96537 -0.584992,-0.9614 -1.213006,-1.90404 -1.68946,-2.925 -0.465544,-1.05481 -0.838721,-2.14881 -1.366503,-3.17645 -0.453039,-1.04725 -0.925187,-2.08171 -1.292823,-3.1646 -0.400609,-1.09422 -0.894283,-2.15198 -1.410227,-3.19586 -0.443746,-1.02971 -0.877586,-2.06725 -1.540751,-2.98111 -0.650695,-0.83535 -1.253993,-1.70242 -1.784084,-2.62014 -0.696069,-0.93006 -1.420087,-1.83884 -2.097356,-2.78309 -0.67082,-0.88199 -1.390721,-1.72908 -2.088552,-2.58989 -0.712577,-0.91444 -1.3858,-1.85418 -1.99938,-2.83839 -0.688494,-1.03517 -1.413127,-2.05041 -2.01305,-3.14053 -0.619825,-1.22911 -1.275348,-2.44939 -1.576841,-3.80645 -0.353475,-1.29631 -0.493417,-2.60397 -0.420893,-3.94945 -0.005,-1.31558 -0.0091,-2.63454 -0.156186,-3.94364 -0.06021,-0.41207 -0.237116,-2.179 -0.859429,-2.18152 -0.08696,-3.5e-4 -0.160824,0.0662 -0.241236,0.0993 3.656659,-0.10142 7.313317,-0.20284 10.969975,-0.30426 -0.308016,0.0108 -0.301795,-0.0443 -0.537929,0.25629 -0.356821,0.45425 -0.463225,1.07271 -0.879288,1.49108 -0.874419,0.8789 -1.934971,1.53839 -2.912841,2.29482 -3.982287,1.87757 -1.203253,0.65232 -12.154431,0.51489 -0.486904,-0.006 -0.582965,-1.35816 -0.486363,-1.67197 0.07768,-0.25234 0.231394,-0.47465 0.347091,-0.71198 2.421611,-3.84504 5.367267,-7.33137 8.461337,-10.64938 0.507084,-0.53498 0.99485,-1.08896 1.521252,-1.60494 2.166898,-2.124 4.628266,-3.92998 6.770199,-6.08224 1.813847,-1.70708 3.778009,-3.28352 5.998102,-4.43246 3.903148,0.005 7.80681,-0.0475 11.709444,0.0161 0.198698,0.003 0.37958,0.11811 0.567121,0.18384 0.946853,0.33181 1.88127,0.69772 2.844554,0.98302 3.390705,1.34105 6.644605,3.00078 9.804559,4.81634 7.934621,4.56666 15.649663,9.49747 23.570682,14.08995 2.694403,1.56217 5.404905,3.0964 8.10736,4.64461 9.20189,5.0425 18.42362,10.01384 27.83851,14.65176 4.99268,2.45947 10.08827,4.93213 15.26565,7.00597 1.43084,0.57314 2.90804,1.02296 4.36206,1.53443 -3.06058,0.14699 -6.14298,0.0476 -9.18173,0.44098 -0.29675,0.0384 0.3812,0.46312 0.59704,0.67037 0.0375,0.036 -0.0238,-0.1033 -0.0519,-0.147 -0.21357,-0.3318 -0.46798,-0.63597 -0.68393,-0.96623 -0.10614,-0.16231 -0.2057,-0.32882 -0.30855,-0.49323 -0.67751,-1.12883 -1.21823,-2.32167 -1.79897,-3.5017 -0.76592,-1.48005 -1.47099,-2.99496 -2.38491,-4.39293 -1.78901,-2.81876 -3.6765,-5.57694 -5.75147,-8.1949 -1.28602,-1.52592 -2.5969,-3.00113 -4.018,-4.40404 -0.47702,-0.47092 -1.31751,-1.3425 -1.98095,-1.70233 -0.1837,-0.0996 -0.40182,-0.115 -0.60273,-0.1725 3.57082,-0.0222 7.14379,0.0592 10.71245,-0.0667 0.23746,-0.008 -0.43072,-0.46482 -0.62943,-0.33455 -0.0826,0.0542 -0.10372,0.17749 -0.1075,0.27622 -0.0185,0.48226 0.20752,1.17303 0.31664,1.59572 1.61474,4.59833 4.07161,8.8364 6.3977,13.10059 1.84968,3.32638 3.57908,6.81958 5.89535,9.85915 0.56638,0.74326 0.84468,0.95551 1.50181,1.56868 1.3126,1.19619 2.69944,2.27312 4.46341,2.71015 4.17075,0.61798 1.04195,0.11699 -9.72686,0.15219 -0.22101,7.2e-4 0.44203,-0.005 0.66292,-0.0123 0.50135,-0.0166 0.85472,-0.0374 1.35468,-0.0981 0.2476,-0.03 0.4937,-0.0714 0.74055,-0.10707 1.78257,-0.4082 3.38019,-1.2301 4.78965,-2.40385 1.21511,-1.13995 1.98687,-2.47868 2.31808,-4.12817 1.18369,-4.84514 1.44749,-9.8703 2.00147,-14.81028 0.67558,-8.12865 1.37476,-16.25394 2.2129,-24.36749 0.2376,-2.35146 0.45742,-4.70471 0.70114,-7.05554 0.3819,-3.68362 0.88195,-7.35714 1.01753,-11.06224 -0.0162,-0.86387 0.0443,-1.56657 -0.18728,-2.38723 -0.0388,-0.13746 -0.0878,-0.29695 -0.20744,-0.37492 -0.07,-0.0456 -0.31857,0.0875 -0.23507,0.0866 11.192,-0.11742 14.21916,1.16255 10.53753,-0.33267 -0.53186,0.54456 -0.74265,1.12158 -1.0021,1.83788 -0.46088,1.27247 -0.91998,2.54532 -1.39254,3.81368 -1.46298,4.79502 -2.76053,9.64488 -3.58063,14.59692 -0.35967,2.83316 -0.4989,3.57255 -0.67756,6.45417 -0.29541,4.76486 -0.1773,9.55679 0.21748,14.31145 0.68334,7.1774 1.53183,14.40782 3.69897,21.31266 2.51382,3.7909 1.02443,1.03507 -10.18648,1.18911 -0.17279,0.002 0.3437,-0.10185 0.469,-0.22085 0.20843,-0.19793 0.33224,-0.46917 0.50192,-0.70118 0.96227,-1.31572 0.25875,-0.28532 1.24364,-1.78838 1.02216,-1.3537 2.07501,-2.68723 3.15861,-3.99251 0.22834,-0.27504 0.47978,-0.53077 0.70122,-0.8114 0.20178,-0.2557 0.37805,-0.53053 0.56708,-0.7958 0.61025,-0.74321 0.32334,-0.44554 0.92747,-1.01496 0.17118,-0.16136 0.71601,-0.53113 0.80859,-0.74091 0.0584,-0.13244 0.072,-0.28044 0.10796,-0.42066 0.48856,-2.0551 0.19276,-4.22403 0.2874,-6.30925 -0.0406,-9.61029 -0.2167,-19.2201 -0.5838,-28.8238 -0.66118,-15.06952 -1.59327,-30.14854 -3.99687,-45.05794 -0.80943,-4.56254 -1.63985,-9.11444 -2.57441,-13.65307 -0.18387,-0.89298 -0.36754,-1.78604 -0.56006,-2.677193 -0.10287,-0.476213 -0.16926,-0.963488 -0.3261,-1.424752 -0.0492,-0.144802 -0.18768,-0.241539 -0.28153,-0.362308 3.68656,-0.197006 7.36864,-0.515015 11.05967,-0.591019 0.12682,-0.0026 -0.0885,0.239829 -0.10595,0.365464 -0.0408,0.294417 -0.0629,0.591915 -0.0681,0.889106 -0.0382,2.197282 0.14799,4.398802 0.10451,6.596232 0.087,5.8733 0.28219,11.75593 0.0404,17.62661 -0.27628,2.52465 -0.81087,5.01883 -1.36678,7.49407 -1.90683,7.81779 -3.99419,15.59142 -6.06834,23.36602 -1.22857,4.10763 -1.14779,4.02071 -2.45814,7.77767 -0.28124,0.80636 -0.0616,2.15769 -0.87851,2.40666 -0.82509,0.25147 -10.79264,4.42656 -12.3676,0.73329 -0.14296,-0.33524 -0.16233,-0.71059 -0.24349,-1.06589 -0.4455,-3.99373 -0.50693,-8.01203 -0.7425,-12.02178 -0.21403,-5.90924 -0.0515,-11.82919 -0.39429,-17.73596 -0.47434,-8.60436 -1.26904,-17.19522 -2.84027,-25.67714 -0.24472,-1.29008 -0.45705,-2.58672 -0.73415,-3.87023 -0.87917,-4.07224 -2.09583,-8.083925 -3.82202,-11.879603 -0.27883,-0.548255 -1.29219,-2.533452 -1.57973,-3.126764 -0.48347,-0.997593 -1.06106,-2.100502 -1.04303,-3.250507 0.004,-0.266586 0.0989,-0.523987 0.14834,-0.78598 0.14855,-0.181002 0.24636,-0.420064 0.44564,-0.543006 0.72078,-0.444671 3.05429,-0.500765 3.7915,-0.50377 2.89172,-0.01179 11.2843,-0.003 16.15615,0.0016 7.12514,0.01767 14.25753,-0.01471 21.37505,0.349334 0.63007,0.08746 1.30204,0.02012 1.89022,0.262374 0.69823,0.287575 1.24121,1.078121 0.92659,1.840492 -0.18349,0.444607 -1.57767,0.87284 -1.77215,0.928769 -0.55948,0.160895 -1.13674,0.251838 -1.7051,0.377757 -3.71188,0.75628 -7.47117,1.276731 -11.23085,1.735874 -1.27091,0.155207 -2.5406,0.324368 -3.81552,0.442227 -1.34382,0.12423 -2.69246,0.189237 -4.03869,0.283855 -4.12933,0.177539 -8.25733,0.272576 -12.38864,0.391393 -2.50921,0.07216 -5.01722,0.209472 -7.52743,0.223092 -4.68294,0.02541 -9.36602,-0.0056 -14.04903,-0.0084 -0.61343,-0.06119 -2.45044,-0.05166 -3.09711,-0.668819 -1.3809,-1.317874 0.58172,-2.766408 1.36546,-3.604805 4.64077,-4.319894 9.69322,-8.161215 14.72044,-12.015181 3.32734,-2.561052 2.60376,-2.061847 5.80467,-4.321906 0.71853,-0.507328 1.44497,-1.003348 2.16745,-1.505022 0.48947,-0.322058 0.98941,-0.628731 1.4684,-0.966174 0.48957,-0.344903 1.24032,-0.964011 1.73797,-1.367894 3.65042,-2.491355 0.15629,-0.248025 11.97283,0.385606 0.0953,0.0051 -0.17162,-0.115956 -0.26649,-0.105091 -0.63357,0.07256 -1.13643,0.71285 -1.57876,1.088046 -0.50835,0.547768 -1.08142,1.062263 -1.53141,1.660971 -0.67287,0.895261 -1.19935,1.901767 -1.67083,2.912399 -2.87786,5.733828 -5.16201,11.739057 -7.56144,17.682194 -3.98967,10.083839 -8.13827,20.131679 -11.09412,30.582559 -0.32636,1.26657 -0.88082,3.27878 -1.13917,4.67902 -0.0639,0.34654 0.22021,1.0012 -0.12889,1.04929 -11.72339,1.61488 -11.23121,4.10703 -11.31464,-0.60133 -0.10532,-5.43348 -0.31223,-10.86437 -0.55242,-16.29342 -0.58376,-12.72565 -1.31605,-25.445256 -1.56794,-38.183806 -0.2065,-8.303785 -0.29616,-16.648168 -1.44563,-24.888616 -0.13124,-0.41456 -0.24615,-1.095203 -0.63982,-1.415937 -0.0996,-0.08118 -0.50324,-0.08614 -0.37479,-0.09044 3.60279,-0.120754 7.20759,-0.171799 10.81134,-0.259356 0.15019,-0.0036 -0.32622,-0.07659 -0.45063,0.0076 -0.22045,0.149234 -0.32737,0.41989 -0.49106,0.629835 -0.14206,0.378446 -0.32034,0.745211 -0.42619,1.135337 -0.39052,1.439349 -0.51496,2.85628 -0.59257,4.349268 -0.2396,4.609099 0.0342,9.227208 0.0864,13.836132 0.58295,14.836913 1.28488,29.711973 3.65299,44.391713 0.86138,4.89284 0.79772,5.24064 1.98558,9.65664 0.25609,0.95201 0.54501,1.89562 0.86071,2.82956 0.17214,0.50925 0.31639,1.04059 0.60154,1.49628 0.0792,0.12655 0.57323,0.13203 0.42436,0.14319 -3.61333,0.27082 -7.23442,0.42556 -10.85164,0.63834 0.42805,-0.72282 0.43246,-1.4371 0.59145,-2.25822 0.24732,-1.27736 0.56956,-2.5383 0.87957,-3.80135 0.85653,-3.52059 2.22409,-6.88696 3.69493,-10.19242 2.13547,-4.99439 4.14837,-10.045682 5.79127,-15.226508 0.49915,-1.604619 0.50771,-1.45323 0.78483,-2.881413 0.032,-0.164824 0.0866,-0.33142 0.0713,-0.49862 -0.004,-0.03885 -0.15391,0.02283 -0.1149,0.02229 3.68366,-0.05047 7.36782,-0.0801 11.05068,-0.17213 0.0765,-0.0019 -0.13811,-0.0659 -0.20716,-0.09885 -1.11526,1.67333 -0.72798,4.323824 -0.9114,6.223439 -0.23455,9.028702 0.0614,18.061062 0.22572,27.088542 0.54605,19.07223 1.27676,38.16863 3.55659,57.12627 0.3467,2.52087 0.66183,5.04627 1.0401,7.56259 0.62696,4.17062 1.25764,8.49568 2.98197,12.38675 2.89869,2.92596 0.13955,-0.008 -10.67483,0.40254 -0.12531,0.005 0.0853,0.37141 0.1993,0.31909 0.16661,-0.0765 0.174,-0.32823 0.21153,-0.50768 0.0773,-0.36986 0.099,-0.74951 0.13012,-1.12609 0.0476,-0.57585 0.0705,-1.15346 0.10575,-1.73019 0.12712,-9.90677 0.34112,-19.81222 0.58296,-29.71679 0.2361,-9.35906 0.51325,-18.71854 0.67685,-28.07923 0.18991,-10.86653 0.24708,-21.73596 0.59013,-32.59969 0.33208,-11.328679 0.32004,-11.671778 0.7416,-23.022305 0.48325,-13.011602 1.11424,-26.019088 1.30521,-39.039928 -0.0603,-4.071413 -0.002,-5.429512 -0.29141,-9.147845 -0.0562,-0.721268 -0.13556,-1.441224 -0.24153,-2.15687 -0.0572,-0.386387 -0.13406,-0.771598 -0.24747,-1.145371 -0.03,-0.0989 -0.28048,-0.249326 -0.17725,-0.254394 3.66878,-0.180116 7.34407,-0.185154 11.01611,-0.277731 -0.0769,-0.01031 -0.18443,-0.09325 -0.23054,-0.03092 -0.30029,0.405927 -0.27827,1.692978 -0.28251,1.944615 -0.0498,2.963632 0.33686,5.907107 0.61524,8.851195 1.34044,12.219451 3.09589,24.39218 5.27333,36.491303 1.14464,5.305976 2.31404,10.577417 3.84963,15.786827 0.49684,1.685507 1.43406,4.662509 2.11463,6.427984 0.24256,0.62921 0.53837,1.23658 0.80756,1.85486 0.19732,0.3526 0.3589,0.72772 0.59194,1.0578 0.11813,0.16732 0.65369,0.39542 0.45015,0.41823 -11.89199,1.33288 -10.36442,4.02489 -11.39298,-1.60621 -0.72387,-3.625739 -1.59516,-7.212931 -2.57957,-10.776977 -0.89574,-3.350196 -1.70056,-6.723371 -2.9637,-9.962271 -0.72044,-1.728642 -1.57164,-3.450713 -1.96713,-5.284888 3.74538,-0.35891 7.48486,-0.785795 11.23613,-1.076729 0.11258,-0.0087 0.18993,0.122162 0.28493,0.183199 0.2054,0.13198 0.41343,0.259957 0.61626,0.395852 1.2411,0.831513 2.43719,1.727414 3.64282,2.608741 3.92775,2.762137 7.90815,5.479282 12.20026,7.652706 3.28636,1.582672 6.65829,3.082795 10.31151,3.558385 1.81674,0.225027 3.64362,0.284573 5.46353,0.47736 0,0 -11.17619,1.643576 -11.17619,1.643576 z"
   inkscape:connector-curvature="0" /></svg>