<svg xmlns="http://www.w3.org/2000/svg" xmlns:xlink="http://www.w3.org/1999/xlink" version="1.1" style="enable-background:new 0 0 286.054 286.054;" xml:space="preserve" width="286.054" height="286.054"><rect id="backgroundrect" width="100%" height="100%" x="0" y="0" fill="none" stroke="none"/>
















<g class="currentLayer" style=""><title>Layer 1</title><g id="svg_1" class="selected" fill-opacity="1" fill="#ffa100">
	<path style="" d="M143.027,0C64.031,0,0,64.04,0,143.027c0,78.996,64.031,143.027,143.027,143.027   s143.027-64.031,143.027-143.027C286.054,64.04,222.022,0,143.027,0z M143.027,259.236c-64.183,0-116.209-52.026-116.209-116.209   S78.844,26.818,143.027,26.818s116.209,52.026,116.209,116.209S207.21,259.236,143.027,259.236z M173.232,180.205h-32.038   c15.661-18.459,40.852-39.753,40.852-63.736c0-21.91-16.564-35.882-39.216-35.882c-22.661,0-43.847,17.977-43.847,39.717   c0,6.731,4.604,12.586,13.445,12.586c17.691,0,8.108-28.498,29.294-28.498c7.554,0,13.266,6.204,13.266,13.284   c0,6.204-3.138,11.558-6.454,16.046c-13.999,18.969-30.581,34.496-45.867,51.579c-1.841,2.065-4.246,5.176-4.246,8.796   c0,7.938,6.266,11.38,14.365,11.38h61.528c6.999,0,13.266-4.568,13.266-12.497C187.58,185.05,181.331,180.205,173.232,180.205z" id="svg_2" fill="#ffa100"/>
</g><g id="svg_3">
</g><g id="svg_4">
</g><g id="svg_5">
</g><g id="svg_6">
</g><g id="svg_7">
</g><g id="svg_8">
</g><g id="svg_9">
</g><g id="svg_10">
</g><g id="svg_11">
</g><g id="svg_12">
</g><g id="svg_13">
</g><g id="svg_14">
</g><g id="svg_15">
</g><g id="svg_16">
</g><g id="svg_17">
</g></g></svg>