<?xml version="1.0" encoding="UTF-8" standalone="no"?>
<svg
   xmlns:dc="http://purl.org/dc/elements/1.1/"
   xmlns:cc="http://creativecommons.org/ns#"
   xmlns:rdf="http://www.w3.org/1999/02/22-rdf-syntax-ns#"
   xmlns:svg="http://www.w3.org/2000/svg"
   xmlns="http://www.w3.org/2000/svg"
   xmlns:sodipodi="http://sodipodi.sourceforge.net/DTD/sodipodi-0.dtd"
   xmlns:inkscape="http://www.inkscape.org/namespaces/inkscape"
   version="1.1"
   style="enable-background:new 0 0 286.054 286.054;"
   xml:space="preserve"
   width="286.054"
   height="286.054"
   id="svg32"
   sodipodi:docname="r2c.svg"
   inkscape:version="0.92.4 (5da689c313, 2019-01-14)"><metadata
   id="metadata38"><rdf:RDF><cc:Work
       rdf:about=""><dc:format>image/svg+xml</dc:format><dc:type
         rdf:resource="http://purl.org/dc/dcmitype/StillImage" /><dc:title></dc:title></cc:Work></rdf:RDF></metadata><defs
   id="defs36" /><sodipodi:namedview
   pagecolor="#ffffff"
   bordercolor="#666666"
   borderopacity="1"
   objecttolerance="10"
   gridtolerance="10"
   guidetolerance="10"
   inkscape:pageopacity="0"
   inkscape:pageshadow="2"
   inkscape:window-width="1920"
   inkscape:window-height="1008"
   id="namedview34"
   showgrid="false"
   inkscape:zoom="2.7442372"
   inkscape:cx="143.02699"
   inkscape:cy="143.02699"
   inkscape:window-x="-11"
   inkscape:window-y="-11"
   inkscape:window-maximized="1"
   inkscape:current-layer="svg32" /><rect
   id="backgroundrect"
   width="100%"
   height="100%"
   x="0"
   y="0"
   fill="none"
   stroke="none" />
















<g
   class="currentLayer"
   style=""
   id="g30"><title
     id="title11">Layer 1</title><g
     id="svg_1"
     class="selected"
     fill-opacity="1"
     fill="#ffa100">
	<path
   style=""
   d="M143.027,0C64.031,0,0,64.04,0,143.027c0,78.996,64.031,143.027,143.027,143.027   s143.027-64.031,143.027-143.027C286.054,64.04,222.022,0,143.027,0z M143.027,259.236c-64.183,0-116.209-52.026-116.209-116.209   S78.844,26.818,143.027,26.818s116.209,52.026,116.209,116.209S207.21,259.236,143.027,259.236z M173.232,180.205h-32.038   c15.661-18.459,40.852-39.753,40.852-63.736c0-21.91-16.564-35.882-39.216-35.882c-22.661,0-43.847,17.977-43.847,39.717   c0,6.731,4.604,12.586,13.445,12.586c17.691,0,8.108-28.498,29.294-28.498c7.554,0,13.266,6.204,13.266,13.284   c0,6.204-3.138,11.558-6.454,16.046c-13.999,18.969-30.581,34.496-45.867,51.579c-1.841,2.065-4.246,5.176-4.246,8.796   c0,7.938,6.266,11.38,14.365,11.38h61.528c6.999,0,13.266-4.568,13.266-12.497C187.58,185.05,181.331,180.205,173.232,180.205z"
   id="svg_2"
   fill="#ffa100" />
</g><g
     id="svg_3">
</g><g
     id="svg_4">
</g><g
     id="svg_5">
</g><g
     id="svg_6">
</g><g
     id="svg_7">
</g><g
     id="svg_8">
</g><g
     id="svg_9">
</g><g
     id="svg_10">
</g><g
     id="svg_11">
</g><g
     id="svg_12">
</g><g
     id="svg_13">
</g><g
     id="svg_14">
</g><g
     id="svg_15">
</g><g
     id="svg_16">
</g><g
     id="svg_17">
</g></g><path
   style="fill:#ffa100;fill-opacity:1;stroke-width:0.36439997"
   d="M 132.71447,258.65273 C 101.48042,255.84686 72.288663,240.2046 52.601881,215.72479 20.914857,176.3231 18.384446,120.89502 46.355198,78.892596 64.696673,51.350028 93.075247,33.31506 126.15527,28.178569 c 6.07188,-0.942809 21.39796,-1.324357 27.74542,-0.690732 27.61281,2.756408 52.17968,14.399667 71.5692,33.919617 26.16615,26.342153 37.98155,63.437476 32.03248,100.568336 -3.75068,23.40966 -15.25552,45.84939 -32.2303,62.86391 -18.85172,18.89585 -42.80299,30.45513 -69.4182,33.50237 -4.49798,0.51498 -18.73693,0.70615 -23.1394,0.31066 z m 44.2893,-53.31613 c 4.33579,-0.82226 7.7781,-3.29716 9.52838,-6.85055 0.7181,-1.45788 0.84232,-2.27431 0.84232,-5.53626 0,-3.34063 -0.11315,-4.04766 -0.89158,-5.5713 -1.0817,-2.11721 -3.33259,-4.42935 -5.30322,-5.44754 -3.19627,-1.65145 -4.16206,-1.72628 -22.34016,-1.73083 l -17.23856,-0.004 0.54632,-0.77998 c 0.30047,-0.42899 4.22119,-4.81545 8.71269,-9.7477 12.48655,-13.71181 15.75487,-17.58001 20.28266,-24.00541 4.79306,-6.80185 7.93676,-13.15036 9.78614,-19.76251 0.87372,-3.12383 0.96846,-4.06658 0.97044,-9.6566 0.002,-5.30014 -0.11761,-6.64213 -0.82736,-9.2922 -1.51306,-5.64951 -4.29296,-10.715836 -8.07194,-14.710961 -7.21964,-7.632584 -17.39935,-11.628408 -29.71783,-11.665089 -5.86695,-0.01749 -9.07568,0.467187 -14.24245,2.151239 -6.98022,2.275121 -13.21722,6.008763 -18.17457,10.879792 -3.67556,3.611569 -5.98019,6.713469 -8.01984,10.794219 -2.931775,5.86567 -4.00033,10.43046 -3.768477,16.09869 0.17497,4.27756 1.026467,6.47234 3.452097,8.89797 3.51015,3.51015 10.87502,4.65582 15.32753,2.38432 3.07382,-1.56815 5.08023,-4.73735 7.76072,-12.25838 2.99131,-8.39313 4.99811,-11.39735 8.89478,-13.31567 5.72807,-2.81992 12.70667,-1.8031 16.59793,2.41841 4.45855,4.83696 4.82899,11.3514 1.07757,18.94965 -1.33795,2.70993 -6.42654,9.84189 -10.50446,14.72261 -6.95082,8.31923 -11.35821,13.19958 -25.01047,27.6944 -17.577167,18.66197 -18.211555,19.51244 -18.211555,24.4148 0,6.03078 3.615535,9.73327 10.663575,10.92004 2.61301,0.43999 65.56278,0.44849 67.87932,0.009 z"
   id="path40"
   inkscape:connector-curvature="0" /><path
   style="fill:#ffa100;fill-opacity:1"
   id="path42"
   d="m 17.725056,118.60483 c 0.681598,-1.26555 1.397711,-2.51739 2.039301,-3.8051 2.106749,-4.40784 4.70872,-8.55447 7.171867,-12.76688 2.082175,-3.830685 4.445049,-7.556887 6.220335,-11.546689 0.600443,-1.269657 0.686055,-2.678177 1.051159,-4.014387 0.428991,-1.128902 1.112377,-2.140483 1.754023,-3.157323 1.304185,-2.358381 2.968477,-4.478314 4.533382,-6.662084 2.204567,-3.076396 2.954928,-4.234835 5.148547,-7.474423 4.134303,-6.128862 8.051028,-12.398725 11.734971,-18.807597 1.122446,-1.832772 2.011477,-3.629156 3.566134,-5.131809 1.029053,-0.777587 2.231686,-1.29164 3.424363,-1.768207 0.193823,-0.04455 0.390785,-0.07715 0.581468,-0.133651 0.20117,-0.0596 1.166037,-0.434199 1.317478,-0.48154 0.726119,-0.226991 1.485971,-0.382626 2.229555,-0.539644 1.453208,-0.382796 2.832355,-0.977975 4.267914,-1.409741 2.961668,-0.943569 6.037918,-1.455225 9.091139,-2.001889 3.318228,-0.627204 6.670218,-1.05579 10.033896,-1.342807 0.974657,-0.182298 2.041462,0.09253 2.981264,-0.294652 0.333573,-0.137428 1.129521,-0.652039 1.399256,-0.819602 2.235188,-1.576646 4.473062,-3.147893 6.832292,-4.534987 1.62231,-0.853601 3.28831,-1.703168 5.04795,-2.238849 1.06939,-0.530412 2.17815,-0.923645 3.31685,-1.275554 1.24223,-0.238646 2.4928,-0.475992 3.68787,-0.905791 1.52626,-0.486517 3.00028,-1.107142 4.54533,-1.539194 2.45005,-0.792505 4.912,-1.53075 7.42058,-2.114301 2.42188,-0.528432 4.81131,-1.189625 7.24263,-1.674326 1.13014,-0.255958 2.22825,-0.637314 3.37513,-0.819672 1.89594,-0.301461 -0.28749,0.13172 1.54276,-0.250672 1.46762,-0.414962 2.96879,-0.626742 4.48592,-0.74023 7.37629,-0.393843 14.8856,-0.04727 22.17477,0.01548 0.70929,0.0061 1.12281,0.462501 1.56788,0.938545 0.95157,1.246661 1.06237,2.580409 0.76044,4.068382 -0.44857,1.187214 -1.26408,2.226907 -2.33198,2.914571 -1.10726,0.728037 -2.19299,1.475134 -3.17499,2.368309 -1.10819,0.943972 -2.21117,1.855488 -3.55623,2.433613 -0.79676,0.259378 -1.65288,0.524872 -2.50274,0.521076 -20.77952,-0.0928 -14.89517,3.544256 -21.13813,-0.423868 -0.43614,-0.552493 -0.38998,-0.371128 -0.35132,-1.448052 0.045,-1.253763 0.40321,-1.608753 1.37421,-2.20794 1.13908,-0.569191 2.40662,-0.717503 3.65815,-0.821568 8.11902,-0.301778 16.25022,-0.08786 24.37456,-0.06796 2.15027,0.0037 4.30055,0.0044 6.45083,0.0049 1.98651,4.6e-4 3.97302,4.27e-4 5.95953,3.97e-4 -34.24577,3.5e-5 -23.32554,5.4e-5 -15.89833,-4.6e-5 41.39584,0.448203 13.44554,-1.544461 21.45528,0.395181 0.20297,0.04915 0.41534,0.06408 0.61182,0.134855 0.21879,0.07881 0.41081,0.219331 0.62473,0.310547 0.5108,0.21781 0.72803,0.247455 1.26383,0.377827 0.9306,0.453166 1.97003,0.626314 2.92621,1.008069 0.59297,0.236743 0.87533,0.45641 1.41298,0.802492 0.68864,0.326926 1.29543,0.79239 1.94438,1.181538 0.20976,0.125779 0.44473,0.206354 0.65305,0.334492 1.89723,1.166993 -0.56384,-0.182038 1.25586,0.789002 1.32003,1.151946 -0.1602,-0.08859 1.08942,0.820966 0.164,0.119366 0.30393,0.269294 0.46559,0.391807 0.13113,0.09938 0.29285,0.158687 0.41138,0.272811 1.02179,0.983823 -0.22947,0.05494 0.69808,0.704874 0.91078,0.754273 -0.12649,-0.04789 0.85495,0.543086 0.42857,0.258064 0.40456,0.382436 0.85945,0.559533 0.81972,0.319131 0.0662,-0.214951 0.85198,0.45858 0.14019,0.06602 0.29779,0.103519 0.42058,0.198055 0.15489,0.119261 0.25628,0.295971 0.39712,0.431539 0.50792,0.488904 1.00392,0.665064 1.68542,0.773765 0.45586,0.443768 1.15907,0.417883 1.66427,0.633957 0.20079,0.08588 0.36369,0.242176 0.55138,0.353814 0.5266,0.313237 0.42329,0.246263 0.9845,0.420228 1.01409,0.645757 2.19618,0.922686 3.36665,1.13144 1.31035,0.58532 2.4744,1.454464 3.75623,2.092028 1.45467,1.2752 3.14291,2.231649 4.72625,3.332633 0.33485,0.265347 0.65383,0.552054 1.00455,0.796041 0.32728,0.227681 0.68577,0.406918 1.02521,0.616023 0.65222,0.401775 1.27598,0.84903 1.93297,1.242955 1.58082,0.947844 0.15865,-0.05843 1.57737,1.0005 1.52916,0.819358 2.72475,2.08754 4.09509,3.122691 0.9304,0.90528 1.98893,1.661443 2.95921,2.520027 0.31085,0.275065 3.68084,3.450855 3.93735,3.686436 2.59167,2.327617 1.33351,1.183694 3.77642,3.429635 1.22534,1.189947 2.40232,2.438984 3.65005,3.605804 0.2518,0.235472 0.53599,0.434593 0.78807,0.669765 1.30899,1.221209 -0.0209,0.144745 1.15683,1.061806 0.16174,0.153653 0.30898,0.324194 0.48523,0.460959 0.14614,0.113394 0.32469,0.1788 0.47613,0.285007 0.72764,0.510303 1.16686,1.15335 1.62507,1.899698 0.75297,1.258579 1.28712,2.624759 1.93927,3.934266 0.49194,0.933196 0.9179,1.90158 1.42224,2.82725 0.10997,0.201837 0.24557,0.388616 0.36835,0.582924 0.11478,0.221158 0.22956,0.442317 0.34434,0.663475 0.60102,0.737365 0.8977,1.700001 1.48807,2.43915 0.14926,0.186886 0.34961,0.327339 0.5097,0.505042 0.21489,0.238535 0.40926,0.494785 0.61389,0.742178 1.50305,2.011982 2.91798,4.08247 4.33293,6.156556 0.77672,1.101179 1.63958,2.168143 2.20609,3.400783 0.75568,1.644226 -0.0759,0.101501 0.64388,1.386306 0.0939,0.180494 0.198,0.356043 0.28172,0.541484 0.0877,0.194342 0.14461,0.401633 0.2319,0.59618 0.15822,0.352671 0.32733,0.700714 0.50826,1.042295 0.0883,0.166671 0.21402,0.312538 0.29467,0.483036 0.11545,0.24411 0.19421,0.503946 0.29132,0.755918 0.56275,1.599676 0.94194,3.249333 1.50904,4.847693 0.59585,1.73588 1.07834,3.49633 1.35749,5.31072 0.13664,0.70293 0.0922,1.42732 0.17471,2.13436 0.0666,0.57038 0.24646,1.14742 0.36259,1.70933 0.34835,2.3834 0.54278,4.78884 0.69867,7.19275 0.0407,0.87962 0.0876,1.75898 0.12222,2.63887 0.0383,0.97483 0.0472,1.95083 0.0966,2.92517 0.18757,3.69842 0.56552,7.39032 0.8393,11.08316 0.36395,4.59948 0.40909,9.21376 0.44512,13.82473 0.0241,4.54488 0.0201,9.08984 0.0157,13.63475 -0.003,2.28138 -0.005,4.56276 -0.006,6.84415 0.01,1.50106 0.11066,2.80534 -0.38158,4.24799 -0.0576,0.15825 -0.12991,0.3119 -0.17285,0.47474 -0.3085,1.16977 -0.42745,2.4124 -0.66267,3.5966 -0.48134,2.42322 -0.40374,1.96124 -1.07578,4.47636 -0.99994,4.11695 -2.37341,8.12717 -3.94033,12.05923 -0.68896,1.64986 -1.36879,3.30306 -2.00934,4.97217 -0.48389,1.42634 -1.13822,2.77258 -1.78969,4.12776 -0.5935,1.44955 -1.1979,2.89141 -1.88766,4.29802 -0.73933,1.32272 -1.59561,2.57679 -2.47619,3.80858 -0.97497,1.2935 -2.25783,2.31877 -3.49045,3.35753 -1.09989,0.88655 -2.14042,1.84132 -3.23015,2.74425 -1.31482,0.84028 -2.46859,1.89604 -3.63441,2.92763 -1.34678,1.39059 -2.66051,2.81785 -3.88209,4.3202 -1.2963,1.79923 -2.97924,3.21981 -4.68635,4.60668 -1.90882,1.63044 -4.01976,2.99893 -6.08471,4.4192 -2.41573,1.79768 -4.9111,3.48476 -7.28482,5.33818 -1.95412,1.60367 -3.94306,3.15817 -6.00313,4.6229 -1.48001,1.11651 -3.04187,2.10546 -4.69209,2.94822 -1.36983,0.80545 -2.79764,1.49275 -4.23377,2.1748 -1.87038,0.90039 -3.67985,1.917 -5.51979,2.87552 -2.01943,1.04916 -4.08952,1.99364 -6.21314,2.81083 -2.1208,1.00862 -4.34864,1.72947 -6.56906,2.47594 -2.98516,1.03465 -5.99017,2.01494 -9.01074,2.9419 -2.10798,0.58211 -4.22429,1.14266 -6.37564,1.54056 -1.36622,0.13729 -2.6799,0.55804 -4.03277,0.78511 -7.50283,0.77766 -15.64256,0.16058 -22.72093,0.13258 -0.88425,-0.004 -1.79426,-0.13729 -2.67879,-0.18751 -1.54586,0.009 -3.0665,-0.21065 -4.60237,-0.33976 -1.51942,-0.1133 -3.04405,-0.1138 -4.56683,-0.12134 -0.24219,-3.3e-4 -0.48439,-8.3e-4 -0.72658,-0.001 -0.57528,-4.2e-4 -0.76274,3e-5 -1.3344,9.9e-4 -0.21896,3.7e-4 -0.87586,0.001 -0.65689,0.001 19.7302,9.7e-4 25.98679,0.002 18.76972,8.7e-4 -9.92285,3.04357 -16.46205,-0.10949 -24.97131,-0.68684 -0.4559,-0.10868 -0.93835,0.0467 -1.39497,-0.0423 -0.41779,-0.0814 -1.19434,-0.38531 -1.33253,-0.86283 -0.0754,-0.26056 -0.0605,-0.53912 -0.0907,-0.80867 0.0978,-0.55534 0.0927,-1.13901 0.29326,-1.666 0.0889,-0.23356 0.78758,-0.40389 0.97354,-0.40553 12.27388,-0.10778 14.45233,-0.68826 22.03299,0.0739 0.41909,0.11636 0.87151,-0.0233 1.29156,0.0742 0.21382,0.0497 0.3995,0.18266 0.60414,0.26209 0.53803,0.20883 1.07248,0.33656 1.6401,0.426 1.16018,0.12184 2.32775,0.098 3.49236,0.0986 -0.8205,-0.002 3.28198,-0.0101 2.46148,-0.0102 -17.29007,-0.002 -26.12027,0.006 -18.88332,-1.9e-4 1.24337,-0.002 2.48674,-0.004 3.73011,-0.005 7.25773,-0.004 8.64662,-0.006 21.28848,0.12722 0.346,0.004 0.68171,0.12485 1.0264,0.15511 0.18354,0.0161 0.37388,-0.0135 0.55161,0.035 0.20251,0.0553 0.37905,0.18054 0.56857,0.27081 1.14446,0.42724 2.36671,0.47644 3.57356,0.5069 -0.0569,0.46065 1.00608,-0.31997 1.0613,0.0296 0.14593,0.9238 0.24345,1.90282 -2.7e-4,2.80575 -0.0797,0.29528 -0.5475,0.30119 -0.85019,0.34504 -0.53188,0.077 -1.07483,0.01 -1.61226,0.0117 -0.79644,0.003 -1.59288,0.002 -2.38933,0.003 -11.24583,-0.27501 -22.4927,0.31042 -33.72949,-0.21076 -2.23664,-0.13213 -4.4767,-0.14706 -6.71635,-0.1568 -7.9909,-0.0131 -23.901351,-0.005 11.19804,-0.005 -2.46151,4.3e-4 -4.92302,0.001 -7.38453,0.002 -0.28048,5e-5 -0.56096,0.002 -0.84144,1.7e-4 -6.94822,-0.0345 -13.89679,-0.0283 -20.84464,-0.10778 -0.15387,-0.002 -0.31208,-0.0521 -0.44122,-0.13576 -0.0948,-0.0614 -0.19167,-0.16391 -0.19541,-0.27679 -0.0823,-2.48344 -0.47551,-1.96546 0.56661,-2.82833 0.30703,-0.0346 0.61273,-0.0842 0.92108,-0.10363 1.77786,-0.11208 3.58298,-0.0886 5.36294,-0.0864 22.49667,0.029 15.00553,-0.18498 24.5336,0.11341 2.79837,0.0907 5.59665,0.18478 8.39622,0.22831 7.35078,0.0658 -0.2632,-0.005 -18.73308,0.0123 -0.0243,3e-5 0.5548,-0.15804 0.64265,0.26889 0.0736,0.35748 -0.0986,1.20299 -0.14654,1.50675 -0.37264,0.0164 -0.84191,0.13032 -1.20705,0.0581 -0.231,-0.0457 -0.43093,-0.19351 -0.65673,-0.26036 -0.25258,-0.0748 -0.5155,-0.10861 -0.77325,-0.16293 -0.30945,-0.0991 -0.61889,-0.19814 -0.92834,-0.29721 -2.43063,-0.55153 -4.9071,-0.89462 -7.32832,-1.48845 -0.38967,-0.087 -0.77807,-0.17983 -1.169,-0.26097 -0.35857,-0.0744 -0.72616,-0.10839 -1.07921,-0.20569 -0.23129,-0.0637 -1.39827,-0.54087 -1.68129,-0.6392 -0.62714,-0.21789 -0.68108,-0.20652 -1.31422,-0.33173 -0.63986,-0.31287 -1.29612,-0.45133 -2.00185,-0.47526 -0.17861,-0.006 -0.36345,0.0377 -0.53605,-0.009 -0.18907,-0.0507 -0.34612,-0.18296 -0.51917,-0.27444 -0.58596,-0.40839 -1.29931,-0.27468 -1.94689,-0.42788 -0.21806,-0.0516 -0.41906,-0.16022 -0.63417,-0.22293 -0.2281,-0.0665 -0.46241,-0.10942 -0.69362,-0.16412 -0.7148,-0.22387 -1.486773,-0.15085 -2.211529,-0.27708 -0.282,-0.0491 -0.550453,-0.15744 -0.827096,-0.23096 -0.825415,-0.21936 -0.712744,-0.18326 -1.534622,-0.3427 -0.24471,-0.0337 -0.491791,-0.0532 -0.734132,-0.10099 -1.641866,-0.32405 0.237416,-0.0529 -1.354154,-0.30789 -0.436961,-0.07 -0.890041,-0.0341 -1.320567,-0.13652 -0.22699,-0.054 -0.433323,-0.17316 -0.649985,-0.25975 -0.243536,-0.11997 -0.481185,-0.25272 -0.730609,-0.35991 -0.909073,-0.3907 -0.680317,-0.17431 -1.627511,-0.64704 -0.298088,-0.14876 -0.571832,-0.34257 -0.866054,-0.49884 -0.540954,-0.28733 -1.102074,-0.53497 -1.652667,-0.80336 -0.428935,-0.32779 -0.983254,-0.32451 -1.454867,-0.53585 -0.221716,-0.0994 -0.40752,-0.26573 -0.621524,-0.38076 -0.348551,-0.18735 -0.758709,-0.24695 -1.098958,-0.44899 -0.174227,-0.10346 -0.306517,-0.2651 -0.459775,-0.39766 -0.144956,-0.0793 -0.281655,-0.17603 -0.434867,-0.23788 -0.470102,-0.18979 -0.999281,-0.27627 -1.479306,-0.44139 -0.654115,-0.225 -0.71397,-0.29779 -1.346989,-0.65011 -1.100556,-0.87115 -2.347209,-1.52298 -3.48744,-2.33719 -0.412016,-0.29421 -0.810391,-0.60707 -1.215587,-0.91061 -0.435357,-0.30974 -0.870715,-0.61949 -1.306073,-0.92923 -1.46525,-0.89454 -2.765723,-2.01881 -4.143479,-3.03567 -0.440246,-0.32493 -0.902207,-0.62039 -1.334758,-0.95549 -0.850109,-0.65859 -1.65681,-1.37155 -2.49716,-2.04254 -2.379026,-2.14512 -4.878522,-4.15541 -7.415109,-6.11078 -1.458359,-1.05223 -2.9951,-2.13014 -4.362049,-3.30038 -0.507356,-0.43434 -0.969267,-0.91922 -1.462259,-1.36981 -1.118519,-1.02523 -1.997517,-2.26094 -3.045927,-3.3531 -1.088196,-1.11124 -0.03819,0.0212 -1.12678,-1.37189 -0.224564,-0.28737 -0.480644,-0.54894 -0.709326,-0.83304 -1.689826,-2.09936 0.130106,0.0856 -1.61266,-2.19968 -0.288562,-0.37839 -0.606029,-0.73385 -0.909043,-1.10077 -1.085498,-1.2758 -2.178482,-2.56227 -3.178397,-3.90805 -1.231381,-1.65731 0.054,-0.11401 -1.103268,-1.46105 -0.189181,-0.24028 -0.574139,-0.77479 -0.851263,-0.97597 -0.11898,-0.0864 -0.284793,-0.0924 -0.402337,-0.18076 -0.543518,-0.40838 -1.143484,-1.20139 -1.5535,-1.72664 -1.908026,-2.37788 -3.661953,-4.88727 -5.400639,-7.39296 -2.585299,-3.55598 -4.796621,-7.35343 -7.057856,-11.1164 -0.704963,-1.22338 -1.553673,-2.35063 -2.268715,-3.56749 -0.176452,-0.30029 -0.322353,-0.61831 -0.506994,-0.91363 -0.601892,-0.82748 -0.32203,-0.40758 -0.842212,-1.25795 -0.470572,-0.42665 -0.581498,-1.03305 -0.848004,-1.57038 -0.06102,-0.12303 -0.166485,-0.21874 -0.241447,-0.3338 -0.273935,-0.42044 -0.236796,-0.40646 -0.431181,-0.90476 -0.607012,-1.10788 -1.058301,-2.29801 -1.399232,-3.5135 -0.559014,-1.52961 -0.621571,-3.15946 -0.914464,-4.74269 -0.344761,-2.14345 -0.683636,-4.28977 -0.97945,-6.44154 -0.463138,-3.21974 -1.218676,-6.38166 -1.709278,-9.59722 -0.370973,-2.62551 -0.51816,-5.2733 -0.580177,-7.92176 -0.0062,-1.7057 -0.188633,-3.4035 -0.277953,-5.10594 -0.06954,-1.44603 -0.08436,-2.89381 -0.09166,-4.34124 -0.0044,-1.6609 -0.0023,-3.32181 -0.0014,-4.98271 7.96e-4,-1.49854 0.0012,-2.99709 0.0013,-4.49563 0.05571,-1.42595 0.576153,-2.70424 1.256745,-3.93384 0.543078,-0.92565 0.930105,-1.92396 1.355184,-2.90517 0.477114,-1.07206 0.987511,-2.12961 1.398402,-3.22982 0.439661,-1.20711 1.114032,-2.30933 1.923716,-3.30046 1.601233,-1.98366 3.304735,-3.8824 5.026123,-5.76178 2.042403,-2.32498 4.400531,-4.30654 6.874777,-6.14948 3.818241,-2.82209 7.62148,-5.66539 11.547493,-8.336611 4.143719,-3.009834 8.635547,-5.443772 13.24556,-7.648396 3.60571,-1.681753 7.378692,-3.007615 11.239968,-3.967689 1.883584,-0.468337 3.445587,-0.74185 5.345476,-1.106083 5.092624,-0.885922 10.253877,-1.299654 15.393228,-1.825008 5.072235,-0.525189 10.171857,-0.633572 15.266447,-0.707141 11.08841,-0.08727 22.17758,-0.05194 33.26619,-0.0383 3.4054,0.005 6.81079,0.0064 10.21619,0.0073 3.19911,0.173146 6.37826,0.528701 9.56168,0.87053 0.6404,0.160559 1.31854,0.03625 1.9624,0.164044 0.25445,0.0505 0.4893,0.172573 0.73477,0.256512 0.52717,0.180273 0.96239,0.308847 1.39853,0.654897 2.15474,6.849051 0.3348,0.717906 -20.40934,2.333138 -0.16379,0.01275 -0.15094,-0.299573 -0.27111,-0.411593 -0.0837,-0.078 -0.22906,-0.06014 -0.31542,-0.135151 -0.15902,-0.13812 -0.57012,-0.782185 -0.67264,-0.936029 -1.02338,-1.176625 -2.29445,-2.092132 -3.67121,-2.806542 -1.73325,-0.820954 -3.29126,-1.98511 -5.0809,-2.686941 -0.88686,-0.06288 -1.52052,-0.816814 -2.399,-0.92636 -0.17078,-0.0213 -0.68693,0.03647 -0.51485,0.03851 6.57457,0.07797 13.14946,0.126201 19.72418,0.189301 -0.63036,-0.284349 -0.90096,0.02377 -1.44629,0.339116 -0.2405,0.139072 -0.48943,0.263137 -0.73732,0.388559 -0.36918,0.186785 -2.00908,0.974772 -2.21617,1.074641 -4.5737,2.012502 -9.2413,3.819183 -13.90845,5.604891 -3.32236,1.215603 -6.63628,2.469853 -10.01958,3.508517 -1.34056,0.269178 -2.64909,0.821614 -4.02113,0.89748 -0.4802,0.241012 -1.28904,0.08846 -1.72579,0.423415 -0.19559,0.150006 -0.44821,0.553956 -0.58181,0.749225 -0.61035,1.113562 -0.96974,2.339654 -1.4218,3.522454 -0.66905,1.641581 -1.28036,3.297014 -1.81317,4.987764 -0.84425,2.40807 -1.70667,4.80896 -2.50585,7.23261 -0.85827,2.84491 -1.68429,5.70221 -2.3008,8.61016 -0.68829,2.55283 -1.08975,5.14819 -1.28697,7.78042 -0.14199,2.21233 -0.14941,4.43012 -0.15286,6.64608 0.13369,1.01709 -0.26571,2.5727 0.19737,3.50856 0.0628,0.1268 0.17503,0.22233 0.26254,0.3335 0.48638,0.50682 1.1323,0.6317 1.74406,0.89509 1.71776,0.73954 -0.60315,-0.11219 1.14939,0.50595 1.3787,0.28437 2.78985,0.33324 4.19293,0.34638 7.67324,-0.004 -12.545773,-0.0205 -18.818664,-0.0165 -0.207528,1.3e-4 0.414438,0.0297 0.621958,0.0279 0.599815,-0.005 1.000774,-0.22376 1.514731,-0.50443 0.981687,-0.81541 1.46905,-2.03876 2.15741,-3.08468 0.940957,-1.23504 1.769985,-2.54462 2.710735,-3.78014 1.0162,-1.25518 2.17337,-2.38216 3.23768,-3.5974 1.51542,-1.50794 3.14688,-2.9034 4.81789,-4.23686 1.5937,-1.2921 3.07943,-2.72651 4.47502,-4.23006 0.87364,-0.99798 1.66975,-2.06008 2.4956,-3.09695 0.84075,-1.2912 1.81463,-2.48133 2.83681,-3.63103 1.52563,-1.8505 3.27996,-3.48602 5.07515,-5.06955 1.55231,-1.38748 3.14879,-2.71825 4.85811,-3.90795 0.58665,-0.29298 1.1077,-0.69127 1.66829,-1.02796 6.39045,-3.838111 13.60324,-0.61453 21.80521,-0.6272 0.76089,0.62984 1.35595,1.38865 1.76895,2.285 0.45584,0.98931 0.0473,0.33554 0.5446,1.05692 0.22931,0.49473 0.48629,0.99293 0.88259,1.37835 0.11794,0.1147 0.27115,0.19011 0.38476,0.30909 0.29131,0.30514 0.52223,0.66282 0.79205,0.98711 0.4985,0.37994 0.86181,0.91304 1.31522,1.33378 0.13275,0.12318 0.30971,0.19221 0.44208,0.3158 1.05306,0.98323 -0.19079,0.0573 0.82469,0.77136 0.73237,0.85686 1.52998,1.659 2.1366,2.61507 0.10769,0.20189 0.2069,0.40853 0.32305,0.60567 0.36255,0.61536 0.27209,0.2814 0.55178,0.99364 0.20452,0.52081 0.25683,1.05003 0.54283,1.53173 0.50221,1.073 0.64159,2.2531 0.73686,3.41989 0.20684,1.66079 -0.1083,3.24296 -0.60746,4.81901 -0.81154,2.23363 -2.1237,4.22316 -3.40303,6.20818 -1.84141,2.58571 -4.18125,4.75979 -6.44615,6.96509 -2.66868,2.54769 -5.43176,4.99294 -8.13989,7.49791 -1.90613,1.93565 -3.81989,3.87793 -5.58858,5.94187 -1.14212,1.31154 -2.13928,2.73101 -3.01048,4.23393 -0.60408,1.39271 -1.43896,2.63513 -2.35459,3.83697 -0.89657,1.01964 -1.81783,2.01626 -2.80429,2.94974 -1.17756,1.0226 -2.32024,2.09114 -3.42342,3.19377 -0.93144,1.01196 -1.81126,2.06875 -2.71598,3.10401 -0.8163,0.98296 -1.44374,2.09876 -2.09315,3.19403 -0.52499,1.03244 -0.96846,2.09628 -1.54495,3.1042 -0.62654,1.10159 -1.34829,2.1375 -2.16263,3.10772 -0.8399,1.11826 -1.55742,2.32456 -2.29592,3.51172 -1.19424,2.09538 -2.05601,4.37431 -2.92176,6.62166 -0.84627,2.3041 -1.53152,4.66235 -2.32357,6.98516 -0.54187,1.58394 -1.24234,3.07779 -2.1537,4.47848 -0.5987,0.82024 -1.37956,1.50409 -1.83607,2.41546 -0.49985,1.5501 -0.56624,3.21961 -0.53399,4.83763 0.0249,1.72171 0.20352,2.21002 1.45828,3.30472 1.71132,0.5508 3.55863,0.57855 5.34295,0.62842 0.35906,0.007 0.71807,0.0169 1.07716,0.0221 0.64439,0.009 1.31532,0.01 1.96034,0.008 0.31051,-7.9e-4 1.24202,-0.005 0.93151,-0.005 -19.477332,-0.004 -25.681875,0.30906 -18.315046,-0.045 1.978576,-0.0428 3.918436,-0.43183 5.869626,-0.72247 1.46563,-0.12752 2.86145,-0.60875 4.31312,-0.82757 1.52056,-0.32852 3.08068,-0.34382 4.62053,-0.51407 0.25905,-0.0286 2.93672,-0.39997 3.17062,-0.43225 3.41838,-0.36833 6.81924,-0.85938 10.20072,-1.479 3.06911,-0.58065 6.02812,-1.55097 8.93857,-2.66387 3.28767,-1.2738 6.69176,-2.2006 10.05388,-3.2482 2.4593,-0.7142 4.83095,-1.69965 7.31439,-2.32841 2.19742,-0.66413 4.48667,-0.75799 6.76331,-0.83837 8.74264,-0.16006 17.48868,-0.0831 26.23217,-0.0521 1.40885,0.006 2.81771,0.006 4.22657,0.006 1.80044,2.6e-4 3.60089,2.9e-4 5.40133,2.4e-4 -46.80707,-0.0731 -3.36977,-0.0486 1.8877,0.60956 1.37985,0.17274 -0.36861,2.26499 -0.60309,2.57896 -0.25117,0.17631 -0.4887,0.37385 -0.75351,0.52892 -0.26359,0.15435 -0.55137,0.26307 -0.82628,0.39619 -1.10861,0.53684 -2.22247,1.03966 -3.37217,1.48262 -2.02776,0.67578 -4.06649,1.31752 -6.10293,1.96697 -1.9029,0.63143 -3.8985,0.80223 -5.86148,1.13065 -7.25636,1.29164 -14.5526,2.31551 -21.85872,3.27797 -8.12501,0.99161 -16.24527,2.02747 -24.3953,2.79443 -2.53411,0.19887 -5.07195,0.45336 -7.61641,0.44786 -1.82053,0.27806 -3.66669,0.3867 -5.4801,0.69995 -3.84181,0.59538 -7.74841,0.61504 -11.62774,0.69986 -8.73831,0.1495 -17.480936,0.0664 -26.218844,0.0666 0.02564,-1.05998 -0.04591,-2.12678 0.07693,-3.17992 0.0114,-0.0977 0.196688,-0.008 0.295087,-0.009 0.885545,-0.0142 1.772022,-0.006 2.657551,0.002 2.549834,-0.10974 5.090173,-0.28461 7.623381,-0.59608 3.405878,-0.48141 6.789795,-1.09593 10.109785,-1.99809 2.72781,-0.70081 5.32669,-1.7418 7.83491,-3.0087 2.8592,-1.55084 5.83919,-2.86209 8.79117,-4.22335 2.14079,-1.01798 4.33483,-1.90385 6.55598,-2.7262 0.55607,0.11536 0.39434,0.01 0.0773,1.20237 -0.0706,0.26558 -0.64761,0.7216 -0.37314,0.73514 42.81949,2.11226 23.63082,-0.58661 17.58385,0.35486 -0.79698,0.12409 -1.58283,0.31136 -2.37425,0.46703 -9.38784,2.19595 -18.69655,4.71976 -28.02646,7.14871 -5.21882,1.27079 -10.37444,2.78104 -15.578766,4.10697 -7.019819,1.75558 -1.752051,0.50672 -20.548928,-2.53036 -0.393799,-0.0636 0.756937,-0.25251 1.131136,-0.39072 0.746863,-0.27585 1.490398,-0.56077 2.231669,-0.85132 6.667277,-2.61326 0.469661,-0.28288 8.574296,-3.2651 12.765973,-4.33901 25.815443,-7.83152 38.952683,-10.85041 2.74397,-0.63056 5.49952,-1.20965 8.24927,-1.81448 8.88514,-1.88588 17.78478,-3.73045 26.76615,-5.10457 2.87498,-0.43986 5.75968,-0.81367 8.63945,-1.22094 4.50191,-0.71748 9.0348,-1.17662 13.56828,-1.63089 1.22018,-0.0834 2.43639,-0.29271 3.66036,-0.32785 0.76098,0.0186 0.41047,0.0229 1.0516,-0.002 0.16376,0.73898 0.34333,1.30397 -0.32057,2.13918 -0.21367,0.2688 -0.68652,0.0339 -1.02979,0.0259 -2.4529,-0.0571 -4.90851,-0.23298 -7.36134,-0.31467 -7.12617,-0.21426 -21.92549,-0.21025 10.33517,-0.11189 0.98979,0.003 -1.97958,0.0116 -2.96932,0.0224 -1.73451,0.019 -3.41592,0.0522 -5.14787,0.0835 -3.46686,-0.0229 -6.91615,0.3269 -10.36636,0.61131 -1.5141,0.0714 -3.14425,0.80797 -2.00582,-1.83938 0.20235,-0.47054 1.59808,-0.2339 2.29622,-0.19246 0.82643,0.10645 1.65164,0.22286 2.47929,0.31936 3.31351,0.38635 2.87314,0.25255 6.26971,0.72644 2.87538,0.40118 5.73918,0.8913 8.61358,1.30213 2.86619,0.45882 5.67713,1.20686 8.52939,1.72878 0.59779,0.23627 1.18149,0.62224 1.82268,0.74762 0.13689,0.0268 0.28301,-0.027 0.41839,0.007 0.0704,0.0174 0.23949,0.12962 0.16755,0.13873 -6.80271,0.86132 -13.61831,1.61765 -20.42747,2.42648 -2.89211,-0.42774 -5.78717,-0.81722 -8.64316,-1.45208 -2.15007,-0.41402 -4.2453,-1.09455 -6.41978,-1.37202 -0.8978,-0.37739 -1.56741,-0.55422 -2.2005,-1.36208 -0.23951,-0.30561 -0.41021,-0.65972 -0.63076,-0.97929 -0.0387,-0.15251 -0.27321,-0.44922 -0.11608,-0.45754 6.91147,-0.36571 13.8357,-0.84199 20.75373,-0.63447 0.50328,0.0151 0.52338,0.86058 0.80037,1.28104 1.68056,2.55101 3.37542,5.08993 5.03549,7.65532 4.14597,6.21075 8.1179,12.53425 12.07524,18.86604 0.91036,1.19943 1.53892,2.58381 2.39031,3.82024 4.16393,6.04706 14.34863,0.0236 -19.97074,1.66544 -0.0623,-0.10901 -0.12463,-0.21802 -0.18695,-0.32703 -0.0786,-0.0821 -0.17264,-0.15189 -0.23589,-0.24638 -0.0983,-0.14691 -0.13894,-0.32876 -0.24417,-0.47081 -0.0759,-0.1025 -0.20205,-0.15737 -0.2898,-0.24996 -0.28291,-0.29847 -0.41348,-0.56179 -0.63477,-0.92093 -0.88043,-1.09823 -1.30263,-2.45855 -1.85363,-3.73113 -0.2906,-0.67118 -1.00079,-2.16892 -1.29885,-2.80344 -0.96806,-2.00946 -1.8802,-4.05041 -3.0066,-5.97936 -0.14765,-0.25284 -1.56771,-2.48416 -1.71338,-2.71359 -2.48706,-3.19966 -4.78148,-6.53457 -7.07606,-9.87227 -1.10822,-1.80885 -2.45269,-3.44091 -3.99658,-4.88802 -1.38154,-1.47344 -2.87264,-2.8295 -4.26698,-4.29062 -0.66172,-0.43308 -1.12891,-1.11027 -1.80511,-1.52336 -0.62126,-0.37953 -0.3719,-0.11044 -1.02957,-0.32218 -0.19797,-0.0637 -0.37999,-0.16921 -0.56998,-0.25381 -1.13515,-0.45827 -2.38028,-0.46571 -3.58667,-0.45736 -7.14118,-0.01 -16.50365,-0.0672 17.31441,-0.006 0.25242,4.6e-4 -0.50441,0.022 -0.75631,0.0382 -0.26404,0.017 -0.52757,0.0411 -0.79136,0.0616 -1.43445,0.12819 -2.87207,0.20844 -4.31125,0.25562 -0.83732,-0.0756 -1.66275,0.10718 -2.49301,0.16531 -1.15146,0.0806 -0.10695,-0.0777 -1.24105,0.12916 -1.35828,0.22438 -2.57253,0.88588 -3.7067,1.63758 -0.92215,0.52084 -1.71858,1.21878 -2.56292,1.84803 -0.59429,0.71611 -0.57203,1.7153 -0.61191,2.59959 -0.0753,0.66368 -0.1966,1.32199 -0.35008,1.97189 -0.0345,0.14607 0.0368,0.43623 -0.11325,0.4358 -20.67752,-0.0593 -19.67029,6.2779 -20.59343,-1.15149 -0.204,-1.53466 0.24826,-3.00727 0.80883,-4.41617 0.59302,-1.43404 1.52065,-2.67936 2.357,-3.97413 0.9491,-1.4263 2.09998,-2.69428 3.30038,-3.90973 1.82763,-1.90755 3.78763,-3.67657 5.64922,-5.55205 2.5208,-2.55799 5.0559,-5.10033 7.54221,-7.69228 1.49659,-1.44647 2.84207,-3.00889 4.00007,-4.73666 0.78437,-1.33702 1.77365,-2.54992 2.47117,-3.93903 0.22919,-0.45643 0.42399,-0.92934 0.63598,-1.39401 1.68586,-3.91924 3.19511,-7.916 4.49539,-11.97945 0.61217,-1.89834 0.99112,-3.84972 1.10111,-5.83864 0.0461,-1.42849 0.0216,-2.85804 0.01,-4.28689 0.0683,-2.05371 0.31293,-4.11654 0.59976,-6.15301 0.3636,-1.79067 0.54349,-3.61074 0.8455,-5.41031 0.29056,-1.67576 0.55787,-3.35578 0.81553,-5.03698 0.31311,-1.67644 0.15429,-2.64061 -0.40731,-4.23006 -0.4717,-1.44317 -1.34421,-2.68695 -2.06652,-4.00471 -1.3786,-2.51512 0.32785,0.46184 -0.88438,-1.63307 -0.11343,-0.23575 -0.2078,-0.48166 -0.34029,-0.70725 -0.14632,-0.19442 -0.52546,-0.68478 -0.64986,-0.90179 -0.2822,-0.49227 -0.54495,-1.01566 -0.80462,-1.521702 -0.57803,-0.461203 -0.7623,-1.222708 -1.24537,-1.764232 -0.25112,-0.281513 -0.5706,-0.493625 -0.85663,-0.739584 -1.36909,-1.126138 -2.51653,-2.472114 -3.68756,-3.796008 -1.12123,-1.608794 -2.47921,-3.041838 -3.51656,-4.706991 -0.28089,-0.307485 -0.46411,-0.557512 -0.82842,-0.770211 -0.14798,-0.0864 -0.33076,-0.103452 -0.47571,-0.194848 -0.51328,-0.323646 -0.45075,-0.478146 -0.8981,-0.890171 -0.13477,-0.124129 -0.29795,-0.213328 -0.44693,-0.319992 -0.16337,-0.09951 -0.33649,-0.184541 -0.49011,-0.298526 -0.58456,-0.433738 -1.07509,-0.99932 -1.61567,-1.482969 -0.45116,-0.403659 -0.80898,-0.665661 -1.29108,-1.038356 -1.62892,-1.285621 -3.33863,-2.495141 -5.13532,-3.535988 -0.28232,-0.214413 -1.1401,-0.880121 -1.47976,-1.088054 -0.19988,-0.122359 -0.42368,-0.20161 -0.62662,-0.318811 -0.66163,-0.3821 -0.75051,-0.476735 -1.49956,-0.672741 0,0 20.26875,-2.366164 20.26875,-2.366164 v 0 c 1.24684,0.745278 2.41864,1.598302 3.63923,2.384592 1.77294,1.190299 3.53552,2.400612 5.15967,3.791915 1.12129,0.964834 2.21778,1.954906 3.39911,2.845347 0.45637,0.436983 0.88657,0.682121 1.33288,1.076442 0.53764,0.474997 0.95211,1.073868 1.35755,1.658664 1.13177,1.502054 2.2793,2.995606 3.49794,4.428139 1.18363,1.27999 2.40261,2.512794 3.68018,3.699033 0.82309,0.944363 1.48415,2.023509 2.13935,3.086948 0.59481,1.036422 1.24796,2.035318 1.79323,3.100188 1.07433,1.97179 2.27224,3.89658 2.96771,6.04641 0.52504,1.77885 0.75799,3.32703 0.41488,5.17043 -0.25337,1.70196 -0.53411,3.39981 -0.81651,5.09707 -0.34872,1.76683 -0.44216,3.58166 -0.8444,5.34231 -0.17677,1.14843 -0.26855,2.29623 -0.40274,3.44986 -0.004,0.0316 -0.19148,1.51372 -0.19976,1.66759 -0.0129,0.23987 0.003,0.48043 0.005,0.72065 0.0122,1.47033 0.0359,2.9413 -0.01,4.41129 -0.10875,2.15854 -0.46548,4.28705 -1.11035,6.35489 -1.28785,4.13692 -2.81053,8.19995 -4.50285,12.18827 -0.57269,1.39301 -0.56038,1.4842 -1.2191,2.69352 -0.43043,0.79022 -0.95875,1.50442 -1.45895,2.24844 -0.15425,0.22944 -0.29606,0.467 -0.44409,0.7005 -1.11387,1.89066 -2.42308,3.64589 -4.02758,5.15168 -1.57743,1.6502 -3.13384,3.32738 -4.75645,4.93338 -0.46473,0.45997 -0.95458,0.89416 -1.41745,1.35599 -0.46649,0.46544 -0.91335,0.95014 -1.37002,1.42522 -2.93165,3.03664 0.26381,-0.25113 -2.46271,2.49216 -0.33952,0.3416 -0.65212,0.71049 -1.00649,1.03667 -0.72331,0.66577 -1.58262,1.19601 -2.17837,2.00174 -1.09882,1.18037 -2.30844,2.25088 -3.27612,3.55149 -0.4328,0.62777 -0.80127,1.30305 -1.24982,1.91885 -0.40759,0.55957 -0.86595,1.07156 -1.09136,1.74698 -0.5515,0.9694 -0.94506,2.08627 -0.79178,3.21093 1.48188,6.95968 0.20367,0.3945 -20.19918,0.61412 -0.037,4e-4 0.0867,-0.0125 0.10072,-0.0468 0.20458,-0.50078 0.18981,-1.08191 0.34503,-1.59668 0.0526,-1.29466 0.14451,-2.59835 0.65292,-3.8085 0.21975,-0.41999 0.31744,-0.70889 0.67723,-1.02577 0.12012,-0.10579 0.28718,-0.14674 0.4113,-0.24781 0.15959,-0.12996 0.27903,-0.30363 0.43325,-0.43991 0.35885,-0.31711 0.79023,-0.54765 1.10606,-0.91685 0.87198,-0.49215 1.6251,-1.17957 2.50907,-1.64979 0.20151,-0.10719 0.42929,-0.15727 0.63516,-0.25583 0.21853,-0.10463 0.42375,-0.23506 0.63563,-0.35259 0.43237,-0.13617 0.84315,-0.34469 1.28551,-0.44372 0.20307,-0.0455 0.41558,-0.0232 0.62295,-0.0405 0.63521,-0.0529 1.26469,-0.15092 1.8915,-0.26502 1.43191,-0.008 2.86425,-0.0315 4.29293,-0.13628 8.17278,-0.64622 16.41128,-0.65125 24.59065,-0.10482 1.29293,0.19503 2.53007,0.5375 3.68217,1.17644 1.3749,0.64305 2.38782,1.82627 3.47709,2.85415 1.41333,1.42849 2.88106,2.80237 4.26466,4.26077 1.5186,1.61153 2.81765,3.40676 4.0226,5.26245 2.30426,3.36025 4.72076,6.63582 7.0809,9.95557 1.78493,2.87281 3.36328,5.85273 4.73268,8.9476 0.96863,2.09772 1.74642,4.31936 3.13441,6.188 0.58807,0.74042 1.12767,1.50777 1.59817,2.32895 -22.34104,1.51009 -16.9034,6.56247 -23.16947,-3.22091 -3.97534,-6.31037 -7.92632,-12.63608 -12.07353,-18.83595 -1.6607,-2.55729 -3.31258,-5.12112 -5.03449,-7.63798 -0.25937,-0.37911 -1.24561,-1.06351 -0.79088,-1.12849 27.36831,-3.91054 13.57791,0.388 20.08336,-1.64315 0.67217,0.67369 1.78148,0.74604 2.68003,0.8923 2.14122,0.47764 4.27079,1.00893 6.42658,1.42078 1.91116,0.34184 1.49753,0.27423 3.45993,0.59854 1.50798,0.24921 3.04511,0.43508 4.50619,0.90479 0.24717,0.0795 0.48108,0.1954 0.72163,0.2931 -6.69312,0.85359 -13.38688,1.70216 -20.07936,2.56078 -0.0493,0.006 -0.0974,0.0476 -0.14515,0.034 -0.1563,-0.0447 -0.29289,-0.1418 -0.4437,-0.20254 -0.57322,-0.23089 -1.16983,-0.41381 -1.78691,-0.47475 -2.82005,-0.62669 -5.65958,-1.16909 -8.51362,-1.6168 -5.77745,-0.85606 -11.55906,-1.65531 -17.36043,-2.33297 -0.50738,-0.10905 -2.15221,-0.20271 -2.4368,-1.04913 -0.86141,-2.56199 0.22228,-2.79276 2.16467,-2.87406 3.46172,-0.24027 6.91067,-0.70994 10.38387,-0.7254 12.70128,-0.25831 25.41321,-0.38671 38.11131,0.0496 1.68409,0.0815 3.79157,0.15379 5.49445,0.34025 4.1e-4,4e-5 2.7163,0.25323 3.00216,0.73343 0.81495,1.36897 0.5916,1.75932 0.28575,2.79674 -0.35389,0.18989 -0.71609,0.41353 -1.12005,0.48621 -0.24831,0.0447 -0.50454,0.009 -0.75668,0.0183 -0.96483,0.0342 -1.9277,0.10804 -2.88806,0.20604 -4.5261,0.44798 -9.06117,0.82342 -13.55566,1.54448 -2.8755,0.41586 -5.75938,0.77237 -8.63483,1.1886 -8.98098,1.30002 -17.87355,3.12284 -26.75029,4.99077 -2.74804,0.59216 -5.50192,1.15785 -8.24412,1.77647 -13.12041,2.95988 -26.14491,6.41425 -38.92296,10.61955 -4.81001,1.71151 -4.33243,1.47532 -8.56577,3.19479 -0.75187,0.30539 -1.48924,0.64597 -2.243217,0.94611 -0.371555,0.14791 -0.733968,0.43646 -1.131977,0.39749 -6.838479,-0.6695 -13.649601,-1.59925 -20.459965,-2.51137 -0.182399,-0.0244 0.352661,-0.10534 0.528991,-0.15801 1.643402,-0.43714 3.296419,-0.83179 4.93821,-1.27613 3.542604,-0.95879 7.062546,-2.00374 10.64034,-2.82917 13.129958,-3.44267 -3.610428,0.93491 10.398648,-2.68815 5.87627,-1.51974 11.71387,-3.19295 17.63678,-4.52752 9.26175,-2.36576 10.34051,-1.56035 25.2255,-0.87489 0.35278,0.0163 0.44441,0.57362 0.53343,0.91536 0.12902,0.49532 0.1426,1.02162 0.10408,1.53202 -0.015,0.19847 -0.1735,0.35827 -0.26025,0.53741 -0.87176,0.68299 -1.37645,0.8251 -2.41773,1.19393 -1.41782,0.5022 -2.77748,1.14106 -4.15997,1.73023 -1.63353,0.74274 -3.2574,1.50566 -4.88952,2.25143 -0.91408,0.41767 -1.84587,0.79764 -2.74693,1.24271 -0.38847,0.19188 -0.76165,0.41326 -1.14248,0.61989 -2.52228,1.37336 -5.08317,2.69011 -7.8829,3.4111 -1.02528,0.32142 -2.31353,0.743 -3.35967,1.00116 -2.23127,0.55062 -4.52123,0.89238 -6.78615,1.26193 -2.53179,0.47222 -5.08114,0.70535 -7.65356,0.8002 -0.89472,0.10138 -1.77316,0.10501 -2.67279,0.0961 -0.0975,-9.7e-4 -0.28116,0.0898 -0.2925,-0.007 -0.12323,-1.05249 -0.0536,-2.11868 -0.0804,-3.17802 -36.460389,0.002 -22.187208,0.0495 -14.09774,-0.0312 3.862691,-0.0595 7.7314,-0.10617 11.58417,-0.40766 0.33768,-0.053 0.67536,-0.10603 1.01304,-0.15905 0.29609,-0.0772 0.5864,-0.18167 0.88827,-0.23173 1.18361,-0.1963 2.42269,-0.0831 3.59281,-0.4064 0.27472,-0.0631 0.5441,-0.15721 0.82414,-0.18922 0.6203,-0.0709 1.24882,-0.004 1.87285,-0.0237 1.64452,-0.0511 3.28697,-0.15772 4.92705,-0.28647 8.15008,-0.69959 16.26155,-1.74716 24.38322,-2.71238 7.30194,-0.95294 14.6173,-1.85824 21.85345,-3.24133 0.3544,-0.0467 0.7088,-0.0934 1.0632,-0.14016 0.29971,-0.0684 0.59516,-0.15931 0.89914,-0.20509 0.27955,-0.0421 0.56459,-0.0323 0.84614,-0.0578 1.01583,-0.092 2.02078,-0.26691 3.01855,-0.47596 2.06628,-0.49724 4.05341,-1.27465 6.09099,-1.87378 1.14611,-0.31469 2.25609,-0.70706 3.33875,-1.20134 0.28169,-0.1286 0.53986,-0.30831 0.82889,-0.41942 0.2295,-0.0882 0.47776,-0.11647 0.71664,-0.1747 0.94366,-0.0175 0.41787,-0.15226 0.6244,1.50389 28.7748,2.76566 26.33783,0.43529 19.12404,0.43529 -6.95794,1e-5 -13.91587,0 -20.87381,0 -1.80052,-1.1e-4 -3.60104,-1.7e-4 -5.40156,-0.002 -1.40901,-0.002 -2.81802,-0.006 -4.22703,-0.009 -7.31735,-0.006 1.32153,0.001 18.52716,-0.001 0.31195,-5e-5 -0.6239,-0.002 -0.93585,-0.002 -1.16829,-0.002 -2.33661,-3e-5 -3.50486,0.0117 -2.23236,0.0282 -4.50058,-0.0374 -6.69916,0.39505 -0.6676,0.16266 -1.34722,0.27345 -2.01413,0.43893 -1.80421,0.4477 -3.46749,1.32459 -5.28109,1.74175 -1.37806,0.47316 -1.91696,0.67895 -3.32874,1.07867 -0.59083,0.16729 -1.19344,0.29181 -1.78213,0.46647 -1.65518,0.49107 -3.28059,1.09542 -4.93074,1.60385 -1.45642,0.55778 -2.89169,1.18058 -4.36791,1.68506 -1.393,0.47603 -1.53892,0.47788 -2.97139,0.866 -0.54827,0.14855 -1.09546,0.30106 -1.64318,0.45158 -3.37003,0.73497 -6.78615,1.28821 -10.21986,1.6142 -1.38511,0.1743 -1.79988,0.21396 -3.17113,0.43581 -0.48819,0.079 -0.97004,0.19969 -1.46136,0.25594 -1.04313,0.11945 -2.10972,0.003 -3.14889,0.18632 -1.45175,0.26438 -2.93731,0.34207 -4.32479,0.9089 -1.28564,0.13056 -2.57215,0.29618 -3.83983,0.55153 -0.33876,0.0682 -0.66916,0.17958 -1.01132,0.2279 -0.34255,0.0484 -0.6907,0.0408 -1.03605,0.0613 -8.63316,0.72759 -17.35418,0.43386 -26.007017,0.0101 -2.027679,-0.22949 -4.134375,-0.52128 -5.517523,-2.18631 -1.118261,-1.50591 -1.514143,-2.87726 -1.512842,-4.75898 -0.03228,-1.89459 0.08346,-3.8113 0.548839,-5.65449 0.13716,-0.40579 0.345546,-1.09101 0.564057,-1.46835 0.318227,-0.54955 0.989611,-1.00617 1.305088,-1.56602 1.102043,-0.9847 1.537522,-2.43503 2.116859,-3.75385 0.805491,-2.33838 1.510031,-4.70722 2.325528,-7.04191 0.480909,-1.3223 1.028898,-2.6048 1.560501,-3.90693 0.08015,-0.19632 0.801054,-1.99258 0.905524,-2.21374 0.14057,-0.29759 0.314764,-0.5781 0.472146,-0.86715 0.38369,-0.67012 0.798083,-1.2943 1.219216,-1.93918 0.941698,-1.44202 -0.238734,0.29792 0.698155,-1.23765 0.117726,-0.19295 0.260998,-0.3691 0.391497,-0.55366 0.136311,-0.19957 0.258408,-0.40964 0.408934,-0.59872 0.440067,-0.5528 0.378941,-0.30822 0.776833,-0.85066 0.120949,-0.16488 0.203397,-0.35583 0.324452,-0.52064 0.684213,-0.93151 -0.0022,0.2733 0.642113,-0.96724 0.65564,-0.93712 1.14612,-1.93161 1.53947,-3.00216 0.11263,-0.21145 0.47223,-0.89812 0.6048,-1.10126 0.10098,-0.15473 0.24066,-0.28274 0.33511,-0.44154 0.38752,-0.65155 0.61966,-1.40373 1.1711,-1.9556 0.89617,-1.27807 -0.0482,0.004 0.889,-1.094 0.60418,-0.70788 1.14036,-1.48154 1.83394,-2.11135 0.1786,-0.23594 0.3421,-0.48412 0.53581,-0.70782 0.51061,-0.58964 0.6714,-0.63662 1.2314,-1.1577 0.57299,-0.53317 1.09715,-1.11897 1.6809,-1.64128 1.02954,-0.78141 1.89518,-1.70612 2.77991,-2.64103 0.46885,-0.46821 0.80983,-0.97084 1.21587,-1.48933 0.12501,-0.15963 0.28808,-0.28866 0.40248,-0.45605 0.28278,-0.41376 0.51769,-1.02638 0.71071,-1.47351 0.86506,-1.61988 1.81751,-3.20385 3.03164,-4.58958 1.70551,-2.21052 3.7412,-4.13331 5.60831,-6.20557 2.63971,-2.56901 5.46088,-4.94357 8.13789,-7.47306 0.0829,-0.0806 2.55697,-2.48501 2.69506,-2.61688 0.38083,-0.36365 0.78523,-0.70304 1.15247,-1.08042 0.88547,-0.90993 1.69068,-1.90808 2.56811,-2.82693 1.23359,-1.82937 2.47364,-3.67539 3.37951,-5.69349 0.51333,-1.37257 0.7941,-2.49187 0.59711,-3.96744 -0.0907,-0.96347 -0.26776,-1.89329 -0.72048,-2.76117 -0.33442,-0.96617 -0.73196,-1.87441 -1.39368,-2.67266 -0.66873,-0.7563 -1.31655,-1.54033 -2.10406,-2.17758 -0.86841,-0.91058 -1.82541,-1.74138 -2.60636,-2.73581 -0.813,-0.97214 -1.52854,-1.83535 -2.07949,-3.00059 -0.45094,-0.86441 -1.00294,-1.7499 -2.12204,-1.44024 6.56646,-0.0435 13.1332,-0.0558 19.69937,-0.13059 0.17762,-0.002 -0.34798,-0.0882 -0.52561,-0.0877 -0.80782,0.002 -1.55206,0.57111 -2.16711,1.01465 -1.82545,0.82836 -3.30748,2.23393 -4.8209,3.51828 -0.99912,0.8528 -1.96765,1.7086 -2.92201,2.60993 -0.74859,0.70699 -1.57135,1.34542 -2.13436,2.2248 -1.00107,1.064 -2.01033,2.1325 -2.81825,3.35564 -0.73218,1.19327 -1.71397,2.19385 -2.51214,3.345 -0.1583,0.1852 -1.05097,1.23486 -1.20218,1.38953 -0.50659,0.51814 -1.10682,0.9406 -1.56214,1.51181 -0.28789,0.29743 -0.5547,0.61561 -0.85405,0.90152 -0.28059,0.26799 -0.58897,0.5053 -0.88346,0.75796 -3.62667,2.98359 1.75773,-1.42 -1.84312,1.4401 -1.0141,0.80548 -1.87604,1.78964 -2.95183,2.51809 -1.10738,1.0989 -2.00687,2.39317 -3.22305,3.38929 -0.50325,0.66161 -1.06933,1.29348 -1.52856,1.98707 -0.39208,0.59218 -0.70545,1.24044 -1.18114,1.77709 -0.22014,0.25256 -0.56978,0.62743 -0.74041,0.92389 -0.12434,0.21604 -0.20006,0.45716 -0.31716,0.67721 -0.3406,0.64003 -0.73165,1.26229 -1.12827,1.86842 -0.39871,0.49898 -1.61814,1.86531 -2.3023,1.87673 -17.363133,0.28994 -14.022573,0.49328 -21.524168,0.001 -1.480304,-0.14999 -2.973566,-0.37426 -4.294373,-1.10612 -1.368784,-0.77321 -2.298988,-1.30158 -3.005309,-2.8071 -0.09264,-0.26348 -0.205728,-0.52063 -0.277907,-0.79043 -0.345807,-1.29261 -0.145496,-2.65158 -0.202503,-3.96914 0.0035,-2.26465 0.01226,-4.53103 0.153408,-6.79217 0.194958,-2.7189 0.556418,-5.4143 1.290658,-8.0469 0.602548,-2.99014 1.454241,-5.91806 2.306941,-8.84504 0.798727,-2.41627 1.617727,-4.82594 2.505106,-7.20886 0.389756,-1.219987 0.727076,-2.462039 1.217156,-3.647862 0.09567,-0.231488 0.229998,-0.445801 0.324361,-0.677825 0.106189,-0.261101 0.18422,-0.532788 0.276329,-0.799181 0.244778,-0.605103 0.519435,-1.222308 0.730389,-1.839379 0.220093,-0.643806 0.329726,-1.330349 0.70156,-1.91791 0.451592,-1.025573 0.09433,-0.283513 0.608664,-1.196562 0.460188,-0.816928 0.87186,-1.443877 1.851648,-1.660412 0.19153,-0.08596 0.370921,-0.206975 0.574591,-0.257885 0.377299,-0.09431 0.778904,-0.03593 1.162354,-0.100855 0.970768,-0.164364 0.30429,-0.103045 1.356659,-0.344096 0.30529,-0.06993 0.616127,-0.112933 0.924186,-0.169399 3.42223,-0.802728 6.67897,-2.177777 9.99566,-3.319577 4.66695,-1.705559 9.24912,-3.632287 13.88631,-5.415943 0.85513,-0.416209 1.39031,-0.682902 2.21514,-1.06544 0.24265,-0.112538 0.48542,-0.224982 0.73097,-0.331049 0.18623,-0.08044 0.39549,-0.115587 0.56412,-0.228372 0.38538,-0.257773 0.60398,-0.72077 0.99476,-0.972204 34.51894,0.224058 13.5737,-2.600667 22.33564,0.925983 1.41378,0.569043 -0.30504,-0.238752 1.30439,0.552359 1.71299,0.954256 3.42799,1.907126 5.10608,2.921545 1.36565,0.998339 2.66666,2.054224 3.72201,3.390564 1.34995,0.992943 -0.60605,-0.405824 0.62227,0.356267 0.12047,0.07474 0.19667,0.218169 0.32863,0.269992 0.0708,0.0278 0.29729,-0.06207 0.22169,-0.05387 -20.14306,2.183169 -18.598,-4.362037 -20.1279,2.401305 -0.45641,-0.02737 -0.8878,-0.162603 -1.34217,-0.210908 -0.88638,-0.09423 -1.78892,-0.08227 -2.67088,-0.236419 -3.16553,-0.341974 -6.34318,-0.617191 -9.5287,-0.654812 -3.40547,-0.0015 -6.81094,-0.0044 -10.2164,-0.0086 -8.07282,-0.0065 -1.02172,-2.9e-4 16.26742,-0.0023 0.72097,-8.4e-5 -1.44193,-0.0011 -2.1629,-0.0011 -1.43449,8.7e-5 -3.14615,0.0014 -4.57386,0.0069 -0.82749,0.0032 -1.65498,0.0087 -2.48247,0.01309 -5.08306,0.04607 -10.17269,0.08876 -15.24008,0.534543 -2.59652,0.241521 -5.18244,0.580136 -7.77785,0.824947 -2.533373,0.238959 -5.083378,0.344469 -7.590275,0.825793 -0.415361,0.07462 -4.960924,0.888282 -5.326415,0.96601 -3.834941,0.815565 -7.608558,2.019576 -11.194655,3.600325 -4.600773,2.067121 -9.122441,4.353699 -13.211984,7.332427 -1.752039,1.15391 -2.186267,1.41808 -3.911971,2.64426 -3.572321,2.5383 -0.272651,0.25284 -3.902194,2.88233 -0.641205,0.46454 -1.30977,0.89086 -1.945871,1.36236 -0.607324,0.45016 -1.18865,0.93439 -1.782975,1.40158 -2.654813,1.75368 -0.624405,0.33549 -2.891651,2.10587 -0.371224,0.28986 -0.778128,0.53441 -1.133961,0.84297 -0.342264,0.2968 -0.626475,0.65501 -0.954189,0.9678 -2.066841,1.97273 0.155424,-0.31302 -1.858392,1.80493 -1.721378,1.8334 -3.41134,3.70106 -5.017094,5.63603 -0.173381,0.21144 -0.346761,0.42289 -0.520142,0.63433 -0.134005,0.11328 -0.290638,0.20425 -0.402016,0.33984 -0.373298,0.45445 -0.580208,1.13523 -0.9643,1.58924 -0.355157,1.16013 -0.841318,2.28245 -1.402927,3.35708 -0.412615,1.07378 -0.872581,2.1235 -1.366746,3.16213 -0.532066,0.92922 -1.163342,1.77993 -1.229933,2.88836 -1.86e-4,1.4988 -5.43e-4,2.9976 -0.0013,4.4964 -8.28e-4,1.65711 -0.003,3.31424 0.0014,4.97135 0.0072,1.4148 0.02153,2.82997 0.09137,4.24334 0.09254,1.72208 0.275778,3.43998 0.278183,5.16578 0.06154,2.56019 0.206832,5.11988 0.577821,7.65635 0.507531,3.22174 1.264823,6.39553 1.709726,9.62784 0.302276,2.12921 0.624113,4.25652 0.978454,6.3771 0.242754,1.50885 0.37621,3.03871 0.908488,4.48644 0.372884,1.114 0.854271,2.18339 1.388816,3.22886 0.498228,0.85448 0.908688,1.75268 1.507527,2.54697 1.246902,1.90291 2.38987,3.87501 3.620653,5.78851 2.230343,3.73298 4.495515,7.44626 7.049465,10.97077 1.726793,2.43901 3.418043,4.92035 5.386028,7.17363 0.431845,0.43204 0.619934,0.63731 1.071747,1.02739 0.147626,0.12745 0.316246,0.23076 0.455152,0.36766 0.483303,0.47635 0.83275,1.0787 1.286611,1.58021 1.370553,1.83561 2.8104,3.61712 4.281909,5.37271 1.400532,1.82392 2.746345,3.70094 4.347399,5.35863 0.968692,1.09452 1.887536,2.23734 3.030795,3.16223 1.84091,1.63064 3.857028,3.04347 5.812146,4.53111 2.511292,1.99718 4.979861,4.04464 7.416976,6.13143 2.58286,2.06827 5.243517,4.03972 7.965039,5.9219 1.913782,1.36796 3.846943,2.77326 5.969336,3.7978 1.14331,0.41699 2.28826,0.81562 3.28391,1.53782 0.55145,0.16695 1.01171,0.45505 1.54043,0.67737 0.69703,0.29308 1.41865,0.53317 2.07665,0.91898 1.55011,0.75384 3.12346,1.52702 4.82332,1.87438 1.37029,0.10838 2.69757,0.51233 4.05025,0.74183 1.52258,0.34441 3.07886,0.48457 4.58256,0.91948 2.10621,0.53742 -0.59192,-0.1265 1.31189,0.2708 0.52486,0.10953 1.00294,0.34776 1.51485,0.49482 0.14891,0.0428 0.30291,0.0652 0.45437,0.0979 1.07935,-0.007 2.01301,0.54513 3.0567,0.75543 1.71168,0.58338 3.45148,1.00457 5.23057,1.3395 2.4629,0.47209 4.93857,0.92529 7.34721,1.63067 0.30721,0.0819 0.61442,0.16386 0.92164,0.24579 0.26158,0.0839 0.52017,0.17774 0.78474,0.25166 0.21143,0.0591 0.4361,0.0708 0.64197,0.14699 0.56541,0.20934 1.00775,0.57194 1.32588,1.07686 0.10763,0.67595 0.63042,2.84818 -0.67032,2.86048 -17.1273,0.16199 -14.02468,0.22123 -21.60112,0.0605 -2.79978,-0.0679 -5.59867,-0.16674 -8.39827,-0.24146 -8.05431,-0.17355 -3.05939,-0.0497 15.78686,-0.0713 0.69277,-8e-4 -1.38552,0.005 -2.07828,0.008 -1.09152,0.005 -2.18312,0.0283 -3.27456,0.0141 -0.30024,-0.004 -0.60009,-0.0234 -0.90014,-0.0351 -0.9576,-0.75136 -0.51076,-0.2495 -0.49955,-2.63028 9.1e-4,-0.19403 0.75079,-0.16952 0.55675,-0.16988 -11.57561,-0.0221 -26.334662,-0.02 -18.64429,-0.0209 2.46151,-3.9e-4 4.92303,-10e-4 7.38454,-0.002 9.70458,-1.3e-4 19.41049,-0.0329 29.1153,0.0237 2.24356,0.0322 4.48519,0.11339 6.7264,0.22125 8.04167,0.29166 27.8029,3e-4 -6.59403,0.12863 0.79624,1.7e-4 1.59249,-3.5e-4 2.38873,5.1e-4 0.53661,5.8e-4 1.07843,-0.0709 1.60981,0.004 0.27202,0.0382 0.68418,0.0635 0.75566,0.32876 0.24094,0.89403 0.20386,1.85882 0.0812,2.7766 -0.0474,0.3551 -1.14722,-0.57165 -1.0708,-0.0924 -1.22927,-0.17632 -2.41561,-0.50666 -3.61685,-0.81177 -0.55143,0.008 -1.05997,-0.0829 -1.60702,-0.12999 -0.16491,-0.0142 -0.6615,-0.0243 -0.49598,-0.0241 45.42353,0.039 25.41659,0.0402 19.04801,0.0407 -1.24326,1.4e-4 -2.48652,3.4e-4 -3.72977,0.003 -7.96524,0.0171 -15.93288,0.1334 -23.89649,-0.0344 -1.19639,-0.0559 -2.39667,-0.15357 -3.55057,-0.4977 -0.52573,-0.15314 -1.08397,-0.35223 -1.63498,-0.38864 -0.61368,-0.0406 -1.24521,0.0381 -1.8586,-0.0789 -6.77855,-0.34151 -17.46483,0.0836 18.3307,-0.11641 0.30409,-0.002 -0.7989,0.11952 -0.8966,-0.16845 -0.15988,-0.47125 -0.10784,-0.9894 -0.16176,-1.4841 -0.002,-0.19403 -0.0575,-0.39488 -0.006,-0.58209 0.0551,-0.20226 0.41283,-0.0893 0.62246,-0.0898 0.66725,-0.002 1.32942,-0.005 1.99249,0.1057 7.56518,0.88323 19.10896,2.94488 -15.36774,0.50207 8.08775,-0.009 16.17636,-0.083 24.26346,0.0275 1.53273,0.0388 3.06473,0.10453 4.58978,0.27127 1.52866,0.14582 3.06097,0.17659 4.5931,0.27832 0.4579,0.0281 1.31515,0.0834 1.77052,0.10071 0.29925,0.0113 1.19762,0.0202 0.89815,0.0211 -33.22492,0.10022 -24.57041,0.0977 -17.62872,0.016 1.37458,-0.0435 2.72723,-0.22783 4.02286,-0.71749 2.15778,-0.17929 4.23808,-0.72806 6.33505,-1.24474 3.03475,-0.8132 5.97946,-1.89911 8.99132,-2.78765 0.40882,-0.16657 0.81207,-0.34753 1.22648,-0.49969 1.76945,-0.64969 3.66865,-0.97022 5.33314,-1.89775 2.87417,-1.28885 -0.91312,0.36777 2.04484,-0.79028 0.34903,-0.13665 0.67689,-0.32294 1.02278,-0.46736 1.05693,-0.44129 2.12251,-0.85085 3.12895,-1.40854 1.87173,-0.9085 3.66814,-1.94799 5.52152,-2.89095 0.79518,-0.40746 1.6099,-0.84768 2.43291,-1.19725 0.20715,-0.088 0.44001,-0.11094 0.64089,-0.21243 0.20548,-0.10383 0.37681,-0.26463 0.56521,-0.39695 0.19401,-0.0837 0.38802,-0.16748 0.58203,-0.25122 1.53538,-0.9577 3.284,-1.5581 4.67255,-2.75477 2.06186,-1.4255 4.09377,-2.86457 5.99232,-4.50714 0.78289,-0.62537 1.54385,-1.27877 2.34349,-1.88256 1.6249,-1.22693 3.40333,-2.24782 4.95279,-3.57819 2.0172,-1.42133 4.09868,-2.7474 6.06768,-4.23389 1.57816,-1.3728 3.39219,-2.5046 4.65532,-4.20611 0.42798,-0.54401 0.83118,-1.10802 1.27749,-1.63709 0.84056,-0.99643 1.79507,-1.89876 2.62112,-2.90902 0.22647,-0.25188 0.43814,-0.51788 0.67939,-0.75563 0.30493,-0.30051 0.93013,-0.76431 1.25974,-1.04856 0.39507,-0.34071 0.72801,-0.75027 1.12965,-1.0832 0.18427,-0.15276 0.39803,-0.26596 0.59705,-0.39894 1.21685,-0.68407 2.25791,-1.66024 3.22211,-2.65903 1.2271,-0.83288 2.27644,-1.8849 3.44611,-2.7907 0.88604,-1.13318 1.67977,-2.32242 2.4601,-3.52794 0.81208,-1.28699 1.31334,-2.75162 1.88105,-4.15742 0.6071,-1.35188 1.38497,-2.62032 1.78665,-4.05463 0.42282,-0.90305 0.0704,-0.0984 0.45147,-1.15402 0.46369,-1.28457 1.06751,-2.5186 1.5569,-3.79341 1.59639,-3.8347 2.94275,-7.77841 3.93234,-11.81481 0.67612,-2.41592 0.59566,-1.95145 1.07193,-4.30544 0.25605,-1.26557 0.4167,-2.54913 0.66781,-3.81429 0.0477,-0.24035 0.12076,-0.47497 0.18114,-0.71246 0.0344,-0.0582 0.30211,-0.49599 0.32079,-0.57956 0.20544,-0.91881 -0.066,-1.91338 0.0439,-2.84045 0.001,-2.28171 0.003,-4.56342 0.006,-6.84513 0.004,-4.53893 0.008,-9.07791 -0.0157,-13.6168 -0.0358,-4.56589 -0.0809,-9.13507 -0.44457,-13.68938 -0.41334,-5.55182 -0.93196,-11.09603 -1.05827,-16.66478 -0.15334,-2.30765 -0.32492,-4.62373 -0.6948,-6.90743 -0.27374,-1.3037 -0.43484,-2.60676 -0.53896,-3.93424 -0.29258,-1.70013 -0.79305,-3.34477 -1.34936,-4.97624 -0.50039,-1.55952 -0.89341,-3.155581 -1.5028,-4.677392 -0.54107,-1.091776 -1.04905,-2.198593 -1.60192,-3.284175 -0.77094,-1.623434 -1.76651,-3.093446 -2.83656,-4.537236 -1.37915,-2.034716 -2.79613,-4.046961 -4.3213,-5.975439 -1.02329,-1.262272 -1.84518,-2.658421 -2.63472,-4.076705 -0.76506,-1.363318 -1.46008,-2.763774 -2.13954,-4.171403 -0.56341,-1.221773 -1.11205,-2.468725 -1.91873,-3.554137 -0.76303,-0.828108 -1.77439,-1.382044 -2.55338,-2.201303 -1.85655,-1.803674 -3.75395,-3.566465 -5.59878,-5.382857 -3.51366,-3.208263 -6.95495,-6.503055 -10.66054,-9.492491 -1.29698,-1.079497 -2.63155,-2.087597 -4.07963,-2.958811 -1.90714,-1.130192 -3.74809,-2.368468 -5.5416,-3.670699 -0.94075,-0.627168 -1.8905,-1.242136 -2.80919,-1.901619 -0.41051,-0.294687 -0.88647,-0.673453 -1.32738,-0.937051 -0.18367,-0.109804 -0.37962,-0.197632 -0.56943,-0.296448 -1.15374,-0.687849 -2.35928,-1.354115 -3.69604,-1.590307 -1.17433,-0.395665 -2.27687,-0.927347 -3.40423,-1.432118 -0.31204,-0.167235 -0.65657,-0.367373 -0.99238,-0.488264 -0.17153,-0.06175 -0.35616,-0.08283 -0.52674,-0.147175 -0.57443,-0.21669 -1.0821,-0.585463 -1.67835,-0.749856 -0.60156,-0.39047 -1.15686,-0.9664 -1.7415,-1.306229 -0.11549,-0.06713 -0.25264,-0.09028 -0.36972,-0.154596 -0.15051,-0.08268 -0.28636,-0.189636 -0.42954,-0.284455 -0.98984,-0.376548 -1.77339,-1.210817 -2.59417,-1.856173 -0.74237,-0.73771 -1.7595,-1.267395 -2.63126,-1.842834 -1.23844,-0.799116 -2.52666,-1.522498 -3.84098,-2.190061 -1.40711,-0.540033 -2.85952,-0.97108 -4.29386,-1.430854 -0.21785,-0.07628 -1.03317,-0.369236 -1.26965,-0.423333 -6.5437,-1.496897 -21.3408,2.191432 17.7081,-0.211741 -8.13734,6.5e-5 -16.27467,5.79e-4 -24.41201,4.1e-5 -1.98655,-8.3e-5 -3.9731,-2.72e-4 -5.95966,-0.0012 -2.15039,-0.0012 -4.30078,-0.0034 -6.45118,-0.0072 -7.48469,-0.0044 3.55953,0.0023 18.57345,-0.0016 0.23805,-6.1e-5 -0.4761,-0.0024 -0.71415,-0.0037 -0.63654,-0.0033 -1.27309,-0.0073 -1.90964,-0.0096 -1.1914,0.0018 -2.38475,0.01268 -3.56815,0.166955 -0.15739,0.02148 -0.31537,0.03894 -0.47216,0.06445 -0.12562,0.02044 -0.24813,0.08661 -0.37471,0.07333 -0.094,-0.0099 -0.20437,-0.05444 -0.24743,-0.138598 -0.11933,-0.233204 -0.20877,-1.115497 -0.15814,-1.336439 0.0166,-0.07263 0.13872,-0.05445 0.20808,-0.08167 6.89221,-0.65209 0.56668,-0.04165 -19.26897,-0.05014 -0.69408,-2.96e-4 3.08854,0.0074 2.43532,-0.0446 1.5598,-0.22869 2.28056,-0.533779 3.46755,-1.621439 0.56209,-0.403209 1.03866,-0.880093 1.56154,-1.332828 0.18215,-0.157717 0.33849,-0.34618 0.53342,-0.487806 0.17419,-0.126563 0.38753,-0.190793 0.56612,-0.311071 0.18883,-0.12717 0.35459,-0.285611 0.53189,-0.428416 0.16302,-0.112832 0.31256,-0.248204 0.48906,-0.338495 0.82846,-0.423797 0.0926,0.169545 0.8387,-0.385605 0.96055,-0.714688 -0.32614,0.17304 0.64617,-0.680265 0.0742,-0.06511 0.17934,-0.08251 0.26901,-0.123759 0.41848,-0.589405 -0.019,-1.194219 -0.65841,-1.326438 -1.12281,-0.02564 0.34763,-0.0019 -0.91984,0.01387 -0.17572,0.0022 -0.70282,-0.0107 -0.52709,-0.01075 33.51801,-0.0086 25.12141,-0.02158 18.16959,0.01072 -1.48205,0.03048 -2.98077,0.03043 -4.43237,0.368559 -0.52658,0.13844 -1.03516,0.349586 -1.57047,0.449044 -0.2871,0.05334 -0.58305,0.03576 -0.87375,0.06345 -0.84561,0.08055 -1.665,0.257541 -2.4702,0.531998 -0.32986,0.09864 -0.65418,0.218196 -0.98958,0.295936 -0.74212,0.172008 -1.50211,0.259389 -2.24466,0.429515 -1.16993,0.268041 -1.43911,0.359362 -2.61225,0.688617 -0.46232,0.110484 -0.93238,0.185584 -1.39857,0.278376 -4.61665,1.142533 1.77239,-0.414216 -2.70823,0.600053 -1.59236,0.360461 -3.14873,0.893957 -4.69749,1.401239 -1.51984,0.486733 -3.11262,0.766585 -4.54237,1.516041 -2.54506,0.673912 1.08025,-0.337681 -1.32775,0.501482 -0.20126,0.07014 -0.42059,0.07138 -0.62779,0.121324 -0.6046,0.145736 -1.12036,0.508632 -1.75802,0.477105 -0.42012,0.0454 -0.6993,0.0591 -1.10813,0.16739 -0.18056,0.04783 -0.35001,0.133248 -0.53139,0.177869 -0.56463,0.1389 -1.13424,0.164678 -1.62658,0.531349 -1.10246,0.602921 -0.18769,0.172757 -1.40397,0.550868 -1.23322,0.383376 -2.40749,1.027601 -3.61987,1.472313 -2.38704,1.26884 -4.66495,2.729371 -6.81545,4.370544 -0.46875,0.338122 -0.95482,0.65219 -1.41762,0.998405 -1.16455,0.871176 -1.52776,1.225196 -3.09475,1.1732 -3.35123,0.178 -6.68979,0.555837 -10.00001,1.109766 -3.019825,0.586723 -6.070748,1.012594 -9.058708,1.758766 -3.107108,1.019996 1.147387,-0.343531 -1.533549,0.421401 -1.082603,0.308891 -0.250044,0.154928 -1.331773,0.567874 -0.456153,0.174135 -0.960221,0.202553 -1.402754,0.42174 -0.24715,0.102256 -0.486078,0.227238 -0.741448,0.306767 -1.125512,0.350513 -2.364527,0.293374 -3.396962,0.924714 -0.460649,0.06517 -0.727715,0.08234 -1.171741,0.226426 -1.322799,0.42925 0.208727,0.0094 -1.141076,0.5128 -1.865859,0.695919 0.828631,-0.489374 -1.034694,0.357076 -0.167282,0.0633 -0.345141,0.103684 -0.501847,0.189902 -1.510089,0.83084 -1.983974,2.746416 -2.995192,4.017323 -3.668322,6.469551 -7.600864,12.783138 -11.743462,18.960119 -1.440577,2.142309 -3.613143,5.41192 -5.15411,7.56466 -1.533762,2.142674 -3.27868,4.155821 -4.52331,6.493431 -0.569744,0.934486 -1.182701,1.845697 -1.736676,2.783193 -0.369734,0.516432 -0.372744,1.551578 -0.498118,2.166815 -0.06149,0.301769 -0.132326,0.602029 -0.218384,0.897732 -0.09923,0.340975 -0.224672,0.67377 -0.337008,1.010655 -0.911811,2.246375 -2.104776,4.305264 -3.261763,6.432031 -0.461171,0.847721 -0.893145,1.711213 -1.360081,2.555777 -0.523373,0.94664 -1.073671,1.87814 -1.610507,2.81721 -2.42656,4.1689 -5.005117,8.2576 -7.162677,12.5761 -0.32412,0.74551 -0.662516,1.48654 -1.083365,2.18429 -0.109594,0.1817 -0.254562,0.34146 -0.355221,0.52826 -0.233804,0.43389 -0.355872,0.92224 -0.613282,1.34544 0,0 -20.37457,-1.13931 -20.37457,-1.13931 z"
   inkscape:connector-curvature="0" /></svg>