<?xml version="1.0" encoding="UTF-8" standalone="no"?>
<svg
   xmlns:dc="http://purl.org/dc/elements/1.1/"
   xmlns:cc="http://creativecommons.org/ns#"
   xmlns:rdf="http://www.w3.org/1999/02/22-rdf-syntax-ns#"
   xmlns:svg="http://www.w3.org/2000/svg"
   xmlns="http://www.w3.org/2000/svg"
   xmlns:sodipodi="http://sodipodi.sourceforge.net/DTD/sodipodi-0.dtd"
   xmlns:inkscape="http://www.inkscape.org/namespaces/inkscape"
   version="1.1"
   style="enable-background:new 0 0 286.054 286.054;"
   xml:space="preserve"
   width="286.054"
   height="286.054"
   id="svg66"
   sodipodi:docname="r3c.svg"
   inkscape:version="0.92.4 (5da689c313, 2019-01-14)"><metadata
   id="metadata72"><rdf:RDF><cc:Work
       rdf:about=""><dc:format>image/svg+xml</dc:format><dc:type
         rdf:resource="http://purl.org/dc/dcmitype/StillImage" /><dc:title></dc:title></cc:Work></rdf:RDF></metadata><defs
   id="defs70" /><sodipodi:namedview
   pagecolor="#ffffff"
   bordercolor="#666666"
   borderopacity="1"
   objecttolerance="10"
   gridtolerance="10"
   guidetolerance="10"
   inkscape:pageopacity="0"
   inkscape:pageshadow="2"
   inkscape:window-width="1920"
   inkscape:window-height="1008"
   id="namedview68"
   showgrid="false"
   inkscape:zoom="2.3335064"
   inkscape:cx="138.78439"
   inkscape:cy="159.23957"
   inkscape:window-x="-11"
   inkscape:window-y="-11"
   inkscape:window-maximized="1"
   inkscape:current-layer="svg66" /><rect
   id="backgroundrect"
   width="100%"
   height="100%"
   x="0"
   y="0"
   fill="none"
   stroke="none" />
















<g
   class="currentLayer"
   style=""
   id="g64"><title
     id="title45">Layer 1</title><g
     id="svg_1"
     class="selected"
     fill-opacity="1"
     fill="#ffff00">
	<path
   style=""
   d="M143.027,0C64.04,0,0,64.04,0,143.027c0,78.996,64.04,143.027,143.027,143.027   s143.027-64.031,143.027-143.027C286.054,64.04,222.014,0,143.027,0z M143.027,259.236c-64.183,0-116.209-52.026-116.209-116.209   S78.844,26.818,143.027,26.818s116.209,52.026,116.209,116.209S207.21,259.236,143.027,259.236z M167.717,137.637   c8.966-5.936,13.364-15.277,13.364-25.977c0-13.239-11.254-31.082-34.729-31.082c-18.093,0-35.542,14.276-35.542,27.515   c0,6.284,3.915,12.56,10.602,12.56c11.085,0,8.966-16.636,24.449-16.636c7.339,0,11.737,4.925,11.737,11.371   c0,18.853-23.152,6.794-23.152,24.627c0,20.033,27.72,2.548,27.72,26.317c0,9.002-6.856,15.796-15.331,15.796   c-18.424,0-15.813-19.872-26.898-19.872c-5.873,0-12.551,4.756-12.551,11.38c0,13.418,15,31.922,39.127,31.922   c23.152,0,41.084-17.154,41.084-37.527C187.598,154.621,179.445,143.25,167.717,137.637z"
   id="svg_2"
   fill="#ffff00" />
</g><g
     id="svg_3">
</g><g
     id="svg_4">
</g><g
     id="svg_5">
</g><g
     id="svg_6">
</g><g
     id="svg_7">
</g><g
     id="svg_8">
</g><g
     id="svg_9">
</g><g
     id="svg_10">
</g><g
     id="svg_11">
</g><g
     id="svg_12">
</g><g
     id="svg_13">
</g><g
     id="svg_14">
</g><g
     id="svg_15">
</g><g
     id="svg_16">
</g><g
     id="svg_17">
</g></g><path
   style="fill:#ffff00;fill-opacity:1;stroke-width:0.42853963"
   d="M 135.20666,258.81394 C 98.740035,256.15562 66.390299,237.29383 46.181342,206.90698 36.712378,192.66913 30.686155,176.68715 28.019562,158.74062 26.946894,151.52142 26.946611,134.20903 28.019047,127.24296 31.326619,105.7584 39.681863,86.381029 52.521117,70.418064 69.41613,49.412603 93.639599,34.59746 119.58581,29.401111 c 9.37982,-1.878532 12.96342,-2.206766 23.78395,-2.178442 11.38735,0.02981 17.71816,0.754455 27.42654,3.139344 32.52739,7.990437 60.35101,30.071856 75.60754,60.003762 5.84378,11.464955 9.63068,23.505795 11.66544,37.091455 0.38434,2.56618 0.57255,7.94399 0.56242,16.07023 -0.0133,10.66003 -0.1373,12.92193 -0.97504,17.7844 -2.87792,16.70406 -8.92068,32.22081 -17.64835,45.31786 -5.27893,7.92175 -8.68132,12.06286 -15.40427,18.74882 -16.17835,16.08931 -36.27147,26.8693 -58.30741,31.28202 -10.15378,2.0333 -21.73416,2.83539 -31.08997,2.15338 z m 18.92759,-53.80955 c 15.75874,-2.73831 28.25384,-13.42861 32.30503,-27.63886 4.02641,-14.12331 -1.773,-29.24597 -14.29138,-37.26647 -2.02323,-1.29628 -3.68535,-2.45711 -3.69359,-2.5796 -0.008,-0.1225 0.96345,-0.99029 2.15931,-1.92843 4.17292,-3.27362 7.75944,-8.98504 9.46737,-15.0765 1.36822,-4.87985 1.36677,-12.02489 -0.003,-16.41271 -4.59316,-14.709953 -17.21972,-23.569685 -33.59064,-23.569685 -7.40126,0 -14.22643,1.9635 -20.69113,5.95254 -10.62206,6.55433 -16.5174,16.323275 -14.81104,24.542815 1.87517,9.03259 11.21503,12.82974 16.90331,6.87208 0.832,-0.8714 2.82372,-3.40493 4.42603,-5.63006 3.40022,-4.72186 5.76378,-6.58709 9.58861,-7.56697 8.62145,-2.20871 15.37889,2.52728 15.3903,10.78637 0.006,4.06917 -0.91501,6.5932 -3.15948,8.66207 -1.92281,1.7724 -3.06198,2.27008 -9.9315,4.33891 -7.40887,2.23127 -9.73069,4.87359 -9.78941,11.14076 -0.0358,3.821 0.61829,5.97039 2.45267,8.05963 1.82449,2.07798 4.06783,2.93606 10.92501,4.1788 7.21691,1.30794 9.98106,2.57325 11.91611,5.45467 2.61958,3.90075 2.97548,10.93014 0.79529,15.70777 -3.05386,6.69218 -10.06848,10.06008 -17.6545,8.47638 -5.66967,-1.18364 -8.38853,-3.48214 -13.00412,-10.99352 -3.50042,-5.69657 -5.21144,-7.4347 -7.97023,-8.09652 -5.32569,-1.27761 -12.22225,2.65925 -14.04872,8.01963 -0.87619,2.57148 -0.84019,4.41253 0.16297,8.33485 3.04956,11.92368 14.09535,22.12076 27.66885,25.5429 1.88557,0.47539 4.00684,0.94483 4.71393,1.0432 3.13195,0.43571 10.27692,0.25193 13.76427,-0.35405 z"
   id="path74"
   inkscape:connector-curvature="0" /><path
   style="fill:#ffff00;fill-opacity:1"
   id="path76"
   d="m 50.219008,53.456048 c -0.182605,-0.02776 -0.363712,-0.09814 -0.547816,-0.08327 -0.221126,0.01786 -0.423901,0.133331 -0.640937,0.179278 -0.242446,0.05132 -0.982788,0.110613 -0.734973,0.112001 7.673933,0.04296 15.348106,0.01914 23.022156,0.01277 0.413835,-3.44e-4 -0.829949,-0.01198 -1.240978,0.03613 -0.155165,0.06155 -0.326309,0.0925 -0.465494,0.184648 -0.856756,0.567247 -1.385404,1.702459 -1.813276,2.584538 -0.950654,1.923326 -1.657289,3.950537 -2.513292,5.915449 -0.85497,1.708767 -1.456328,3.534029 -2.319902,5.238713 -0.394928,0.779582 -1.071457,1.904768 -1.519397,2.66664 -1.068613,1.874811 -2.191782,3.729002 -3.416596,5.507025 -0.804443,0.993402 -0.88002,2.201629 -1.111254,3.403109 -0.376388,1.405328 -0.573645,2.845425 -0.82066,4.276378 -0.166183,1.55697 -0.533831,3.074116 -0.991567,4.568682 -0.554054,1.426382 -0.942839,2.906041 -1.372527,4.371824 -0.52996,1.527016 -1.153996,3.025874 -1.805947,4.50553 -0.62438,1.511899 -1.279843,3.009109 -2.007471,4.474367 -0.643336,1.5266 -1.3337,3.02529 -2.15241,4.46683 -0.76793,1.23024 -1.48549,2.49242 -2.266944,3.71317 -0.689178,0.91056 -0.809274,2.0029 -0.891921,3.10441 -0.246226,1.45824 -0.588426,2.89248 -0.754442,4.36393 -0.159449,1.50278 -0.287404,3.01612 -0.563114,4.50256 -0.287175,1.42984 -0.684135,2.81796 -1.164199,4.19268 -0.406734,1.22836 -0.482112,2.5294 -0.660124,3.80335 -0.211755,1.39127 -0.268587,2.79801 -0.305931,4.20269 0.160811,1.19897 0.712533,2.26032 1.059905,3.40571 0.335889,0.6911 0.418957,1.46356 0.639058,2.18835 0.213954,0.70454 0.504685,1.37761 0.703722,2.09201 0.254181,0.75539 0.271202,1.55854 0.415359,2.33353 0.130986,0.70418 0.368034,1.40249 0.528149,2.10166 0.04849,0.26537 0.07822,0.53486 0.145462,0.79611 0.114028,0.44303 0.310561,0.86129 0.437987,1.30066 0.227235,0.78352 0.370699,1.57712 0.505729,2.38032 0.07445,0.88113 0.304539,1.73633 0.430232,2.61017 0.119031,0.82754 -0.02221,0.42435 0.240875,1.00292 0.295146,0.55043 0.295727,1.20748 0.509491,1.78038 0.04613,0.12363 0.152271,0.21648 0.213537,0.33336 0.230858,0.44041 0.279005,0.66478 0.437784,1.15158 0.423061,1.17836 0.706333,2.33631 0.858018,3.58296 0.212498,1.38672 -0.01581,2.81695 0.247595,4.19105 0.196331,1.4712 0.826854,2.8132 1.287076,4.20998 0.4041,1.45553 1.051658,2.83132 1.811667,4.13355 0.176125,0.53745 0.529099,0.99084 0.747206,1.50755 0.130609,0.30942 0.211204,0.63791 0.33162,0.95143 0.363694,0.94694 0.833418,1.81874 1.34213,2.69329 0.711051,1.6391 1.521399,3.23784 2.098699,4.93186 1.512469,4.43818 -0.646447,-1.62273 0.797305,2.39541 0.439154,1.67685 1.287383,3.18917 1.761673,4.85138 0.291948,0.56072 0.365162,1.18964 0.531852,1.78819 0.208227,0.74771 0.291623,0.56043 0.335118,1.41986 0.01334,0.26356 -0.02846,0.52703 -0.04269,0.79054 -1.844384,9.86753 -19.552193,5.87293 -26.728297,0.45434 -1.594409,-0.77379 -2.726617,-2.20552 -3.931532,-3.46337 -0.787133,-0.94888 -0.37651,-0.49064 -1.156195,-1.30171 -0.119336,-0.12414 -0.240409,-0.24665 -0.357408,-0.373 -0.04114,-0.0444 -0.177261,-0.13584 -0.116804,-0.13909 23.998281,-1.2929 16.971588,-4.81296 24.441089,-1.00614 0.779699,0.62445 0.08259,0.005 0.860769,0.94534 0.630143,0.76118 0.389346,0.26963 0.99963,1.14393 0.338232,0.48455 0.622004,1.00516 0.948781,1.49751 1.094081,1.81892 2.225417,3.62052 3.281176,5.46486 0.894869,1.82108 2.034238,3.51424 2.966585,5.31349 0.341945,0.65989 1.11467,2.41394 1.416891,3.08969 1.048756,2.49525 2.096921,4.98702 2.82259,7.59974 0.07264,0.33723 0.126565,0.67905 0.217932,1.0117 0.06731,0.24505 0.405366,1.08083 0.492811,1.3368 0.242801,0.71074 0.380443,1.42595 0.503487,2.16476 0.213752,0.95556 0.09747,1.9506 0.215779,2.91265 0.03896,0.31683 0.172709,0.61464 0.260316,0.9216 0.131332,0.85438 0.611606,1.59519 0.890848,2.40157 0.731099,2.11124 -0.207236,-0.21335 0.57591,1.65828 0.686572,2.00956 1.492293,4.05802 2.527079,5.91614 0.592969,1.1276 1.02471,2.3294 1.602153,3.46509 1.031041,2.0278 -0.336608,-0.89398 0.657277,1.27055 0.38329,0.88042 1.18855,1.40424 1.831138,2.06297 0.377114,0.38659 0.68807,0.83264 1.037592,1.24434 0.673728,0.73297 1.631206,1.024 2.4055,1.59198 1.609737,1.18082 -0.254692,0.009 1.341166,0.97013 0.235818,0.13117 0.477775,0.25185 0.707453,0.39349 0.255828,0.15777 0.483763,0.3602 0.747744,0.50391 0.259873,0.14147 0.551141,0.21726 0.816698,0.34775 0.297996,0.14643 0.573492,0.33602 0.871751,0.48192 1.805163,0.883 -0.02534,-0.17878 1.737946,0.89844 0.275881,0.16624 0.535922,0.36217 0.827642,0.49873 0.290282,0.13588 0.615112,0.1857 0.908787,0.31408 0.31554,0.13794 0.602105,0.3355 0.913504,0.48255 0.29163,0.13771 0.602741,0.23159 0.893645,0.37083 0.606386,0.29025 1.152155,0.64263 1.724309,0.99176 1.848571,0.65014 3.563704,1.587 5.344268,2.39861 0.749533,0.51168 1.539328,0.94531 2.316352,1.41298 0.236095,0.1421 0.499591,0.23976 0.722444,0.40184 0.804427,0.74265 0.392155,0.42454 1.221918,0.97333 0.200424,0.0782 0.408928,0.13818 0.601274,0.23454 0.895011,0.44837 0.185581,0.26986 1.095551,0.52586 0.1745,0.0491 0.35108,0.0939 0.53056,0.11935 0.18433,0.0261 0.3823,-0.0284 0.55742,0.0348 0.20312,0.0733 0.35883,0.24033 0.53825,0.36049 0.51418,0.24478 1.044,0.3797 1.60956,0.4243 0.20141,0.0159 0.41254,-0.0327 0.60549,0.0272 0.21775,0.0676 0.38542,0.24581 0.59105,0.34433 0.18722,0.0897 0.38886,0.14557 0.58329,0.21836 0.54185,0.21313 1.05534,0.25155 1.62114,0.17195 -7.81602,0.0185 -15.645442,-0.40233 -23.448075,0.0554 -0.442761,0.026 0.0015,0.89591 -0.105228,1.3264 -0.04568,0.18429 -0.22489,0.30598 -0.337335,0.45897 -2.59343,-1.6545 1.520177,1.01993 -1.675984,-1.27456 -0.342434,-0.24583 -0.729196,-0.4235 -1.085936,-0.64807 -1.013474,-0.63798 -1.968081,-1.3599 -2.971526,-2.0133 -0.63359,-0.6297 -1.355439,-1.16788 -2.133958,-1.60598 -0.206106,-0.11598 -0.441429,-0.18015 -0.635784,-0.3149 -0.242509,-0.16814 -0.90578,-0.8695 -1.104249,-1.07319 -0.981821,-0.97529 -1.926848,-2.1489 -1.91932,-3.60601 0.0015,-0.28134 0.06282,-0.55917 0.09422,-0.83876 0.103622,-0.32253 0.207244,-0.64507 0.310866,-0.96761 0,0 23.897534,2.19601 23.897534,2.19601 v 0 c -0.07316,-0.1869 -0.146313,-0.37381 -0.219469,-0.56072 -0.02928,-0.0671 -0.06987,-0.13044 -0.08783,-0.20147 -0.0097,-0.0384 0.0401,0.0684 0.06246,0.10112 0.08997,0.13157 0.173786,0.26799 0.274449,0.39157 0.437519,0.53714 0.97365,0.98402 1.497287,1.43242 1.740384,1.22153 -0.650507,-0.42746 1.065697,0.66519 0.971771,0.61869 1.796861,1.43887 2.781561,2.0383 2.00862,1.39612 4.12763,2.69631 5.78382,4.52332 0.1339,0.4268 0.35881,0.83515 0.40171,1.28041 0.97969,10.16796 -17.809105,4.55453 -25.881416,1.42039 -1.857777,-0.59984 0.622963,0.14936 -1.129845,-0.22405 -0.803511,-0.17118 -1.50374,-0.67021 -2.276285,-0.92828 -1.264224,-0.17999 -2.330274,-1.1238 -3.37862,-1.7929 -1.293832,-0.95453 -2.782794,-1.65361 -4.216705,-2.36973 -1.790606,-0.84888 -3.617349,-1.62656 -5.362628,-2.56474 -1.762637,-0.87126 -3.578721,-1.63269 -5.266836,-2.64814 -1.706658,-0.8238 -3.354452,-1.75995 -4.904858,-2.85225 -1.324866,-0.99704 -2.789247,-1.82069 -3.799229,-3.18241 -1.091606,-1.22523 -2.275963,-2.38229 -2.905614,-3.9382 -0.7959,-1.54144 -1.461229,-3.14406 -2.257102,-4.68535 -0.953271,-2.00899 -1.831426,-4.0594 -2.537726,-6.1692 -0.514582,-1.43995 -1.120883,-2.85408 -1.475539,-4.34446 -0.303907,-1.32203 -0.287599,-2.65716 -0.47957,-3.99554 -0.299272,-1.45308 -0.91776,-2.81114 -1.208536,-4.26869 -0.7631,-2.48352 -1.777985,-4.87194 -2.810266,-7.25368 -1.305182,-2.80193 -2.859644,-5.46867 -4.371965,-8.16267 -1.062909,-1.78428 -2.120864,-3.57539 -3.272121,-5.30392 -0.83153,-1.20102 -1.838321,-2.24932 -2.793736,-3.34784 -4.125003,-7.55057 -0.605201,-0.685 23.430977,-2.44496 0.05345,-0.004 0.07798,0.0736 0.114812,0.11257 0.120981,0.12789 0.240163,0.25748 0.358524,0.3878 0.185581,0.20433 0.364746,0.41451 0.553279,0.61612 0.195126,0.20866 0.398315,0.40964 0.597472,0.61445 1.236962,1.21647 2.321705,2.07705 3.877714,2.86896 0.473976,0.21231 0.758356,0.36284 1.254276,0.49977 0.182876,0.0505 0.747634,0.11055 0.557925,0.11252 -1.646822,0.0171 -26.236096,-7.37316 -23.109525,0.97006 0.02922,0.078 0.10453,0.12967 0.156795,0.1945 0.199677,-0.56095 -0.664782,-2.35864 -0.814026,-3.03087 -0.574214,-1.59738 -1.287199,-3.14352 -1.759336,-4.77899 -0.815804,-2.37517 -1.68652,-4.72926 -2.880166,-6.94759 -0.860755,-1.6995 -1.506595,-3.49153 -2.421563,-5.16457 -0.721163,-1.4604 -1.382699,-2.94712 -1.827503,-4.519 -0.542483,-1.51844 -1.089546,-3.03797 -1.29753,-4.64713 -0.172042,-1.40433 -0.08822,-2.81999 -0.248102,-4.22721 -0.157358,-1.05716 -0.483983,-2.05899 -0.845486,-3.06345 -0.460966,-1.11239 -0.829536,-2.24539 -1.165209,-3.40231 -0.292132,-1.28276 -0.466347,-2.59301 -0.67763,-3.89135 -0.27952,-1.4726 -0.79084,-2.87693 -1.086492,-4.34534 -0.346378,-1.42887 -0.597641,-2.87095 -0.939957,-4.29854 -0.446029,-1.40625 -0.880742,-2.81455 -1.34084,-4.21607 -0.485373,-1.37626 -1.009956,-2.74528 -1.071733,-4.22421 0.03823,-1.49416 0.09425,-2.99105 0.308149,-4.47233 0.196107,-1.41161 0.295199,-2.84396 0.669611,-4.22319 0.196881,-0.65038 0.186438,-0.67783 0.437298,-1.28092 0.06695,-0.16095 0.166361,-0.30922 0.215629,-0.47644 0.211005,-0.71613 0.249322,-1.48983 0.504989,-2.19719 0.363451,-1.37461 0.363024,-2.83802 0.558965,-4.24359 0.14604,-1.44339 0.387402,-2.87121 0.753671,-4.27635 0.09663,-1.47675 0.253099,-2.97101 0.930788,-4.3125 0.219722,-0.33714 0.495468,-0.63749 0.696427,-0.98615 0.68595,-1.1901 -0.02556,-0.31613 0.74232,-1.39191 0.129333,-0.1812 0.30546,-0.32711 0.426424,-0.51399 0.15546,-0.24019 0.265571,-0.50685 0.398357,-0.76028 0.879427,-1.33125 1.61582,-2.74477 2.141647,-4.25325 0.705056,-1.433764 1.433834,-2.850507 2.001944,-4.346624 0.599049,-1.429692 1.234476,-2.841239 1.797965,-4.283487 0.526986,-1.454474 0.775036,-3.006558 1.374802,-4.44127 0.561373,-1.31285 0.800845,-2.750672 0.981052,-4.159133 0.25451,-1.467426 0.435749,-2.949011 0.822878,-4.390079 0.376505,-1.424469 0.299685,-2.981782 1.145629,-4.265266 0.139659,-0.225074 0.279319,-0.450148 0.418978,-0.675223 0.159012,-0.201432 0.336857,-0.389332 0.477036,-0.604296 0.186641,-0.286212 0.321008,-0.603824 0.500419,-0.894622 0.662793,-1.074293 1.509527,-2.031824 2.013041,-3.203842 0.250353,-0.439749 0.486104,-0.888138 0.751057,-1.319247 0.238446,-0.387978 0.534075,-0.740056 0.758199,-1.13648 0.936686,-1.656778 1.434773,-3.516567 2.318112,-5.196894 0.90468,-1.985693 1.638068,-4.031692 2.518283,-6.028143 0.519777,-0.995075 0.277485,-0.464496 0.712466,-1.598241 0.09673,-0.197371 0.248694,-0.362723 0.363519,-0.550145 0.418297,-0.682757 0.851716,-1.344542 1.307561,-2.005315 0.214557,-0.213713 0.405741,-0.453798 0.643672,-0.641141 0.223359,-0.175869 0.445996,-0.434416 0.730215,-0.440636 8.142155,-0.178188 16.287993,-0.133112 24.432064,-0.110031 0.81082,0.0023 1.45863,0.581275 2.079377,1.012402 0,0 -23.875389,2.424947 -23.875389,2.424947 z"
   inkscape:connector-curvature="0" /><path
   style="fill:#ffff00;fill-opacity:1"
   id="path78"
   d="m 87.786966,239.60879 c 2.184413,0.73961 4.21351,1.87582 6.256765,2.93232 0.555537,0.23169 1.117073,0.4495 1.666611,0.69508 1.488281,0.66509 2.92244,1.44745 4.412728,2.10804 0.9914,0.43945 2.00693,0.82237 3.00839,1.23839 13.71093,5.6957 -7.504704,-3.08736 7.24673,3.01521 6.84226,2.80357 13.79721,5.31405 20.79043,7.70965 2.17345,0.62452 4.31738,1.34214 6.50087,1.932 0.52944,0.14303 1.06794,0.25253 1.59393,0.40779 0.84999,0.25091 1.68062,0.56378 2.52699,0.82663 0.61772,0.26012 1.30194,0.24939 1.93572,0.43943 0.28928,0.0867 0.55199,0.24847 0.83978,0.34 0.84127,0.26754 1.74958,0.38703 2.62045,0.50812 1.56808,0.17906 3.1471,0.1582 4.72235,0.1551 11.55599,-0.0634 -32.13706,0.0163 -19.27756,-0.0151 0.96116,-0.11951 2.00978,0.36942 2.91036,-0.124 0.18167,-0.0995 0.33643,-0.24181 0.50464,-0.36272 1.03603,-0.83222 2.10716,-1.66855 2.97243,-2.68131 1.09167,-1.3289 2.25341,-2.58797 3.28893,-3.96324 0.21319,-0.44457 0.72274,-0.95598 0.72428,-1.49645 9e-5,-0.0318 -0.0683,0.005 -0.0916,0.0272 -0.58862,0.55038 0.14547,0.0592 -0.6506,0.52877 -1.46052,0.22537 -2.95101,0.19817 -4.42538,0.21211 43.60052,0.006 15.12332,0.0487 -3.13771,-0.15948 -0.6678,-0.008 -1.33152,-0.10585 -1.9979,-0.15005 -0.74894,-0.0497 -1.50019,-0.066 -2.2479,-0.13159 -1.53439,-0.13463 -3.06041,-0.35187 -4.59119,-0.52269 -3.49194,-0.39296 -6.99893,-0.60654 -10.51042,-0.70467 -8.60132,-0.1334 -20.492973,0.15718 19.94253,-0.0543 0.10599,-5.5e-4 -0.28472,0.0109 -0.30395,-0.0933 -0.0688,-0.37331 0.0515,-0.75747 0.0772,-1.13621 0.0486,-0.40963 0.008,-0.84027 0.14586,-1.22889 0.0393,-0.1105 0.21617,-0.10028 0.33253,-0.11509 0.56118,-0.0714 0.50931,0.0609 1.07125,0.22121 1.20695,0.34439 0.0624,-0.14795 1.34995,0.48779 0.72081,0.25341 1.44995,0.50265 2.21368,0.58939 0.28164,0.032 0.5708,-0.005 0.84886,0.0502 0.30365,0.0601 0.58209,0.2134 0.88145,0.29206 0.31972,0.084 0.64823,0.13 0.97235,0.195 1.45152,0.34194 2.91012,0.66626 4.37155,0.96412 0.60282,0.12287 1.21787,0.18686 1.815,0.3349 0.33608,0.0833 4.34648,1.32642 4.53458,1.38446 5.03084,1.4412 9.88297,3.41264 14.87705,4.96505 2.64817,0.92997 5.34512,1.621 8.14338,1.84226 8.44376,0.2531 1.05015,0.0243 -21.96715,-0.0772 -0.29237,-10e-4 0.58479,0.0113 0.87711,0.006 1.11347,-0.0215 2.09492,-0.18014 3.16944,-0.46732 2.3443,-0.67363 4.35424,-2.05646 6.43057,-3.28077 0.66301,-0.37045 1.34844,-0.73996 1.9725,-1.17464 0.52408,-0.36505 0.96927,-0.79768 1.51754,-1.13236 1.61393,-1.13302 3.37992,-2.06145 5.06949,-3.08542 3.68628,-2.3584 7.52657,-4.44582 11.35563,-6.55778 2.76346,-1.49445 5.53489,-2.96928 8.25135,-4.54731 0.52122,-0.42642 1.16176,-0.65087 1.72016,-1.01505 0.0896,-0.0584 0.14938,-0.17162 0.25328,-0.197 0.20238,-0.0494 -0.0613,0.41399 -0.12512,0.61231 -3.91781,7.31422 -0.44436,0.48333 22.97812,1.05932 0.30469,0.007 -0.61576,-0.089 -0.91399,-0.0261 -0.46635,0.0984 -0.90229,0.31057 -1.33906,0.50133 -0.6484,0.28319 -1.27039,0.62376 -1.91333,0.91915 -0.8701,0.39975 -1.75021,0.77735 -2.62532,1.16603 -5.3554,2.25082 -10.67491,4.59801 -16.14505,6.56045 -2.59821,0.94346 -5.28,1.61103 -7.97609,2.20259 -4.37626,1.04403 -8.89502,1.27313 -13.35261,1.77424 -1.51505,0.17032 -3.02709,0.36642 -4.54064,0.54963 -13.6757,1.74131 -27.47289,2.08197 -41.23919,2.39212 -14.67155,0.30302 -29.346449,0.21695 -44.020229,0.191 -4.107379,-0.007 -8.170939,-0.19846 -12.264853,-0.49291 -2.741696,-0.46582 -5.919299,-0.57277 -8.201469,-2.40404 -0.28991,-0.23264 -0.5244,-0.52695 -0.7866,-0.79042 -1.450333,-1.13161 -2.056538,-2.74461 -2.2334,-4.51943 -0.19583,-2.7453 1.412939,-4.36858 3.273031,-6.13237 0.506115,-0.43527 1.009977,-0.87317 1.518346,-1.30581 1.42779,-1.21509 3.263892,-2.7188 4.595793,-3.97422 3.334568,-3.14308 6.369996,-6.59072 9.431457,-9.99334 6.898228,-7.50855 13.061522,-15.6329 19.065295,-23.85993 8.669119,-11.95579 16.578459,-24.43592 24.425359,-36.93937 5.13427,-8.26597 10.43714,-16.42398 15.63045,-24.65285 2.63178,-3.84227 5.16409,-7.74835 7.68043,-11.66611 0.58437,-0.90093 1.14651,-1.81831 1.83139,-2.64845 0.19427,-0.23548 0.29996,-0.67635 0.60503,-0.68753 24.47658,-0.89672 21.29745,-7.70577 24.79695,1.00971 0.92909,3.52066 0.48263,7.17943 -0.0215,10.7294 -0.53668,3.77953 -0.88855,5.30411 -1.62442,9.03979 -1.17292,5.54575 -2.73515,11.01381 -4.89836,16.2562 -0.53441,1.27974 -1.08845,2.59083 -2.0508,3.61798 -0.37181,0.39684 -0.84287,0.72759 -1.2717,1.05512 -20.03462,0.16499 -22.38753,6.226 -27.70529,-5.39297 -0.58585,-1.80136 -1.38808,-3.5689 -1.61868,-5.46709 -0.0922,-0.7587 -0.12735,-1.52323 -0.19102,-2.28485 -0.4689,-12.6356 0.2399,-25.27889 0.8253,-37.89918 0.32412,-6.45761 0.61253,-12.9168 0.89638,-19.376252 0.0108,-0.171633 -0.13946,-0.512765 0.0325,-0.514897 8.00501,-0.09925 16.02182,-0.213134 24.0159,0.216745 0.35724,0.01921 0.001,0.717332 -0.0419,1.072449 -0.0793,0.649325 -0.18261,1.296915 -0.32548,1.935265 -0.62828,2.80718 -1.04167,3.69194 -2.04988,6.61187 -3.75938,10.3734 -8.16865,20.49081 -12.08454,30.80281 -2.13628,5.45544 -3.93068,11.03652 -6.00451,16.51463 -0.95367,2.51916 -2.04375,5.17901 -3.05053,7.67332 -3.19881,7.38978 -6.22323,14.86789 -9.76616,22.10242 -0.81441,1.70581 -1.71142,3.36758 -2.65875,5.00213 0,0 -23.962669,-1.30573 -23.962669,-1.30573 v 0 c 0.980179,-1.54639 1.872819,-3.1416 2.648699,-4.80246 3.6005,-7.14347 6.53335,-14.60313 9.7584,-21.91895 0.79259,-1.95345 2.2802,-5.58991 3.04766,-7.59559 2.09594,-5.47749 3.86482,-11.07533 6.00531,-16.53681 3.87842,-10.30893 8.29703,-20.40365 12.08268,-30.74966 1.06219,-2.94412 1.34876,-3.46408 2.03998,-6.23115 0.13276,-0.53148 0.23913,-1.07007 0.32182,-1.611599 0.039,-0.255362 -0.21569,-0.762836 0.0424,-0.773804 7.9863,-0.339418 15.98607,-0.318741 23.97926,-0.247117 0.15427,0.0014 -0.0215,0.307799 -0.0322,0.461698 -0.28492,6.461302 -0.57071,12.922532 -0.8964,19.381972 -0.58099,12.51299 -1.29218,25.04929 -0.82597,37.57747 0.0624,0.67244 0.0951,1.34829 0.18718,2.01732 0.23171,1.68435 0.99942,3.28037 1.5985,4.85121 0.48573,0.91845 0.9617,2.02795 1.76975,2.72377 0.17899,0.15414 0.39427,0.28048 0.62382,0.33613 0.21486,0.0521 0.88387,-0.0254 0.66279,-0.0242 -7.69794,0.0414 -15.39581,0.0965 -23.09372,0.14477 0.19122,0.0914 0.36365,0.24561 0.57365,0.27414 0.18949,0.0257 0.37828,-0.0636 0.561,-0.11997 1.13991,-0.35198 1.57356,-1.46661 1.97858,-2.49 2.23441,-5.0391 3.68744,-10.38841 4.88339,-15.75756 0.76179,-3.80473 1.0547,-5.01519 1.62158,-8.86138 0.3741,-2.53816 0.9508,-5.56466 0.37413,-8.15415 -0.0415,-0.18643 -0.19185,-0.33032 -0.28777,-0.49549 -5.63698,6.00523 -0.67398,0.55213 22.97424,-0.0432 0.18395,-0.005 -0.33928,-0.21656 -0.52042,-0.18417 -0.72202,0.1291 -1.45711,1.7005 -1.79847,2.16866 -1.78174,2.60715 0.19992,-0.34391 -1.78855,2.81468 -1.87989,2.98615 -3.90264,5.88227 -5.88878,8.79757 -2.10432,3.34304 -4.18754,6.70319 -6.31778,10.02947 -3.11539,4.86457 -6.35117,9.65373 -9.3123,14.61664 -7.85027,12.5574 -15.77961,25.08159 -24.43519,37.10475 -6.01238,8.30172 -12.16436,16.52184 -19.08174,24.10179 -4.876679,5.48659 -9.693372,11.06631 -15.565657,15.52899 -0.642108,0.55021 -2.695371,2.0703 -3.073987,2.82698 -0.178297,0.35634 -0.123837,0.6162 -0.117017,0.99999 0.219715,1.23219 1.146781,1.92081 2.132767,2.60399 2.736567,1.33769 5.82857,1.5338 8.818476,1.80664 3.116929,0.17199 3.975215,0.24435 7.284468,0.30659 1.65235,0.0311 6.61036,0.0324 4.95774,0.0403 -38.02486,0.18138 -11.188269,-0.0177 -3.39386,-0.14553 13.74891,-0.26953 27.53007,-0.53414 41.2017,-2.14356 4.09502,-0.54013 4.56133,-0.63864 8.50453,-1.02543 1.05162,-0.10315 2.10551,-0.18156 3.15827,-0.27234 0.85482,-0.10428 1.70825,-0.22059 2.56445,-0.31284 0.69118,-0.0745 1.38738,-0.10046 2.07712,-0.18723 0.52128,-0.0656 1.0353,-0.17964 1.55295,-0.26945 0.45323,-0.11636 0.90646,-0.23272 1.35969,-0.34908 0.41141,-0.0709 0.82751,-0.11867 1.23424,-0.2128 0.38286,-0.0886 0.74784,-0.24493 1.13048,-0.33444 1.41394,-0.33079 2.86925,-0.50871 4.22277,-1.08345 5.51057,-1.76555 10.77462,-4.16964 16.12152,-6.3657 0.3634,-0.15373 3.87707,-1.62079 4.52399,-1.95653 0.48094,-0.2496 0.92297,-0.56797 1.38131,-0.85697 0.33854,-0.21347 0.60904,-0.6487 1.00927,-0.6504 24.3485,-0.10314 21.06868,-6.85515 24.70069,1.36711 0.0623,0.35899 0.16419,0.71333 0.18697,1.07698 0.0903,1.44171 -0.86772,2.61974 -2.12334,3.1889 -2.60821,1.79654 -5.46366,3.19576 -8.26348,4.66475 -3.77245,2.20586 -7.7668,4.04024 -11.35548,6.55632 -0.47244,0.25115 -0.95862,0.47803 -1.41733,0.75346 -0.38195,0.22934 -0.72185,0.52369 -1.10053,0.7584 -0.50582,0.31351 -1.05764,0.5475 -1.56821,0.85321 -0.17556,0.10512 -0.33171,0.24261 -0.51384,0.33587 -0.14032,0.0719 -0.29768,0.10395 -0.44652,0.15592 -0.47905,0.38067 -1.03871,0.59174 -1.50409,0.98778 -0.2084,0.17735 -0.36454,0.41215 -0.57949,0.58151 -0.45728,0.36031 -1.06712,0.5058 -1.43295,0.99851 -1.00173,0.51338 -1.99003,1.05787 -2.93704,1.66833 -1.14541,0.73836 -2.23518,1.57188 -3.54136,2.02518 -0.20052,0.0838 -2.05257,0.86392 -2.27747,0.93221 -0.28713,0.0872 -1.5421,0.29295 -1.87677,0.2932 -24.209,0.0177 -16.53329,1.10021 -25.48885,-0.21094 -2.79832,-0.51188 -5.50295,-1.39236 -8.2024,-2.27719 -4.94492,-1.66924 -9.84415,-3.48044 -14.86915,-4.90315 -3.53116,-0.99873 -7.12177,-1.71718 -10.70007,-2.52445 -0.32626,-0.0809 -0.65252,-0.16181 -0.97878,-0.24272 -0.28665,-0.0452 -0.57683,-0.0719 -0.85997,-0.13549 -1.07801,-0.24222 -2.08806,-0.72114 -3.12208,-1.09488 -0.73996,-0.19985 -2.5969,-0.66021 -2.84792,-1.52344 -0.14697,-0.50543 -0.14058,-1.04331 -0.21087,-1.56496 0.001,-0.0129 -0.181,-1.50447 0.48107,-1.51388 9.13442,-0.1299 18.34481,-0.37498 27.50382,-0.0249 3.52028,0.17451 7.03243,0.46727 10.53472,0.86563 2.27403,0.23286 4.54407,0.41839 6.82546,0.56305 0.66448,0.0421 2.65949,0.11723 1.9937,0.1224 -5.64799,0.0439 -57.51871,0.035 3.1178,0.0313 1.55739,0.0223 3.26484,-0.0903 4.57384,0.89243 0.16123,0.22706 0.36088,0.43125 0.48368,0.68119 0.71117,1.44743 0.33644,2.95409 -0.36113,4.31285 -0.91318,1.52426 -2.04874,2.8936 -3.30088,4.1533 -0.31964,0.43706 -0.59274,0.90924 -0.93912,1.32542 -0.74825,0.89904 -0.25191,0.15058 -1.02791,0.86418 -0.18707,0.17202 -0.3359,0.38145 -0.50385,0.57218 -0.1825,0.16696 -0.36499,0.33392 -0.54749,0.50088 -1.22586,1.02337 -1.79626,2.20772 -3.61024,2.05403 -9.37852,0.0215 -18.75929,0.17743 -28.13584,-0.0237 -1.60778,-0.0632 -3.21726,-0.18966 -4.78455,-0.57711 -1.82206,-0.47023 -3.62214,-1.01264 -5.42901,-1.53622 -3.53745,-1.09784 -7.13616,-2.00078 -10.63094,-3.23901 -7.00769,-2.42363 -13.954029,-5.02717 -20.808355,-7.85721 -5.503414,-2.29208 -10.995641,-4.60837 -16.353943,-7.22663 -1.903629,-0.92426 -3.92194,-2.06239 -6.107958,-1.82717 0,0 23.702762,-3.75415 23.702762,-3.75415 z"
   inkscape:connector-curvature="0" /><path
   style="fill:#ffff00;fill-opacity:1"
   id="path80"
   d="m 126.25631,206.97105 c 3.25018,-7.14642 5.11859,-14.81372 7.11406,-22.37589 4.10134,-16.5349 7.9994,-33.12189 11.56579,-49.78069 1.11517,-5.71663 2.42717,-11.42525 2.92959,-17.23933 0.543,-9.08778 -0.8962,-2.9167 24.0664,-0.85063 0.51843,0.0429 -0.0634,1.03871 -0.11429,1.55641 -0.20692,2.10365 -0.51865,4.38875 -0.78443,6.46544 -1.11266,7.15801 -1.93882,14.37404 -3.49681,21.45618 -0.25558,1.1618 -0.55984,2.31236 -0.83976,3.46853 -1.50543,6.59372 -4.09965,12.84452 -6.78638,19.02543 -2.15707,4.96977 -4.64338,9.78399 -7.01363,14.65187 -1.13011,2.32096 -3.13269,6.65214 -4.2132,8.97421 -2.92939,6.17181 -5.18698,12.70273 -8.90332,18.4691 -0.35186,0.40916 -0.66976,0.85018 -1.05558,1.22749 -5.94937,5.81831 -24.36314,0.73897 -25.87696,0.60246 -0.79962,-0.0721 -0.84026,-1.37174 -1.18613,-2.09628 -1.38829,-2.90822 -1.51468,-3.97967 -2.47272,-7.3279 -0.37644,-1.88128 -0.8117,-3.75175 -1.12934,-5.64384 -0.76677,-4.56757 -1.27402,-9.3848 -1.65224,-13.99129 -0.45942,-5.59559 -0.72665,-10.73182 -0.79798,-16.35817 -0.0374,-2.95239 0.0323,-5.90516 0.0484,-8.85775 0.57668,-15.37493 2.65484,-30.64466 5.46843,-45.7561 0.58754,-3.26853 1.34933,-6.50044 2.10988,-9.73153 0.18296,-0.77731 0.59725,-2.13752 0.52006,-3.034329 -0.0271,-0.314321 -0.18584,-0.602978 -0.27876,-0.904467 -0.25887,-0.216509 -0.52912,-0.420105 -0.77662,-0.649529 -0.3966,-0.367624 -0.75179,-0.778795 -1.15409,-1.140161 -2.13044,-1.913656 -4.49868,-3.567791 -6.79225,-5.27534 -0.33918,-0.271943 -2.33567,-1.880932 -2.7635,-2.193962 -0.62044,-0.453959 -1.57634,-1.017912 -2.194461,-1.492036 -0.356786,-0.273672 -0.68645,-0.580997 -1.029675,-0.871495 -0.36438,-0.279283 -0.72876,-0.558567 -1.09314,-0.83785 -0.418232,-0.323974 -0.829944,-0.656545 -1.254695,-0.971923 -1.385168,-1.028486 -1.408917,-0.953867 -2.781146,-2.015902 -1.310092,-1.013943 -2.52781,-2.143705 -3.786679,-3.219177 -2.142304,-1.880912 -4.191516,-3.864781 -6.152698,-5.933566 -0.0084,-0.0099 -1.452526,-1.711414 -1.494055,-1.766458 -0.759004,-1.006008 -1.188437,-1.799058 -2.275012,-2.499667 -0.892257,-0.773489 -1.987792,-1.175027 -3.014638,-1.716691 -1.961128,-1.0345 -0.01096,-0.154529 -2.049097,-1.022184 -1.028219,-0.313792 -2.021845,-0.735984 -3.065189,-1.001688 -1.041928,-0.265343 -0.824987,-0.08748 -1.881196,-0.495196 -0.344754,-0.13308 -0.672368,-0.306894 -1.008551,-0.46034 -0.314103,-0.131573 -0.643707,-0.230983 -0.942308,-0.394717 -0.290158,-0.159103 -0.535046,-0.390268 -0.813979,-0.568317 -0.468867,-0.299286 -1.003955,-0.492201 -1.453422,-0.819901 -0.503699,-0.367239 -0.810697,-0.797799 -1.203626,-1.271003 -1.144985,-1.554152 -1.703374,-3.392311 -2.072678,-5.260974 -0.194066,-1.42156 -0.465512,-2.904393 0.05748,-4.292438 0.10808,-0.286852 0.271093,-0.549881 0.406639,-0.824822 0.361185,-0.437636 0.563062,-0.768242 1.07151,-1.051215 0.158405,-0.08816 0.351985,-0.09057 0.520831,-0.156566 0.561574,-0.219492 0.993918,-0.496199 1.596179,-0.594593 0.6722,-0.341249 1.319992,-0.757478 2.037629,-0.999516 0.823751,-0.277828 -0.09075,0.276188 0.805528,-0.360311 1.108751,-0.765995 2.38841,-1.400086 3.626156,-1.944979 1.432558,-0.449779 2.763525,-1.177751 4.272909,-1.342476 0.429764,-0.227526 1.168589,-0.109591 1.541783,-0.470303 0.609775,-0.589378 0.851586,-1.602468 1.102759,-2.370045 0.53242,-1.950128 0.871311,-3.936546 1.520862,-5.854236 0.57919,-1.547423 1.324459,-3.025969 2.123469,-4.469783 0.869997,-1.277822 2.062559,-2.306265 3.45052,-2.980076 1.188875,-0.690431 2.5257,-1.008802 3.748998,-1.626978 0.220628,-0.09444 0.448022,-0.17442 0.661883,-0.283317 0.274921,-0.139987 0.52809,-0.319981 0.801942,-0.462048 1.084103,-0.5624 2.239601,-0.999339 3.395432,-1.38575 0.282015,-0.07384 0.560388,-0.163344 0.846045,-0.221525 0.255694,-0.05208 0.519224,-0.05825 0.775247,-0.108691 1.017675,-0.200478 2.015284,-0.540127 3.027222,-0.774011 1.506822,-0.183748 2.942852,-0.706172 4.437502,-0.976503 1.46758,-0.247874 2.95883,-0.274413 4.44324,-0.296931 8.84933,-0.06527 0.78035,-0.0075 25.13965,-0.0056 0.9807,7.9e-5 1.93321,-0.03511 2.89958,0.140349 0.71164,0.207697 1.50541,0.06403 2.21845,0.228573 0.26675,0.06156 0.50879,0.202651 0.76684,0.294071 0.73117,0.259028 0.69426,0.227446 1.44072,0.393971 1.45065,0.241761 2.92413,0.244941 4.39023,0.256811 0.23866,-3.89e-4 0.47866,-0.02641 0.71598,-0.0012 0.42877,0.0456 0.84246,0.187343 1.26877,0.252029 0.60903,0.09241 1.21205,0.11949 1.82685,0.139824 0.54288,0.403436 1.5221,0.416539 2.08913,0.653795 0.23505,0.09835 0.41989,0.29032 0.64321,0.412994 0.40969,0.22505 0.76253,0.330042 1.19804,0.483033 0.88657,0.882027 2.18982,1.20323 3.40032,1.384071 0.22534,0.01743 0.45944,-0.01233 0.67602,0.05229 0.43529,0.129879 0.79436,0.450503 1.22265,0.601889 0.56959,0.201332 1.1871,0.223731 1.78203,0.280742 8.2847,0.163135 18.65529,0.0792 -21.00031,-0.02284 -0.2364,-6.09e-4 0.47296,0.0036 0.70916,-0.0061 0.24622,-0.01008 0.49157,-0.03543 0.73735,-0.05314 1.46839,-0.07247 2.91918,-0.347238 4.34341,-0.70093 1.47241,-0.56524 2.90109,-1.223363 4.35678,-1.828482 1.44844,-0.500952 2.92734,-0.868206 4.44601,-1.068602 1.47351,-0.168886 2.95896,-0.17237 4.44009,-0.180649 2.98422,0.03332 18.31484,-4.028609 25.19435,0.73945 0.26111,0.180971 0.49343,0.401897 0.75807,0.577669 0.24286,0.161311 0.51605,0.27306 0.76095,0.431265 0.88171,0.646897 0.44731,0.352888 1.29802,0.889646 0.19828,0.07374 0.41367,0.111985 0.59484,0.221211 1.41815,0.855008 -0.27371,0.135163 1.06914,0.741454 0.29139,0.30013 0.71994,0.12192 1.05065,0.267676 0.19865,0.08755 0.34714,0.260762 0.52072,0.391143 0.52088,0.207153 1.0518,0.436055 1.59092,0.593209 0.19784,0.05767 0.41166,0.05561 0.6051,0.126648 0.46494,0.170738 0.89226,0.431815 1.35089,0.618824 1.18602,0.308021 0.21477,-0.02623 1.32145,0.610903 0.19524,0.112403 0.42741,0.157363 0.61235,0.286005 0.70834,0.492705 0.63427,0.745449 1.53539,1.108783 0.50322,0.395308 1.21985,0.245153 1.76713,0.481398 0.21331,0.09208 0.37021,0.283139 0.572,0.398297 1.0086,0.575593 0.13394,-0.175961 1.06458,0.754268 0.16628,0.100514 0.33256,0.201029 0.49884,0.301544 0.16351,0.07086 0.33734,0.121562 0.49054,0.212594 0.16042,0.09532 0.27994,0.251575 0.44309,0.342156 1.04373,0.57949 -0.24358,-0.409504 1.05817,0.406465 0.23376,0.146522 0.42483,0.352082 0.63724,0.528123 0.21718,0.122941 0.44624,0.226937 0.65155,0.368823 0.23041,0.159228 0.42059,0.371952 0.65091,0.53129 0.20746,0.143515 0.4474,0.235007 0.65785,0.374094 0.20905,0.138162 0.38516,0.323233 0.59781,0.455778 1.49381,0.931065 -0.37034,-0.472213 1.15883,0.734744 0.19556,0.09713 0.39113,0.194259 0.5867,0.291388 0.20787,0.05915 0.42683,0.0881 0.62362,0.177457 0.46156,0.209571 0.84647,0.563233 1.30158,0.786468 2.027,0.994251 -0.76199,-0.561891 1.42472,0.69538 0.83342,0.293914 1.47857,0.891908 2.19358,1.378591 0.86895,0.591463 1.72875,1.144031 2.56481,1.787496 1.76268,1.459522 0.0384,-0.03246 1.73959,1.646908 0.51826,0.511599 1.0839,0.972916 1.61964,1.466164 0.27143,0.249891 0.51999,0.526349 0.81062,0.753622 0.26799,0.209576 0.57242,0.367838 0.85863,0.551757 1.77354,0.944763 3.38892,2.127636 5.05959,3.231858 0.56512,0.235845 0.98687,0.694995 1.50903,0.995959 0.25776,0.148565 0.55746,0.21589 0.81308,0.368093 0.32448,0.193199 0.60722,0.449423 0.91866,0.663007 0.83838,0.574962 1.37035,0.882941 2.25029,1.420545 2.12166,1.126123 4.00326,2.627203 5.93682,4.03445 0.55827,0.406308 1.1324,0.79037 1.69859,1.185554 0.58411,0.432823 1.16822,0.865646 1.75233,1.298469 3.44321,2.284892 6.80021,4.708482 9.98135,7.349551 1.78347,1.448544 3.33541,3.140237 4.87347,4.839518 0.48903,0.720291 1.09906,1.328922 1.68875,1.96078 0.20865,0.22358 0.38574,0.476566 0.60529,0.68946 1.99174,1.931337 -0.93547,-1.21649 1.31067,1.258647 2.51351,2.086208 4.67976,4.532158 6.66452,7.116095 1.96461,2.449255 3.52796,5.181756 4.84707,8.022536 0.12949,0.348422 0.24636,0.701795 0.38846,1.045266 0.11503,0.27804 0.27079,0.538262 0.38229,0.817735 0.49695,1.245575 0.76349,2.56671 0.98247,3.883656 0.23124,1.852318 0.25051,3.720897 0.2618,5.584727 0.0231,1.54672 -0.20155,3.08262 -0.32169,4.62218 -0.0651,1.48611 -0.0776,2.95022 -0.36817,4.41254 -0.28409,1.48336 -0.51849,2.97644 -0.75322,4.46851 -0.12502,1.90973 -0.40371,3.79485 -0.66795,5.68896 -0.39553,2.70734 -0.73634,5.42695 -1.17679,8.12787 -0.46549,2.31246 -0.66625,4.66191 -1.16809,6.96619 -0.4283,1.70427 -0.55264,3.45899 -0.77981,5.19601 -0.21247,1.50762 -0.29136,3.02774 -0.33135,4.54815 -0.0287,1.45174 -0.0248,2.90388 -0.0238,4.35583 0.002,1.4676 0.003,2.93521 0.004,4.40281 5.8e-4,1.49135 5.9e-4,2.9827 6.1e-4,4.47405 -0.13472,2.20726 -0.83646,4.31408 -1.46697,6.41643 -0.71456,2.06485 -1.15044,4.20294 -1.63891,6.32769 -0.70638,3.01633 -1.59102,5.98382 -2.42385,8.96664 -1.00884,3.72918 -2.54961,7.26199 -4.18703,10.74804 -1.05715,2.28339 -2.35827,4.44146 -3.36756,6.7456 -2.73198,6.63186 -5.90624,13.0775 -9.14209,19.47575 -2.02365,4.03822 -4.22341,8.04186 -7.48922,11.21077 -0.72983,0.59819 -1.51567,1.1952 -2.42557,1.49717 -0.3956,0.13129 -0.8317,0.10814 -1.22733,0.23932 -0.21938,0.0727 -0.42065,0.19164 -0.63098,0.28746 -1.77519,0.72169 0.64129,-0.28665 -1.06809,0.51065 -0.13084,0.061 -0.28437,0.0706 -0.40822,0.14475 -0.44077,0.26404 -1.03408,0.81085 -1.44156,1.14103 -0.19171,0.14995 -0.38343,0.29991 -0.57514,0.44986 0,0 -23.8634,-2.54024 -23.8634,-2.54024 v 0 c 0.18261,-0.0596 0.36523,-0.11915 0.54784,-0.17872 1.00477,-0.63051 0.0106,0.0243 0.99777,-0.72567 0.13885,-0.10549 0.306,-0.17425 0.43259,-0.29418 0.16945,-0.16055 0.27009,-0.38677 0.44694,-0.53914 0.32557,-0.28049 0.81951,-0.32215 1.08806,-0.69153 0.2107,-0.0991 0.43115,-0.17972 0.63211,-0.29734 0.53704,-0.31433 0.6596,-0.58648 1.28617,-0.71129 0.23631,-0.0471 0.48289,0.0153 0.72282,-0.007 0.7168,-0.0661 0.88567,-0.17543 1.58268,-0.41751 0.29608,-0.1913 0.61457,-0.35172 0.88823,-0.57391 0.71784,-0.58284 1.5925,-1.60385 2.133,-2.30121 1.75343,-2.26236 3.09684,-4.79292 4.39961,-7.33154 3.23342,-6.32979 6.38251,-12.71982 9.13349,-19.27503 0.18313,-0.48132 0.34543,-0.97109 0.54941,-1.44395 0.43698,-1.01302 1.04895,-1.93872 1.5607,-2.91112 0.2092,-0.3975 0.38339,-0.81256 0.58492,-1.214 0.21938,-0.43698 0.45177,-0.86731 0.67766,-1.30096 1.57947,-3.37497 3.19552,-6.73861 4.17297,-10.35327 0.83117,-2.94174 1.68936,-5.8729 2.42073,-8.84094 0.48006,-2.1768 0.91979,-4.36825 1.64282,-6.48174 0.54496,-1.89429 1.25315,-3.75793 1.45718,-5.73102 -2e-5,-1.49098 -3e-5,-2.98196 -6.1e-4,-4.47295 -6.9e-4,-1.46744 -0.002,-2.93488 -0.004,-4.40232 -0.001,-1.47312 -0.005,-2.94642 0.0239,-4.41934 0.0406,-1.6044 0.11775,-3.20903 0.33335,-4.80098 0.24038,-1.80693 0.35997,-3.63319 0.78359,-5.41085 0.0614,-0.26542 0.36543,-1.55944 0.40745,-1.82325 0.26564,-1.66782 0.36755,-3.36587 0.75815,-5.01522 0.24626,-1.40333 0.39534,-2.81101 0.60511,-4.21982 0.12949,-0.86972 0.31104,-1.7313 0.43418,-2.60194 0.0577,-0.40808 0.0909,-0.81925 0.13634,-1.22888 0.25364,-1.90905 0.58037,-3.79957 0.6685,-5.72736 0.22713,-1.53596 0.49275,-3.06648 0.75549,-4.59645 0.0807,-0.37151 0.2158,-0.73344 0.25551,-1.11153 0.10388,-0.98912 -0.0249,-2.00396 0.10834,-2.99339 0.11074,-1.47453 0.33003,-2.94425 0.32099,-4.42419 -0.0107,-1.72769 -0.018,-3.46259 -0.25808,-5.177028 -0.33993,-1.775862 -0.94426,-3.454581 -1.73235,-5.08309 -1.35596,-2.654658 -2.88854,-5.207549 -4.81732,-7.494368 -2.04414,-2.465601 -4.30897,-4.703344 -6.64798,-6.887111 -1.28865,-1.243412 -2.42423,-2.620872 -3.60865,-3.960758 -1.51848,-1.601228 -3.09042,-3.150667 -4.84534,-4.496657 -3.22624,-2.542871 -6.60202,-4.883824 -9.97064,-7.232849 -3.06023,-2.209117 -6.09791,-4.456979 -9.37106,-6.347959 -1.83303,-1.179088 -3.69761,-2.300857 -5.49908,-3.528077 -1.67238,-1.152672 -3.469,-2.119108 -5.07287,-3.371569 -1.66199,-1.466565 -3.2115,-3.071049 -5.02273,-4.356816 -1.5224,-1.031407 -3.05493,-2.045043 -4.72387,-2.827284 -1.36564,-0.651998 -2.72873,-1.350089 -3.96467,-2.222201 -1.27576,-0.729186 -2.4257,-1.662008 -3.70888,-2.383389 -1.12038,-0.479412 -2.12106,-1.161735 -3.13229,-1.835037 -2.00914,-0.582146 1.36475,0.421629 -1.02636,-0.396101 -0.17342,-0.05931 -0.3646,-0.05441 -0.53782,-0.114291 -0.66127,-0.228581 -1.23442,-0.654744 -1.82804,-1.010351 -0.28077,-0.2178 -0.66547,-0.54195 -0.99371,-0.70316 -0.7857,-0.385888 -1.64364,-0.572668 -2.43547,-0.943828 -1.20518,-0.48518 -2.46169,-0.847742 -3.57144,-1.552687 -0.86621,-0.22691 -1.37061,-0.761833 -2.12488,-1.188625 -0.16447,-0.09306 -0.35346,-0.137551 -0.51774,-0.230935 -0.21467,-0.122026 -0.41,-0.275304 -0.61501,-0.412957 -0.82803,-0.523073 -1.76915,-1.181782 -2.754,-1.340471 -0.22694,-0.03656 -0.91901,-0.0249 -0.68915,-0.02447 7.6704,0.01428 15.34077,0.04402 23.01116,0.06602 -1.47018,-0.0071 -2.94045,-0.02125 -4.41063,-0.0104 -1.47338,0.04346 -2.96038,0.09676 -4.37507,0.55878 -0.73843,0.140067 -1.45274,0.322383 -2.13748,0.645308 -0.25072,0.118237 -0.47516,0.288351 -0.72808,0.401818 -0.47594,0.21353 -1.01157,0.277421 -1.46327,0.554897 -0.62398,0.354607 -1.56907,0.809445 -2.26262,0.99848 -0.7043,0.191968 -1.49623,0.109145 -2.17773,0.42577 -9.26839,0.937096 -18.81766,1.716891 -27.95254,-0.179984 -0.8019,-0.240456 -1.57799,-0.662952 -2.39802,-0.827687 -0.20023,-0.04023 -0.40966,-0.02405 -0.60871,-0.06978 -0.23943,-0.055 -0.4666,-0.153904 -0.69991,-0.230855 -0.63083,-0.262905 -1.28754,-0.515159 -1.88559,-0.84905 -0.18429,-0.10289 -0.84111,-0.561643 -1.06121,-0.651941 -0.15234,-0.0625 -0.3212,-0.07269 -0.4818,-0.109037 -0.22832,-0.09835 -0.95767,-0.423189 -1.19811,-0.48356 -0.19541,-0.04906 -0.40219,-0.03498 -0.59992,-0.07366 -0.67947,-0.132937 -1.32753,-0.406459 -2.03812,-0.295825 -1.26524,-0.159978 -2.51828,-0.340375 -3.79691,-0.294229 -1.50554,-0.105636 -3.00646,-0.295531 -4.45802,-0.726776 -1.43195,-0.372534 -2.89709,-0.41545 -4.36992,-0.523287 -0.71379,0.03005 -1.42343,0.02834 -2.13774,0.02779 -0.24529,-1.87e-4 -0.98113,-9.8e-5 -0.73585,-1.13e-4 23.18894,-0.0015 30.64695,0.03427 22.26802,-0.0046 -1.46689,-0.0076 -2.93447,-0.02418 -4.40095,0.01847 -1.51282,0.09699 -3.02616,0.25259 -4.42495,0.889276 -0.74797,0.06606 -1.49033,0.154461 -2.22226,0.330797 -0.53756,0.129508 -1.03632,0.396577 -1.57555,0.518947 -0.26925,0.0611 -0.55018,0.04698 -0.82528,0.07048 -1.25534,0.182394 -2.15423,0.484235 -3.33735,0.918332 -0.25841,0.09481 -0.53535,0.144298 -0.78068,0.269093 -0.24727,0.125777 -0.45537,0.316979 -0.68306,0.475468 -1.89782,0.795193 0.55616,-0.276283 -1.33703,0.696477 -0.19752,0.101491 -0.41713,0.153533 -0.61975,0.244435 -0.21554,0.0967 -0.4102,0.240596 -0.63346,0.317812 -0.18454,0.06382 -0.38884,0.04884 -0.57705,0.100845 -0.19787,0.05467 -0.38406,0.145167 -0.57608,0.21775 -1.42609,0.699302 0.17488,-0.03743 -1.29335,0.491953 -0.76811,0.27695 -1.40838,0.837974 -2.05482,1.317246 -0.92694,0.862057 -1.51562,2.705057 -2.09249,3.847184 -0.80458,1.79994 -0.97757,3.775579 -1.51452,5.660209 -0.30322,1.130114 -0.65254,2.17959 -1.14371,3.243408 -0.15088,0.326784 -0.27098,0.672292 -0.4703,0.972 -0.37005,0.556446 -0.66691,0.647854 -1.21194,0.961437 -0.22167,0.114065 -0.42608,0.271083 -0.665017,0.342195 -0.232022,0.06905 -0.482993,0.03756 -0.722775,0.07083 -1.000755,0.138865 -1.995998,0.379442 -2.87942,0.884306 -0.891785,0.208819 -1.711482,0.476349 -2.527085,0.900948 -0.193001,0.100476 -0.361959,0.246522 -0.562114,0.331859 -0.147598,0.06293 -0.312752,0.07187 -0.469128,0.107813 -1.577291,0.944993 0.983815,-0.649074 -0.847102,0.746672 -0.135485,0.103283 -0.320515,0.117312 -0.47376,0.191739 -0.176048,0.0855 -0.330179,0.215076 -0.512158,0.287097 -1.836159,0.726689 0.758454,-0.515117 -1.035364,0.375654 -0.170072,0.143825 -0.313437,0.327131 -0.510218,0.431476 -0.337234,0.17882 -0.75452,0.152696 -1.102479,0.309628 -0.189619,0.08552 -0.337575,0.263774 -0.539544,0.313547 -0.311806,0.07684 -0.64561,-0.167317 -0.961636,-0.05833 -0.119352,-0.0039 -0.243465,-0.0453 -0.358056,-0.0117 -0.622956,0.182668 -0.08648,2.33562 -0.04319,2.808258 0.34178,1.426622 0.819865,2.863397 1.998822,3.822864 1.329951,0.896398 2.800451,1.585281 4.316661,2.102383 2.039444,0.59632 4.090482,1.184093 5.981172,2.181447 1.805061,0.98777 3.655561,1.925885 5.128561,3.398616 1.28788,1.458812 2.39125,3.071676 3.78314,4.440547 1.96092,1.987794 4.00501,3.896011 6.13385,5.703248 2.51948,2.143547 5.17945,4.093963 7.81247,6.094241 2.3313,1.82284 4.7868,3.482297 7.07752,5.359946 1.78555,1.351701 3.59329,2.688954 5.25369,4.195994 0.83227,0.755401 2.10644,1.983304 2.75004,2.961768 0.32871,0.499758 0.54424,1.06539 0.81636,1.598085 0.0947,0.533742 0.25324,1.060028 0.28404,1.601228 0.0739,1.298932 -0.22746,2.163732 -0.526,3.426802 -0.75484,3.19367 -1.5318,6.38351 -2.10746,9.61631 -2.81386,14.96624 -4.87689,30.09445 -5.46433,45.32546 -0.0162,2.92279 -0.0858,5.84578 -0.0485,8.76838 0.071,5.55611 0.33856,10.67206 0.79695,16.19859 0.3731,4.49831 0.88034,9.28437 1.64856,13.74548 0.31395,1.82313 0.74949,3.62322 1.12424,5.43483 0.53922,1.75806 1.19951,4.73119 2.42777,6.39647 0.24821,0.33652 1.46659,0.66763 1.04893,0.68807 -7.59874,0.3719 -15.21423,0.21711 -22.82037,0.37748 -0.32569,0.007 0.66278,0.18023 0.97373,0.0831 0.39413,-0.12308 0.6789,-0.47014 1.01835,-0.70522 0.33971,-0.46042 0.71019,-0.89966 1.01913,-1.38127 0.82406,-1.28463 1.91707,-3.43735 2.53694,-4.73868 1.87538,-3.93706 3.48357,-7.99618 5.32643,-11.94803 0.44441,-0.95729 3.73802,-8.06351 4.21657,-9.04889 2.34782,-4.83437 4.85906,-9.59272 7.00797,-14.52319 2.66432,-6.04579 5.27264,-12.15393 6.77291,-18.61299 0.27918,-1.12268 0.58401,-2.2393 0.83755,-3.36806 1.57709,-7.02109 2.37434,-14.18623 3.49403,-21.28608 0.26892,-2.0836 0.56439,-4.24641 0.78318,-6.34436 0.048,-0.46005 -0.34783,-1.35071 0.11358,-1.38296 24.02727,-1.67949 24.44185,-8.12122 23.92919,1.06411 -0.48429,5.91713 -1.79529,11.72837 -2.93406,17.54331 -3.56232,16.69704 -7.47545,33.31786 -11.5684,49.89234 -2.00706,7.66236 -3.86236,15.45696 -7.12483,22.70618 0,0 -23.97952,-0.94718 -23.97952,-0.94718 z"
   inkscape:connector-curvature="0" /><path
   style="fill:#ffff00;fill-opacity:1"
   id="path84"
   d="m 143.62145,181.54576 c -0.24747,-0.096 -0.51021,-0.15949 -0.74242,-0.28813 -0.56347,-0.31215 -1.7305,-1.24417 -2.16624,-1.59585 -1.52861,-1.23371 -2.8803,-2.60322 -4.25808,-4.00022 -2.5687,-2.95281 -5.36521,-6.10245 -7.0882,-9.65307 -0.38806,-0.79969 -0.67482,-1.64468 -1.01222,-2.46702 -0.26321,-0.98653 -0.58848,-1.95856 -0.78962,-2.95959 -0.91599,-4.5585 -1.07843,-9.266 -1.16363,-13.89729 -0.0703,-3.82278 -0.0194,-7.41408 0.009,-11.23461 0.22991,-6.33071 0.43399,-12.67962 1.19925,-18.9732 0.29641,-1.55244 0.78879,-3.35728 2.25222,-4.22685 0.22064,-0.13111 0.46917,-0.20827 0.70376,-0.31241 13.74097,-0.4292 19.88786,-5.24071 26.30491,2.00919 0.61785,0.69804 1.41957,1.65454 1.9262,2.42746 0.3517,0.53656 0.6479,1.10751 0.97184,1.66127 1.96412,3.85234 2.88629,8.08754 3.66149,12.30931 0.98905,5.38637 0.90976,5.49651 1.62674,11.28762 1.67445,13.63506 2.53168,27.3513 2.93104,41.0777 0.002,5.0202 0.38426,10.21197 -0.86158,15.13196 -0.40854,0.95401 -1.28769,2.66813 -2.56449,2.70132 -9.73409,0.25299 -18.98046,3.14663 -27.46049,-0.82428 -0.87111,-0.40791 -1.70586,-0.88934 -2.55879,-1.33402 -6.85897,-4.1621 -12.66758,-9.77841 -17.66197,-16.02322 -1.21104,-1.51426 -2.31537,-3.11087 -3.47306,-4.6663 -4.32133,-6.25315 -7.70864,-13.1283 -9.11449,-20.65272 -1.10946,-5.93812 -0.84861,-8.25824 -0.91203,-14.40752 0.27361,-2.76847 0.401,-5.55531 0.82084,-8.30539 1.84821,-12.10629 6.20115,-23.82488 11.65645,-34.743389 1.2553,-2.512437 2.68666,-4.932991 4.02999,-7.399486 3.93532,-6.433083 8.07082,-12.875215 13.25886,-18.393196 1.71549,-1.824589 2.22215,-2.167846 4.01029,-3.658552 0.4906,-0.340721 0.96288,-0.709477 1.47181,-1.022163 7.42891,-4.564314 26.21845,-0.820996 27.50776,-0.751621 0.43932,0.02364 2.12301,2.241795 2.25149,2.400119 0.35717,0.626261 0.79135,1.214488 1.07149,1.878781 1.45557,3.451472 1.87335,7.446591 2.21867,11.12811 0.40928,4.363343 0.4896,7.786583 0.67488,12.210252 0.38466,13.978185 -0.55627,27.991485 -2.84205,41.788765 -0.44949,2.71322 -1.01315,5.40629 -1.51973,8.10944 -1.86314,8.62237 -4.07284,17.24165 -7.97719,25.19752 -1.98226,4.03924 -2.62346,4.73464 -5.0683,8.36025 -2.52998,3.29574 -5.38414,6.32318 -8.5736,8.9883 -2.87587,2.40307 -6.01739,4.43847 -9.15588,6.47182 -3.55112,2.23443 -7.2491,4.35534 -11.31197,5.51019 -0.55345,0.15732 -1.11902,0.26835 -1.67853,0.40252 -2.44663,-6.44397 -20.90473,4.49043 -28.429437,-1.36088 -1.7665,-1.37365 -2.864488,-3.30877 -3.954065,-5.2047 -0.382288,-0.93547 -0.843797,-1.84236 -1.146864,-2.80642 -0.832563,-2.64838 -1.488104,-6.43233 -1.723418,-9.09773 -0.784529,-8.88636 0.302711,-17.01896 1.265395,-25.83724 0.602026,-3.64732 1.084749,-7.31634 1.806079,-10.94195 2.623997,-13.18896 6.608935,-26.2626 12.70835,-38.28271 1.15031,-2.26692 2.50024,-4.4269 3.75037,-6.64035 4.76161,-7.390231 9.82839,-12.758496 17.82866,-16.619682 4.06823,-1.963454 6.07155,-2.33217 10.35303,-3.539708 4.33868,-0.929741 8.76439,-1.734201 13.22095,-1.739178 9.04953,-0.01011 18.1007,-0.01765 27.14799,0.184036 1.04221,0.02323 2.07168,0.261429 3.08878,0.490009 0.98574,0.221532 1.93811,0.571666 2.90716,0.857498 0.94539,0.512092 1.93395,0.951455 2.83616,1.536274 5.26081,3.410098 9.08672,8.652203 12.08532,14.056302 1.09561,1.974525 2.02827,4.035166 3.04241,6.052749 2.68964,6.57166 3.69919,8.50365 5.6302,15.48774 2.53364,9.16364 4.123,19.00175 4.80884,28.47828 0.23791,3.28732 0.23918,6.58749 0.35876,9.88124 -0.3081,11.38449 -1.5797,22.86676 -5.38789,33.66543 -1.84769,5.23937 -2.48122,5.93951 -5.07179,10.56896 -2.60012,3.33581 -3.25653,4.75622 -6.8675,7.09701 -5.2997,3.43549 -11.89963,4.49349 -18.09843,4.53957 -10.67239,0.0793 -21.34426,-0.21881 -32.01638,-0.32821 -3.10588,-0.44005 -6.22835,-0.77563 -9.31762,-1.32014 -13.55992,-2.39005 -26.90964,-6.36267 -39.665232,-11.52881 -3.079971,-1.24742 -6.084863,-2.67274 -9.127295,-4.00911 -10.744796,-5.14965 -20.675003,-11.86845 -29.306494,-20.09248 -4.046581,-3.85556 -5.847679,-6.12322 -9.43298,-10.26421 -3.695443,-4.73723 -7.35352,-9.60469 -9.996599,-15.03068 -0.630273,-1.29389 -1.459615,-3.43405 -2.012525,-4.82 -1.075819,-2.57555 -1.439746,-5.33184 -1.940785,-8.05195 -0.29508,-2.01656 -0.591033,-4.03414 -0.80198,-6.06186 -0.246915,-1.52189 -0.0058,-3.10126 -0.300677,-4.60981 -0.360781,-1.47402 -0.548389,-2.97889 -0.660831,-4.48965 -0.09266,-1.70134 -0.09541,-3.40591 -0.09948,-5.10927 0.04011,-1.18624 -0.07616,-2.38323 0.05378,-3.5664 0.113627,-1.0346 0.221827,-1.2766 0.495837,-2.30565 1.006854,-3.33459 2.702876,-6.37179 4.410937,-9.38415 1.825258,-3.490098 3.658725,-6.983547 5.212945,-10.604782 0.807894,-1.881448 1.242487,-3.862604 1.397716,-5.894987 -0.03733,-1.561165 0.131772,-3.079754 0.417103,-4.611118 0.383076,-1.561604 0.962648,-3.061203 1.568722,-4.546878 0.75661,-1.865779 1.404522,-3.770489 2.07063,-5.669268 1.162304,-2.760459 2.372218,-5.494672 3.477571,-8.2799 0.921927,-2.328331 1.842635,-4.658542 2.854006,-6.949974 0.787,-1.652464 1.815184,-3.170616 2.920521,-4.623449 1.446108,-1.664595 3.223008,-3.001315 5.017342,-4.265883 3.527153,-2.400043 7.230028,-4.529523 10.990551,-6.539186 2.351742,-1.207375 4.751223,-2.336538 7.29663,-3.067813 1.052433,-0.229628 0.531017,-0.130763 1.563787,-0.299013 0,0 23.73315,3.556996 23.73315,3.556996 v 0 c -1.00592,0.0018 -0.49703,-0.0114 -1.52661,0.04143 -2.56629,0.251812 -4.908872,1.268359 -7.212329,2.389706 -2.664233,1.325179 -5.28659,2.748783 -7.828642,4.297968 -0.559903,0.341218 -1.097215,0.718702 -1.658163,1.0582 -0.481434,0.291375 -0.978635,0.555863 -1.467953,0.833795 -0.390727,0.285584 -0.772871,0.5833 -1.172182,0.856753 -0.947284,0.648712 -0.952978,0.530007 -1.808015,1.207409 -1.679421,1.33052 0.278004,-0.08975 -1.345642,1.169888 -0.206577,0.160263 -0.428815,0.299251 -0.643223,0.448877 -1.144025,1.185231 -2.027999,2.573628 -2.8836,3.975546 -1.081239,2.214793 -1.910634,4.541381 -2.848625,6.81764 -1.103451,2.763864 -2.199547,5.521703 -3.475093,8.211977 -0.728776,1.908653 -1.311342,3.872375 -2.074366,5.769803 -0.281443,0.670056 -0.61824,1.344617 -0.869954,2.024042 -0.246249,0.664673 -0.36163,1.383375 -0.684356,2.022946 -0.119727,0.643878 -0.322028,1.3218 -0.37025,1.976321 -0.0578,0.784555 0.04481,1.581795 -0.04341,2.366346 -0.15681,2.28392 -0.565921,4.531856 -1.41584,6.670255 -1.517976,3.738207 -3.425951,7.292005 -5.226381,10.898803 -1.636511,2.85743 -3.349897,5.68453 -4.388652,8.83093 -0.223982,0.67367 -0.392288,1.06314 -0.486335,1.75447 -0.1539,1.13129 0.0042,2.28699 -0.05338,3.4226 0.004,1.64321 0.0043,3.28787 0.09876,4.92891 0.11815,1.45258 0.352386,2.88565 0.658773,4.31053 0.198529,1.56623 0.114417,3.15144 0.302115,4.7214 0.212625,1.96436 0.493902,3.92173 0.799248,5.87337 0.483915,2.56614 0.846893,5.15979 1.927015,7.56882 0.654684,1.58405 1.209576,3.00934 2.000366,4.54563 2.691855,5.22955 6.283632,9.94493 9.964438,14.5041 3.648046,4.10635 5.280952,6.13665 9.407725,9.94393 8.647222,7.97776 18.558688,14.42572 29.231871,19.35486 3.03711,1.29191 6.03925,2.66933 9.11134,3.87572 12.67264,4.97647 26.13336,8.8835 39.59456,11.00056 3.07973,0.48435 6.19097,0.74115 9.28645,1.11172 -5.14235,0.12391 -10.28368,0.30179 -15.42705,0.37174 -2.41557,0.0329 4.8387,-0.0219 7.24269,-0.26042 2.02391,-0.20079 4.04565,-0.52627 6.00975,-1.05432 3.05479,-0.82129 6.05975,-2.27436 8.4245,-4.41222 1.1575,-1.04643 2.03238,-2.36826 3.04857,-3.5524 0.87976,-1.4827 1.86373,-2.90833 2.63927,-4.44811 4.47887,-8.89244 6.4113,-19.21239 7.28718,-29.04467 0.27843,-3.12556 0.33376,-6.26699 0.50064,-9.40048 -0.11916,-3.23591 -0.12051,-6.47831 -0.3575,-9.70774 -0.68361,-9.31567 -2.26066,-18.98755 -4.79837,-27.98414 -1.93087,-6.84528 -2.92335,-8.68617 -5.6153,-15.10963 -1.01029,-1.94334 -1.93292,-3.934821 -3.03085,-5.830021 -2.89221,-4.992371 -6.69773,-10.023516 -11.96929,-12.694805 -0.88664,-0.449292 -1.85311,-0.71969 -2.77966,-1.079535 -0.95622,-0.193755 -1.90363,-0.437686 -2.86866,-0.581266 -6.59846,-0.981738 -25.14561,-0.167061 17.22697,-0.448048 1.30747,-0.0087 -2.61661,-0.0301 -3.9223,0.03863 -3.90763,0.205673 -5.28539,0.541595 -9.22323,1.175912 -4.13423,0.976018 -6.31855,1.316132 -10.28528,2.977497 -3.50368,1.46743 -6.79547,3.349285 -9.69665,5.822092 -3.87838,3.305718 -4.97984,5.324242 -8.02434,9.455804 -1.24684,2.14474 -2.59672,4.2328 -3.74052,6.43421 -6.11811,11.77522 -10.07623,24.66205 -12.68897,37.63553 -0.72122,3.58121 -1.20284,7.20653 -1.80426,10.80979 -0.93993,8.50449 -2.05016,16.64922 -1.2666,25.2191 0.23152,2.53212 0.83742,5.97728 1.70598,8.47199 0.29513,0.84767 0.75288,1.62964 1.12931,2.44445 0.91609,1.3252 1.23931,2.03248 2.4988,3.00675 0.83054,0.64245 1.74254,0.99476 2.76483,1.18719 0.48675,0.0916 1.97518,0.12416 1.47996,0.13251 -7.3598,0.12421 -14.72099,0.14345 -22.08149,0.21518 0.54777,-0.048 1.10051,-0.056 1.6433,-0.14386 4.05805,-0.6569 7.75858,-2.73173 11.23077,-4.80831 3.10162,-1.93362 6.23406,-3.86539 9.12256,-6.11448 3.16247,-2.46239 5.97458,-5.30969 8.53002,-8.3928 2.44421,-3.42601 3.07393,-4.05372 5.04561,-7.91943 3.94701,-7.73856 6.10718,-16.19274 7.95996,-24.63146 0.50603,-2.66997 1.06913,-5.32975 1.51809,-8.00991 2.2859,-13.6463 3.22249,-27.5114 2.83974,-41.340374 -0.18213,-4.308117 -0.26362,-7.76233 -0.67324,-12.013492 -0.29667,-3.078926 -0.68966,-7.227551 -2.18068,-10.043573 -0.26726,-0.504764 -0.69085,-0.909715 -1.03628,-1.364573 -0.35249,-0.258242 -0.66479,-0.583059 -1.05748,-0.774726 -0.32204,-0.157183 -1.4035,-0.245646 -1.0452,-0.251569 7.53301,-0.124544 15.06854,-0.0016 22.60188,-0.104829 0.393,-0.0054 -0.77091,-0.196161 -1.16389,-0.188956 -1.23489,0.02264 -1.64349,0.411125 -2.74422,0.977515 -0.59115,0.426432 -1.20841,0.818829 -1.77345,1.279295 -3.06413,2.497018 -5.53396,5.542818 -7.90257,8.686146 -3.99917,5.307185 -3.73494,5.167297 -7.52426,11.112881 -1.34072,2.410987 -2.77086,4.774381 -4.02218,7.232965 -5.39688,10.60374 -9.78245,22.14977 -11.63509,33.94318 -0.41808,2.6614 -0.54644,5.36029 -0.81966,8.04044 0.0615,5.89153 -0.20173,8.13738 0.90393,13.80799 1.4101,7.23198 4.83851,13.77027 9.07229,19.72386 1.15388,1.49981 2.25592,3.04096 3.46165,4.49942 4.93177,5.96546 10.67076,11.38909 17.56677,15.00344 0.83811,0.32386 1.65014,0.72567 2.51434,0.97158 0.64647,0.18396 2.66423,0.29406 1.99231,0.31083 -7.35837,0.18363 -14.72289,0.003 -22.08117,0.1905 -0.6231,0.0159 1.23516,0.48946 1.8394,0.33648 0.18323,-0.0464 0.32591,-0.19152 0.48887,-0.28727 0.45052,-1.3347 0.60728,-2.71332 0.71692,-4.1188 0.26634,-3.41438 0.238,-6.84861 0.13527,-10.26835 -0.39932,-13.65061 -1.25723,-27.29085 -2.92929,-40.84985 -0.6952,-5.52996 -0.65412,-5.93796 -1.62369,-11.10024 -0.74052,-3.94282 -1.61312,-7.92676 -3.62828,-11.4427 -0.82104,-1.19295 -1.64049,-2.44756 -2.84119,-3.30779 -0.25957,-0.18597 -0.54444,-0.34736 -0.84869,-0.44429 -0.25492,-0.0812 -0.53239,-0.0537 -0.79858,-0.0805 7.65625,0.002 15.31249,0.004 22.96874,0.006 -1.64002,-0.62584 -2.23911,-0.80895 -2.68269,1.21061 -0.77641,6.19963 -0.96172,12.45848 -1.19745,18.6965 -0.0282,3.76554 -0.0794,7.37257 -0.009,11.13941 0.0826,4.42882 0.20674,8.9689 1.15478,13.31862 0.19489,0.89418 0.51897,1.75523 0.77846,2.63284 0.3326,0.7209 0.62282,1.4629 0.99781,2.16269 1.80796,3.37389 4.45422,6.26526 7.04725,9.03814 2.07384,1.97889 4.19895,4.06189 7.05528,4.79647 0,0 -23.81127,2.9897 -23.81127,2.9897 z"
   inkscape:connector-curvature="0" /><path
   style="fill:#ffff00;fill-opacity:1"
   id="path86"
   d="m 163.1729,63.190205 c 0.57916,0.81575 1.06624,1.687982 1.58307,2.542173 0.17413,0.287802 0.38252,0.55519 0.54078,0.852016 0.14631,0.2744 0.89007,1.998307 1.00099,2.253002 1.60777,4.799437 3.0158,9.65523 4.27992,14.556113 0.38093,1.70372 0.77799,3.403914 1.1428,5.111159 1.01516,4.750733 1.58377,7.563491 2.28812,12.447582 1.05237,7.29735 1.5982,14.62825 2.11267,21.9778 0.56907,10.27089 0.31716,20.58151 -0.9034,30.79489 -0.67306,4.71792 -1.7841,9.35155 -2.98618,13.95733 -0.8655,3.21476 -1.91002,6.37484 -2.91257,9.54819 -0.824,2.54784 -1.84334,5.02702 -2.69268,7.56644 -0.32032,0.95772 -1.24291,3.98542 -1.52023,4.88865 -1.13455,3.39037 -1.65941,7.00277 -3.23037,10.23639 -8.03603,0.36146 -16.07082,1.41731 -24.10809,1.08437 -0.71395,-0.0296 -0.29658,-1.39818 -0.42716,-2.10072 -0.82806,-4.45515 -0.38518,-8.37189 0.0376,-12.8589 0.92201,-8.5648 2.93791,-16.95136 4.90847,-25.31991 1.47092,-6.2467 1.55899,-6.53619 3.06737,-12.65223 2.20038,-8.48992 4.24544,-17.01579 6.20584,-25.56358 1.0337,-4.91523 2.06517,-9.83258 2.80209,-14.80237 0.35082,-2.25891 0.39004,-4.54789 0.58869,-6.81997 0.17604,-2.013411 0.49535,-4.018346 0.75901,-6.02151 0.50826,-3.012114 1.05293,-6.018356 1.379,-9.056893 0.13924,-1.718115 0.20265,-3.449047 0.56299,-5.13832 3.36606,-9.134102 17.47947,-2.536673 25.78047,-2.395947 0.46044,0.0078 0.82126,0.417259 1.22455,0.639565 0.53226,0.293402 1.05437,0.604841 1.58156,0.907262 3.52984,2.12019 6.85775,4.63451 9.76656,7.557807 0.5816,0.584496 1.12311,1.207558 1.68466,1.811337 0.85347,1.046478 2.09323,2.493386 2.81009,3.655378 0.5441,0.881964 1.6103,3.130887 2.00782,4.104122 0.38717,0.947889 1.07272,3.022961 1.40664,4.010579 1.63578,6.06166 1.63909,12.40067 1.62051,18.63238 -0.29559,10.09208 -1.45296,20.13623 -3.06392,30.09583 -0.96101,4.99241 -2.1514,9.96149 -3.91781,14.73658 -0.72347,1.95574 -1.10253,2.71966 -1.93655,4.57416 -1.25099,2.86016 -3.07904,5.3438 -5.10828,7.68533 -1.99251,2.47856 -4.44833,4.44878 -7.04803,6.24757 -3.72121,2.42985 -7.74622,4.33289 -11.82516,6.07329 -1.08438,0.42576 -1.77289,0.7191 -2.87574,1.06507 -8.70739,2.73158 -21.69573,0.67529 -28.11022,0.63501 -2.6342,-2.05271 -4.31907,-4.93285 -5.73898,-7.90664 -2.01582,-4.22186 -2.58721,-6.15591 -4.26938,-10.74108 -5.05281,-15.7027 -7.16412,-32.14727 -8.48873,-48.53294 -0.29788,-3.68472 -0.49952,-7.37659 -0.74927,-11.06489 -0.6591,-14.002936 -0.94296,-28.049638 0.0547,-42.044506 0.11608,-1.628312 0.29212,-3.251793 0.43817,-4.87769 0.4023,-3.613843 0.34609,-3.6608 0.92124,-6.973198 0.31825,-1.83283 0.66339,-3.716592 1.43524,-5.425789 0.15951,-0.353226 0.36926,-0.681542 0.55389,-1.022313 0.46686,-0.608833 0.67119,-0.971123 1.28244,-1.424785 0.21585,-0.160193 0.43138,-0.403558 0.70015,-0.40005 8.15731,0.106452 16.32371,0.1788 24.46317,0.728429 0.11783,0.008 1.54969,2.088365 1.54995,2.088746 3.21351,4.305234 4.10638,9.709652 4.96136,14.882726 1.19027,9.339761 1.33993,18.782824 0.70065,28.170784 -0.15144,2.223897 -0.38546,4.441396 -0.57819,6.662096 -1.01277,9.56873 -2.32771,19.14958 -4.82354,28.45955 -0.39178,1.46143 -0.85162,2.90376 -1.27743,4.35565 -1.59596,4.76909 -3.6064,9.43077 -6.38048,13.64163 -1.63692,2.48471 -2.1372,2.95055 -4.0375,5.21909 -3.02195,3.35089 -6.36183,6.44106 -10.05177,9.04922 -2.39873,1.69549 -3.32141,2.13493 -5.87113,3.58065 -4.29916,2.32071 -8.86104,4.16786 -13.67593,5.07673 -0.78124,0.14747 -1.57185,0.24001 -2.35778,0.36001 -5.89713,-0.0146 -20.120392,2.89481 -28.665435,-0.98197 -4.352244,-1.97457 -7.581377,-5.10385 -10.93689,-8.39963 -4.499513,-5.06059 -7.86788,-11.00684 -9.85293,-17.48521 -0.377026,-1.23045 -0.650829,-2.49019 -0.976243,-3.73529 -0.965697,-4.72751 -1.403712,-9.61239 -0.381239,-14.37282 0.630277,-2.93445 1.174891,-3.95653 2.279793,-6.70308 1.946499,-4.06288 4.572561,-7.73366 7.73588,-10.93622 1.840007,-1.86283 2.593771,-2.4034 4.584391,-4.04789 3.741289,-2.90943 7.702511,-5.57139 12.053841,-7.485677 0.857343,-0.377172 1.739242,-0.695858 2.608862,-1.043787 4.186309,-1.472523 8.537624,-2.594367 12.97266,-2.963187 0.75931,-0.06314 1.52224,-0.07025 2.28336,-0.105382 6.06221,0.564893 23.01559,-2.545104 31.91466,2.3298 1.59517,0.87383 1.95893,1.30376 3.32846,2.470694 0.46276,0.495535 0.96244,0.959009 1.3883,1.486599 1.84586,2.28681 3.17368,5.84786 3.83508,8.67083 0.2572,1.0978 0.42337,2.21495 0.63506,3.32242 0.9383,6.70573 1.11809,13.49465 0.80737,20.25319 -0.22426,4.87804 -0.55389,7.62799 -1.02598,12.49084 -1.02707,7.77219 -2.50525,15.49033 -4.82794,22.98578 -1.12051,3.61594 -2.19663,6.40184 -3.50201,9.95367 -2.64026,6.89407 -6.12425,13.49511 -10.5587,19.41128 -0.59813,0.79799 -1.25016,1.55411 -1.87525,2.33117 -1.37094,1.40793 -1.83756,2.01419 -3.36463,3.14169 -0.50721,0.37449 -2.29648,1.55238 -3.02764,1.56182 -25.164367,0.32486 -18.601103,4.73793 -26.904247,-1.47285 -3.781688,-3.79735 -6.609572,-8.35966 -8.840374,-13.21034 -0.622958,-1.35456 -1.165024,-2.74489 -1.747535,-4.11733 -4.534737,-12.84455 -5.251513,-26.55715 -6.004418,-40.03568 -0.344524,-11.23421 0.348698,-22.4736 2.246035,-33.55412 1.161024,-6.78043 1.705575,-8.4974 3.3228,-15.054748 2.456253,-8.524994 5.375632,-17.041268 9.993016,-24.670272 0.604388,-0.998592 1.286206,-1.948218 1.929309,-2.922327 2.272536,-3.236437 4.970873,-6.132091 7.867184,-8.81212 2.14273,-1.982928 4.79554,-3.160497 7.45631,-4.264287 2.81925,-1.218171 5.81452,-1.899184 8.84702,-2.303619 9.34858,-0.906196 1.79042,-0.21088 25.94068,-0.180865 1.33071,0.0017 2.44508,0.63712 3.50869,1.361659 1.60825,1.577705 2.59489,3.689174 3.14883,5.857057 0.21185,0.829052 0.33673,1.677925 0.50509,2.516888 1.24602,9.328249 1.18978,18.787102 0.91931,28.176278 -0.36106,9.772266 -2.00248,19.424526 -4.08862,28.958096 -1.51408,6.52214 -3.21369,12.99843 -4.96806,19.4593 -1.00101,3.70293 -2.29434,7.31845 -3.71888,10.87716 -1.21173,3.06004 -2.58552,6.05723 -4.59483,8.6782 -6.64823,6.83174 -12.19268,2.0353 -26.22367,1.37546 -0.44925,-0.0211 -0.5743,-0.70167 -0.77653,-1.10339 -0.8503,-1.68899 -0.92802,-2.86484 -1.32584,-4.78874 -0.15847,-1.50199 -0.35844,-3.00017 -0.47542,-4.50596 -0.33444,-4.30472 -0.50455,-9.77135 -0.61423,-13.99743 -0.15819,-6.09564 -0.25567,-12.15635 -0.18685,-18.25506 0.0362,-3.20424 0.15054,-6.40711 0.22581,-9.61067 0.46158,-11.678327 1.33351,-23.343895 2.85388,-34.93428 0.76228,-5.811229 1.06779,-7.320904 2.01296,-12.900889 1.32811,-6.262765 2.67216,-12.668651 5.46304,-18.482517 0.29397,-0.612391 0.64575,-1.195314 0.96862,-1.792971 1.16906,-1.965581 2.16722,-3.613382 4.24721,-4.670535 8.58562,-2.69615 2.18012,-0.777987 25.41862,0.03936 0.13881,0.0049 1.91739,1.24012 1.98126,1.292373 0.4421,0.361726 1.71503,1.667462 2.08425,2.039621 3.498,4.319915 5.98638,9.326187 8.38349,14.308222 5.25146,10.325437 9.354,21.180362 13.8144,31.858313 0.87934,2.116746 1.75467,4.235161 2.63801,6.35024 2.21121,5.294521 3.022,7.081135 5.08825,12.374423 2.06217,5.28282 4.00894,10.61557 5.98455,15.93128 2.52652,7.21876 5.25896,14.37243 7.39802,21.72129 0.39419,1.35426 0.73296,2.72404 1.09944,4.08607 2.10585,7.73082 3.28072,15.65458 4.32719,23.58406 0.92206,7.26511 1.17585,14.58892 1.32504,21.90342 0.17263,4.48213 -0.37513,8.92665 -1.72998,13.19747 -1.37563,3.40884 -4.31543,5.54599 -7.20929,7.61612 -1.26527,0.90512 -2.54632,1.78797 -3.81948,2.68196 -9.42201,6.55985 -18.84847,13.10812 -28.48941,19.34376 -3.00055,1.81988 -5.96657,3.833 -9.28374,5.05434 -1.51283,0.55701 -1.85062,0.56223 -3.4097,0.87289 -0.56256,0.065 -1.12362,0.14474 -1.6877,0.19494 -0.7951,0.0708 -2.269,0.13482 -3.08016,0.13557 -9.28159,0.009 -18.276,0.16359 -27.4276,-0.074 -0.34039,-0.15651 -0.71575,-0.25255 -1.02117,-0.46953 -1.63753,-1.16336 -3.32571,-4.01514 -4.28094,-5.62947 -2.16899,-3.66556 -2.99221,-5.53812 -4.98064,-9.54209 -5.716009,-13.0156 -10.475349,-26.47429 -14.222242,-40.18937 -0.734545,-2.68872 -1.367963,-5.40405 -2.051944,-8.10607 -2.267421,-10.34846 -4.253534,-20.92737 -3.7087,-31.57707 0.0838,-1.63799 0.31485,-3.26513 0.472275,-4.89769 0.855124,-6.00128 2.149946,-11.99424 4.489062,-17.60855 0.295183,-0.7085 0.63797,-1.39621 0.956955,-2.09431 1.020877,-1.97669 2.099823,-3.97063 3.495947,-5.71622 1.066193,-1.33307 1.411409,-1.56854 2.66993,-2.74509 4.362134,-3.57663 9.541547,-5.96748 14.684357,-8.19254 4.18428,-1.68558 8.48605,-3.0616 12.89355,-4.02103 1.57821,-0.288672 0.81612,-0.162164 2.28537,-0.384863 0,0 23.74144,3.501223 23.74144,3.501223 v 0 c -1.45089,0.0898 -0.69761,0.0255 -2.25907,0.2016 -4.40146,0.67675 -8.64962,1.99841 -12.8288,3.51856 -5.06958,2.03202 -10.07574,4.31801 -14.60418,7.40165 -0.10948,0.092 -2.43663,2.03665 -2.6328,2.24428 -0.34812,0.36845 -0.62219,0.80055 -0.92254,1.20887 -0.9452,1.28503 -1.82763,2.62005 -2.5485,4.04568 -0.31672,0.64273 -0.66064,1.27277 -0.95017,1.9282 -2.37188,5.36946 -3.60289,11.17141 -4.47349,16.94805 -0.15704,1.56155 -0.3881,3.11743 -0.47113,4.68467 -0.55324,10.44352 1.47054,20.81559 3.70127,30.95691 0.68321,2.67304 1.31681,5.35925 2.04962,8.01913 3.73962,13.57367 8.45532,26.90743 14.20607,39.75835 1.76159,3.47454 2.92265,6.01954 4.96368,9.22347 0.72006,1.13031 1.80786,2.80889 3.08308,3.57519 0.60614,0.36423 1.3209,0.26558 1.9744,0.25427 8.15073,0.13471 18.71661,-0.0165 -19.98822,0.0386 -0.49576,7.1e-4 0.99138,0.0178 1.48713,0.0205 1.59241,0.009 1.61139,-0.005 3.23461,-0.0459 1.14107,-0.0811 2.21953,-0.11495 3.34212,-0.36768 3.36687,-0.75798 6.29285,-2.82032 9.22399,-4.51885 4.45118,-2.85027 8.87069,-5.74027 13.24051,-8.71461 9.27631,-6.31396 1.51967,-1.07883 10.60089,-7.37188 1.53761,-1.06553 3.09227,-2.10624 4.63841,-3.15936 1.27341,-0.89662 2.53645,-1.80814 3.82023,-2.68985 2.57489,-1.76846 5.43088,-3.36207 7.11138,-6.09909 1.44912,-3.95319 1.84179,-8.17067 1.71715,-12.36207 -0.14841,-7.22554 -0.40012,-14.46053 -1.323,-21.63602 -1.04339,-7.82392 -2.2151,-15.64127 -4.32083,-23.2637 -0.3656,-1.33115 -0.70634,-2.66938 -1.0968,-3.99345 -2.15347,-7.30231 -4.86789,-14.41963 -7.39389,-21.59623 -1.97201,-5.29536 -3.91583,-10.60687 -5.98215,-15.86634 -1.96768,-5.00842 -2.99569,-7.339115 -5.08726,-12.349093 -0.88269,-2.114306 -1.7586,-4.231433 -2.63789,-6.34715 -4.43122,-10.643572 -8.5606,-21.438559 -13.80846,-31.718226 -2.32328,-4.704494 -4.65387,-9.590305 -8.3261,-13.413374 -0.86105,-0.714664 -1.06254,-0.977864 -2.02804,-1.449955 -0.30997,-0.151567 -0.63097,-0.287421 -0.9645,-0.375827 -0.29837,-0.07909 -1.22648,-0.121547 -0.91781,-0.123102 22.67138,-0.114192 30.25052,2.020965 22.12457,-0.19247 -2.37559,-0.156124 -2.79904,0.786838 -4.06396,2.711596 -0.31904,0.516376 -0.67408,1.012172 -0.95711,1.549128 -0.80552,1.528218 -1.52292,3.421917 -2.08189,5.026815 -1.4591,4.189291 -2.52173,8.496474 -3.36328,12.850063 -0.94582,5.533977 -1.24925,7.016345 -2.01127,12.782787 -1.52146,11.513313 -2.39015,23.10262 -2.85224,34.704498 -0.0752,3.18374 -0.18961,6.36679 -0.22574,9.55121 -0.0688,6.06241 0.0287,12.11867 0.18672,18.17861 0.10646,4.08277 0.27782,9.63514 0.61296,13.81789 0.11333,1.41449 0.31392,2.82063 0.47088,4.23095 0.19391,0.77351 0.29149,1.57778 0.58172,2.32054 0.12876,0.32954 0.35688,0.64257 0.65222,0.83738 0.18214,0.12014 0.8723,0.0215 0.65413,0.0243 -7.66166,0.098 -15.32468,0.10433 -22.98535,0.26137 -0.50262,0.0103 2.17087,0.58511 1.49864,-0.16921 0.25193,-0.22062 0.53433,-0.41067 0.75579,-0.66187 1.73491,-1.968 2.70982,-4.81622 3.79093,-7.16195 1.41476,-3.46399 2.71737,-6.97848 3.70955,-10.5895 1.73369,-6.42824 3.45703,-12.85959 4.96532,-19.34572 2.08301,-9.38149 3.71873,-18.88445 4.08308,-28.507115 0.26876,-9.196783 0.34576,-18.471262 -0.91416,-27.604333 -0.51763,-2.291019 -1.01913,-5.241373 -3.50774,-6.18457 -0.83481,-0.222099 -1.55605,-0.31586 -2.42192,-0.316942 -0.31493,-3.93e-4 -1.25969,0.006 -0.94476,0.005 23.00578,-0.07675 30.22995,-0.341219 21.50217,-0.03657 -2.97156,0.181065 -5.93624,0.604784 -8.75418,1.60846 -2.52501,1.02417 -5.1509,1.855341 -7.37639,3.481651 -2.92953,2.396786 -5.50928,5.209632 -7.82261,8.198797 -0.63959,0.911217 -1.32156,1.794108 -1.91877,2.733651 -4.67525,7.355295 -7.50529,15.711319 -9.96785,24.010395 -1.61953,6.471436 -2.15505,8.126296 -3.31828,14.822976 -1.896318,10.91708 -2.587876,21.99432 -2.24382,33.06721 0.742387,13.19579 1.402402,26.6569 5.98486,39.19217 2.19588,4.99722 4.72282,10.71754 8.83848,14.48774 0.4998,0.45785 1.08543,0.81214 1.62814,1.2182 8.67157,2.54207 1.50584,0.28076 -20.71146,0.69045 -0.483167,0.009 0.96456,0.20611 1.443091,0.13876 1.834229,-0.25818 3.458115,-2.01533 4.767369,-3.12333 0.62147,-0.72239 1.27301,-1.41998 1.86442,-2.16718 1.66321,-2.10138 2.80151,-3.84777 4.22534,-6.14874 2.48113,-4.00962 4.66855,-8.17837 6.30153,-12.61304 1.22745,-3.30078 2.43354,-6.4178 3.49639,-9.77663 2.32443,-7.34568 3.79214,-14.91868 4.81965,-22.54668 0.46746,-4.7649 0.80147,-7.53879 1.02492,-12.31554 0.30793,-6.58279 0.14314,-13.19987 -0.80289,-19.72796 -0.66677,-3.27541 -1.30875,-6.46203 -3.28852,-9.2534 -0.81307,-1.14638 -1.41448,-1.55687 -2.47215,-2.47973 -1.42968,-0.93908 -1.64313,-1.1818 -3.25948,-1.822252 -8.01192,-3.174561 -25.301416,-0.807559 15.61525,-1.43935 -0.75045,-0.03419 -1.50016,-0.108831 -2.25137,-0.102581 -4.37927,0.03644 -8.71813,1.096732 -12.88742,2.335933 -0.86256,0.28846 -1.73782,0.54141 -2.58769,0.86537 -4.33976,1.65424 -8.28551,4.13325 -11.993809,6.89988 -1.866044,1.42906 -2.825231,2.09171 -4.556814,3.71604 -3.10662,2.9142 -5.715956,6.28277 -7.685456,10.06443 -1.078579,2.48068 -1.635843,3.46374 -2.263882,6.12555 -1.043162,4.42121 -0.553479,8.98182 0.375908,13.37286 0.323356,1.17741 0.595153,2.3702 0.970067,3.53222 1.979927,6.13664 5.321039,11.7258 9.788466,16.3723 2.593973,2.38169 5.022503,4.64172 8.22791,6.20159 0.83125,0.40451 1.69346,0.75773 2.58267,1.01055 5.85398,1.66436 34.1761,0.12979 -18.870535,0.62213 0.776487,-0.0539 1.556637,-0.0691 2.329463,-0.16168 4.762154,-0.57072 9.326031,-2.19518 13.586582,-4.35042 2.0774,-1.08771 3.87166,-1.96269 5.83769,-3.248 3.67544,-2.40287 6.98535,-5.36157 10.00893,-8.53023 0.69783,-0.77351 1.4296,-1.51771 2.0935,-2.32053 3.77752,-4.56793 6.35624,-9.93887 8.2731,-15.5174 0.42483,-1.41492 0.88483,-2.81976 1.27449,-4.24476 2.51027,-9.18002 3.80497,-18.64244 4.81741,-28.08737 0.19252,-2.19063 0.42615,-4.378048 0.57757,-6.571908 0.63595,-9.213979 0.49704,-18.486018 -0.69758,-27.650639 -0.82578,-4.787147 -1.64504,-9.79546 -4.90591,-13.604947 -0.25009,-0.235128 -0.46451,-0.515218 -0.75029,-0.705382 -0.20516,-0.136521 -0.94018,-0.254327 -0.69375,-0.255512 7.69481,-0.03699 15.38967,0.220911 23.08422,0.147888 0.42552,-0.004 -0.74133,-0.509554 -1.16679,-0.518098 -0.19732,-0.004 -0.38452,0.08913 -0.57678,0.133701 -0.17596,0.170127 -0.39241,0.306535 -0.52787,0.510381 -0.43083,0.648293 -0.8045,1.914123 -0.96839,2.588133 -0.72218,2.970022 -1.0424,6.035391 -1.36977,9.065435 -0.14586,1.598784 -0.32217,3.195081 -0.43758,4.796352 -1.00143,13.895146 -0.70972,27.84317 -0.0548,41.746536 0.24958,3.66744 0.45084,7.3385 0.74876,11.00233 1.31552,16.17835 3.40024,32.42505 8.47463,47.90554 1.54434,4.11313 2.31487,6.5756 4.25325,10.36862 0.94864,1.85629 2.40229,4.7128 4.57438,5.5631 0.29279,0.11462 0.62685,0.0502 0.94027,0.0753 -7.59941,0.0173 -15.19889,0.0161 -22.79824,0.0519 -0.33117,0.002 0.66126,0.0629 0.99221,0.0508 1.77975,-0.0648 3.55513,-0.55983 5.21965,-1.14816 4.06198,-1.55978 8.02968,-3.39394 11.77502,-5.61493 2.56084,-1.56296 5.07836,-3.26683 6.99332,-5.61368 1.95775,-2.13015 3.85988,-4.3035 5.06692,-6.97241 0.79982,-1.70202 1.23674,-2.55865 1.92793,-4.34993 1.78397,-4.62335 2.94357,-9.46283 3.90728,-14.31421 1.60815,-9.83264 2.76011,-19.75019 3.0608,-29.71621 0.0185,-5.96124 0.0598,-12.05247 -1.60735,-17.83035 -0.43724,-1.24962 -0.85867,-2.53527 -1.39647,-3.747412 -1.15902,-2.612261 -2.77298,-4.929938 -4.77033,-6.973968 -3.37569,-3.347203 -7.07012,-6.420468 -11.37022,-8.516678 -0.51422,-0.194288 -1.0107,-0.444335 -1.54266,-0.582864 -0.37381,-0.09735 -1.5389,-0.110901 -1.1527,-0.119051 7.666,-0.161777 15.33684,-0.09567 23.00059,-0.342012 0.18891,-0.0061 -0.24309,-0.31057 -0.41729,-0.383888 -0.18593,-0.07826 -0.49947,0.139666 -0.63843,0.217554 -0.54202,1.426259 -0.32294,3.253111 -0.55586,4.752486 -0.31371,3.060651 -0.83704,6.092127 -1.37974,9.119497 -0.25501,1.947053 -0.58349,3.898155 -0.7574,5.854536 -0.20788,2.33843 -0.23451,4.69607 -0.59078,7.02205 -0.72625,5.03632 -1.77268,10.01533 -2.80568,14.99606 -1.97099,8.55825 -3.98506,17.10459 -6.20675,25.6025 -1.55367,6.28228 -1.54904,6.19425 -3.06663,12.62058 -1.95176,8.26485 -3.97482,16.54219 -4.90328,25.00047 -0.37351,3.80927 -0.58199,4.57593 -0.5001,8.1218 0.0182,0.78618 0.081,1.57207 0.17792,2.35246 0.0521,0.41897 0.0245,0.89312 0.26817,1.23786 0.12397,0.17536 0.11137,-0.41483 0.16705,-0.62224 -7.85572,0.37016 -15.71145,0.74031 -23.56718,1.11047 0.11513,-0.0929 0.26573,-0.15409 0.34539,-0.27875 0.33516,-0.5245 0.81734,-1.97482 0.95696,-2.43906 0.67601,-2.24786 1.1841,-4.5491 1.89511,-6.78767 0.50977,-1.66382 0.98114,-3.33976 1.52357,-4.99322 0.8267,-2.52 1.83601,-4.97415 2.69,-7.48382 0.99548,-3.1346 2.02443,-6.2574 2.90913,-9.42572 1.17882,-4.50202 2.30462,-9.02177 2.98007,-13.6328 1.23308,-10.05879 1.46051,-20.21987 0.90225,-30.33757 -0.51275,-7.27448 -1.05594,-14.52992 -2.11001,-21.75135 -0.68779,-4.712051 -1.29335,-7.71459 -2.28548,-12.310933 -0.36292,-1.681327 -0.76063,-3.354957 -1.14094,-5.032436 -1.24743,-4.763584 -2.56906,-9.522449 -4.26604,-14.147498 -0.82703,-1.758701 -1.80315,-3.470782 -3.08449,-4.942343 0,0 23.93624,-1.723579 23.93624,-1.723579 z"
   inkscape:connector-curvature="0" /><path
   style="fill:#ffff00;fill-opacity:1"
   id="path88"
   d="m 155.33445,107.83635 c 3.3467,12.99006 6.36832,26.05862 9.34604,39.13712 3.21395,15.00253 6.11457,30.08594 8.27344,45.28008 1.18658,8.35119 1.44302,11.34434 2.32301,19.52004 0.63285,6.4295 1.12206,12.87269 1.46972,19.32376 0.15766,2.92546 0.29889,5.83159 0.21697,8.75932 -0.12035,1.87594 -0.37438,4.30083 -2.27951,5.2814 -0.32325,0.16638 -0.69194,0.22339 -1.03791,0.33509 -4.16543,-6.46998 -20.85096,4.07418 -28.78334,-1.47306 -1.67688,-1.17266 -2.44447,-2.22708 -3.89082,-3.80095 -1.01715,-1.23485 -2.09615,-2.42125 -3.05146,-3.70455 -2.65626,-3.56825 -6.48094,-9.54683 -8.68917,-13.13693 -3.63603,-5.91141 -7.24798,-12.20334 -10.57563,-18.28512 -1.78034,-3.25382 -3.48647,-6.5477 -5.2297,-9.82155 -5.56216,-11.20157 -11.0522,-22.49611 -15.07067,-34.36408 -2.232755,-6.59411 -2.300097,-7.5656 -3.869664,-14.21834 -1.948903,-10.52085 -2.852506,-21.25832 -2.801788,-31.95984 0.0091,-1.91904 0.104683,-3.8367 0.157025,-5.75506 0.355772,-8.204 1.723628,-16.36444 4.243223,-24.186402 0.400392,-1.242998 0.873398,-2.461423 1.310098,-3.692135 1.323081,-3.584138 3.010736,-7.041797 5.246026,-10.149031 0.77332,-1.074984 1.3696,-1.749451 2.206,-2.7435 1.38644,-1.644187 3.05654,-2.967905 5.04791,-3.7796 0.95531,-0.283968 1.95885,-0.502458 2.96192,-0.500977 24.39577,0.03602 16.42902,-0.875161 25.41321,0.190664 2.43814,0.412737 4.19624,1.869786 5.88921,3.566043 0.35559,0.418033 0.75134,0.80499 1.06678,1.254099 0.61727,0.878853 1.78879,3.11507 2.22913,3.981528 0.47954,0.943586 0.98205,1.877614 1.40012,2.849995 1.19204,2.772487 2.10924,5.748701 3.06228,8.598813 3.1787,10.140251 5.73661,20.497593 7.76465,30.929713 1.23979,6.37741 2.26227,13.20546 3.27704,19.62143 1.4095,9.3293 2.52094,18.69869 3.4803,28.08356 0,0 -23.99696,0.2451 -23.99696,0.2451 v 0 c -0.95983,-9.34084 -2.0698,-18.66635 -3.47859,-27.95151 -1.03546,-6.52151 -2.00564,-13.00864 -3.27464,-19.49095 -2.02462,-10.34211 -4.56819,-20.610822 -7.75726,-30.655093 -1.3406,-3.921374 -2.48588,-7.369339 -4.44464,-11.021184 -0.66259,-1.235316 -1.27638,-2.339446 -2.19212,-3.392249 -0.31885,-0.366583 -0.69831,-0.675697 -1.04747,-1.013546 -0.34145,-0.255541 -0.66616,-0.535132 -1.02435,-0.766622 -1.40238,-0.906328 -3.04249,-1.23157 -4.68675,-1.282934 -8.50622,-0.410851 -0.83203,-0.02609 22.03169,-0.04915 0.23603,-2.38e-4 -0.47194,-0.01009 -0.70792,-0.01521 -0.36188,-0.0079 -1.09182,-0.02735 -1.45656,-0.022 -0.24126,0.0035 -0.48224,0.01804 -0.72335,0.02706 -0.56088,0.04056 -0.95924,0.04316 -1.50736,0.187977 -1.29835,0.343042 -2.42702,1.218891 -3.38901,2.114423 -0.52012,0.584948 -1.73285,1.935012 -2.19053,2.510943 -2.26365,2.848488 -3.93639,6.107379 -5.21494,9.503652 -0.43522,1.183883 -0.90857,2.354435 -1.30564,3.551649 -2.52268,7.606091 -3.87975,15.563144 -4.23337,23.561514 -0.0523,1.88243 -0.14788,3.76416 -0.15697,5.6473 -0.0508,10.52862 0.83832,21.0959 2.79526,31.44009 1.57289,6.5318 1.63468,7.44662 3.86113,13.9286 4.037,11.75312 9.50844,22.94442 15.05692,34.03898 1.74231,3.25536 3.44713,6.53105 5.22692,9.76608 3.30451,6.00645 6.94496,12.31653 10.56821,18.14831 2.40846,3.87653 5.78368,9.10217 8.66922,12.82371 0.94691,1.22124 2.02431,2.33546 3.03646,3.5032 1.67842,1.52714 1.92244,2.05972 3.80008,2.87701 0.683,0.29729 1.82238,0.51638 2.57049,0.58319 0.39077,0.0349 1.56902,0.023 1.17671,0.025 -7.50849,0.0378 -15.01707,0.055 -22.52561,0.0825 0.46767,0.095 1.7569,0.49719 2.25123,0.37928 0.9339,-0.22277 0.6601,-1.90401 0.79634,-2.47603 0.0862,-2.85561 -0.0619,-5.69393 -0.21665,-8.54713 -0.34778,-6.41262 -0.83657,-12.81734 -1.46875,-19.20833 -0.88139,-8.14823 -1.13339,-11.08565 -2.32159,-19.41009 -2.16065,-15.13747 -5.05663,-30.16489 -8.27023,-45.11045 -2.98904,-13.11181 -6.06227,-26.20237 -9.34817,-39.24304 0,0 23.99433,-0.4316 23.99433,-0.4316 z"
   inkscape:connector-curvature="0" /></svg>