<?xml version="1.0" encoding="UTF-8" standalone="no"?>
<svg
   xmlns:dc="http://purl.org/dc/elements/1.1/"
   xmlns:cc="http://creativecommons.org/ns#"
   xmlns:rdf="http://www.w3.org/1999/02/22-rdf-syntax-ns#"
   xmlns:svg="http://www.w3.org/2000/svg"
   xmlns="http://www.w3.org/2000/svg"
   xmlns:sodipodi="http://sodipodi.sourceforge.net/DTD/sodipodi-0.dtd"
   xmlns:inkscape="http://www.inkscape.org/namespaces/inkscape"
   version="1.1"
   style=""
   xml:space="preserve"
   width="286.054"
   height="286.054"
   id="svg112"
   sodipodi:docname="r4c.svg"
   inkscape:version="0.92.4 (5da689c313, 2019-01-14)"><metadata
   id="metadata118"><rdf:RDF><cc:Work
       rdf:about=""><dc:format>image/svg+xml</dc:format><dc:type
         rdf:resource="http://purl.org/dc/dcmitype/StillImage" /><dc:title></dc:title></cc:Work></rdf:RDF></metadata><defs
   id="defs116" /><sodipodi:namedview
   pagecolor="#ffffff"
   bordercolor="#666666"
   borderopacity="1"
   objecttolerance="10"
   gridtolerance="10"
   guidetolerance="10"
   inkscape:pageopacity="0"
   inkscape:pageshadow="2"
   inkscape:window-width="1920"
   inkscape:window-height="1008"
   id="namedview114"
   showgrid="false"
   inkscape:zoom="2.3335064"
   inkscape:cx="91.081958"
   inkscape:cy="129.9375"
   inkscape:window-x="-11"
   inkscape:window-y="-11"
   inkscape:window-maximized="1"
   inkscape:current-layer="svg112" /><rect
   id="backgroundrect"
   width="100%"
   height="100%"
   x="0"
   y="0"
   fill="none"
   stroke="none" />
















<g
   class="currentLayer"
   style=""
   id="g110"><title
     id="title91">Layer 1</title><g
     id="svg_1"
     class="selected"
     fill-opacity="1"
     fill="#7aff00">
	<path
   style=""
   d="M143.027,0C64.04,0,0,64.04,0,143.027c0,78.996,64.04,143.027,143.027,143.027   s143.027-64.031,143.027-143.027C286.054,64.04,222.014,0,143.027,0z M143.027,259.236c-64.183,0-116.209-52.026-116.209-116.209   S78.844,26.818,143.027,26.818s116.209,52.026,116.209,116.209S207.21,259.236,143.027,259.236z M175.065,155.122h-5.042v-52.607   c0-15.59-8.394-21.937-18.933-21.937c-9.449,0-14.535,3.093-18.531,9.94l-40.7,69.565c-1.091,1.707-2.548,3.772-2.548,7.545   c0,4.452,3.817,10.11,12.72,10.11h43.793V192.3c0,9.091,1.85,13.364,11.12,13.364s13.078-4.282,13.078-13.364v-14.562h5.042   c7.089,0,12.72-4.452,12.72-11.317C187.785,159.573,182.154,155.122,175.065,155.122z M146.379,155.122h-24.896l24.529-47.816   h0.367V155.122z"
   id="svg_2"
   fill="#7aff00" />
</g><g
     id="svg_3">
</g><g
     id="svg_4">
</g><g
     id="svg_5">
</g><g
     id="svg_6">
</g><g
     id="svg_7">
</g><g
     id="svg_8">
</g><g
     id="svg_9">
</g><g
     id="svg_10">
</g><g
     id="svg_11">
</g><g
     id="svg_12">
</g><g
     id="svg_13">
</g><g
     id="svg_14">
</g><g
     id="svg_15">
</g><g
     id="svg_16">
</g><g
     id="svg_17">
</g></g><path
   style="fill:#7aff00;fill-opacity:1;stroke-width:0.42853963"
   d="M 133.37882,258.66847 C 78.559065,253.7611 35.002577,212.08068 28.002205,157.83064 24.924411,133.979 29.212196,110.20104 40.443783,88.835759 43.247484,83.502416 48.809755,75.061102 52.868477,69.980014 57.142775,64.629048 66.23916,55.748208 71.962396,51.33854 92.655153,35.395074 116.923,27.12605 143.02096,27.12605 c 31.09496,0 59.65012,11.76355 81.65953,33.640362 6.42798,6.389259 9.92399,10.640494 14.97741,18.212935 34.1661,51.197103 22.11771,120.119873 -27.46312,157.102643 -17.03354,12.70546 -36.77646,20.29272 -58.39859,22.44272 -4.11796,0.40947 -16.47705,0.49649 -20.41737,0.14376 z m 30.72377,-54.22614 c 1.39224,-0.63739 2.84633,-1.71339 3.53423,-2.61528 2.05618,-2.69578 2.38214,-4.70091 2.38214,-14.65338 v -9.08932 l 4.39253,-0.19884 c 4.97266,-0.2251 7.69795,-1.16089 10.10824,-3.47091 4.49211,-4.30523 4.55274,-11.28453 0.1364,-15.70088 -2.57239,-2.57238 -5.06908,-3.47183 -10.45891,-3.76792 l -4.17826,-0.22952 -0.006,-28.54773 c -0.007,-31.195079 -0.0245,-31.448539 -2.51578,-36.372978 -3.45695,-6.833116 -11.02029,-10.330741 -19.86932,-9.188443 -5.63687,0.727643 -8.21333,1.894072 -11.4632,5.189662 -2.49369,2.528774 -4.96171,6.55097 -23.55829,38.393489 -11.42503,19.56283 -21.346121,36.62444 -22.046864,37.91467 -1.035408,1.90642 -1.278381,2.876 -1.297014,5.17565 -0.01963,2.42395 0.1629,3.13038 1.272835,4.92603 0.712666,1.15296 2.062566,2.62778 2.999778,3.27738 3.436425,2.38186 4.690345,2.488 29.395355,2.488 h 22.58306 l 0.1797,10.17781 c 0.12389,7.01692 0.35615,10.64364 0.74786,11.67771 1.75391,4.63012 4.56283,6.06674 11.40218,5.83162 3.05975,-0.10519 4.40107,-0.36593 6.25966,-1.21682 z"
   id="path120"
   inkscape:connector-curvature="0" /><path
   style="fill:#7aff00;fill-opacity:1;stroke-width:0.42853963"
   d="m 122.02252,154.63079 c 0,-0.22136 23.57574,-46.18975 23.83559,-46.47504 0.0894,-0.0982 0.16263,10.36352 0.16263,23.24828 v 23.42683 h -11.99911 c -6.59951,0 -11.99911,-0.09 -11.99911,-0.20007 z"
   id="path122"
   inkscape:connector-curvature="0" /><path
   style="fill:#7aff00;fill-opacity:1"
   id="path124"
   d="m 27.234389,194.06401 c -0.786444,-0.74373 -1.116362,-1.8202 -1.673633,-2.71976 -0.124234,-0.20055 -0.289929,-0.37222 -0.434894,-0.55833 -0.135228,-0.22395 -0.270456,-0.4479 -0.405684,-0.67184 -0.145973,-0.20771 -0.291947,-0.41542 -0.437921,-0.62313 -0.136365,-0.25258 -0.250638,-0.51841 -0.409097,-0.75776 -0.965397,-1.45819 0.08561,0.44111 -0.842911,-1.07599 -0.15452,-0.25247 -0.541748,-1.08315 -0.669731,-1.35182 -0.09096,-0.22772 -0.181921,-0.45543 -0.272881,-0.68314 -0.07224,-0.24968 -0.121171,-0.50732 -0.216714,-0.74905 -0.06325,-0.16001 -0.180442,-0.2936 -0.256416,-0.44797 -0.298267,-0.60606 -0.486507,-1.2357 -0.657405,-1.88593 -0.308171,-1.39829 -0.757632,-2.766 -1.126517,-4.15325 -0.05381,-0.25441 -0.09209,-0.5126 -0.161431,-0.76322 -0.130692,-0.47233 -0.322542,-0.92598 -0.46086,-1.39613 -0.217733,-0.74009 -0.361496,-1.48053 -0.618793,-2.20834 -0.485122,-1.4548 -0.849034,-2.95699 -1.120345,-4.46662 -0.169806,-0.7716 -0.137684,-1.57219 -0.247257,-2.34969 -0.09485,-0.673 -0.317466,-1.35069 -0.461554,-2.01495 -0.171589,-1.51092 -0.6605,-2.94443 -0.965936,-4.43042 -0.282518,-1.54899 -0.332648,-3.1249 -0.361498,-4.69498 -0.02013,-1.68693 -0.01377,-3.37404 -0.01083,-5.06105 0.0031,-1.48905 0.0042,-2.97809 0.0049,-4.46714 5.16e-4,-1.46826 4.8e-4,-2.93652 4.8e-4,-4.40478 -1.5e-5,-1.45285 -3.6e-5,-2.9057 -4.7e-5,-4.35855 -1e-5,-1.64045 -9e-6,-3.2809 -1e-5,-4.92136 -0.03198,-1.84661 0.01062,-3.68767 0.122245,-5.53072 0.480146,-4.17796 1.388065,-8.30835 2.406348,-12.38657 0.545421,-2.45201 1.345723,-4.84189 1.897091,-7.29117 0.32512,-1.81282 0.246393,-3.65967 0.405502,-5.48803 0.265391,-2.981228 1.00599,-5.890646 1.764702,-8.777168 0.663251,-2.542142 1.505189,-5.035327 2.496327,-7.467728 0.711164,-1.688581 1.79695,-3.1531 2.882078,-4.611656 1.011155,-1.531743 2.252622,-2.886871 3.357874,-4.346528 1.135188,-1.466445 2.21446,-2.974509 3.381412,-4.415916 1.231377,-1.507218 2.599695,-2.892379 3.846505,-4.387183 1.317854,-1.675512 2.992838,-2.974337 4.650069,-4.28606 1.355566,-1.249826 3.0086,-2.070573 4.538191,-3.070282 1.377586,-1.080877 2.813599,-2.084143 4.262986,-3.065743 1.297797,-1.001958 2.49721,-2.121191 3.835201,-3.071714 1.530141,-1.005146 2.837405,-2.293827 4.268871,-3.424085 1.313156,-1.131286 2.460336,-2.435192 3.712145,-3.631077 1.145043,-1.092522 2.348409,-2.160227 3.672172,-3.034172 1.185832,-1.017664 2.403513,-1.96137 3.756703,-2.745524 1.42381,-0.613536 2.849235,-1.207985 4.314197,-1.716185 1.595672,-0.792909 3.25671,-1.448303 4.916479,-2.094803 0.330517,-0.132335 0.665561,-0.253883 0.991552,-0.397004 2.931117,-1.286859 -0.748698,0.235607 2.190314,-0.987486 1.092658,-0.454719 2.208697,-0.835813 3.31628,-1.251568 1.825224,-0.659513 3.664707,-1.268677 5.4967,-1.906233 1.126772,-0.334242 2.239683,-0.757312 3.383928,-1.033075 1.729502,-0.41681 -0.252673,0.177379 1.484356,-0.372654 1.428355,-0.558941 2.937188,-0.773248 4.404698,-1.190876 0.97022,-0.219723 1.93718,-0.536881 2.91978,-0.702676 1.33062,-0.224517 -0.11218,0.174586 1.22553,-0.240644 1.2947,-0.518712 2.66107,-0.758346 3.92528,-1.356108 1.25525,-0.590305 2.56558,-1.084944 3.89176,-1.496426 0.83961,0.07784 1.51955,-0.451948 2.2913,-0.65283 1.71551,-0.446534 -0.64934,0.362935 1.03542,-0.244487 1.1788,-0.620483 2.47765,-1.024665 3.79184,-1.231687 0.96122,-0.237344 1.86949,-0.660301 2.84456,-0.848104 1.66557,-0.320797 -0.30474,0.18449 1.42706,-0.291472 1.44235,-0.486973 2.93179,-0.761319 4.44152,-0.920317 9.35306,-0.464428 18.88648,-0.12232 28.13901,-0.122245 0.97331,0.08226 1.97497,-0.09914 2.9455,0.0062 0.42539,0.04615 0.83602,0.183547 1.25685,0.260922 0.61763,0.08308 1.23838,0.129732 1.86105,0.148861 0.2221,0.0068 0.45098,-0.04074 0.66648,0.01344 0.42904,0.107858 0.79755,0.383689 1.20382,0.558792 1.27681,0.288602 2.53754,0.589196 3.84876,0.684874 0.58895,0.311539 1.17458,0.618626 1.83396,0.748225 0.20123,0.03955 0.41397,0.02067 0.60979,0.08156 0.29868,0.09286 0.95556,0.472704 1.2438,0.632256 0.11829,0.133797 0.29096,0.234631 0.35489,0.40139 0.25138,0.655682 0.0839,2.107262 -0.0188,2.581873 -0.0548,0.25319 -0.11235,0.674605 -0.37127,0.682753 -18.98293,0.597329 -16.26911,0.836223 -24.70477,0.03919 -0.4184,-0.09621 -0.86244,0.04039 -1.28057,-0.04687 -0.51096,-0.106632 -0.97511,-0.385775 -1.48539,-0.495619 -0.55621,-0.119733 -1.26786,-0.155712 -1.82416,-0.200418 -2.83888,-0.168383 -5.68446,-0.177675 -8.52744,-0.196922 -1.19818,-0.0059 -2.39637,-0.0067 -3.59456,-0.0051 -0.27318,3.66e-4 -1.09272,0.0017 -0.81954,0.0017 23.24122,0.0012 30.86282,0.326164 23.00862,-0.0066 0.0591,-1.245656 -0.003,-2.502976 0.17744,-3.736969 0.0177,-0.121485 0.24747,-0.02491 0.3683,-0.0032 0.18557,0.03337 0.35507,0.132767 0.54056,0.166608 2.493,0.454822 -1.20679,-0.369175 1.60572,0.125265 0.3376,0.05935 0.66178,0.178981 0.99268,0.268471 0.3741,0.06563 0.75198,0.112547 1.12232,0.196886 0.42907,0.09772 0.84524,0.246617 1.2733,0.348682 2.0112,0.479538 0.78109,0.115493 2.87403,0.515835 1.0366,0.198282 2.06114,0.455428 3.09495,0.667745 1.40975,0.509608 2.89799,0.712245 4.3488,1.054687 0.47306,0.111659 0.93497,0.267217 1.40758,0.380785 0.76099,0.182867 1.99351,0.408892 2.7736,0.55759 2.24592,0.657444 4.56986,1.011929 6.79362,1.739754 0.59941,0.309341 1.29578,0.281925 1.91775,0.506079 0.29055,0.104712 0.54567,0.290104 0.8259,0.419929 0.6842,0.316976 1.35682,0.530552 2.0928,0.6773 0.62698,0.437818 1.39983,0.488797 2.09325,0.744288 0.21189,0.07807 0.39911,0.213426 0.609,0.296718 0.47656,0.189117 0.67858,0.190245 1.18054,0.265856 0.19711,0.02157 0.40636,-0.0067 0.59134,0.06472 1.12244,0.433524 -0.019,0.33021 1.07407,0.602217 0.21234,0.05284 0.43966,0.01813 0.6531,0.06634 0.61656,0.139254 1.212,0.361262 1.82603,0.511252 0.31442,0.0679 0.63555,0.109932 0.94325,0.203684 2.11182,0.643443 -0.21218,0.119491 1.84992,0.658464 0.9238,0.241455 1.87772,0.33725 2.82415,0.43536 1.51519,0.739591 3.2449,0.623663 4.81489,1.107853 0.57712,0.265361 1.26792,0.08946 1.85701,0.258068 0.23126,0.06619 0.42808,0.221564 0.65229,0.308701 1.2409,0.482254 0.11631,-0.145002 1.34959,0.633959 0.48812,0.144219 0.9064,0.463535 1.38802,0.621915 0.26937,0.08858 0.56508,0.08311 0.8312,0.181001 0.28951,0.106489 0.53784,0.304703 0.82113,0.426772 2.54661,1.097319 -0.94624,-0.609215 1.72528,0.733444 0.85005,0.214267 1.54,0.773415 2.35004,1.079541 0.21161,0.07997 0.45036,0.08507 0.6525,0.18664 0.74962,0.557863 0.36598,0.328754 1.14017,0.704993 1.14535,0.944967 2.50813,1.593544 3.74288,2.418927 0.23731,0.111112 0.49094,0.192521 0.71192,0.333335 0.23955,0.152649 0.43354,0.367479 0.659,0.540261 0.89613,0.686766 0.27019,0.154537 1.1746,0.785414 1.67492,1.16836 -0.53013,-0.25328 1.39051,0.957876 2.40528,2.193554 4.81438,4.381646 7.21984,6.575491 2.03894,1.916728 4.00279,3.908055 6.00156,5.865031 1.23977,1.736579 2.90399,3.084302 4.29189,4.68602 0.77578,0.895299 1.15656,1.46113 1.84358,2.40805 1.75313,2.061155 -0.14336,-0.241971 1.44991,1.92342 0.19076,0.25927 0.43727,0.475739 0.61745,0.742475 0.20538,0.304035 0.35244,0.643669 0.5342,0.962389 0.5607,0.983216 0.41944,0.740464 1.02236,1.614935 0.9333,1.403691 1.97625,2.703396 2.82559,4.165682 1.1283,1.346588 1.92026,2.929979 2.74582,4.469601 0.66757,1.73972 1.4804,3.41831 2.08274,5.181663 0.51526,1.565704 1.05572,3.120463 1.4886,4.714208 0.4113,1.625025 0.95848,3.212881 1.4049,4.832717 0.88847,2.343643 1.54177,4.765351 2.3198,7.146191 0.70894,2.40424 1.55895,4.7474 2.05902,7.20916 0.28531,1.64016 0.76936,3.22151 0.98563,4.87767 0.37815,1.82454 0.39425,3.69456 0.67863,5.52934 0.37392,3.09526 0.7641,6.18894 1.12497,9.28683 0.22716,1.53083 0.24781,3.08243 0.39758,4.61983 0.12004,1.2322 0.34716,2.46012 0.52877,3.68435 0.29127,1.78585 0.41096,3.59086 0.47042,5.39719 0.0356,1.48573 0.0295,2.97202 0.0273,4.45805 -0.003,1.44863 -0.005,2.89725 -0.006,4.34588 -8.9e-4,1.88555 -7.6e-4,3.77111 -7.8e-4,5.65666 -10e-6,2.05878 2e-5,4.11756 4e-5,6.17634 10e-6,1.57773 10e-6,3.15546 10e-6,4.7332 0.0841,1.73157 -0.22388,3.44159 -0.62292,5.11918 -0.65434,2.55174 -1.71184,4.97694 -2.61893,7.44566 -0.98589,3.24933 -2.20483,6.41861 -3.29079,9.63351 -0.98083,3.14839 -2.25828,6.19298 -3.63466,9.18591 -0.76333,1.86765 -1.59691,3.4818 -2.7412,5.13798 -0.98201,1.2758 -1.94729,2.57274 -3.05712,3.74141 -0.9233,1.12456 -1.93719,2.17123 -2.89116,3.27052 -1.00804,1.44104 -2.14173,2.77855 -3.34366,4.05871 -1.15686,1.30444 -2.4524,2.44808 -3.8822,3.4402 -1.58091,1.08551 -3.16936,2.17367 -4.85433,3.09477 -1.58963,0.90777 -3.17707,1.81691 -4.75012,2.75335 -1.65262,0.88547 -3.25587,1.86288 -4.84855,2.85297 -1.617,1.09091 -3.14917,2.29489 -4.7831,3.36244 -1.3156,0.87378 -2.66402,1.69844 -3.94127,2.63106 -1.44219,0.84986 -2.7326,1.92003 -4.05834,2.93399 -1.17739,1.12133 -2.48597,2.08929 -3.81044,3.02737 -1.42939,0.9936 -2.88176,1.96219 -4.34631,2.90636 -2.1959,1.16694 -4.31923,2.469 -6.42043,3.79796 -2.63857,1.75707 -5.3074,3.468 -7.9493,5.22005 -2.28656,1.67921 -4.49045,3.44689 -6.86839,4.99926 -1.47237,1.01574 -3.11058,1.72831 -4.63624,2.64667 -0.85204,0.38836 -1.68104,0.88755 -2.59772,1.11727 -0.23064,0.0578 -0.46924,0.0771 -0.70385,0.1157 -0.23294,0.0636 -0.46589,0.12727 -0.69883,0.1909 -0.95288,0.2743 -1.90873,0.63745 -2.90168,0.74752 -1.48729,0.16487 0.27473,-0.1984 -1.22296,0.14963 -1.29005,0.46442 -2.62156,0.73053 -3.98022,0.88041 -9.31667,0.47673 -18.82715,0.12342 -28.034,0.12384 -1.49178,0.0652 -2.94181,-0.26928 -4.42811,-0.36449 -1.33506,-0.73312 -2.89922,-0.62762 -4.30485,-1.07708 -0.38445,-0.21993 -0.85291,-0.06 -1.24971,-0.20385 -0.2201,-0.0798 -0.39305,-0.25486 -0.59583,-0.37187 -0.17287,-0.0997 -0.37724,-0.14989 -0.53032,-0.27795 -2.07688,-1.7374 0.85616,0.36848 -0.90413,-0.86103 -0.28343,-0.21537 -0.68563,-0.0986 -0.98282,-0.26179 -0.18693,-0.10262 -0.30191,-0.30484 -0.47779,-0.42543 -0.45205,-0.30991 -1.02181,-0.34673 -1.54408,-0.4326 -1.34343,-0.0686 -2.69046,-0.0518 -4.03531,-0.042 -12.72132,0.0684 30.78255,-0.0118 19.31397,0.0165 -1.44834,0.005 -2.8967,0.007 -4.34505,0.008 -9.37848,-0.0415 -18.80329,0.7128 -28.1317,-0.3118 -1.46686,-0.11582 -2.93995,-0.11933 -4.41052,-0.12307 -8.697196,0.009 -21.015387,0.004 19.38329,0.004 -8.59563,0.002 -10.62678,0.005 -25.212417,-0.26608 -0.529204,-0.01 -1.063032,-0.3873 -1.506604,-0.60056 -0.731718,-0.3518 -0.678351,-0.30459 -1.437711,-0.53561 -0.772738,-0.29623 -1.520434,-0.41067 -2.234089,-0.85184 -0.258729,-0.15995 -0.47893,-0.38043 -0.747113,-0.52396 -0.26563,-0.14216 -0.565701,-0.20829 -0.84266,-0.32688 -0.290573,-0.12442 -0.572648,-0.26782 -0.858972,-0.40173 -0.907568,-0.2213 -1.671939,-0.76701 -2.537852,-1.09362 -0.256413,-0.0967 -0.537128,-0.12742 -0.785016,-0.24427 -0.251983,-0.11878 -0.458023,-0.31861 -0.700408,-0.45591 -0.210112,-0.11903 -0.436074,-0.20759 -0.654111,-0.31139 -0.384771,-0.24923 -0.881512,-0.14493 -1.283665,-0.32731 -1.568329,-0.71128 0.35996,-0.14885 -1.110328,-0.65543 -1.866023,-0.64291 0.792463,0.43862 -1.144377,-0.37679 -0.200487,-0.0474 -0.409545,-0.0672 -0.601461,-0.14209 -0.233744,-0.0912 -0.43878,-0.24416 -0.665268,-0.35213 -0.212963,-0.10151 -0.443312,-0.16539 -0.651851,-0.27571 -0.840398,-0.44459 -1.647215,-0.98431 -2.483436,-1.44239 -1.026805,-0.53093 -2.170996,-0.90252 -3.155608,-1.51561 -0.388956,-0.24219 -0.730718,-0.55311 -1.101393,-0.82245 -1.117905,-0.8123 -1.264339,-0.89035 -2.437037,-1.6667 -2.254317,-1.45711 -4.162562,-3.39372 -6.537328,-4.66077 -1.5526,-0.65171 -0.104567,0.0261 -1.495834,-0.83007 -0.199453,-0.12275 -0.43662,-0.18088 -0.626582,-0.31785 -0.204953,-0.14779 -0.347632,-0.36909 -0.544957,-0.52691 -0.199717,-0.15974 -0.85042,-0.50672 -1.067485,-0.62669 -0.188473,-0.16307 -0.396252,-0.30619 -0.565418,-0.48921 -0.190506,-0.20611 -0.318958,-0.46398 -0.507654,-0.67175 -0.441583,-0.48621 -0.546596,-0.40826 -1.044627,-0.82468 -0.12984,-0.10856 -1.067715,-1.03498 -1.166082,-1.13161 -0.942214,-0.84134 -1.736469,-1.85066 -2.685856,-2.68288 -0.454256,-0.39819 -0.952424,-0.74429 -1.407366,-1.14171 -1.327299,-1.2624 -2.406018,-2.71786 -3.499081,-4.17572 -0.162182,-0.24749 -0.303388,-0.51007 -0.486547,-0.74247 -0.349944,-0.44401 -0.662104,-0.59015 -1.038751,-1.01405 -0.557271,-0.62718 -0.96867,-1.36876 -1.508445,-2.01343 -0.188014,-0.20905 -0.390746,-0.40575 -0.564042,-0.62716 -0.370722,-0.47364 -0.673192,-0.99733 -1.029281,-1.48207 -0.548363,-0.74648 -1.159581,-1.44652 -1.733675,-2.17314 -1.438155,-1.7722 -2.530224,-3.77359 -3.540971,-5.8129 -0.829067,-1.64715 -1.527637,-3.24178 -1.902766,-5.05398 -0.07242,-1.60562 -0.523314,-3.13656 -0.819922,-4.70639 -0.247074,-1.47264 -0.29257,-2.96715 -0.321244,-4.45681 0.0024,-1.46188 -0.06442,-2.92693 0.04106,-4.38592 0.08709,-1.42469 0.362364,-2.80171 0.778701,-4.16379 0.394303,-1.40834 0.952861,-2.7643 1.334627,-4.17532 0.293424,-1.44416 0.771834,-2.83693 1.03162,-4.28839 0.163494,-1.84387 0.35817,-3.66952 0.746223,-5.4815 0.507009,-1.97763 1.378662,-3.82042 2.486621,-5.52604 1.336215,-2.09908 2.818645,-4.08371 4.475889,-5.93805 2.576475,-3.01377 5.378968,-5.80813 8.3312,-8.45054 3.01998,-2.81921 6.334617,-5.27686 9.58603,-7.81393 0.468555,-0.36516 0.937195,-0.7302 1.405663,-1.09547 1.079047,-0.84134 1.721079,-1.3736 2.874996,-2.14245 1.633449,-1.08835 3.364197,-2.04772 5.043833,-3.06215 3.784156,-2.29768 7.547089,-4.62982 11.363196,-6.87431 3.791501,-2.22919 7.667154,-4.30976 11.417217,-6.60972 3.078616,-1.88815 4.931205,-3.11579 7.992595,-5.09829 8.43062,-5.26591 16.71598,-10.77068 24.87824,-16.44334 4.47322,-3.05643 8.74751,-6.39371 12.70789,-10.090798 2.66615,-2.575089 4.99282,-5.443701 7.17205,-8.432287 1.3366,-1.828579 2.69003,-3.649399 3.91252,-5.557219 5.92627,-9.701273 2.25362,-3.400568 26.21957,-2.672664 0.15487,1.519253 -0.3668,2.872596 -0.80086,4.289498 -0.22414,0.73169 -0.43277,1.468072 -0.65673,2.199819 -0.84949,2.707877 -1.78499,5.390331 -2.7426,8.062119 -1.44988,4.134434 -2.9424,8.253162 -4.63133,12.296362 -1.25275,3.00916 -2.8094,5.87765 -4.1872,8.82768 -0.85709,1.83511 -0.95374,2.1996 -1.67951,4.11348 -1.90519,4.65514 -3.86491,9.28383 -6.06624,13.8071 -1.65204,3.15596 -3.05246,6.43587 -4.74651,9.57044 -0.34574,0.63973 -2.47628,4.36663 -2.84538,5.01374 -2.49035,4.09207 -4.93339,8.22768 -7.84344,12.03925 -1.81456,2.34136 -3.77076,4.56637 -5.63496,6.86748 -1.33999,1.73752 -2.39815,3.67406 -3.49583,5.56942 -0.90079,1.40818 -1.62774,2.89536 -2.2318,4.45007 -0.30033,1.00416 -0.8878,1.85249 -1.41702,2.73816 -4.61653,7.72604 10.92726,1.25061 -24.45293,-0.46402 -0.20842,-1.791 -0.74756,-3.5596 -0.84075,-5.36505 -0.0528,-1.02284 -0.0576,-2.0504 0.006,-3.0726 0.089,-1.42119 0.30132,-2.83197 0.45198,-4.24796 0.37785,-1.87611 0.69243,-3.76609 1.13354,-5.62834 1.02796,-4.33978 2.70569,-9.91988 4.02438,-14.13027 1.29585,-4.13744 3.4084,-10.5427 4.92268,-14.63731 0.836,-2.26058 1.76103,-4.48724 2.64154,-6.73086 3.66709,-9.03457 7.9518,-17.79135 12.3128,-26.50499 1.64304,-3.010742 3.22561,-6.063431 4.99319,-9.003821 1.68982,-2.642885 3.37147,-5.290609 5.07588,-7.924173 0.6265,-0.889754 1.24286,-1.78703 1.87356,-2.673819 0.14956,-0.210301 0.29585,-0.423333 0.45668,-0.625153 0.071,-0.08909 0.13316,-0.291794 0.23741,-0.245846 0.10622,0.04682 -0.003,0.232132 -0.005,0.348198 34.18324,1.446973 29.25161,-3.371959 22.5533,2.479338 -1.06836,0.933266 -2.01974,2.024445 -2.99854,3.047783 -2.66207,2.817961 -5.01628,5.873549 -7.05155,9.168482 -0.34154,0.651176 -0.70474,1.291443 -1.02462,1.95353 -1.14333,2.366508 -2.13619,4.815071 -3.18545,7.223631 -0.83647,1.92011 -1.69343,3.83123 -2.53493,5.74914 -2.25693,5.30862 -4.29812,10.70409 -6.52315,16.02627 -2.22312,5.34901 -4.36546,10.72916 -6.50781,16.11094 -2.21963,5.62672 -4.3477,11.28861 -6.66166,16.87768 -1.39854,3.32024 -2.80991,6.63237 -4.12149,9.98821 -0.68182,2.09726 -1.48599,4.15593 -2.10962,6.27165 -0.5085,1.65738 -1.14499,3.27768 -2.03981,4.76483 -5.56218,7.47212 -19.03399,1.5967 -26.177589,1.06919 -0.461325,-0.0341 -0.479522,-0.79129 -0.728316,-1.18127 -0.257218,-0.40318 -0.526365,-0.79862 -0.789547,-1.19794 -1.622577,-3.39853 -2.998675,-6.96247 -3.885914,-10.62995 -0.195837,-0.80951 -0.340311,-1.63058 -0.510466,-2.44588 -0.518391,-3.39116 -1.045262,-6.85288 -0.917141,-10.29772 0.116181,-3.12376 0.429369,-4.11257 1.018395,-7.24974 1.694216,-6.96541 4.249748,-13.71295 7.864722,-19.91569 0.680666,-1.16791 1.448041,-2.28309 2.172062,-3.42464 3.018514,-4.47149 6.732914,-8.38202 10.838904,-11.86293 2.57411,-2.18224 3.79459,-3.02763 6.48828,-5.03635 5.04686,-3.55193 10.15471,-7.01516 15.16967,-10.613119 2.1222,-1.467699 4.19595,-2.993537 6.1768,-4.647121 1.17264,-1.089387 2.44917,-2.055408 3.6531,-3.106341 0.9217,-1.075648 0.34366,-0.838634 -0.51365,-0.538474 -8.50047,1.97078 -4.939,0.175451 21.49161,0.330094 0.31879,0.0019 -0.63606,0.06429 -0.94659,0.136413 -0.8639,0.200639 -1.12433,0.400801 -1.93353,0.813344 -2.28006,1.113159 -3.96966,2.88384 -5.49232,4.86464 -1.25518,1.781153 -2.25399,3.717892 -3.344,5.598924 -0.79498,1.17545 -1.53667,2.38759 -2.38884,3.52301 -2.2394,3.9614 -3.49578,8.37688 -4.75791,12.71966 -1.74342,7.0886 -3.14205,14.25239 -4.10407,21.48797 -0.081,0.73746 -0.16678,1.47441 -0.24298,2.21238 -0.1267,1.22696 -0.13617,1.71563 -0.30933,2.8535 -0.0338,0.22237 0.096,0.66378 -0.12887,0.66237 -24.69614,-0.15395 -23.72737,7.17346 -24.22107,-2.61271 -0.45381,-10.70791 1.88367,-21.26157 4.15248,-31.65554 2.13198,-8.80382 4.74693,-17.505581 8.00956,-25.960051 1.30251,-3.375191 2.15856,-5.190734 3.59831,-8.414462 1.77055,-3.356218 3.24993,-7.126518 6.01762,-9.836655 0.28275,-0.276862 0.60122,-0.514706 0.90183,-0.772058 7.53116,-4.729564 19.88927,-1.140463 26.5147,-1.039804 0.6257,0.0095 2.0525,1.418255 2.46007,1.844012 1.81696,1.58229 2.20971,3.877676 2.48701,6.149721 0.22643,3.110824 0.27253,6.266887 -0.0669,9.373163 -0.0906,0.82896 -0.24068,1.65033 -0.36103,2.475496 -1.13182,6.195131 -2.95068,12.222047 -4.80032,18.230948 -2.3742,7.76246 -5.00401,15.44231 -7.41347,23.19386 -1.88069,6.43954 -4.09372,12.7708 -5.67721,19.29364 -1.28936,4.91201 -1.91323,9.95361 -2.54641,14.98119 -0.51975,4.23498 -0.67722,8.50135 -0.7615,12.76354 -0.0469,3.18875 -0.0441,6.37791 -0.0384,9.5669 0.0971,0.60019 -0.0886,1.53855 0.41734,2.02646 0.29558,0.28507 1.17587,0.11007 1.53815,0.10014 8.36348,-0.0155 19.02813,-0.10032 -20.77368,-0.0814 -0.21203,1.1e-4 0.4186,0.087 0.63059,0.0833 0.2218,-0.004 0.43803,-0.0704 0.65704,-0.10568 0.20618,-0.0552 0.43009,-0.0654 0.61854,-0.16564 0.95622,-0.50864 1.8057,-2.06916 2.27825,-2.94001 0.947,-1.74523 1.44125,-3.06196 2.23897,-4.94262 0.49305,-1.27756 1.00654,-2.54742 1.47914,-3.83269 1.8531,-5.03965 1.95599,-5.62712 3.70833,-11.07019 2.47893,-7.69998 4.95893,-15.39964 7.44203,-23.09829 0.87221,-2.67084 1.74128,-5.3427 2.61663,-8.01251 2.15127,-6.56139 4.28537,-13.12481 6.28477,-19.7346 1.73545,-5.90288 0.90119,-3.1143 2.49466,-8.3682 1.25389,-3.146389 1.50193,-6.677729 3.07308,-9.695602 5.23617,-7.142788 0.88296,-1.568704 24.7078,-1.296663 0.35403,0.004 0.36704,0.606145 0.53024,0.920338 0.59744,1.150186 0.96334,2.365725 1.32913,3.603058 1.14208,4.915788 1.05385,10.022419 1.06594,15.038659 -0.0313,12.61878 -1.33399,25.19478 -2.33868,37.7628 -1.45075,14.48081 -2.25296,29.01129 -3.04313,43.5394 -0.49013,9.21634 -0.775,18.44203 -0.91961,27.66982 -0.15402,14.22643 1.3378,7.14981 -24.46572,7.91503 -1.19589,-6.43023 -1.77725,-12.95335 -2.50712,-19.44832 -0.87331,-8.59863 -1.51661,-17.23614 -1.57009,-25.88332 -0.0393,-6.35098 0.14245,-8.85691 0.40899,-15.19231 0.6001,-8.26488 1.21232,-16.54505 2.50502,-24.73693 0.5855,-3.71035 0.77665,-4.37779 1.53576,-7.9065 1.40183,-6.09169 3.79141,-11.8551 6.71387,-17.35816 1.68424,-3.26012 3.62427,-6.35653 5.98123,-9.16897 0.60314,-0.61088 0.89713,-0.96201 1.57765,-1.45991 0.0362,-0.0265 1.31032,-0.8451 1.44003,-0.84548 24.41591,-0.0713 19.19301,-5.938888 25.05201,1.12246 1.57062,2.47458 2.31705,5.03595 2.85101,7.89075 0.51433,3.36072 0.56337,6.76752 0.60349,10.15999 0.12386,3.88502 -0.38269,7.74179 -0.70148,11.60447 -0.64928,7.54057 -1.50508,15.0572 -2.04345,22.60747 -0.39852,6.84227 -0.83,13.68455 -1.55557,20.50062 -0.45661,3.60587 -1.06807,7.20297 -2.33155,10.62125 -0.59365,1.69 -1.61426,3.09714 -2.83442,4.37971 -1.14991,0.90341 -2.42332,1.49518 -3.83158,1.853 -8.41186,2.0631 -3.44061,0.90236 -24.90332,-0.41912 -0.36465,-0.0225 -0.42337,-0.60722 -0.54141,-0.95297 -0.94698,-2.77372 -0.862,-6.1027 -0.96757,-8.95259 0.0871,-1.9671 0.10856,-3.9382 0.26121,-5.90131 0.87736,-11.28319 3.06667,-22.44289 5.27709,-33.52417 1.06289,-5.07184 2.32748,-10.09204 3.87418,-15.03634 3.59805,-11.09615 9.50865,-4.03237 26.31937,-3.39295 0.0843,0.42333 0.22278,0.83939 0.253,1.26998 0.22876,3.25893 -1.59226,6.2725 -3.01302,9.05292 -0.42458,0.78118 -0.83941,1.56774 -1.27374,2.34354 -1.25791,2.24691 -1.63286,2.75224 -2.85578,5.03856 -1.53281,2.86567 -2.91291,5.79885 -4.25152,8.75845 -3.41157,7.48608 -6.03474,15.29768 -8.61245,23.10071 -2.08484,6.03939 -4.12126,12.10207 -6.45626,18.05097 -0.76551,1.70945 -1.39796,3.60144 -2.57307,5.09753 -0.20146,0.25648 -0.43797,0.48339 -0.65695,0.72508 -1.3182,0.94527 -2.93058,1.10441 -4.50636,1.03776 -0.17157,0.0154 -1.29001,0.10576 -1.47935,0.16218 -1.03816,0.30939 -1.7504,1.45003 -2.40988,2.23035 -0.89779,1.2304 -1.51491,2.65199 -1.95001,4.10583 -0.14006,0.83694 -0.44521,1.74532 -0.30794,2.60631 0.0501,0.31424 0.22947,0.59362 0.34316,0.89082 0.12405,0.12255 0.52008,0.52642 0.6576,0.60589 0.13582,0.0785 0.30367,0.0848 0.44522,0.15244 0.60521,0.28902 1.20283,0.64745 1.76404,1.01289 0.27992,0.12189 1.07363,0.50357 1.39661,0.49868 0.22141,-0.003 0.84684,-0.22252 0.62541,-0.22399 -7.74599,-0.0513 -15.49223,0.0497 -23.23835,0.0741 -0.12125,3.8e-4 0.3118,0.10761 0.36375,-0.002 0.24029,-0.50671 0.2739,-1.08763 0.41085,-1.63144 0.17292,-1.09497 0.37633,-2.18556 0.51876,-3.28492 0.51486,-3.9742 0.61685,-6.08496 0.94555,-10.19576 0.53661,-6.71103 1.00433,-13.4176 1.39698,-20.13876 0.65634,-12.11018 0.92427,-24.23646 0.86232,-36.36307 -0.0268,-3.29596 -0.0825,-6.59157 -0.14635,-9.88699 -0.0334,-1.72424 0.0109,-2.8279 -0.44022,-4.47274 -0.11552,-0.18954 -0.13529,-0.50052 -0.34655,-0.56864 -0.1664,-0.0536 -0.5872,0.31659 -0.41252,0.32392 7.784,0.32662 15.57446,0.48582 23.3638,0.63915 0.15968,0.003 -0.2814,-0.19873 -0.44074,-0.18791 -0.49851,0.0338 -0.9025,0.65922 -1.15964,0.94417 -2.28829,3.32473 -3.9762,7.03277 -5.35494,10.81372 -1.30194,3.79634 -1.50023,7.80239 -1.62543,11.77573 -0.37626,5.87911 -0.59633,11.76509 -0.73628,17.65404 -0.23059,3.79144 0.10164,7.61779 -0.23864,11.40122 0,0 -23.99706,-0.23616 -23.99706,-0.23616 v 0 c 0.14563,-1.32936 0.11345,-2.64988 0.12687,-3.98704 0.0242,-2.4118 0.0604,-4.82349 0.11068,-7.2349 0.13938,-5.89481 0.35379,-11.78715 0.73632,-17.67182 0.1296,-4.2163 0.34672,-8.46394 1.63913,-12.51518 1.37609,-4.02302 3.15863,-7.90311 5.38989,-11.52869 0.12535,-0.19838 1.69803,-2.68763 1.80257,-2.68865 15.89146,-0.1539 21.92953,-6.70543 25.13437,2.51331 0.37645,1.82737 0.41031,3.10524 0.44657,4.9815 0.0639,3.30633 0.11954,6.61285 0.14639,9.91973 0.0619,12.17727 -0.20569,24.35421 -0.86272,36.5151 -0.39222,6.73734 -0.862,13.45957 -1.39731,20.18685 -0.34025,4.27582 -0.42711,6.24706 -0.94766,10.37683 -0.14449,1.14635 -0.34757,2.28455 -0.52136,3.42683 -0.14436,0.75749 -0.2548,1.52224 -0.43307,2.27248 -0.13349,0.56178 0.0742,1.60737 -0.50096,1.65826 -14.55351,1.28778 -18.54716,4.52112 -26.49441,-0.75188 -1.40151,-0.87169 -2.45083,-1.79929 -2.97587,-3.42345 -0.50054,-1.77011 -0.4195,-3.10325 -0.0385,-4.88921 0.44143,-1.75772 1.13394,-3.41552 1.99131,-5.01203 1.06994,-1.57847 0.0429,-0.13494 1.20059,-1.56707 0.64838,-0.80208 1.19778,-1.83093 2.08534,-2.4088 0.23929,-0.1558 0.53362,-0.20344 0.80044,-0.30516 0.26222,-0.0799 0.51524,-0.20131 0.78667,-0.23968 0.24654,-0.0349 0.49773,0.016 0.74664,0.0229 0.95404,0.0264 1.90854,0.0648 2.86303,0.0529 0.19569,0.0141 0.39572,0.0855 0.58707,0.0422 0.40797,-0.0924 0.68737,-0.57387 0.87292,-0.87389 0.65284,-1.05556 1.22442,-2.17666 1.65041,-3.34218 2.38693,-5.87729 4.33872,-11.92386 6.45107,-17.9023 2.58225,-7.88231 5.21555,-15.77382 8.62147,-23.34539 1.33499,-3.02966 2.72726,-6.02838 4.26105,-8.96418 1.35634,-2.59613 1.42785,-2.54306 2.85553,-5.03343 0.43192,-0.75343 0.84691,-1.51644 1.27037,-2.27465 0.9028,-1.74605 1.9937,-3.48028 2.63455,-5.34868 0.0248,-0.0724 0.4213,-1.45903 0.36344,-1.80586 -0.0108,-0.0645 -0.12305,-0.0441 -0.18458,-0.0661 7.84397,0.10789 15.68755,0.39956 23.53189,0.32367 0.22071,-0.002 -0.1677,-0.46431 -0.37205,-0.54773 -0.65395,-0.26696 -1.50986,2.02993 -1.57425,2.38159 -0.47774,1.52544 -0.99825,3.04507 -1.41947,4.58713 -0.92072,3.37071 -1.65343,6.79391 -2.44834,10.19481 -2.19581,10.96091 -4.38211,21.99803 -5.27267,33.15867 -0.15135,1.89681 -0.17409,3.8017 -0.26113,5.70256 0.0743,1.92065 0.0222,4.36684 0.49589,6.33643 0.0666,0.27711 0.17922,0.57069 0.3927,0.75951 0.1105,0.0977 0.58956,-0.0197 0.44205,-0.0212 -23.58742,-0.23525 -30.83442,-1.85671 -22.66992,-0.0775 1.28543,-0.0351 2.58057,-0.0842 3.70267,-0.78927 0.73892,-0.18627 0.87468,-0.41563 1.41046,-0.94771 0.65111,-0.64662 0.99013,-1.126 1.32632,-2.01044 1.43324,-3.11128 1.78174,-6.59769 2.31477,-9.94389 0.72869,-6.78723 1.16197,-13.60089 1.55481,-20.41517 0.53455,-7.55946 1.38675,-15.08476 2.04365,-22.63344 0.30788,-3.78867 0.82245,-7.56943 0.70069,-11.37981 -0.0389,-3.24672 -0.0747,-6.51087 -0.59899,-9.72332 -0.3351,-1.62075 -0.94347,-4.43488 -2.19808,-5.63067 -0.14893,-0.14195 -0.35687,-0.20483 -0.53531,-0.30724 -8.07978,0.38729 -8.93985,0.41882 22.54911,0.0702 0.21996,-0.002 -0.37599,-0.2497 -0.5919,-0.29178 -0.80962,-0.15779 -1.60816,0.33599 -2.21929,0.77446 -2.51854,2.44303 -4.27989,5.51709 -5.94431,8.57627 -0.43948,0.7878 -0.90323,1.56255 -1.31844,2.36341 -2.35293,4.53838 -4.11153,9.36344 -5.37116,14.31359 -0.76151,3.45882 -0.94841,4.08669 -1.53267,7.73293 -1.29963,8.11067 -1.89819,16.31292 -2.50282,24.49768 -0.26576,6.26006 -0.44791,8.75728 -0.40884,15.03011 0.0534,8.57818 0.69764,17.14644 1.56866,25.67588 0.34558,3.08122 0.65839,6.16615 1.02043,9.24548 0.14029,1.1932 0.30379,2.38357 0.45984,3.57482 0.10947,0.83565 0.39209,3.32034 0.69402,4.32386 0.0221,0.0734 0.1378,0.0671 0.20669,0.10065 -7.89493,0.33615 -15.78734,0.73791 -23.6848,1.00844 -0.0808,0.003 0.11496,-0.12332 0.1347,-0.20173 0.0608,-0.2414 0.0894,-0.49116 0.10225,-0.73977 0.095,-1.84464 -0.0657,-3.70298 0.0448,-5.54771 0.14454,-9.2587 0.4293,-18.51532 0.91994,-27.76259 0.7901,-14.54839 1.58873,-29.09963 3.04353,-43.60043 0.9984,-12.50265 2.30196,-25.01273 2.33792,-37.56567 -0.0115,-4.76174 0.12394,-9.64152 -1.05412,-14.291357 -0.18288,-0.506746 -0.42374,-1.406369 -0.84267,-1.847037 -0.0933,-0.0981 -0.24962,-0.172517 -0.38108,-0.140263 -0.16041,0.03936 -0.5388,0.328034 -0.37365,0.32544 29.79088,-0.467927 31.0684,-0.413097 22.9604,-0.702196 -0.13477,0.0711 -0.30446,0.0982 -0.40432,0.2133 -0.35967,0.414593 -0.57374,1.394656 -0.69035,1.820086 -0.61919,2.25881 -1.19671,4.529912 -1.93443,6.755047 -1.59874,5.23945 -0.76302,2.44755 -2.49499,8.37933 -1.99585,6.62368 -4.12919,13.20015 -6.28594,19.7726 -0.87513,2.66687 -1.74423,5.33571 -2.61635,8.00357 -2.48332,7.69547 -4.97275,15.38932 -7.44175,23.08936 -0.66414,2.07126 -1.28712,4.1558 -1.97117,6.22057 -1.30918,3.95165 -1.82194,5.19792 -3.22365,8.8911 -1.42656,3.4723 -2.80443,7.09172 -5.28933,9.97045 -8.03951,4.86769 -5.56079,0.92617 -25.8108,0.80118 -0.29901,-0.002 -1.28733,-0.23056 -1.5651,-0.32534 -0.26939,-0.0919 -0.52357,-0.22348 -0.78536,-0.33522 -0.23682,-0.17472 -0.50251,-0.31594 -0.71047,-0.52418 -1.18136,-1.18293 -1.36867,-2.92807 -1.42182,-4.5059 -0.006,-3.20612 -0.008,-6.4124 0.0385,-9.61827 0.0849,-4.34584 0.24382,-8.69582 0.76331,-13.01496 0.63519,-5.11463 1.25804,-10.24613 2.55118,-15.2462 0.2314,-0.98096 0.44299,-1.9668 0.69422,-2.94287 1.43387,-5.5709 3.47179,-10.96145 4.98722,-16.50873 2.39886,-7.75355 5.02631,-15.43222 7.41333,-23.18916 1.81728,-5.898241 3.63933,-11.799879 4.79231,-17.873962 0.11966,-0.763326 0.27007,-1.522462 0.35897,-2.289978 0.34072,-2.9416 0.29309,-5.938907 0.0683,-8.885403 -0.29417,-2.06441 -0.58859,-3.050424 -2.38516,-4.232451 -0.58504,-0.247239 -0.81646,-0.397546 -1.47306,-0.450693 -0.26956,-0.02182 -1.08109,0.03436 -0.81066,0.03284 7.61017,-0.04297 15.22064,-0.06162 22.83032,-0.157154 0.2946,-0.0037 -0.58132,-0.112577 -0.87588,-0.118468 -0.29319,-0.0059 -0.58385,0.05562 -0.87578,0.08344 -0.28701,0.109936 -0.59362,0.178304 -0.86103,0.329808 -1.36976,0.776049 -2.28733,2.24967 -3.08435,3.542136 -1.28473,2.083336 -1.71552,3.056611 -2.87271,5.326977 -1.36008,2.995342 -2.37207,5.129766 -3.59162,8.241514 -3.26876,8.340422 -5.86177,16.942524 -8.00038,25.636294 -2.24533,10.17727 -4.58634,20.51601 -4.14723,31.00773 0.54819,9.41228 0.61298,1.92525 -23.76883,2.19679 -0.15064,0.002 0.0979,-0.28616 0.12478,-0.43441 0.16327,-0.90168 0.21793,-1.89934 0.30863,-2.79578 0.0765,-0.75613 0.16242,-1.51127 0.24363,-2.26691 0.95952,-7.35573 2.38049,-14.63315 4.11144,-21.84634 0.68717,-2.40959 1.24779,-4.50694 2.05868,-6.8664 0.84759,-2.46628 0.80592,-2.10435 1.70717,-4.20267 0.94464,-2.19932 0.13298,-0.4962 1.0187,-2.29305 0.81703,-1.57726 0.0292,-0.24908 0.87374,-1.30113 0.55755,-0.69457 0.95722,-1.606474 1.52006,-2.309317 1.03529,-1.335575 1.74332,-3.02845 2.63989,-4.482751 0.23654,-0.383678 0.47087,-0.768714 0.7063,-1.153071 1.09284,-1.768182 0.35838,-0.713944 1.63047,-2.261594 1.14915,-1.398096 2.31939,-2.80405 3.94978,-3.669096 0.66629,-0.431244 1.30521,-0.906201 1.99048,-1.306601 7.38092,-4.312648 17.08427,-0.793334 25.63276,-0.808696 0.27408,-4.92e-4 0.53213,0.143216 0.78001,0.260161 0.25056,0.118203 0.46991,0.293571 0.70486,0.440356 0.20209,0.250944 0.43901,0.477442 0.60625,0.75283 0.75481,1.242871 0.66894,2.775106 4.1e-4,4.01531 -0.14575,0.242517 -0.26915,0.499958 -0.43726,0.727552 -0.61025,0.826195 -0.40486,0.389977 -1.14356,1.016826 -0.22837,0.193798 -0.40887,0.440059 -0.63913,0.631613 -2.45614,2.04324 1.17982,-1.262387 -1.46832,1.192605 -1.94997,1.757044 -3.9881,3.417927 -6.19466,4.845703 -4.94663,3.69125 -10.09717,7.09847 -15.16951,10.61144 -6.40525,4.61258 -12.71231,9.4746 -17.26157,16.03477 -0.72059,1.07784 -1.48958,2.12484 -2.16178,3.2335 -3.60447,5.94481 -6.12596,12.45865 -7.83944,19.18125 -0.56706,2.84425 -0.90184,3.89823 -1.01409,6.73145 -0.13057,3.29556 0.39385,6.61037 0.91184,9.84996 0.92197,4.16687 2.1542,8.36163 4.35266,12.04921 0.25608,0.29843 0.46209,0.6485 0.76824,0.89531 0.17645,0.14226 0.86374,0.2365 0.63709,0.23763 -7.71619,0.0387 -15.43272,-0.21188 -23.148507,-0.12468 -0.388598,0.004 0.683082,0.50055 1.069905,0.4632 0.167525,-0.0162 0.314457,-0.12009 0.471685,-0.18014 1.073265,-1.03781 1.445233,-2.50903 1.99825,-3.85942 0.576341,-2.2098 1.466787,-4.31807 2.117097,-6.50618 1.28646,-3.38825 2.71186,-6.71541 4.12395,-10.05288 2.3335,-5.5697 4.45688,-11.22193 6.66034,-16.84365 3.95461,-9.84291 -1.37485,3.47275 2.34688,-5.98565 2.31381,-5.88029 -0.0354,0.18775 2.21993,-5.30813 0.33616,-0.81917 0.64086,-1.65089 0.96128,-2.47634 0.3271,-0.79375 0.6542,-1.58749 0.9813,-2.38123 2.24352,-5.32729 4.3007,-10.72774 6.52461,-16.0626 1.57037,-3.59922 3.16397,-7.18722 4.74561,-10.78064 0.33882,-0.769786 0.63353,-1.558711 0.98062,-2.324803 0.32435,-0.715899 0.68864,-1.413023 1.03296,-2.119534 1.40357,-2.441786 2.93061,-4.782465 4.73838,-6.949799 0.39751,-0.476575 0.83259,-0.92071 1.23634,-1.392011 0.37867,-0.442029 0.74035,-0.89834 1.11052,-1.34751 0.36467,-0.394547 0.72934,-0.789093 1.09401,-1.18364 0.33577,-0.342126 0.67903,-0.677049 1.00729,-1.026378 0.0302,-0.03212 1.43571,-1.613316 1.61059,-1.766095 6.19265,-5.410018 52.8297,42.7921 24.6541,0.854494 -0.048,0.771417 -0.25626,0.851013 -0.72832,1.424939 -0.67838,0.82476 -1.15773,1.785502 -1.86826,2.586533 -1.77258,2.573224 -3.36205,5.26977 -5.07357,7.884369 -0.26831,0.387121 -0.55995,0.75907 -0.80493,1.161363 -0.4797,0.787745 -0.86223,1.630818 -1.30823,2.438124 -2.63714,4.773548 1.46347,-2.684588 -1.71985,3.045216 -0.38808,0.698527 -0.76466,1.403392 -1.14699,2.105082 -4.36257,8.63852 -8.61404,17.33787 -12.30374,26.29005 -0.87938,2.21181 -1.80549,4.40561 -2.63814,6.63544 -1.50897,4.04099 -3.63068,10.4526 -4.91948,14.5362 -1.28311,4.06555 -2.99578,9.70927 -4.01892,13.90982 -0.43555,1.7882 -0.75336,3.60303 -1.13005,5.40455 -0.31692,2.80819 -0.6071,4.07757 -0.45916,6.72955 0.0351,0.62982 0.16716,1.2506 0.26583,1.87364 0.0699,0.44112 0.16016,0.87877 0.23968,1.31826 0.0409,0.22627 0.0408,0.46379 0.12169,0.67902 0.0183,0.0485 0.0998,0.0283 0.14965,0.0425 -7.86396,-0.21611 -15.72495,-0.65289 -23.59188,-0.64832 -0.23234,1.3e-4 0.0765,0.47802 0.21848,0.66191 0.42084,0.54493 1.33154,-1.19545 1.3311,-1.43685 0.69242,-1.60912 1.19706,-3.31524 2.24547,-4.75307 1.11833,-2.03015 2.31871,-4.01201 3.52134,-5.99263 2.90808,-3.44761 -1.36055,1.64355 1.67783,-2.08859 1.29641,-1.59241 2.73214,-3.07145 3.95351,-4.72565 0.87317,-1.06749 1.55383,-1.85649 2.34128,-3.00435 1.93366,-2.81865 3.62371,-5.80573 5.48072,-8.67381 1.39427,-2.45204 2.87012,-4.86176 4.1453,-7.37944 0.66438,-1.31173 1.62852,-3.45005 2.28048,-4.77796 0.37578,-0.76539 0.77265,-1.52025 1.15897,-2.28037 0.67852,-1.36825 1.68464,-3.36197 2.30717,-4.7577 1.29919,-2.91281 2.4357,-5.8977 3.74914,-8.8046 0.59935,-1.6576 0.96191,-2.76582 1.68983,-4.36689 1.32958,-2.92439 2.94324,-5.72126 4.18126,-8.69011 1.73136,-3.98089 3.18894,-8.072018 4.62648,-12.16712 0.9722,-2.631759 1.87454,-5.291103 2.73921,-7.958755 0.35007,-1.07342 0.60959,-2.174272 0.98042,-3.240329 0.0845,-0.242991 0.20773,-0.47177 0.28631,-0.716749 0.0685,-0.21343 -0.0149,-0.506779 0.15357,-0.65465 0.11456,-0.100565 0.0527,0.300276 0.0791,0.450414 7.91186,0.104668 15.82305,0.300292 23.73559,0.314003 0.13808,2.39e-4 -0.17367,-0.286034 -0.31117,-0.273414 -0.43366,0.0398 -1.56621,2.038315 -1.73971,2.408008 -1.24582,1.932607 -2.49806,3.864403 -3.91964,5.676563 -1.01456,1.444548 -2.03567,2.897707 -3.13218,4.281856 -1.10653,1.396784 -1.38919,1.632269 -2.60013,2.95703 -0.49229,0.538571 -0.98015,1.081183 -1.47023,1.621775 -3.87607,3.909618 -8.22888,7.323588 -12.74114,10.468218 -5.12144,3.64406 -1.60302,1.1929 -7.21999,4.95811 -5.84708,3.91945 -11.61379,7.96836 -17.66661,11.57062 -3.77644,2.47228 -7.53911,4.99112 -11.42485,7.29126 -0.0709,0.042 -5.33391,2.99927 -5.73671,3.23 -0.7575,0.43393 -1.50795,0.88005 -2.26192,1.32007 -3.85482,2.16031 -7.58439,4.52844 -11.358034,6.82482 -1.142214,0.68589 -2.265337,1.40365 -3.415668,2.07584 -1.000895,0.58486 -2.163612,1.14014 -3.126801,1.7949 -0.469377,0.31907 -0.900462,0.69115 -1.34788,1.04035 -0.470876,0.36751 -0.937976,0.73983 -1.406964,1.10975 -1.013789,0.77916 -1.99154,1.60473 -3.010652,2.37691 -0.521221,0.39494 -1.076727,0.74296 -1.601125,1.13367 -1.734739,1.29247 -3.346709,2.7349 -4.962453,4.17021 -2.974365,2.49882 -5.774374,5.192 -8.306706,8.14177 -0.583193,0.65849 -1.223835,1.26473 -1.804279,1.92565 -0.996352,1.13448 -1.770042,2.46508 -2.650064,3.68585 -0.339664,0.49007 -0.724453,0.94907 -1.044807,1.45197 -0.62042,0.97395 -0.968217,2.11998 -1.405618,3.17856 -0.03806,0.16716 -0.370957,1.61163 -0.40116,1.8108 -0.177859,1.17288 -0.179288,2.36844 -0.342628,3.543 -0.239889,1.55689 -0.692539,2.95249 -1.035397,4.47459 -0.343239,1.51449 -0.931599,2.88485 -1.340302,4.37557 -0.43865,1.16524 -0.697028,2.33549 -0.766842,3.582 -0.133367,1.37377 -0.01625,2.76236 -0.04029,4.1406 0.02706,1.3511 0.06386,2.70871 0.316812,4.04036 0.311914,1.53771 0.682481,3.06002 0.818263,4.62724 0.409193,1.57392 1.168656,3.00498 1.881937,4.45936 1.004755,1.88839 2.1298,3.70456 3.514051,5.34292 1.126743,1.41676 2.162364,2.90121 3.327347,4.28757 0.974915,1.30569 2.131127,2.45611 3.036806,3.81641 1.026688,1.33908 2.169998,2.5909 3.461794,3.68087 1.43115,1.23662 2.705058,2.63863 4.100763,3.91452 0.199234,0.17759 0.398467,0.35517 0.597701,0.53276 0.1855,0.15298 0.376763,0.29922 0.556499,0.45893 0.675389,0.60013 1.232261,1.30626 2.088057,1.67191 0.364456,0.25824 0.703011,0.55445 1.083315,0.78873 0.861136,0.53049 1.823495,0.90277 2.649989,1.49747 2.197089,1.55881 4.272462,3.28575 6.545155,4.73896 0.390896,0.264 1.984085,1.35016 2.431891,1.61499 1.367647,0.80882 2.874379,1.36072 4.23995,2.17433 0.40874,0.2218 1.32956,0.73409 1.79171,0.94183 0.63778,0.28668 1.30709,0.47543 1.9605,0.71303 0.21075,0.0766 0.41129,0.17889 0.61693,0.26833 0.58872,0.2195 1.1169,0.57681 1.70521,0.7838 0.17176,0.0604 0.36138,0.058 0.53344,0.11755 0.36385,0.12594 0.98852,0.46917 1.32114,0.64296 1.48928,0.74978 -0.17777,-0.0522 1.33056,0.5614 1.12893,0.45927 2.21846,1.02643 3.34175,1.49886 0.58089,0.27043 1.13526,0.59565 1.71675,0.86478 0.93602,0.43322 1.99784,0.55886 2.93672,0.9932 0.73384,0.28434 1.37672,0.50065 2.16013,0.59471 0.24047,0.0289 0.96439,0.0795 0.7222,0.0797 -7.41442,0.006 -31.185616,-0.0568 -22.243154,-0.063 9.333384,-1.5e-4 18.688334,-0.10859 28.029134,0.038 1.4837,0.0499 2.96618,0.13334 4.44016,0.31768 0.48545,0.0443 1.94591,0.10676 1.45845,0.10698 -39.701766,0.018 -29.10384,-0.0359 -20.76888,-0.0316 1.4481,-1e-4 2.89619,-2.7e-4 4.34428,-0.003 9.3668,-0.0255 18.73594,-0.17332 28.10056,0.0284 1.40628,0.0705 2.84197,0.15158 4.13667,0.76246 0.54924,0.27558 1.04796,0.68271 1.60173,0.93596 0.1397,0.0639 0.30528,0.0569 0.44435,0.12218 0.32529,0.15259 0.75362,0.5092 1.03231,0.72477 0.14696,0.0996 0.27605,0.23289 0.44087,0.29888 0.12653,0.0507 0.27323,0.0137 0.40685,0.0405 0.17447,0.035 0.33808,0.11741 0.51399,0.1442 0.18098,0.0276 0.36779,-0.009 0.54891,0.0177 0.42769,0.0629 0.83141,0.24785 1.2625,0.2965 1.43833,0.1735 2.8024,0.77588 4.25966,0.76086 1.46733,0.15579 2.92086,0.22937 4.39723,0.16391 -40.39527,0.003 -28.09044,-0.019 -19.39335,0.0146 1.30763,-0.009 2.62991,-0.003 3.90396,-0.3384 0.20762,-0.074 0.41997,-0.13595 0.62286,-0.2221 0.22343,-0.0949 0.41918,-0.25892 0.65408,-0.3201 0.2286,-0.0595 0.47226,-0.0169 0.70782,-0.0345 0.71844,-0.0539 1.43863,-0.14368 2.13916,-0.31481 0.48216,-0.15515 0.93749,-0.39592 1.43022,-0.51326 0.21529,-0.0513 0.44236,-0.0211 0.66248,-0.0439 0.64888,-0.0675 1.26427,-0.24155 1.86333,-0.50012 0.72674,-0.24946 0.54143,-0.14302 1.23656,-0.57175 0.24892,-0.15353 0.47342,-0.34832 0.73495,-0.47924 0.26452,-0.13242 0.56293,-0.18527 0.8331,-0.30573 0.76797,-0.34243 1.09153,-0.59877 1.80753,-1.06794 2.48424,-1.32849 4.7104,-3.02855 6.85334,-4.84969 2.60111,-1.82442 5.30896,-3.48955 7.95232,-5.25087 2.08601,-1.44868 4.27447,-2.72263 6.44514,-4.03589 1.57252,-0.64352 2.81279,-1.78213 4.31108,-2.55941 0.40405,-0.30484 0.90963,-0.69702 1.33412,-0.97468 0.20331,-0.13299 0.43027,-0.22944 0.62567,-0.37378 0.21941,-0.16208 0.39733,-0.37522 0.6135,-0.54159 0.19476,-0.14989 0.41081,-0.26988 0.61621,-0.40482 0.19908,-0.15495 0.39816,-0.3099 0.59724,-0.46485 1.20836,-1.29258 2.70862,-2.27643 4.09808,-3.36587 1.11869,-0.59206 0.19906,-0.0561 1.27274,-0.83391 0.41033,-0.29727 0.81377,-0.5252 1.24815,-0.78483 1.36581,-0.98008 -0.045,-0.19491 1.41267,-0.93488 1.60268,-1.12291 3.30997,-2.09108 4.78585,-3.39033 2.26606,-1.58257 -0.47418,0.30533 1.76325,-1.15729 0.29833,-0.19502 0.57141,-0.4287 0.87871,-0.60927 0.23536,-0.13829 0.50439,-0.21171 0.74328,-0.34381 0.24486,-0.1354 1.26326,-0.82884 1.48804,-0.98024 1.65268,-0.75168 3.11099,-1.83279 4.73751,-2.635 1.99948,-1.26814 -0.27613,0.1238 1.75326,-0.96349 0.84215,-0.4512 1.5709,-1.05204 2.37333,-1.55633 0.22479,-0.14127 0.47133,-0.24455 0.70699,-0.36682 0.64893,-0.47755 1.36618,-0.85151 2.01303,-1.32273 0.66197,-0.48223 1.24892,-1.09564 1.83049,-1.66672 0.37321,-0.38532 0.73079,-0.78594 1.11289,-1.16245 0.19235,-0.18953 0.41529,-0.34796 0.59639,-0.54826 0.57607,-0.63714 1.04688,-1.38309 1.6123,-2.03092 0.49199,-0.78154 0.42638,-0.75662 1.02956,-1.41911 0.14889,-0.16352 0.8069,-0.79376 0.96589,-0.98354 0.15678,-0.18715 0.27014,-0.40897 0.43376,-0.59017 0.13968,-0.15469 0.31384,-0.27436 0.47076,-0.41154 0.15588,-0.21673 0.29378,-0.44761 0.46765,-0.65021 0.53902,-0.62811 0.51387,-0.37486 1.03985,-1.02727 0.18921,-0.2347 0.32285,-0.51036 0.508,-0.74828 0.32284,-0.41485 0.74044,-0.75044 1.03341,-1.19122 0.64473,-0.82339 0.33427,-0.40043 0.93075,-1.26933 0.14674,-0.19368 0.33682,-0.35411 0.46925,-0.55784 0.56843,-0.87442 0.79968,-1.92298 1.31531,-2.8244 1.3354,-2.91823 2.6849,-5.84198 3.62467,-8.91915 1.05058,-3.25416 2.36318,-6.4194 3.29351,-9.71471 0.36446,-0.98824 0.70389,-1.98572 1.07818,-2.97027 0.53567,-1.40906 1.22254,-2.77387 1.53409,-4.2585 0.44801,-1.44904 0.66905,-2.97363 0.61466,-4.48979 0,-1.57773 0,-3.15546 -1e-5,-4.73318 -2e-5,-2.0588 -5e-5,-4.11759 -4e-5,-6.17638 2e-5,-1.88608 -1.1e-4,-3.77216 7.8e-4,-5.65824 9.6e-4,-1.44927 0.003,-2.89854 0.006,-4.34781 0.002,-1.4579 0.009,-2.91609 -0.0272,-4.37368 -0.0592,-1.71604 -0.18571,-3.42898 -0.46795,-5.12464 -0.41294,-2.78411 -0.68802,-5.57276 -0.92731,-8.37686 -0.36479,-3.07714 -0.73708,-6.15303 -1.12419,-9.22653 -0.24507,-1.8432 -0.32568,-3.70642 -0.67873,-5.53665 -0.24011,-1.59004 -0.73536,-3.12023 -0.9827,-4.70935 -0.52701,-2.36885 -1.38617,-4.63385 -2.05264,-6.96444 -0.76377,-2.41148 -1.49353,-4.83359 -2.3221,-7.223929 -0.47957,-1.609835 -0.98172,-3.213732 -1.40507,-4.838736 -0.45326,-1.52753 -0.96224,-3.034171 -1.48315,-4.539764 -0.63544,-1.630155 -1.30039,-3.257874 -2.06785,-4.829655 -0.82034,-1.503262 -1.7667,-2.923084 -2.73857,-4.331481 -0.91589,-1.386435 -1.96406,-2.679936 -2.8222,-4.105922 -1.0966,-1.767754 -2.27045,-3.475046 -3.61325,-5.06963 -1.90232,-2.372376 -4.09312,-4.490176 -6.11151,-6.762093 -1.95611,-1.964375 -3.96976,-3.869195 -5.99334,-5.763802 -2.34004,-2.129676 -4.61847,-4.365713 -7.18733,-6.217989 -1.27692,-0.901777 -2.57196,-1.768558 -3.92859,-2.542513 -1.24895,-0.724266 -2.42136,-1.595805 -3.7216,-2.217838 -1.41819,-0.765288 0.27108,0.09842 -1.1131,-0.469901 -1.01632,-0.417284 -1.97361,-0.995009 -3.01393,-1.362614 -1.60357,-0.608475 -3.19176,-1.23418 -4.76145,-1.927405 -0.43875,-0.08942 -0.8663,-0.233389 -1.30848,-0.30392 -0.20241,-0.03229 -0.41082,-0.005 -0.61411,-0.03114 -0.63637,-0.08195 -1.24482,-0.319448 -1.87891,-0.414377 -1.63109,-0.192101 -3.1693,-0.791138 -4.7984,-0.989484 -1.9116,-0.422428 -3.74793,-1.093389 -5.6515,-1.547894 -0.60783,-0.183515 -1.23092,-0.318874 -1.82881,-0.532531 -0.34738,-0.124135 -0.82286,-0.422147 -1.20701,-0.502465 -1.7092,-0.357363 0.92799,0.441771 -1.11033,-0.221833 -1.27472,-0.513363 -2.5764,-0.962015 -3.88995,-1.36215 -1.57668,-0.6398 -3.17299,-1.149353 -4.82946,-1.549285 -2.25832,-0.521119 -4.50381,-1.099262 -6.77187,-1.577445 -2.84963,-0.636614 -5.68103,-1.351488 -8.52968,-1.990912 -2.77928,-0.574854 -5.55918,-1.152526 -8.35328,-1.647885 -0.84793,-0.05756 -1.72596,-0.219125 -2.57442,-0.227984 -0.42905,-0.0045 -0.85451,0.198036 -0.8751,0.05721 -0.18052,-1.234681 -0.11855,-2.492798 -0.17782,-3.739197 9.56326,-0.537147 19.21855,-9.84e-4 28.81811,0.02053 2.86074,0.04765 5.73713,0.06566 8.57212,0.493164 0.83278,0.161172 1.71381,0.448315 2.56559,0.48873 0.65725,0.03118 1.32977,-0.07239 1.98888,0.01582 7.58022,-0.176434 -15.16815,-0.153456 -22.74663,0.08617 -0.22169,0.007 0.18395,0.410702 0.21208,0.630717 0.0659,0.515478 0.0581,1.037967 0.0677,1.557554 0.0116,0.627775 0.117,0.527921 -0.34132,0.508982 -0.39572,-0.106953 -0.80345,-0.165909 -1.19873,-0.274462 -0.80471,-0.220992 -1.54199,-0.687272 -2.4123,-0.602683 -1.30892,-0.290344 -2.61406,-0.606833 -3.89286,-1.008051 -1.28793,-0.186785 0.21909,-0.01046 -1.12925,-0.02939 -0.85316,-0.01197 -1.69713,-0.250004 -2.54776,-0.297764 -1.38156,-0.06982 -2.77483,0.07385 -4.16024,0.0093 40.48716,-0.0018 28.0167,0.01772 19.28826,-0.01374 -1.46457,0.01537 -2.93731,0.05007 -4.36802,0.399953 -0.24419,0.07182 -0.49281,0.129981 -0.73256,0.215465 -0.24697,0.08806 -0.47209,0.236384 -0.72532,0.304363 -0.22587,0.06063 -0.4653,0.04806 -0.69731,0.07754 -0.72312,0.09186 -1.43934,0.214989 -2.11231,0.510406 -0.24003,0.10444 -0.46833,0.241578 -0.72007,0.31332 -0.21396,0.06098 -0.44315,0.04376 -0.66253,0.0807 -0.79883,0.134525 -1.57543,0.382498 -2.37096,0.523912 -0.17201,0.09222 -0.34904,0.175638 -0.51605,0.276651 -0.19563,0.11833 -0.3575,0.297791 -0.57061,0.38062 -0.18487,0.07185 -0.39574,0.03484 -0.5908,0.0708 -0.62933,0.116003 -1.17675,0.411263 -1.72149,0.73605 -0.61702,0.03566 -1.23135,0.05772 -1.81986,0.271535 -0.20874,0.07584 -0.39656,0.203866 -0.60717,0.274357 -0.45426,0.152042 -0.95048,0.156541 -1.39022,0.363992 -0.92996,0.414428 -0.47325,0.169965 -1.36566,0.741672 -0.21422,0.104174 -0.45859,0.132836 -0.67843,0.224566 -0.22656,0.09453 -0.42539,0.251471 -0.65706,0.332674 -0.4018,0.140837 -0.85783,0.07739 -1.2491,0.267022 -0.20699,0.08323 -0.42007,0.152678 -0.62097,0.249693 -0.22491,0.108609 -0.41712,0.286327 -0.65386,0.365921 -0.22692,0.0763 -0.47615,0.05297 -0.71213,0.09334 -0.73536,0.125823 -1.43692,0.395592 -2.18552,0.446716 -0.46852,0.109112 -1.02559,0.227166 -1.48078,0.381794 -0.25308,0.08597 -0.48571,0.231521 -0.74489,0.296803 -0.69618,0.175349 -1.47978,0.07826 -2.15998,0.365014 -0.24799,0.08316 -0.50052,0.153853 -0.74397,0.249485 -0.26162,0.102769 -0.50026,0.264063 -0.76944,0.345004 -0.25798,0.07757 -0.53402,0.07381 -0.79823,0.126395 -0.87048,0.173229 -1.67866,0.531256 -2.55567,0.677116 -0.6181,0.192294 -1.21227,0.456558 -1.83054,0.648305 -0.29204,0.09057 -0.60179,0.113583 -0.89565,0.198068 -0.9503,0.273213 -1.78148,0.828638 -2.76361,1.004513 -1.44775,0.485975 -0.71985,0.21844 -2.1822,0.806651 -1.46112,0.506316 -2.99318,0.885842 -4.30561,1.74452 -1.62974,0.656731 -3.26661,1.284898 -4.897257,1.929706 -1.377846,0.835624 -0.09283,0.128658 -1.493575,0.706948 -0.25186,0.103979 -0.479877,0.262311 -0.735415,0.35689 -0.697327,0.258092 -1.467779,0.344581 -2.10054,0.784844 -1.421226,0.338112 -2.621042,1.066466 -3.685307,2.058858 -0.205408,0.19481 -0.390878,0.413076 -0.616225,0.58443 -1.353381,1.029109 0.01903,-0.257016 -1.276285,0.792111 -0.581345,0.470853 -1.072955,1.060085 -1.758343,1.404165 -1.222779,1.273223 -2.542393,2.455543 -3.723748,3.772987 -1.579494,1.550453 0.252187,-0.174443 -1.406739,1.171129 -0.986791,0.800396 -1.835995,1.776579 -2.884933,2.506062 -1.316566,0.942111 -2.694795,1.80453 -3.826839,2.982312 -0.673238,0.58101 -0.636785,0.588994 -1.390324,1.07864 -0.230205,0.149586 -0.48228,0.265008 -0.706048,0.424064 -0.250622,0.178144 -0.464122,0.404763 -0.71335,0.584854 -0.470134,0.339717 -1.011531,0.574364 -1.451569,0.959609 -0.71817,0.653533 -0.69694,0.684752 -1.493419,1.215148 -0.980358,0.652847 -2.106917,1.054997 -3.038946,1.790039 -0.425215,0.367819 -1.089602,0.957241 -1.544542,1.292742 -0.792306,0.584294 -0.835334,0.476137 -1.582226,1.13612 -0.269157,0.237838 -0.500635,0.515489 -0.761653,0.762231 -0.235157,0.222294 -0.484136,0.429496 -0.726203,0.644244 -1.226657,1.498323 -2.456372,2.991504 -3.843784,4.347368 -0.557461,0.707317 -1.18511,1.370937 -1.709534,2.103081 -0.189226,0.264177 -0.341011,0.554116 -0.533441,0.815969 -0.358736,0.488159 -0.810493,0.903934 -1.133416,1.420667 -0.381137,0.515909 -0.725311,1.059354 -1.123199,1.562457 -0.725164,0.916921 -1.603125,1.720121 -2.230473,2.717263 -0.932229,1.389971 -2.084282,2.616993 -2.856679,4.114598 -1.04678,2.288275 -1.809334,4.699036 -2.484669,7.118955 -0.749475,2.750993 -1.479115,5.528797 -1.757544,8.37355 -0.193697,1.91708 -0.08317,3.85627 -0.409644,5.76318 -0.49552,2.49519 -1.360252,4.90254 -1.899336,7.38944 -1.015846,3.92686 -1.875406,7.91449 -2.399368,11.93622 -0.11108,1.79422 -0.155399,3.58597 -0.121796,5.38397 10e-7,1.64045 10e-7,3.2809 1.1e-5,4.92134 1.1e-5,1.45286 3.1e-5,2.90571 4.6e-5,4.35857 1e-6,1.46863 3.6e-5,2.93726 -4.8e-4,4.40589 -6.9e-4,1.49008 -0.0018,2.98015 -0.0049,4.47021 -0.0029,1.67061 -0.0094,3.3413 0.01079,5.01183 0.02718,1.41627 0.06648,2.84063 0.356177,4.23263 0.330742,1.47185 0.764139,2.91891 0.965664,4.41772 0.328215,1.46794 0.548867,2.93731 0.710177,4.43205 0.288497,1.41559 0.644465,2.81995 1.113446,4.18718 0.422816,1.48602 0.855068,2.96998 1.243854,4.46495 0.37609,1.36187 0.787346,2.71394 1.124643,4.08598 0.399853,1.12581 0.898572,2.22294 1.385805,3.31167 0.722705,1.242 1.632617,2.37099 2.349803,3.61987 0.891703,1.36166 1.674429,2.79828 2.526163,4.18304 0,0 -23.972431,1.11227 -23.972431,1.11227 z"
   inkscape:connector-curvature="0" /></svg>