<?xml version="1.0" encoding="UTF-8" standalone="no"?>
<svg
   xmlns:dc="http://purl.org/dc/elements/1.1/"
   xmlns:cc="http://creativecommons.org/ns#"
   xmlns:rdf="http://www.w3.org/1999/02/22-rdf-syntax-ns#"
   xmlns:svg="http://www.w3.org/2000/svg"
   xmlns="http://www.w3.org/2000/svg"
   xmlns:sodipodi="http://sodipodi.sourceforge.net/DTD/sodipodi-0.dtd"
   xmlns:inkscape="http://www.inkscape.org/namespaces/inkscape"
   version="1.1"
   style=""
   xml:space="preserve"
   width="286.054"
   height="286.054"
   id="svg73"
   sodipodi:docname="r5c.svg"
   inkscape:version="0.92.4 (5da689c313, 2019-01-14)"><metadata
   id="metadata79"><rdf:RDF><cc:Work
       rdf:about=""><dc:format>image/svg+xml</dc:format><dc:type
         rdf:resource="http://purl.org/dc/dcmitype/StillImage" /><dc:title></dc:title></cc:Work></rdf:RDF></metadata><defs
   id="defs77" /><sodipodi:namedview
   pagecolor="#ffffff"
   bordercolor="#666666"
   borderopacity="1"
   objecttolerance="10"
   gridtolerance="10"
   guidetolerance="10"
   inkscape:pageopacity="0"
   inkscape:pageshadow="2"
   inkscape:window-width="1920"
   inkscape:window-height="1008"
   id="namedview75"
   showgrid="false"
   inkscape:zoom="3.3000764"
   inkscape:cx="178.21781"
   inkscape:cy="596.57149"
   inkscape:window-x="-11"
   inkscape:window-y="-11"
   inkscape:window-maximized="1"
   inkscape:current-layer="svg73" /><rect
   id="backgroundrect"
   width="100%"
   height="100%"
   x="0"
   y="0"
   fill="none"
   stroke="none" />
















<g
   class="currentLayer"
   style=""
   id="g71"><title
     id="title52">Layer 1</title><g
     id="svg_1"
     class=""
     fill-opacity="1"
     fill="#00ff3c">
	<path
   style=""
   d="M143.027,0C64.04,0,0,64.04,0,143.027c0,78.996,64.04,143.027,143.027,143.027   s143.027-64.031,143.027-143.027C286.054,64.04,222.014,0,143.027,0z M143.027,259.236c-64.183,0-116.209-52.026-116.209-116.209   S78.844,26.818,143.027,26.818s116.209,52.026,116.209,116.209S207.21,259.236,143.027,259.236z M149.678,120.849   c-4.613,0-9.395,0.867-13.811,1.716l2.762-18.325h34.63c3.316,0,12.89-1.037,12.89-12.971c0-6.222-4.979-10.888-13.445-10.888   h-44.401c-8.832,0-12.712,2.941-14.365,16.43l-4.604,36.481c-0.188,1.895-0.554,3.629-0.554,5.873   c0,2.941,3.683,8.126,10.861,8.126c9.395,0,11.049-5.703,21.74-5.703c11.424,0,17.691,7.08,17.691,17.458   c0,10.897-6.633,22.643-19.523,22.643c-12.345,0-21.195-11.058-28.561-11.058c-6.812,0-12.515,5.364-12.515,11.755   c0,15.214,27.443,23.17,40.521,23.17c31.859,0,48.817-19.023,48.817-47.896C187.812,137.44,171.972,120.849,149.678,120.849z"
   id="svg_2"
   fill="#00ff3c" />
</g><g
     id="svg_3">
</g><g
     id="svg_4">
</g><g
     id="svg_5">
</g><g
     id="svg_6">
</g><g
     id="svg_7">
</g><g
     id="svg_8">
</g><g
     id="svg_9">
</g><g
     id="svg_10">
</g><g
     id="svg_11">
</g><g
     id="svg_12">
</g><g
     id="svg_13">
</g><g
     id="svg_14">
</g><g
     id="svg_15">
</g><g
     id="svg_16">
</g><g
     id="svg_17">
</g></g><path
   style="fill:#00ff3c;fill-opacity:1;stroke-width:0.30302328"
   d="M 136.91574,258.90567 C 100.27133,257.0465 66.670194,237.83482 46.317426,207.10546 36.227087,191.87069 30.272048,175.81873 27.768606,157.10662 c -0.784686,-5.86518 -0.784686,-22.31599 0,-28.18117 C 31.328469,102.31707 42.434962,79.626652 61.000632,61.032879 72.722385,49.29338 86.2157,40.510656 101.61352,34.598169 c 9.71563,-3.730625 20.50553,-6.234425 30.90838,-7.172301 5.12754,-0.462277 17.30643,-0.386279 22.27221,0.138981 22.7799,2.409563 43.04498,10.754372 61.24458,25.219451 4.25847,3.384639 13.79709,12.926735 17.19686,17.203121 11.99059,15.082302 19.82717,31.671179 23.49462,49.734629 4.34383,21.39487 2.62746,43.56667 -4.93973,63.81079 -4.38101,11.7203 -10.28546,22.10823 -18.30732,32.20878 -3.59261,4.52356 -13.04069,14.00035 -17.4783,17.53142 -6.90085,5.4911 -12.73811,9.27136 -20.15105,13.04999 -18.45649,9.40792 -38.24484,13.63252 -58.93803,12.58264 z m 9.78444,-53.63703 c 6.87877,-0.75204 12.48068,-2.34088 18.0937,-5.13183 4.41754,-2.19652 7.01292,-4.08439 10.62827,-7.73093 4.34253,-4.38 7.52082,-9.64162 9.62748,-15.93821 2.71886,-8.12638 3.62706,-19.06858 2.16871,-26.12895 -3.21319,-15.55604 -15.20894,-26.6652 -31.51516,-29.18591 -3.89569,-0.60221 -10.42674,-0.39197 -15.55773,0.50083 -2.0569,0.3579 -3.80965,0.5809 -3.895,0.49555 -0.0854,-0.0854 0.436,-4.11821 1.15856,-8.9619 l 1.31374,-8.80673 18.03545,-0.005 c 19.65978,-0.006 20.6814,-0.0796 23.68039,-1.71185 2.01767,-1.09815 4.00524,-3.348019 4.85381,-5.494348 0.57041,-1.442791 0.68554,-2.327419 0.69809,-5.364007 0.0134,-3.2476 -0.0612,-3.782033 -0.69847,-4.999884 -0.98293,-1.878544 -2.93359,-3.840335 -4.74093,-4.76798 -3.43846,-1.764847 -2.52424,-1.705922 -28.33268,-1.826195 -24.96154,-0.116327 -28.26631,0.0082 -30.88509,1.163743 -3.4591,1.526341 -5.58835,4.990806 -6.81354,11.086195 -0.87131,4.334806 -5.98572,45.952256 -5.79725,47.173856 0.27423,1.77746 1.18897,3.30871 2.89033,4.83838 2.34295,2.10651 4.2893,2.7529 8.33357,2.76761 3.69853,0.0135 5.76015,-0.50377 9.51277,-2.38657 6.52033,-3.27145 12.64598,-3.97796 18.48742,-2.13228 4.13557,1.30668 6.97324,3.64307 8.88547,7.31582 4.08593,7.84767 1.87225,20.0458 -4.81275,26.51998 -3.44446,3.33583 -7.47693,4.91434 -12.5279,4.90403 -5.19846,-0.0106 -9.43796,-1.52543 -17.31566,-6.18706 -7.30886,-4.32502 -9.79976,-5.18586 -13.22413,-4.57018 -5.18394,0.93203 -9.078854,4.44372 -10.266491,9.25635 -1.003501,4.06647 0.401824,8.35445 4.018201,12.26047 5.14267,5.55455 14.48557,9.93485 26.18226,12.2752 2.08329,0.41683 4.26505,0.81163 4.84837,0.87733 2.3249,0.26183 10.19266,0.19796 12.96619,-0.10527 z"
   id="path81"
   inkscape:connector-curvature="0" /><path
   style="fill:#00ff3c;fill-opacity:1"
   id="path83"
   d="m 20.266735,159.41537 c -0.07923,-1.64748 -0.292092,-3.27401 -0.578814,-4.89739 -0.423728,-2.69062 -1.030926,-5.34649 -1.526473,-8.02383 -0.258944,-1.67086 -0.745562,-3.2913 -1.011623,-4.96133 -0.155206,-1.08509 -0.177062,-2.18168 -0.187777,-3.27575 -0.0039,-1.03506 0.0014,-2.07014 0.004,-3.1052 -0.01198,-1.07118 -0.008,-2.13766 0.08983,-3.20471 0.116402,-1.11181 0.169062,-2.22727 0.283637,-3.33926 0.08871,-1.34584 0.359469,-2.67031 0.658365,-3.98312 0.369405,-1.68603 0.741604,-3.37154 1.119388,-5.0561 0.380737,-1.97678 0.868234,-3.92319 1.50823,-5.83155 0.160043,-0.42637 0.306289,-0.85818 0.480131,-1.27911 0.376846,-0.91248 0.89163,-1.93769 1.300352,-2.83199 0.668397,-1.46249 1.249585,-2.95469 1.831727,-4.45288 1.218474,-3.01045 2.382139,-6.038969 3.523429,-9.079084 0.858548,-2.363123 1.471304,-4.802149 2.111169,-7.230186 0.831131,-2.929849 1.707108,-5.841602 2.744565,-8.705411 1.332257,-3.481506 3.003955,-6.815503 4.587214,-10.18561 0.677998,-1.278239 1.163794,-2.66473 1.937367,-3.893155 0.438201,-0.695859 0.514167,-0.730229 1.052413,-1.328089 1.042553,-1.090471 2.274663,-1.948337 3.512056,-2.796741 1.273811,-0.962712 2.672485,-1.734684 4.001443,-2.61408 1.181468,-0.831098 2.550048,-1.316036 3.837624,-1.949176 1.356241,-0.859166 2.861556,-1.421146 4.332586,-2.044263 1.855613,-0.888492 3.711713,-1.778555 5.56137,-2.680756 1.44612,-0.721103 2.768645,-1.657516 4.208851,-2.38666 1.381134,-0.580905 2.731971,-1.227009 4.102043,-1.831247 1.336189,-0.630306 2.786884,-0.934519 4.158045,-1.47056 1.544146,-0.534496 2.984456,-1.295706 4.390563,-2.118135 2.037332,-1.31278 3.944345,-2.813119 5.823508,-4.339871 1.527114,-1.291198 3.085639,-2.547324 4.715368,-3.707157 0.725692,-0.482801 1.443549,-1.020641 2.243924,-1.379387 0.162988,-0.07306 0.335714,-0.122087 0.503571,-0.18313 0.169638,-0.07614 0.339276,-0.15228 0.508915,-0.228419 1.218548,-0.494947 2.494104,-0.84598 3.751317,-1.235708 1.204497,-0.391363 2.426566,-0.709546 3.622462,-1.124806 0.180739,-0.0555 0.358451,-0.122046 0.542209,-0.166513 0.14599,-0.03533 0.29953,-0.03403 0.44477,-0.07231 0.60628,-0.159819 1.14231,-0.477655 1.75956,-0.618194 1.10905,-0.430168 2.239,-0.792543 3.36119,-1.185955 1.12116,-0.297535 2.20619,-0.716438 3.32821,-1.012613 1.03665,-0.175894 2.07649,-0.351515 3.12066,-0.484507 0.16176,-3.08e-4 0.32453,0.01706 0.48529,-9.24e-4 0.10213,-0.01142 1.11726,-0.236609 1.19379,-0.251764 0.87145,-0.172567 1.7359,-0.368341 2.606,-0.549554 2.5164,-0.600119 5.06307,-1.051886 7.60294,-1.536874 2.28162,-0.455611 4.56339,-0.909307 6.835,-1.412671 2.33495,-0.499629 4.66765,-1.024804 6.9815,-1.615816 1.72715,-0.45949 3.48728,-0.770243 5.2433,-1.093777 1.08905,-0.222739 2.19711,-0.300179 3.30545,-0.339909 6.09243,-0.10999 12.21631,-0.08415 18.28438,-0.0179 0.3194,0.0035 0.79543,0.395357 1.03675,0.527459 0.16695,0.09139 0.34599,0.158759 0.51899,0.238138 0.79759,0.644751 1.6271,0.956012 1.8714,2.066041 0.0474,0.215626 0.0403,0.439728 0.0605,0.659591 -0.15651,1.540193 -0.70922,1.922583 -1.94428,2.646921 -0.92117,0.349154 -1.67615,0.892787 -2.66067,1.081896 -1.53819,0.600219 -3.16809,0.702311 -4.79825,0.807326 -1.63996,0.132764 -3.28068,0.255951 -4.92439,0.331077 -5.69355,0.217043 -14.35061,-1.749564 -17.18748,-2.189749 -0.15123,-0.02347 0.19157,-0.243166 0.3141,-0.334853 0.36323,-0.271808 0.57868,-0.283436 1.00587,-0.394923 1.37355,-0.253005 2.77861,-0.257853 4.17091,-0.278175 6.78857,-0.05193 13.57753,-0.01435 20.36628,-0.0043 1.07103,-0.05108 2.11771,0.02679 3.15099,0.315155 0.57946,0.02918 1.02037,0.395788 1.55838,0.56684 0.16931,0.05383 0.35159,0.06592 0.51617,0.132825 0.66703,0.371991 0.32896,0.211986 1.01187,0.484936 0.69387,0.176779 1.3544,0.443165 2.06818,0.537486 0.17305,0.02287 0.35357,0.0017 0.52126,0.05024 0.17282,0.05 0.32216,0.160258 0.48324,0.240386 0.82673,0.418783 1.77,0.401412 2.67512,0.41664 0.83011,0.4057 1.72921,0.685696 2.64501,0.807872 0.16401,0.08095 0.32324,0.172417 0.49203,0.242864 0.16047,0.06697 0.33529,0.09674 0.49367,0.168528 0.92729,0.420334 0.11456,0.170969 1.02025,0.525559 1.08513,0.424842 -0.10748,-0.161487 1.0209,0.430744 1.15027,0.352295 2.30821,0.673046 3.5077,0.795417 0.51805,0.273366 1.12211,0.308187 1.66487,0.492237 0.19066,0.06466 0.36388,0.172638 0.5491,0.251554 0.16998,0.07243 0.34405,0.134861 0.51607,0.202292 0.17157,0.07467 0.34313,0.149338 0.51469,0.224008 0.32368,0.186199 0.70858,0.142212 1.04936,0.259194 0.18456,0.06335 0.34547,0.182505 0.52505,0.258852 0.85652,0.364156 0.17094,0.02407 1.03956,0.308288 0.19949,0.06527 0.38875,0.15843 0.58312,0.237645 1.36945,0.346372 2.68008,0.861406 4.03609,1.262556 1.74077,0.548701 3.39293,1.325064 5.13821,1.857107 0.61953,0.21892 0.85708,0.321125 1.48242,0.474712 0.21875,0.05372 0.44831,0.06429 0.66203,0.135409 0.20173,0.06713 0.37996,0.191356 0.57489,0.276213 0.39376,0.171408 0.58947,0.222369 0.98918,0.348368 0.15675,0.08942 0.30737,0.190573 0.47026,0.268257 0.49568,0.236398 1.00351,0.418267 1.48411,0.694642 0.43658,0.251061 0.85672,0.529851 1.29093,0.784994 0.26748,0.150025 0.52596,0.317359 0.80244,0.450073 0.61591,0.295645 1.26543,0.515537 1.8945,0.782025 1.12269,0.475592 2.2335,0.975802 3.34291,1.48137 1.00164,0.39201 1.99002,0.806566 2.98012,1.22447 0.26229,0.110712 0.53956,0.186158 0.79566,0.310542 0.42391,0.205891 0.80941,0.482969 1.21647,0.720439 1.34751,0.784869 -0.30511,-0.143526 0.98104,0.47968 0.17229,0.08348 0.32875,0.19667 0.49809,0.285954 0.15525,0.08185 0.32957,0.128874 0.47502,0.227071 0.30083,0.203088 0.54486,0.479889 0.82499,0.710704 0.13829,0.07195 0.28948,0.123243 0.41487,0.21586 0.14485,0.106982 0.25256,0.257143 0.38729,0.376614 0.51777,0.459141 0.88392,0.745548 1.55028,0.952317 0.57684,0.141657 1.20523,-0.01913 1.76338,0.226149 0.83286,0.365992 1.33373,1.148775 1.81547,1.866757 1.22018,2.079816 2.16717,4.303158 3.171,6.491437 1.12999,2.425184 2.3019,4.828632 3.38895,7.273459 0.8395,1.673309 1.67723,3.350604 2.45788,5.051839 0.37926,0.797368 0.68275,1.630966 1.07811,2.420235 0.0806,0.160836 0.18409,0.309106 0.27613,0.463658 0.0873,0.17794 0.17458,0.355879 0.26186,0.533819 0.31516,0.49669 0.39117,1.10154 0.7356,1.582522 0.0845,0.118005 0.21122,0.200194 0.30351,0.31222 0.22182,0.269271 0.41424,0.561754 0.63349,0.83313 0.34171,0.462051 0.78367,0.838717 1.15304,1.275606 0.16749,0.1981 0.30385,0.421576 0.47541,0.616152 0.0771,0.08743 1.10966,1.103259 1.18213,1.174758 0.22777,0.183734 0.46508,0.356225 0.6833,0.551202 0.2508,0.224085 0.47381,0.477846 0.7222,0.704594 1.01753,0.928866 2.09078,1.802229 3.12085,2.718133 1.14032,0.819075 2.07682,1.870873 3.18686,2.731159 0.68099,0.28609 1.15913,0.876571 1.76225,1.28314 1.74974,1.179515 -0.89892,-0.761184 0.82627,0.523232 0.12391,0.129361 0.23519,0.272136 0.37174,0.388082 0.11366,0.09651 0.25292,0.158362 0.37411,0.245236 0.62979,0.451476 0.21059,0.192767 0.86627,0.703521 0.94389,0.735257 -0.0223,-0.106204 0.85652,0.684782 1.05962,0.60158 -0.31888,-0.19756 0.8162,0.519906 0.13468,0.08513 0.29115,0.136066 0.41676,0.234099 0.14175,0.110637 0.23943,0.270112 0.37726,0.385609 0.15133,0.126818 0.59859,0.369586 0.76501,0.463857 0.47854,0.518315 1.27568,0.77038 1.7939,1.22786 0.0256,0.02257 0.99078,1.119116 1.00926,1.140081 0.82959,0.922441 1.72129,1.795765 2.42984,2.822258 0.12621,0.182834 1.00039,1.688608 1.10889,1.874464 0.57008,1.111258 1.25137,2.175088 1.75695,3.319238 0.58236,1.31792 0.002,0.20696 0.58191,1.26587 0.45074,0.8702 0.79004,1.81808 1.01951,2.77215 0.0735,0.72942 0.28926,1.50253 0.2154,2.24152 -0.032,0.3207 -0.0955,0.63748 -0.14324,0.95622 -5.73163,-0.18772 -11.47352,-0.17231 -17.19489,-0.56317 -0.27929,-0.0191 -0.36044,-0.42855 -0.53423,-0.64802 -1.485,-1.87531 -2.91158,-3.79198 -4.41774,-5.65148 -2.07289,-2.66027 -4.08304,-5.369372 -6.07919,-8.087563 -0.57049,-0.719593 -1.15948,-1.433643 -1.697,-2.178445 -0.36817,-0.510142 -0.66298,-1.021916 -1.08072,-1.496236 -0.93253,-1.65002 -1.65325,-3.39485 -2.33203,-5.159766 -0.39859,-0.968304 -0.61903,-1.992116 -0.90733,-2.99393 -0.20481,-0.711677 -0.44393,-1.412112 -0.64212,-2.126385 -0.23129,-0.462301 -0.29146,-0.984221 -0.4523,-1.467548 -0.0411,-0.123368 -0.11371,-0.234051 -0.16308,-0.354329 -0.17163,-0.418091 -0.18774,-0.520849 -0.31699,-0.96673 -0.50207,-0.881408 -0.55338,-1.965217 -1.07995,-2.822995 -0.1991,-0.26705 -0.22974,-0.606813 -0.37367,-0.896977 -0.11558,-0.233006 -0.32153,-0.387472 -0.48298,-0.582936 -0.56593,-0.685159 0.006,-0.09608 -0.55759,-0.648578 -0.14817,-0.248649 -0.40389,-0.71066 -0.77126,-0.710193 -0.0726,9.2e-5 -0.2684,0.09367 -0.19585,0.09502 16.91107,0.314467 16.74559,5.778188 16.7043,-0.394146 0.51855,3.694215 1.33488,7.351073 2.09242,11.003909 1.37946,6.934832 3.27125,13.754644 4.95286,20.620458 1.40723,5.83366 2.931,11.6354 4.19294,17.50335 0.83763,3.37071 1.53546,6.78084 2.44937,10.13218 0.495,2.14212 1.25604,4.21005 1.80064,6.33738 0.44859,1.8098 1.02932,3.57892 1.59285,5.35452 0.16824,0.42117 0.63055,2.71582 1.05826,2.78778 0.0649,0.0109 0.10815,-0.0749 0.16223,-0.1123 -5.57089,-0.14568 -11.13995,-0.46536 -16.71268,-0.43702 -0.17448,8.8e-4 2.2e-4,0.3523 0.0417,0.52178 0.0241,0.0987 0.0854,-0.0598 0.12076,-0.32667 0.0356,-0.2683 0.0428,-0.57823 0.0549,-0.84553 0.32915,-2.09262 0.4166,-4.20955 0.58578,-6.31815 0.0467,-0.62616 0.0817,-1.25331 0.14017,-1.87847 0.0166,-0.17736 0.4895,-4.42786 0.49734,-4.50366 0.26171,-2.5303 0.43872,-5.06165 0.59306,-7.60033 0.24921,-3.42102 0.58345,-6.83516 0.81584,-10.25742 0.1568,-1.22023 -0.0146,-2.3649 -0.62215,-3.43257 -0.40849,-0.37989 -1.00425,-1.42314 -1.46659,-1.65601 -0.2631,-0.13252 -0.48537,0.0253 -0.70705,0.12317 5.50802,0.0384 11.01626,0.1764 16.52408,0.11526 0.11373,-0.001 -0.0646,-0.25011 -0.16829,-0.29681 -0.0909,-0.0409 -0.21183,0.20779 -0.26514,0.58358 -0.0936,0.66003 -0.10494,1.74045 -0.1249,2.33407 0.10526,6.32715 0.44032,12.64614 0.72314,18.96688 0.25172,5.98485 0.6911,11.97974 1.16658,17.95206 0.3762,4.39025 0.61123,8.78998 0.73902,13.19394 0.0665,2.45845 0.0725,4.91788 0.0724,7.37704 -0.001,1.49149 -0.005,2.98298 -0.007,4.47446 0.0788,1.20579 -0.20424,2.33844 -0.58603,3.4675 -0.56755,1.56493 -1.34949,3.05117 -2.13056,4.51946 -1.25779,2.04347 -2.4074,4.14555 -3.50449,6.27865 -1.11238,2.31891 -2.3321,4.57614 -3.68005,6.76569 -0.85972,1.46053 -1.83936,2.8419 -2.82213,4.22008 -0.88097,1.30051 -1.88425,2.49827 -2.91255,3.68236 -1.22332,1.44875 -2.38947,2.94243 -3.52465,4.46065 -1.09901,1.25063 -1.96868,2.66282 -2.86131,4.061 -1.14277,1.98842 -2.34223,3.9416 -3.59706,5.86174 -1.23394,1.81971 -2.45922,3.64384 -3.72074,5.44449 -0.79337,1.04938 -1.54913,2.12816 -2.36328,3.16164 -1.15802,1.67865 -2.41444,3.28583 -3.65207,4.9059 -2.4138,3.3092 -4.70099,6.7065 -6.90814,10.15618 -1.04472,1.67474 -2.03243,3.38203 -3.40472,4.81248 -1.57736,1.60952 -3.46911,2.82754 -5.38988,3.97946 -1.36928,0.77592 -2.77559,1.48892 -4.19128,2.17677 -5.80591,2.70479 -3.01361,0.86699 -17.87914,-0.096 -0.13246,-0.009 -0.4099,-1.52217 -0.43785,-1.6963 -0.18498,-1.32401 0.0915,-2.27538 0.81279,-3.37924 0.57645,-0.81358 1.31197,-1.50372 2.1089,-2.09707 0.44293,-0.48396 0.88701,-0.9675 1.35014,-1.43235 0.0611,-0.0613 0.17882,-0.26626 0.18716,-0.18009 0.0317,0.32664 -0.0732,0.65223 -0.10982,0.97835 5.48333,0.22847 10.96666,0.45695 16.45,0.68543 -0.26473,0.0238 -0.53805,3e-4 -0.79418,0.0713 -0.67558,0.18736 -2.54004,1.07744 -3.03208,1.30365 -3.94192,1.81231 -0.0703,0.0436 -4.06051,1.86244 -2.75217,1.25851 -5.49414,2.5602 -8.38518,3.47156 -3.03998,0.77813 -5.95065,1.96257 -8.87235,3.09031 -7.83344,3.06868 -15.70055,6.05302 -23.60771,8.92645 -2.80204,0.9949 -5.61186,1.96735 -8.45575,2.83594 0,0 -16.82835,-2.18262 -16.82835,-2.18262 v 0 c 2.85606,-0.77625 5.64634,-1.75729 8.44191,-2.72646 7.91637,-2.83156 15.77584,-5.82589 23.60364,-8.89312 2.95327,-1.12263 5.85617,-2.38232 8.89423,-3.26354 2.92683,-0.65122 5.6415,-1.94117 8.35113,-3.19516 1.94167,-0.88206 3.88286,-1.75783 5.80394,-2.68394 0.43528,-0.20983 0.87883,-0.40326 1.30615,-0.62886 0.29363,-0.15502 0.52251,-0.51386 0.85454,-0.51183 5.75572,0.0351 11.50417,0.41496 17.25625,0.62245 0.0412,0.41528 0.14324,0.829 0.12347,1.24586 -0.0245,0.51723 -1.22327,1.42877 -1.55409,1.86309 -0.49026,0.69365 -0.0519,0.15306 -0.61295,0.66526 -0.12549,0.11457 -0.22339,0.25894 -0.35712,0.36377 -0.11479,0.09 -0.26516,0.12645 -0.38114,0.21489 -0.26221,0.19994 -0.43927,0.5006 -0.74393,0.65202 -0.61221,0.76304 -0.97798,0.88175 -0.78353,1.96494 0.0372,0.11018 0.0777,0.33651 0.1863,0.29498 0.0699,-0.0267 0.22013,-0.16943 0.14528,-0.17132 -5.51711,-0.13909 -11.03599,-0.21943 -16.5548,-0.24238 -0.12024,-5e-4 0.1992,0.14427 0.31548,0.17486 0.13461,0.0354 0.27812,0.0119 0.41719,0.0179 0.59337,-0.13577 1.11805,-0.3372 1.65877,-0.62413 0.24169,-0.12825 0.46566,-0.28916 0.71141,-0.40946 0.27508,-0.13466 0.5653,-0.23593 0.84795,-0.3539 0.31274,-0.16101 0.62549,-0.32201 0.93824,-0.48301 1.87004,-1.05309 3.77596,-2.10415 5.35285,-3.58076 0.11873,-0.10298 0.9426,-0.81028 1.06132,-0.94114 0.93609,-1.03181 1.51912,-2.32834 2.315,-3.45802 2.19416,-3.50831 4.53012,-6.92254 6.91701,-10.30216 1.22536,-1.61855 2.51832,-3.19588 3.6504,-4.87993 0.9249,-1.33632 -0.17269,0.20395 0.77742,-0.99697 0.54994,-0.69514 0.98254,-1.47924 1.58411,-2.13677 1.28164,-1.7734 2.4861,-3.59474 3.71825,-5.4034 1.31313,-1.87795 0.22312,-0.26366 1.3952,-2.15395 0.75404,-1.2161 1.57764,-2.38363 2.20012,-3.67811 0.93401,-1.40947 1.71338,-2.935 2.86864,-4.18075 0.57754,-0.75557 1.10724,-1.55531 1.69665,-2.30037 0.60383,-0.7633 1.28705,-1.46827 1.83597,-2.27699 0.40356,-0.46257 0.79141,-0.9391 1.20674,-1.39114 0.16238,-0.17674 0.35185,-0.32801 0.50801,-0.51027 0.43653,-0.5095 0.73116,-1.12371 1.18691,-1.61825 0.96668,-1.35174 1.97025,-2.67437 2.81562,-4.10931 1.33868,-2.14624 2.61624,-4.32308 3.67288,-6.62626 1.0962,-2.15841 2.20369,-4.31289 3.5083,-6.35537 0.15031,-0.24501 0.31375,-0.48244 0.45094,-0.73503 0.30392,-0.55956 0.4393,-1.00328 0.7331,-1.57221 0.31823,-0.61623 0.7291,-1.18945 0.93204,-1.86339 0.0633,-0.20537 0.11738,-0.41385 0.19002,-0.61613 0.11732,-0.32663 0.23521,-0.45239 0.30058,-0.79077 0.0966,-0.49981 0.076,-1.0284 0.0872,-1.53351 0.002,-1.49074 0.006,-2.98148 0.007,-4.47223 3e-5,-2.44268 -0.006,-4.88563 -0.0724,-7.32759 -0.128,-4.37574 -0.36455,-8.74706 -0.73856,-13.10916 -0.47319,-5.99652 -0.91767,-12.00047 -1.16695,-18.01034 -0.28511,-6.36454 -0.62227,-12.72748 -0.72321,-19.0986 0.0281,-0.87359 0.0348,-1.72773 0.12778,-2.59567 0.79736,-7.44087 8.5322,-3.11499 17.70131,-2.28817 0.94358,0.8365 1.71621,1.87953 2.30106,2.99374 0.55017,1.37778 0.82682,2.79984 0.63802,4.28959 -0.22945,3.41853 -0.56247,6.82881 -0.81577,10.24557 -0.15455,2.56681 -0.33044,5.12669 -0.59377,7.68508 -0.15257,1.48221 -0.3564,2.959 -0.49679,4.44241 -0.0595,0.62884 -0.0935,1.25984 -0.14025,1.88976 -0.17103,2.08574 -0.22751,4.18753 -0.58538,6.2532 -0.31843,7.85441 -3.70836,4.07127 -17.37705,2.5109 -0.56941,-1.16641 -0.91847,-2.40107 -1.27842,-3.64597 -0.58033,-1.79936 -1.12678,-3.60776 -1.59528,-5.44002 -0.58229,-2.11617 -1.29247,-4.19713 -1.80057,-6.33447 -0.88605,-3.38668 -1.63618,-6.80974 -2.4513,-10.21372 -1.27102,-5.85003 -2.79113,-11.63727 -4.19188,-17.45663 -1.68942,-6.884501 -3.58142,-13.724994 -4.95423,-20.68205 -0.54477,-2.636648 -0.67328,-3.219786 -1.17128,-5.770333 -0.32525,-1.66582 -0.73464,-3.369322 -0.88834,-5.065038 -0.0276,-0.304659 -0.021,-0.611453 -0.0316,-0.91718 0.0496,-0.412747 -0.26619,-1.211775 0.14868,-1.238241 20.06949,-1.280277 13.35409,-3.976883 18.00625,1.460579 0.58516,0.808864 1.0795,1.646048 1.43999,2.5817 0.37823,1.008316 0.69301,2.039866 1.08805,3.042403 0.32374,0.941623 0.64695,1.881987 0.93376,2.836094 0.48285,1.66256 0.94586,3.334556 1.54424,4.959692 0.63364,1.607917 1.2846,3.253578 2.30608,4.659897 0.89908,1.264351 1.82194,2.509724 2.7813,3.729743 1.9854,2.700535 3.99363,5.386475 6.07438,8.014234 1.2059,1.51208 2.37515,3.05124 3.57293,4.56941 4.47726,5.67483 4.98062,2.22165 -15.23981,1.73504 0.14987,2.16408 0.0114,-0.66761 -0.15212,-1.03913 -0.2669,-0.83975 -0.57187,-1.66705 -1.00723,-2.43641 -0.7046,-1.52199 -1.46296,-3.01743 -2.33224,-4.45381 -0.98733,-1.586895 -2.17651,-3.001229 -3.51324,-4.309023 -0.84073,-0.774877 -1.84873,-1.336402 -2.77145,-2.007656 -0.26375,-0.200661 -0.50836,-0.42656 -0.77946,-0.617177 -0.53912,-0.379076 -1.14001,-0.686156 -1.612,-1.159689 -0.82792,-0.618243 -1.61415,-1.29561 -2.45647,-1.889746 -0.90377,-0.593185 -1.7346,-1.304098 -2.60148,-1.947143 -1.05444,-0.93854 -2.09048,-1.895846 -3.19115,-2.780915 -1.53044,-1.344874 -3.08045,-2.670178 -4.53633,-4.096718 -0.99027,-1.047724 -1.94352,-2.136672 -2.82562,-3.277356 -0.0458,-0.06387 -0.5829,-0.809032 -0.63755,-0.897517 -0.41947,-0.679101 -0.67127,-1.439312 -1.05228,-2.13843 -0.58974,-1.131548 -1.08651,-2.305622 -1.61824,-3.464807 -0.81999,-1.695099 -1.63175,-3.394036 -2.45932,-5.085483 -1.09413,-2.435555 -2.2776,-4.828709 -3.38823,-7.256739 -0.94109,-2.050863 -1.78939,-4.196855 -3.14388,-6.016276 -0.17222,-0.139908 -0.32691,-0.304686 -0.51665,-0.419724 -0.86622,-0.525198 -2.18456,-0.296659 -3.00597,-1.047164 -0.53653,-0.400023 -1.02649,-0.870519 -1.57972,-1.247573 -0.11886,-0.08101 -0.25321,-0.137546 -0.37217,-0.218425 -0.14736,-0.100199 -0.28357,-0.215895 -0.42536,-0.323843 -0.87211,-0.564862 -1.87629,-0.907465 -2.75549,-1.469016 -1.61574,-0.805647 -3.35022,-1.350359 -4.97844,-2.131624 -2.04293,-0.906594 -4.13899,-1.718779 -6.05788,-2.876768 -1.02408,-0.569413 -2.09382,-1.078144 -3.20963,-1.437329 -1.21689,-0.463963 -2.48996,-0.747161 -3.70667,-1.219897 -1.7022,-0.633191 -3.39048,-1.306059 -5.13385,-1.822459 -1.34549,-0.451571 -2.70692,-0.84595 -4.04351,-1.321722 -0.5533,-0.1668 -1.07646,-0.401357 -1.62613,-0.57403 -0.53101,-0.166813 -1.077,-0.287189 -1.57779,-0.546015 -1.04086,-0.364218 -2.10955,-0.669932 -3.20112,-0.835425 -1.21602,-0.305054 -2.43132,-0.659073 -3.56083,-1.210903 -0.98526,-0.366758 -1.92381,-0.90001 -2.98393,-1.026123 -0.84664,-0.262766 -1.71854,-0.627664 -2.61447,-0.593615 -0.94265,-0.156212 -1.82455,-0.45608 -2.72373,-0.768044 -1.07599,-0.121486 -2.0891,-0.582574 -3.09046,-0.972264 -0.97263,-0.402871 -1.99032,-0.703157 -3.03848,-0.816142 -1.03679,-0.05746 -2.07081,-0.03574 -3.10931,-0.03679 -9.42202,-0.01712 21.87,0.01244 13.15692,-0.0055 -1.37843,4.47e-4 -2.75659,0.007 -4.13472,0.03721 -0.43053,0.01722 -0.53965,0.04832 -0.95051,-0.03083 -0.0927,-0.01786 -0.1764,-0.07412 -0.27018,-0.08501 -17.20695,-1.997105 -22.67827,-1.654152 -16.48084,-1.955959 1.63997,-0.05099 3.27969,-0.117632 4.9144,-0.265403 0.98395,-0.08945 1.96291,-0.124119 2.94944,-0.171171 0.39666,-0.01892 0.91116,-0.02268 1.31155,-0.113284 0.1666,-0.0377 0.32447,-0.106915 0.48671,-0.160372 0.16653,-0.06804 0.32496,-0.16095 0.4996,-0.204119 0.14609,-0.03611 0.30088,-0.0139 0.45042,-0.03072 0.61994,-0.06972 1.19688,-0.305993 1.69092,-0.687453 0.15004,-0.03347 0.30305,-0.0557 0.45013,-0.100422 0.27636,-0.08403 0.51619,-0.274045 0.79783,-0.338172 0.0928,-0.02113 0.18936,0.02359 0.28452,0.02358 0.30842,-4.3e-5 0.0883,-0.06065 0.29495,0.0121 -0.16927,-0.190444 -1.14239,-0.703301 -1.36629,-0.803071 -0.14251,-0.0635 -0.29752,-0.09404 -0.44627,-0.141057 -0.52398,-0.172431 -0.45476,-0.202603 -0.98961,-0.183918 -0.16018,0.0056 -0.63857,0.04892 -0.47829,0.0494 27.73333,0.08318 20.97013,0.0223 15.24056,-0.0077 -1.0899,-0.0053 -2.18354,-0.01859 -3.26897,0.0956 -1.75199,0.246411 -3.49189,0.592174 -5.22363,0.950875 -0.80667,0.199228 -1.59941,0.452928 -2.40764,0.645745 -0.39097,0.09327 -0.79207,0.138287 -1.18529,0.221535 -1.14321,0.242025 -2.25204,0.610585 -3.39986,0.831652 -1.05674,0.186813 -2.08134,0.465635 -3.13109,0.682519 -1.23428,0.255014 -2.49205,0.406425 -3.7073,0.75457 -2.53836,0.45037 -5.07138,0.923806 -7.59275,1.462742 -0.33948,0.08554 -0.67894,0.171082 -1.01843,0.256623 -0.29421,0.04885 -0.59179,0.08065 -0.88265,0.146562 -0.24256,0.05496 -0.47227,0.158421 -0.71438,0.215332 -0.57141,0.134313 -1.17909,0.121132 -1.70427,0.42658 -0.68924,0.02463 -1.37479,0.06649 -2.05567,0.184344 -0.17575,0.03042 -0.34744,0.08348 -0.52417,0.107572 -0.17141,0.02337 -0.34523,0.02299 -0.51784,0.03448 -0.54247,0.0484 -1.07482,0.100814 -1.59938,0.258316 -0.38478,0.115534 -0.74097,0.315118 -1.12599,0.429878 -0.18649,0.05559 -0.38254,0.07169 -0.57382,0.107539 -0.40063,0.111479 -0.81861,0.218714 -1.20836,0.3652 -0.2061,0.07747 -0.39808,0.191216 -0.60734,0.259732 -0.18136,0.05938 -0.37645,0.06763 -0.5593,0.122266 -0.33105,0.09891 -0.63327,0.282552 -0.97526,0.351098 -0.15178,0.07779 -0.29461,0.176302 -0.45533,0.233379 -0.27863,0.09896 -0.58626,0.09583 -0.86632,0.19067 -0.38791,0.131358 -0.54774,0.250543 -0.90741,0.459951 -0.16949,0.06294 -0.35554,0.06589 -0.53331,0.09884 -0.5061,0.117192 -0.64286,0.130901 -1.13357,0.318103 -0.19822,0.07562 -0.38256,0.186638 -0.58423,0.252502 -0.62236,0.20326 -1.306,0.233382 -1.9018,0.53201 -0.45302,0.135172 -0.89698,0.300026 -1.3516,0.42971 -0.917,0.261581 -0.28932,-0.0068 -1.20032,0.323986 -0.20412,0.07413 -0.39326,0.189477 -0.60225,0.248516 -0.18766,0.05301 -0.38586,0.05674 -0.57878,0.08512 -0.68387,0.244401 -0.34449,0.09896 -1.01605,0.441177 -0.16903,0.0626 -0.35439,0.06979 -0.52644,0.123537 -0.60418,0.188727 -1.10832,0.559038 -1.67186,0.835134 -1.61576,1.133815 -3.23831,2.268888 -4.70516,3.596907 -0.71782,0.578829 -1.407156,1.192708 -2.130856,1.764173 -0.341794,0.269896 -0.7107,0.503965 -1.05558,0.769907 -0.326433,0.251716 -0.628633,0.534087 -0.9576,0.782482 -0.554099,0.418388 -1.168536,0.753438 -1.696971,1.207873 -1.385549,0.969487 -2.863531,1.813056 -4.428396,2.460359 -0.858713,0.32706 -0.427258,0.144627 -1.29272,0.551171 -0.22457,0.08754 -0.461137,0.140604 -0.690046,0.216071 -0.249007,0.08209 -0.490717,0.187154 -0.743555,0.256558 -0.239078,0.06563 -0.490054,0.08141 -0.728965,0.147648 -0.237477,0.06584 -0.464409,0.165063 -0.696614,0.247594 -0.489322,0.196617 -0.996369,0.352351 -1.47115,0.581867 -0.236815,0.11448 -0.446145,0.280309 -0.68138,0.398002 -0.633189,0.316797 -1.338728,0.462184 -1.947374,0.833129 -0.430789,0.155522 -0.902863,0.312914 -1.314377,0.515747 -0.786768,0.387794 -0.520297,0.339178 -1.308641,0.824237 -0.245431,0.151011 -0.504849,0.278011 -0.757274,0.417017 -0.27188,0.171842 -0.543759,0.343684 -0.815639,0.515526 -1.826442,0.99838 -3.766354,1.759735 -5.573988,2.792291 -1.42881,0.640951 -2.897836,1.170261 -4.3104,1.843391 -1.227875,0.833718 -2.479473,1.28714 -3.829538,1.869944 -2.145002,1.374543 1.054251,-0.688208 -1.276482,0.860565 -0.888948,0.590707 -1.871707,1.029426 -2.718428,1.686639 -1.161754,0.851142 -2.425066,1.552906 -3.488789,2.531658 -0.169422,0.142308 -0.870632,0.716893 -1.023675,0.900302 -0.897706,1.075831 -1.209892,2.5302 -1.928341,3.709159 -1.542592,3.340384 -3.232876,6.615568 -4.581602,10.043231 -1.045831,2.809261 -1.909551,5.670386 -2.739796,8.549578 -0.665997,2.479103 -1.265043,4.97845 -2.116577,7.403901 -0.556206,1.451867 -1.048723,2.927732 -1.623317,4.372409 -0.626476,1.57511 -1.324219,3.12272 -1.900531,4.71812 -0.590878,1.53334 -1.160331,3.07426 -1.836586,4.5729 -0.411322,0.91153 -0.892914,1.79056 -1.295277,2.70608 -0.176146,0.40079 -0.318786,0.81549 -0.478179,1.22323 -0.656771,1.84155 -1.150772,3.72507 -1.503131,5.6488 -0.394904,1.68902 -0.753541,3.38522 -1.119938,5.07983 -0.322386,1.22859 -0.55623,2.4876 -0.654433,3.75381 -0.116782,1.10678 -0.170743,2.2164 -0.283482,3.32358 -0.0999,1.01485 -0.100979,2.02878 -0.08907,3.04836 -0.0026,1.02802 -0.0079,2.05605 -0.004,3.08407 0.01018,1.00651 0.02753,2.01629 0.185478,3.01281 0.2881,1.65321 0.764207,3.26659 1.011038,4.92786 0.505695,2.6832 1.102028,5.34938 1.526896,8.0476 0.279923,1.66424 0.490441,3.33192 0.58044,5.01778 0,0 -16.968461,0.16913 -16.968461,0.16913 z"
   inkscape:connector-curvature="0" /><path
   style="fill:#00ff3c;fill-opacity:1"
   id="path85"
   d="m 176.8017,258.29104 c -0.19095,0 -0.3819,0.002 -0.57284,0 -5.84242,-0.0493 -11.68521,-0.0673 -17.5272,-0.15282 -0.29131,-0.004 -0.5771,-0.0806 -0.86623,-0.11648 -0.85633,-0.10619 -1.71399,-0.18033 -2.57421,-0.24514 -1.36907,-0.1022 -2.74312,-0.0978 -4.11516,-0.0996 -9.44302,0.0134 21.61798,-0.005 13.42348,0.004 -1.03999,0.002 -2.07997,0.003 -3.11995,0.003 -1.17016,-0.007 -2.34072,0.0181 -3.5105,-0.0161 -1.01157,0.0438 -2.01674,0.17209 -3.02684,0.22573 -1.11955,0.22142 -1.96132,1.06576 -2.74997,1.83499 -0.80574,0.851 -1.70156,1.44938 -2.70765,2.02965 -0.47702,0.21777 -0.96638,0.4515 -1.48824,0.5431 -0.14532,0.0255 -0.29604,0.005 -0.44172,0.0283 -0.19728,0.0317 -0.68117,0.18582 -0.87378,0.24442 -0.83311,0.26343 -1.69096,0.40573 -2.54093,0.61119 -0.14285,0.0257 -0.28404,0.0637 -0.42857,0.0771 -0.14326,0.0133 -0.28879,-0.0145 -0.43161,0.003 -0.6165,0.075 -1.36995,0.34478 -1.99618,0.48574 -0.17579,0.0316 -0.34994,0.0744 -0.52739,0.0947 -0.16277,0.0187 -0.32856,7.2e-4 -0.49101,0.022 -0.69165,0.0905 -1.38744,0.33658 -2.06301,0.50747 -5.72935,-0.039 -11.46092,0.0469 -17.18806,-0.117 -0.17026,-0.005 -0.24638,-0.23998 -0.33666,-0.38442 -0.38923,-0.62271 -0.44226,-1.35726 -0.4671,-2.06776 -0.0469,-0.99995 0.3974,-1.88641 0.81303,-2.76337 0.0221,-0.052 0.3425,-0.82306 0.20559,-0.85383 -0.0549,-0.0123 -0.0971,0.0573 -0.14869,0.0797 -0.11586,0.0501 -0.4203,0.14482 -0.52119,0.17749 -0.90173,0.11987 -1.81894,0.10747 -2.72794,0.12371 28.61254,-0.0454 19.79091,-0.0189 13.62098,0.0158 -6.13402,0.03 -5.09155,0.0266 -17.80195,-0.0862 -0.18179,-0.002 -0.3604,-0.0483 -0.54095,-0.0695 -0.52048,-0.0613 -1.03894,-0.0916 -1.56227,-0.11414 -1.03265,-0.0382 -2.06642,-0.0313 -3.09961,-0.0301 -0.77004,0.0875 -0.89967,-0.16525 -1.4659,-0.56862 -0.39795,-0.28349 -0.85903,-0.50148 -1.3015,-0.70342 -1.07275,-0.70341 0.15696,0.0667 -0.93272,-0.50829 -0.17665,-0.0932 -0.33171,-0.22507 -0.51142,-0.31224 -0.6045,-0.29325 -0.52825,-0.14487 -1.16219,-0.37143 -0.21478,-0.0768 -0.41752,-0.18376 -0.62627,-0.27564 -0.56602,-0.23545 -1.15876,-0.3993 -1.74557,-0.57435 -0.1787,-0.0533 -0.36994,-0.0698 -0.53997,-0.14638 -0.171853,-0.0774 -0.309308,-0.21641 -0.472962,-0.30992 -0.140565,-0.0803 -0.291814,-0.14031 -0.437722,-0.21046 -0.43503,-0.14925 -0.895678,-0.21334 -1.352694,-0.2501 -0.155027,-0.0125 -0.316326,0.0209 -0.46611,-0.021 -0.159177,-0.0445 -0.287403,-0.1644 -0.438293,-0.23186 -0.136916,-0.0612 -0.282027,-0.10212 -0.423041,-0.15318 -0.134475,-0.037 -0.274897,-0.0567 -0.403426,-0.11085 -0.127296,-0.0536 -0.231611,-0.15266 -0.357471,-0.20955 -0.477229,-0.21572 -1.057276,-0.17415 -1.567101,-0.1994 -0.15016,-0.002 -0.303574,0.0254 -0.450479,-0.006 -0.174904,-0.0371 -0.328329,-0.14374 -0.499409,-0.19568 -0.953283,-0.28945 -0.161271,0.0823 -1.222629,-0.36022 -1.60341,-0.66853 0.189706,-0.0475 -1.516191,-0.60215 -1.518114,-0.73098 -3.129882,-1.21938 -4.61239,-2.02632 -1.108051,-0.43052 -1.997151,-1.27823 -3.157004,-1.57289 -0.496267,0.0242 -0.765529,-0.37259 -1.208066,-0.51569 -0.12886,-0.0417 -0.275641,-0.0262 -0.397022,-0.0863 -0.144685,-0.0716 -0.249161,-0.20582 -0.381136,-0.29878 -0.110594,-0.0779 -0.230289,-0.14201 -0.345433,-0.21302 -0.09938,-0.0975 -0.18521,-0.21101 -0.298152,-0.29237 -0.799639,-0.57604 0.286534,0.43272 -0.639938,-0.38859 -0.419502,-0.37189 -0.779115,-0.79904 -1.206076,-1.16681 -0.770026,-0.93124 -0.05066,-0.11782 -0.829926,-0.86098 -0.351294,-0.33501 -0.441338,-0.51513 -0.834422,-0.79983 -1.034353,-0.74917 0.140243,0.29212 -0.872582,-0.65711 -0.78229,-0.67987 -1.674147,-1.19813 -2.591039,-1.67788 -0.164752,-0.0563 -0.340026,-0.0881 -0.494256,-0.16886 -1.224913,-0.64152 0.238696,-0.0493 -0.873714,-0.58295 -0.129547,-0.0622 -0.277162,-0.0804 -0.407075,-0.14174 -0.577865,-0.33932 -0.286467,-0.18655 -0.872716,-0.4611 -0.598638,-0.15658 -1.153795,-0.4238 -1.699002,-0.70686 -0.139634,-0.0725 -0.299802,-0.10677 -0.429364,-0.19603 -0.147157,-0.10138 -0.259762,-0.24548 -0.389644,-0.36821 -0.598929,-0.32987 -1.165151,-0.70158 -1.629465,-1.21307 -1.067369,-1.1758 0.217028,0.0532 -0.797308,-0.88541 -0.140615,-0.1073 -0.293263,-0.20045 -0.421844,-0.32192 -0.144618,-0.13661 -0.25653,-0.30446 -0.393734,-0.44852 -0.304164,-0.31935 -0.429432,-0.37669 -0.73421,-0.70245 -0.576964,-0.6167 -0.08149,-0.21939 -0.686648,-0.65204 -0.748339,-0.85007 -1.640325,-1.5165 -2.528153,-2.2059 -0.950179,-0.82511 -2.048345,-1.44995 -3.06746,-2.18187 -1.075338,-0.71189 0.02071,0.061 -0.993853,-0.80854 -0.141587,-0.12136 -0.308847,-0.21009 -0.452241,-0.32931 -0.466669,-0.38797 -0.875927,-0.84156 -1.339402,-1.23544 -0.580518,-0.68987 -1.326277,-1.22176 -1.910901,-1.90559 -0.355207,-0.41549 -0.670494,-0.86352 -1.009405,-1.29241 -0.176405,-0.1963 -0.356329,-0.38949 -0.529215,-0.5889 -0.325372,-0.37529 -0.692728,-0.84771 -1.030678,-1.21297 -0.514971,-0.55659 -1.076402,-1.0658 -1.591496,-1.62338 -0.792229,-1.08973 -0.103927,-0.19635 -0.883658,-1.08504 -0.128941,-0.14696 -0.233481,-0.31551 -0.372125,-0.45336 -0.107939,-0.10731 -0.253525,-0.17133 -0.36278,-0.2773 -0.413454,-0.49534 -0.202316,-0.27614 -0.623633,-0.6669 -0.479426,-0.75799 -0.01793,-0.12642 -0.520563,-0.6167 -0.09052,-0.0883 -0.14752,-0.20992 -0.247148,-0.2878 -0.07659,-0.0599 -0.193182,-0.0529 -0.268036,-0.11489 -0.224328,-0.18585 -0.370971,-0.44932 -0.561184,-0.66996 -0.126678,-0.11255 -0.264342,-0.21383 -0.380034,-0.33765 -0.164759,-0.17632 -0.297512,-0.38051 -0.458773,-0.56004 -0.104203,-0.11601 -1.361952,-1.39898 -1.384863,-1.42302 -0.761545,-0.79907 -1.180748,-1.27525 -1.937992,-2.11323 -1.151088,-1.32941 -2.35109,-2.61456 -3.453212,-3.98604 -0.361486,-0.44983 -0.696785,-0.9203 -1.058439,-1.37 -3.977238,-4.94548 1.684682,2.22101 -1.929695,-2.36951 -1.268162,-1.40832 -2.425731,-2.89335 -3.340853,-4.55467 -0.440238,-0.9615 -0.818335,-1.94182 -1.165065,-2.93893 -0.209796,-0.60822 -0.237152,-1.25538 -0.360177,-1.88029 -0.108885,-0.55308 -0.288975,-1.10012 -0.412064,-1.65144 -0.28422,-0.87953 -0.472441,-1.78743 -0.935011,-2.59469 -0.503931,-1.14673 -0.762537,-2.40104 -0.995356,-3.62934 -0.193113,-1.11304 -0.521459,-2.19137 -0.687135,-3.3127 -0.191997,-0.4707 -0.252357,-0.985 -0.407893,-1.46511 -0.153748,-0.47459 -0.378706,-0.94982 -0.564431,-1.4138 -0.459875,-1.64649 -0.843258,-3.31153 -1.198207,-4.98397 -0.454292,-2.87686 -1.000206,-5.73723 -1.398704,-8.62278 -0.410197,-2.21815 -0.72962,-4.44927 -1.193271,-6.6567 -0.18887,-0.7293 -0.238757,-1.48634 -0.380498,-2.2234 -0.105792,-0.55011 -0.288683,-1.09333 -0.419831,-1.6383 -0.253725,-1.10162 -0.315678,-2.22961 -0.349897,-3.35531 0.139709,-1.69988 1.030628,-3.18859 1.931278,-4.59351 0.60129,-0.79218 1.117468,-1.72955 2.016174,-2.23048 0.173856,-0.0969 0.366569,-0.15523 0.549853,-0.23284 1.523654,-0.39547 3.130593,-0.33909 4.693707,-0.3398 6.057054,-0.003 12.114109,2.4e-4 18.171163,3.6e-4 0.554003,0.0196 1.107953,0.0408 1.662009,0.0589 1.646727,0.0537 2.373869,0.0407 4.050485,0.21116 2.382772,0.24224 4.725571,0.701 7.069935,1.17553 3.514093,0.83029 7.030591,1.72872 10.313053,3.2567 2.108562,0.96601 4.050404,2.2372 5.989061,3.49781 2.412015,1.55432 4.760253,3.20837 7.133166,4.8231 0.816335,0.63422 1.712516,1.1534 2.551388,1.75486 0.435889,0.31253 0.853968,0.64917 1.280952,0.97376 0.459009,0.33569 0.91427,0.67657 1.377027,1.00707 1.289879,0.92124 1.48881,1.03521 2.802671,1.90194 2.691053,1.99291 5.472913,3.85861 8.223084,5.76831 3.5191,2.43297 7.37677,4.31579 11.20701,6.19924 2.20974,0.95988 4.31575,2.20855 6.69788,2.6894 0.32908,0.0429 0.84283,0.12745 1.18357,0.10695 0.1806,-0.0109 0.71581,-0.0913 0.53488,-0.0924 -33.506797,-5.28662 -20.715876,0.55797 -15.34253,-0.031 0.7937,0.096 1.19349,-0.35311 1.44716,-1.04063 0.23578,-0.89514 0.21149,-1.81987 0.12754,-2.73242 -0.0856,-0.5541 -0.13855,-1.18783 -0.30402,-1.72554 -0.0679,-0.22075 -0.20236,-0.41562 -0.28982,-0.62939 -0.64772,-0.61789 0.28696,0.2427 -0.48765,-0.35955 -0.11924,-0.0927 -0.20729,-0.22208 -0.32883,-0.31175 -0.49191,-0.36295 -0.25284,-0.0786 -0.80034,-0.34141 -0.15989,-0.0767 -0.29918,-0.19052 -0.44876,-0.28579 -0.48866,-0.21244 -0.96547,-0.42408 -1.48238,-0.55876 -0.16784,-0.0437 -0.34328,-0.0599 -0.50692,-0.11734 -0.69108,-0.32295 -0.34033,-0.1841 -1.05134,-0.41886 -0.980705,-0.30287 -2.018041,-0.30408 -3.035035,-0.30805 -0.520509,8e-4 -1.041001,0.004 -1.561495,0.007 -0.175819,0.001 -0.703283,0.004 -0.527459,0.004 16.349539,-0.0223 21.732379,-0.21537 15.883559,-0.0107 -0.76902,-0.0433 -0.8429,-0.49402 -1.00889,0.52359 -0.0932,1.00358 -0.0159,2.00913 -0.12796,3.01021 -0.19838,1.05552 -0.31959,2.1218 -0.6275,3.15252 -0.21805,0.86429 -0.54192,1.68368 -0.91897,2.48925 -0.45609,1.10572 -1.03975,2.13982 -1.727,3.11637 -0.52783,0.79387 -1.24897,1.447 -1.78733,2.22955 0.0249,-0.17279 -0.0246,0.004 0.0795,-0.0647 0.0604,-0.04 0.0812,-0.15204 0.15356,-0.15358 0.0857,-0.002 0.83358,0.61895 0.92365,0.68326 0.51516,0.64523 1.20887,1.03747 1.86341,1.50859 0.17837,0.12838 0.34138,0.27685 0.51206,0.41527 0.19557,0.13323 0.39115,0.26646 0.58672,0.3997 1.03144,0.91772 1.98027,1.92828 3.17706,2.63286 1.09616,0.83812 -0.0604,-0.006 1.02186,0.67377 0.15745,0.0989 0.29406,0.22938 0.45428,0.32375 0.39807,0.23448 0.81366,0.3305 1.26362,0.38832 0.35297,0.29726 0.74292,0.42181 1.18694,0.50151 0.13578,0.0244 0.2783,0.0189 0.40902,0.063 0.59351,0.2995 0.28806,0.17491 0.91582,0.37506 0.15425,0.0394 0.3085,0.0787 0.46275,0.11805 0.1606,0.0544 0.31843,0.11788 0.48182,0.16331 0.16404,0.0456 0.33981,0.0488 0.49894,0.10938 0.17728,0.0674 0.32821,0.19138 0.50041,0.27089 0.40907,0.18888 0.57389,0.2091 1.0068,0.31806 0.33773,0.38797 0.94849,0.41872 1.35054,0.66059 0.14436,0.0868 0.243,0.23516 0.37986,0.33341 0.29837,0.21419 0.40353,0.21109 0.7467,0.30545 0.38977,0.22322 0.81762,0.29586 1.25795,0.33935 0.16095,0.0159 0.32743,-0.006 0.48402,0.034 0.17565,0.0454 0.32794,0.15643 0.49789,0.21997 0.16323,0.061 0.33326,0.10204 0.49989,0.15307 0.47852,0.18539 1.02525,0.10852 1.51165,0.2278 0.18439,0.0452 0.35148,0.14394 0.53002,0.20848 0.50989,0.18432 0.48277,0.16064 1.00531,0.27501 1.21074,0.0701 2.39371,0.31045 3.60257,0.41244 0.35733,0.0869 0.73534,-0.0294 1.09332,0.0402 0.18637,0.0363 0.35405,0.13785 0.53458,0.19666 0.51814,0.16876 1.03825,0.24803 1.57655,0.31667 0.92576,0.56343 2.03609,0.49212 3.02911,0.81185 0.27462,0.14567 0.59849,0.0497 0.88178,0.14109 0.16307,0.0526 0.2975,0.17145 0.45437,0.24037 1.71158,0.75197 -0.81087,-0.41693 0.93313,0.26366 0.17178,0.067 0.3217,0.18032 0.48256,0.27048 0.16115,0.0621 0.32837,0.11038 0.48345,0.18639 0.17765,0.0871 0.33746,0.20693 0.51139,0.3012 0.65797,0.35663 1.29145,0.61663 2.02254,0.7745 0.89363,0.42906 1.86415,0.71291 2.45255,1.57801 0.1215,0.17863 0.20746,0.37901 0.31118,0.56852 0.42805,0.98458 0.37008,2.02509 -0.10319,2.97649 -0.17796,0.34899 -0.25863,0.55914 -0.52485,0.86011 -0.19483,0.22027 -0.94219,0.78791 -1.25021,0.79189 -5.75282,0.0743 -11.5066,0.0131 -17.2599,0.0196 -0.16755,-0.10739 -0.32816,-0.22647 -0.50265,-0.32218 -0.16002,-0.0878 -0.34472,-0.12832 -0.49834,-0.22687 -0.16774,-0.1076 -0.29565,-0.26845 -0.45672,-0.3858 -0.13746,-0.10015 -0.29986,-0.16303 -0.43618,-0.26474 -0.29787,-0.22225 -0.56284,-0.48589 -0.85533,-0.71518 -0.15053,-0.0782 -0.31324,-0.13644 -0.45159,-0.2346 -0.15569,-0.11046 -0.27145,-0.27 -0.42308,-0.38597 -0.12908,-0.0987 -0.28515,-0.15802 -0.41534,-0.25527 -0.14603,-0.10907 -0.26277,-0.25443 -0.41031,-0.36144 -0.13025,-0.0945 -0.27923,-0.15996 -0.41885,-0.23993 -0.12807,-0.10174 -0.25614,-0.20347 -0.3842,-0.30521 -0.1271,-0.0585 -0.26303,-0.10075 -0.38128,-0.17554 -0.13904,-0.0879 -0.24629,-0.2203 -0.38485,-0.30898 -0.12427,-0.0795 -0.27097,-0.11845 -0.39861,-0.19246 -0.15302,-0.0887 -0.28645,-0.20922 -0.44137,-0.29458 -0.273,-0.15043 -0.64926,-0.27208 -0.94163,-0.3766 -0.92008,-0.52788 -1.96315,-0.82244 -3.00148,-1.0141 -0.50969,-0.0668 -1.0241,-0.0739 -1.53717,-0.0829 -0.17085,-0.003 -0.34585,0.0301 -0.51258,-0.007 -0.16536,-0.0371 -0.30532,-0.1478 -0.46233,-0.21163 -0.14218,-0.0578 -0.28954,-0.1019 -0.43431,-0.15286 -0.90402,-0.24113 -1.84203,-0.21792 -2.76918,-0.23192 -0.90379,-0.001 -1.80763,2.5e-4 -2.71141,0.008 5.66566,-0.68947 11.33132,-1.37893 16.99698,-2.0684 0.2185,-0.14369 0.31486,-0.25671 0.61039,-0.22297 0.18197,0.0208 0.34908,0.11163 0.52633,0.15774 1.11883,0.29104 -0.008,-0.0758 1.24158,0.36421 1.66777,0.44008 3.34824,0.81596 5.05793,1.05777 1.48029,0.16972 2.97116,0.19666 4.4595,0.20039 0.37853,0.0404 0.76236,-0.0407 1.14102,-0.005 0.30634,0.0289 0.60155,0.13249 0.90612,0.17631 0.39943,0.0575 0.52304,0.0526 0.93657,0.0719 0.17987,0.006 0.36264,-0.0151 0.53961,0.0175 0.40115,0.0741 0.77953,0.24387 1.17755,0.33327 0.36958,0.083 0.75071,0.10879 1.11941,0.19564 0.21737,0.0512 0.4258,0.13486 0.6387,0.20229 0.2104,0.0571 0.42634,0.0966 0.63121,0.17115 0.21865,0.0796 0.41981,0.20141 0.63514,0.28959 0.76038,0.3114 1.55491,0.48468 2.36543,0.59644 0.33716,0.16675 0.7402,0.0986 1.08459,0.23335 0.16867,0.066 0.30352,0.19855 0.46311,0.2842 1.45037,0.77836 -0.56323,-0.34216 0.8637,0.31235 0.15775,0.0724 0.29164,0.18823 0.43746,0.28235 0.92831,0.3818 1.90123,0.63649 2.90165,0.72763 0.96053,0.48403 2.03317,0.58024 3.09033,0.63517 1.01843,0.0321 2.03745,0.0195 3.05616,0.0134 -28.39797,3.56133 -19.85458,-0.0464 -13.69601,-0.17605 0.41698,-0.0843 0.83963,1.9e-4 1.24579,-0.15267 0.48575,-0.18282 0.97138,-0.49979 1.41906,-0.7588 0.47533,-0.139 0.8346,-0.48988 1.26278,-0.71767 0.10882,-0.0579 0.23431,-0.081 0.34145,-0.14189 1.54235,-0.87709 -0.61942,0.24134 0.65801,-0.40835 0.28061,-0.3033 0.62732,-0.515 0.95807,-0.7505 0.11197,-0.0797 0.20344,-0.18736 0.32039,-0.25956 0.85463,-0.52765 -0.42918,0.46562 0.58677,-0.36243 0.12258,-0.0955 0.23433,-0.20687 0.36773,-0.28657 0.10108,-0.0604 0.22396,-0.0756 0.32863,-0.12947 0.5059,-0.26053 0.90793,-0.64514 1.44124,-0.85881 0.27054,-0.11732 0.47298,-0.34078 0.72602,-0.48429 0.10177,-0.0577 0.22368,-0.0736 0.32569,-0.13085 0.40176,-0.22564 0.73253,-0.51738 1.1524,-0.7212 0.14479,-0.074 0.28715,-0.15302 0.43438,-0.22206 0.15519,-0.0728 0.30911,-0.15098 0.47239,-0.20313 0.35442,-0.11321 0.78521,-0.0872 1.10262,-0.31639 0.12537,-0.0905 0.22013,-0.21721 0.3302,-0.32581 0.84771,-0.71428 1.52267,-1.56939 2.17752,-2.45786 0.83315,-1.18814 1.51405,-2.46847 2.16387,-3.76246 0.51242,-0.90466 0.92795,-1.86053 1.31855,-2.82281 0.50326,-1.01705 0.81614,-2.10153 1.15423,-3.17974 0.31925,-1.14973 0.72303,-2.27315 1.07632,-3.41286 0.19206,-0.92162 0.62795,-1.75981 0.83828,-2.67447 0.11219,-1.03454 0.33699,-2.04623 0.62509,-3.04521 0.37294,-0.97379 0.57031,-1.99406 0.78057,-3.01105 0.12408,-1.05051 0.42182,-2.06465 0.64278,-3.09609 0.10127,-0.98091 0.35204,-1.92279 0.65394,-2.85828 0.30505,-0.95423 0.80591,-1.82211 1.26418,-2.70681 0.5948,-1.08697 1.06792,-2.23791 1.50411,-3.39639 0.34934,-0.94167 0.41675,-1.94141 0.45823,-2.93483 0.0265,-1.0098 0.0177,-2.02011 0.0142,-3.03013 -0.004,-1.03984 -0.005,-2.07968 -0.006,-3.11952 -0.0864,-0.97353 -0.19663,-1.9691 -0.50066,-2.9009 -0.0524,-0.16005 -0.0851,-0.32796 -0.15717,-0.48015 -0.0524,-0.11056 -0.14799,-0.19532 -0.21216,-0.29947 -0.31659,-0.51383 -0.49723,-1.10282 -0.90601,-1.54752 -0.0789,-0.13013 -0.13938,-0.27339 -0.23668,-0.3904 -0.0731,-0.088 -0.19059,-0.13046 -0.26714,-0.21548 -0.10187,-0.11315 -0.17156,-0.25171 -0.26307,-0.3734 -0.30775,-0.40922 -0.5841,-0.80725 -0.84798,-1.24778 -0.39431,-0.42548 -0.57097,-0.97903 -0.84894,-1.47027 -0.0731,-0.12917 -0.18469,-0.23313 -0.26371,-0.35876 -0.0894,-0.14214 -0.41506,-0.7765 -0.4906,-0.92189 -0.43215,-0.97369 0.0186,-0.0776 -0.45096,-0.76364 -0.34038,-0.49735 -0.10842,-0.312 -0.49716,-0.77543 -0.0986,-0.11755 -0.21518,-0.21878 -0.32277,-0.32818 -0.11802,-0.14109 -0.23603,-0.28219 -0.35405,-0.42328 -0.38015,-0.49881 -0.89529,-0.85953 -1.2898,-1.34594 -0.147,-0.18124 -0.25773,-0.39006 -0.40535,-0.57081 -1.12841,-1.38172 0.344,0.62223 -0.75136,-0.90615 -0.0965,-0.16401 -0.17713,-0.33838 -0.28935,-0.49204 -0.77813,-1.06549 0.23539,0.59026 -0.54755,-0.70541 -0.24129,-0.3993 -0.38493,-0.80478 -0.70339,-1.14694 -0.5507,-0.8918 -1.14561,-1.74192 -1.54824,-2.71468 -0.29047,-0.4015 -0.36315,-0.90458 -0.55901,-1.34365 -0.0431,-0.0966 -0.12839,-0.16897 -0.18009,-0.26123 -0.13847,-0.24714 -0.23609,-0.52472 -0.33855,-0.78725 -0.21104,-0.37842 -0.40618,-0.76605 -0.59788,-1.15409 -0.0716,-0.14494 -0.10759,-0.3071 -0.18979,-0.4463 -0.12181,-0.20627 -0.30538,-0.36979 -0.44324,-0.5657 -0.0847,-0.0445 -0.18294,-0.0696 -0.2541,-0.13361 -0.10259,-0.0922 -0.16817,-0.21883 -0.25609,-0.32515 -0.41233,-0.49858 -0.82336,-0.97067 -1.3572,-1.33784 -0.19492,-0.21091 -0.50342,-0.57275 -0.75237,-0.74296 -0.11454,-0.0783 -0.26197,-0.10076 -0.3742,-0.18236 -0.13274,-0.0965 -0.22144,-0.24457 -0.3512,-0.34505 -0.21974,-0.17016 -0.47865,-0.28302 -0.71081,-0.4358 -0.12643,-0.0429 -0.24964,-0.0969 -0.3793,-0.1287 -0.13671,-0.0336 -0.28314,-0.0232 -0.41697,-0.0668 -0.16574,-0.054 -0.31261,-0.15473 -0.47293,-0.22314 -0.15407,-0.0657 -0.31911,-0.10537 -0.46955,-0.17904 -1.51462,-0.74177 0.50793,0.11991 -1.00158,-0.50195 -0.50645,-0.16116 -0.98383,-0.37778 -1.50717,-0.48341 -0.17504,-0.0353 -0.35871,-0.0298 -0.52929,-0.0827 -0.18471,-0.0572 -0.34666,-0.17235 -0.5262,-0.24415 -0.16925,-0.0677 -0.34569,-0.11576 -0.51854,-0.17364 -1.00824,-0.28605 -2.05405,-0.28307 -3.09209,-0.29865 -6.16431,0.0306 -14.9335,0.012 13.68491,0.0117 -1.03831,0.001 -2.07661,0.005 -3.11491,0.006 -1.0351,-0.0785 -2.05867,0.0818 -3.08965,0.13964 -0.69434,0.0614 -1.37591,0.24811 -2.07112,0.29981 -1.00018,0.0744 0.0337,-0.0964 -0.98569,0.10292 -1.06747,0.21919 -2.1111,0.52006 -3.09559,0.9933 -0.96937,0.49659 -1.98363,0.87441 -2.90457,1.46002 -6.20534,3.08772 16.92763,1.60529 -17.65646,0.56973 -0.20299,-0.006 -0.18051,-1.57069 -0.1745,-1.769 0.25437,-1.21623 0.62525,-2.40945 0.99414,-3.59614 0.43225,-1.48558 0.93464,-2.94346 1.53014,-4.37128 0.67338,-1.53728 1.27694,-3.10281 1.97412,-4.63002 0.51916,-0.87313 0.83911,-1.80231 1.11976,-2.76914 0.3306,-0.77718 0.48171,-1.59187 0.5604,-2.42711 0.0669,-0.99521 0.0611,-1.99358 0.0618,-2.99053 0.0404,-1.10545 0.42689,-2.08507 0.98834,-3.018083 34.35072,-0.657621 13.98306,-5.463694 17.35574,0.275182 0.077,0.131053 0.19777,0.231926 0.2813,0.358932 0.30491,0.463669 0.53496,0.974999 0.8343,1.444139 0.26365,0.53369 0.62806,1.00537 0.92998,1.5164 0.10423,0.17641 0.183,0.36812 0.29846,0.5374 0.13335,0.1955 0.50974,0.55591 0.67098,0.71725 0.38231,0.50286 0.94196,1.17574 1.46132,1.54178 0.13327,0.0939 0.28554,0.15747 0.42831,0.23621 0.14712,0.11557 0.29424,0.23115 0.44137,0.34673 0.58084,0.32833 1.26855,0.54319 1.94245,0.55792 0.17332,0.004 0.66819,-0.0919 0.83862,-0.122 -5.47065,0.0101 -10.94158,-0.0246 -16.41197,0.0302 -0.0972,9.7e-4 0.17191,0.0912 0.26043,0.13146 0.0631,0.0287 0.12475,0.079 0.19401,0.0752 0.18913,-0.0102 0.4163,-0.64249 0.50267,-0.80808 0.39535,-0.80269 0.69662,-1.65155 1.27348,-2.3471 0.65957,-0.99759 1.16937,-1.30172 2.27765,-1.66119 5.75719,0.0291 11.51475,0.0162 17.27158,0.0872 0.58848,0.007 0.97529,0.51138 1.37145,0.86005 0.14208,0.12505 0.29283,0.2399 0.43925,0.35985 0.156,0.13819 0.31199,0.27638 0.46799,0.41457 0.87367,0.96345 1.6528,1.80704 2.91055,2.23175 0.48037,0.15657 0.98161,0.17805 1.48193,0.18834 0.17532,0.004 0.70141,0.004 0.52606,0.003 -16.4146,-0.0703 -21.73856,-0.22755 -15.88721,-0.0584 0.63963,0.16234 1.02645,-0.31075 1.48006,-0.68412 0.31402,-0.25848 0.62363,-0.52258 0.94506,-0.77177 0.52322,-0.40562 1.05893,-0.79486 1.58839,-1.19229 3.74957,-2.75323 7.59418,-5.372864 11.48164,-7.926434 6.53605,-4.281784 4.91191,-2.245948 19.60871,-1.706341 0.28891,0.01061 0.20403,0.54644 0.2409,0.833183 0.0418,0.324948 -0.005,0.655227 -0.007,0.982841 -0.22557,1.164627 -1.05427,1.94118 -1.88661,2.713022 -0.6775,0.743504 -1.50892,1.316627 -2.24078,2.000299 -0.15152,0.14155 -1.07837,1.07314 -1.22193,1.21703 -1.1785,1.09823 -2.28518,2.27601 -3.48513,3.35069 -5.19832,4.38032 5.90221,1.70441 -17.76776,0.23249 -0.17994,-0.0112 -0.29945,-1.62393 -0.30639,-1.78995 0.0177,-1.18286 0.11874,-2.348 0.43174,-3.48967 0.64168,-1.730672 1.53679,-3.354055 2.38179,-4.991306 0.70853,-1.159509 1.35871,-2.325283 1.81539,-3.605516 0.34681,-0.884691 0.88047,-1.689852 1.63754,-2.271291 0.83753,-0.84496 1.91646,-1.415387 2.99268,-1.902409 0.75584,-0.393628 1.60073,-0.393279 2.40553,-0.591645 0.20427,0.327078 -0.17979,-0.420463 -0.28154,-0.514794 -0.0504,-0.04672 -0.13073,-0.04243 -0.1961,-0.06364 -0.072,-0.098 -0.14408,-0.196009 -0.21612,-0.294013 -0.0857,-0.0437 -0.18589,-0.06638 -0.25703,-0.1311 -0.77923,-0.708894 0.20139,-0.0254 -0.52345,-0.577458 -0.36669,-0.279275 -0.72679,-0.535307 -1.07784,-0.840522 -0.14377,-0.10308 -0.30012,-0.190554 -0.4313,-0.309239 -0.14622,-0.132295 -0.25177,-0.30502 -0.39611,-0.439363 -0.37296,-0.347129 -0.40195,-0.249341 -0.80586,-0.554391 -0.9476,-0.715653 0.0964,-0.0674 -0.86025,-0.627398 -0.3,-0.442699 -0.76743,-0.591112 -1.19454,-0.852424 -0.51106,-0.312669 -0.42721,-0.350189 -1.05202,-0.424054 -0.0196,-5.85e-4 -0.8226,-0.02367 -0.83498,-0.02751 -0.1482,-0.04598 -0.25982,-0.171183 -0.39899,-0.23983 -0.37994,-0.187416 -0.79438,-0.23057 -1.2067,-0.293365 -0.96492,-0.06246 -1.93341,-0.05255 -2.89995,-0.04857 -9.00042,0.03272 21.79527,-0.0034 13.71004,0.0086 -1.00936,-0.02088 -2.02254,0.04919 -3.02972,-0.02898 -0.91892,0.06463 -1.83029,0.201063 -2.75004,0.267829 -1.00135,0.05952 -2.00475,0.06508 -3.00753,0.07002 -6.62433,0.01684 -13.24869,0.0018 -19.87303,-6.04e-4 -0.1736,-3.7e-5 -0.3472,-7.3e-5 -0.5208,-1.1e-4 5.43528,-0.0095 10.87055,-0.02663 16.30584,-0.02856 0.15001,-5.3e-5 -0.29987,0.01154 -0.44944,0.02295 -0.44685,0.03408 -0.89179,0.104606 -1.33653,0.158296 -0.14675,-0.0049 -0.29395,-0.02736 -0.44025,-0.01481 -0.25309,0.02171 -0.72687,0.164106 -0.96422,0.22587 -0.49734,0.129421 -0.97241,0.237745 -1.48345,0.293345 -1.02168,0.322773 -2.06789,0.513166 -3.11409,0.725008 -0.51051,0.165061 -1.04853,0.155752 -1.57069,0.228588 -0.5238,0.07307 -1.04529,0.257046 -1.55723,0.386161 -1.0658,0.197198 -2.10822,0.53659 -3.11763,0.931555 -1.14307,0.400671 -2.3584,0.613085 -3.56081,0.748598 -1.46956,0.348717 -2.93159,0.72563 -4.41085,1.031947 -1.42728,0.221474 -2.81844,0.61136 -4.24491,0.838546 -6.23629,0.822485 -2.24071,0.320167 -17.90157,0.135091 -0.19307,-0.0023 -0.3411,-0.18105 -0.51212,-0.270679 -0.65361,-0.342539 -0.71012,-0.476501 -1.09902,-1.092775 -0.44168,-1.042591 -0.58041,-2.174604 -0.47581,-3.294737 0.31624,-1.315531 0.81993,-1.934155 2.12008,-2.300461 6.55651,-0.810586 13.22638,-0.253483 19.82718,-0.178037 1.04303,0.0097 2.08612,0.01081 3.12919,0.01158 0.16917,9.1e-5 0.33834,1.41e-4 0.5075,2.71e-4 0.12119,9.3e-5 0.24237,1.67e-4 0.36355,4e-4 0.0669,1.3e-4 0.20329,-0.06139 0.20071,0.0055 -0.10566,2.734282 0.75352,2.646161 -0.3872,2.648404 -6.50234,0.002 -13.00468,9.6e-5 -19.50702,-2.8e-5 -6.30823,7.49e-4 10.49069,-0.02494 15.73605,-0.02348 0.16934,4.7e-5 -0.33842,0.01485 -0.50726,0.02785 -0.52766,0.04061 -1.03934,0.107657 -1.56937,0.113262 -1.02374,0.195571 -2.0141,0.529582 -3.05694,0.613464 -0.44762,0.03282 -0.88145,0.208265 -1.32741,0.245508 -0.12399,0.01035 -0.24921,-0.03117 -0.37287,-0.01733 -0.25734,0.02881 -0.50302,0.124284 -0.75741,0.172678 -0.59932,0.269705 -1.15305,0.645073 -1.75851,0.901043 -0.15721,0.06646 -0.32273,0.111256 -0.4841,0.166885 -0.17318,0.07464 -0.34636,0.149282 -0.51954,0.223923 -1.01939,0.404589 -2.06783,0.739649 -3.07624,1.171784 -0.68255,0.294745 -1.39397,0.54503 -2.1189,0.714944 -1.00152,0.234743 0.0665,-0.104924 -0.87626,0.217896 -0.81115,0.136545 -0.92326,0.417922 -1.0406,1.186318 -0.0814,0.974701 -0.0604,1.954734 -0.0546,2.931878 0.0939,1.1887 -0.14217,2.32099 -0.52898,3.436796 -0.33145,1.04538 -0.75944,2.056152 -1.11826,3.090887 -0.35017,1.22454 -0.90464,2.374012 -1.31072,3.578114 -0.38084,1.27441 -0.60651,2.59023 -0.88535,3.89071 -0.15506,1.18658 -0.49262,2.33365 -0.73743,3.50187 -0.18207,1.00569 -0.37063,2.00813 -0.46951,3.02595 -0.0203,0.96743 -0.35346,1.8836 -0.52961,2.82663 -0.14356,0.92336 -0.15142,1.86037 -0.16282,2.79261 0.017,1.08276 -0.28423,2.13544 -0.44213,3.20029 -0.28816,1.1415 -0.52887,2.28381 -0.6592,3.4548 -0.10192,1.07651 -0.10935,2.15846 -0.11532,3.23878 -0.002,1.02879 0.001,2.05758 0.003,3.08637 -0.0129,1.01458 -0.0115,2.02346 0.0879,3.03332 0.0804,0.96209 0.44615,1.89033 0.93808,2.71546 0.42974,0.92161 -0.0267,0.0646 0.44728,0.70001 0.0896,0.12012 0.13867,0.26864 0.23573,0.38283 0.0731,0.086 0.18446,0.13122 0.26678,0.20839 0.55543,0.52074 -0.0268,0.0838 0.51389,0.46402 0.73453,1.1112 -0.19654,-0.19136 0.48422,0.51118 0.10045,0.10366 0.14612,0.25241 0.24686,0.3558 0.0748,0.0768 0.18805,0.10552 0.26998,0.17462 0.20542,0.17327 0.37195,0.388 0.55846,0.58147 1.12775,1.4368 -0.56306,-0.75892 0.60738,0.91757 0.55757,0.79864 0.0615,-0.14001 0.58948,0.72306 0.4861,0.79469 -0.009,0.20177 0.49661,0.75661 0.24385,0.20038 0.32707,0.51812 0.52493,0.75067 0.0754,0.0886 0.19467,0.13163 0.27284,0.21785 0.32699,0.36063 0.59864,0.81541 0.83641,1.23582 0.0891,0.12502 0.18362,0.2463 0.26719,0.37505 0.0839,0.12928 0.1376,0.27873 0.23483,0.39832 0.0681,0.0838 0.16888,0.13448 0.25316,0.20192 0.10337,0.0827 0.19659,0.17986 0.30979,0.24849 0.11426,0.0693 0.25724,0.0852 0.36678,0.16167 0.13886,0.097 0.2449,0.23399 0.36735,0.35099 0.37938,0.19588 0.54155,0.59646 0.95706,0.73074 0.10931,0.0353 0.23756,0.003 0.34029,0.0545 0.13227,0.0662 0.22023,0.19827 0.33952,0.28574 0.10015,0.0734 0.21137,0.13043 0.31706,0.19564 0.82303,0.18755 1.69108,0.14437 2.5324,0.14009 0.1616,-4.4e-4 0.3232,-3.7e-4 0.4848,-10e-4 0.33625,-0.002 0.67249,-0.006 1.00875,-0.009 0.16593,-0.001 0.66375,-0.004 0.49781,-0.004 -16.38111,0.0183 -21.68239,0.32879 -15.7524,-0.008 0.69061,-0.081 1.39375,-0.0923 2.07827,-0.22301 0.0926,-0.0177 0.90999,-0.25156 1.00217,-0.2777 1.04659,-0.44844 2.07477,-0.9371 3.12182,-1.38225 1.04255,-0.52237 2.0234,-1.16257 3.08772,-1.64009 0.4683,-0.28575 0.98867,-0.45356 1.4861,-0.66883 0.44564,-0.19286 0.87454,-0.45851 1.30808,-0.67817 0.12703,-0.0396 0.25626,-0.0727 0.38109,-0.11881 0.41527,-0.15331 0.80332,-0.36474 1.23931,-0.46252 2.04873,-0.45949 -1.21917,0.36509 1.07635,-0.22772 1.11782,-0.32657 2.26317,-0.50438 3.42013,-0.61027 6.61243,-0.30877 13.32348,-0.0827 19.88243,-0.0828 0.82432,-0.0651 0.84734,0.12718 1.40665,0.60832 0.1159,0.0997 0.26343,0.16073 0.37173,0.26864 0.0349,0.0347 0.57803,0.76114 0.62412,0.82255 0.48775,0.55087 0.91652,1.17924 1.46217,1.6775 0.29177,0.26645 0.6274,0.48054 0.93721,0.72578 1.12037,0.80584 2.0161,1.82585 2.88137,2.88676 0.44945,0.50629 0.89177,1.0016 1.3238,1.52189 0.40266,0.48492 0.40219,0.36804 0.71465,0.93273 0.0996,0.17995 0.17282,0.37326 0.25923,0.55989 0.5843,0.74351 0.9859,1.59837 1.53318,2.36575 0.62671,1.03135 0.87314,2.19889 1.02247,3.37938 0.10331,1.06402 0.0977,2.13441 0.0974,3.20223 -0.003,1.0332 -0.008,2.0664 -0.01,3.0996 0.0391,0.99323 -0.0584,1.9799 -0.22238,2.95805 -0.29126,1.32252 -1.14343,2.3647 -2.0082,3.36295 -0.84467,0.94968 -1.63069,1.9412 -2.5083,2.86131 -0.79988,0.77468 -1.54304,1.62571 -2.23265,2.50106 -0.84961,1.0733 -1.76793,2.0878 -2.57707,3.19317 -0.6191,0.83573 -1.39195,1.53268 -2.17244,2.21458 -0.94306,0.8797 -1.90683,1.72597 -2.96926,2.45975 -1.00094,0.70438 -2.14009,1.18628 -3.25147,1.69261 -0.64689,0.22569 -1.34769,0.49086 -2.04574,0.49397 -17.02977,0.0759 -11.59077,1.08322 -17.66426,-0.0738 -0.14597,-0.0924 -0.29899,-0.17439 -0.4379,-0.27705 -0.15688,-0.11594 -0.28737,-0.26568 -0.44739,-0.37724 -0.0526,-0.0367 -0.90307,-0.49504 -0.94456,-0.51542 -0.15656,-0.0769 -0.33118,-0.11857 -0.47828,-0.21231 -0.15901,-0.10133 -0.28706,-0.24456 -0.43059,-0.36684 -0.4234,-0.2658 -0.86088,-0.52436 -1.26902,-0.81265 -0.52522,-0.37099 -0.48243,-0.43223 -1.13421,-0.57525 -0.29554,-0.36832 -0.73263,-0.39863 -1.12213,-0.58569 -0.14362,-0.069 -0.26353,-0.18112 -0.40649,-0.25144 -1.14784,-0.56459 0.28095,0.2778 -0.8445,-0.41434 -1.21682,-0.58476 0.55092,0.29166 -0.76996,-0.4644 -0.1315,-0.0753 -0.29086,-0.0968 -0.4171,-0.18062 -0.14884,-0.0988 -0.2594,-0.24607 -0.39719,-0.35974 -0.59059,-0.48716 -0.16761,-0.009 -0.67598,-0.68305 -0.39019,-0.39314 -0.96568,-0.41958 -1.44872,-0.6329 -0.33716,-0.1489 -0.63591,-0.38849 -0.93187,-0.60033 -0.97785,-0.60822 -2.05544,-0.99837 -3.03259,-1.60984 -0.85639,-0.36826 -1.58332,-0.9676 -2.43381,-1.34752 0,0 16.87115,-1.82253 16.87115,-1.82253 v 0 c 0.78921,0.49745 1.61961,0.91902 2.4361,1.36877 1.04047,0.50433 2.0622,1.03845 3.03797,1.66106 0.89548,0.42388 1.77166,0.82231 2.41576,1.61427 0.7355,0.41114 1.44866,0.85266 2.21483,1.21077 0.4187,0.17839 0.83548,0.37736 1.24155,0.58146 0.26543,0.13342 0.49859,0.32552 0.76419,0.4586 0.11453,0.0574 0.23938,0.0913 0.35907,0.13693 0.79718,0.55857 1.59295,1.11358 2.42774,1.61695 0.47718,0.20343 0.91958,0.45688 1.38096,0.69327 0.15051,0.0771 0.29332,0.17375 0.45403,0.2264 0.30006,0.0983 0.50148,0.047 0.80249,0.0167 5.86948,-0.0799 0.66222,-0.007 -15.89731,0.037 -0.53741,0.001 2.54088,-0.0291 1.98809,-0.0787 0.52244,-0.10011 1.00679,-0.24242 1.48522,-0.48427 0.18993,-0.096 0.35761,-0.2348 0.55312,-0.3189 0.37651,-0.16197 0.81201,-0.16513 1.15945,-0.40937 1.03018,-0.697 2.1226,-1.32103 2.95184,-2.2698 0.28191,-0.24033 0.57838,-0.46335 0.85786,-0.7065 0.0901,-0.0784 0.56903,-0.55595 0.68075,-0.64406 0.0959,-0.0756 0.21972,-0.11371 0.30872,-0.19737 0.11749,-0.11044 0.20179,-0.25156 0.30269,-0.37734 0.72142,-0.76843 -0.0476,0.0942 0.6984,-0.91427 0.5767,-0.77957 1.23311,-1.49605 1.87485,-2.22199 0.29358,-0.39309 0.54856,-0.81597 0.86527,-1.19067 0.11772,-0.13927 0.2728,-0.24265 0.39893,-0.37435 0.36161,-0.37762 0.66078,-0.81179 0.98918,-1.21689 0.39106,-0.31875 0.87423,-0.74907 1.2139,-1.11582 0.46587,-0.50303 0.7936,-1.12323 1.28359,-1.6069 0.71692,-0.7482 1.49598,-1.49272 1.96495,-2.42871 0.18906,-0.86809 0.24509,-1.75722 0.21942,-2.64436 0.002,-1.03217 0.006,-2.06434 0.01,-3.09652 2.7e-4,-0.99067 0.0109,-1.98481 -0.0958,-2.97113 -0.1417,-0.95015 -0.41445,-1.84321 -0.99551,-2.62657 -0.50522,-0.83335 -1.04697,-1.6423 -1.53959,-2.48309 -0.68577,-0.95425 -1.54149,-1.77029 -2.2776,-2.68472 -0.86388,-0.96964 -1.86049,-1.79073 -2.8601,-2.61649 -0.87364,-0.79668 -1.6065,-1.71868 -2.41375,-2.57964 -0.22941,-0.17286 -0.64184,-0.41479 -0.93456,-0.44863 -0.41721,-0.0482 -0.88305,0.26584 -1.30829,0.11275 28.62411,-0.002 19.82325,5.3e-4 13.6525,-0.006 -1.12932,0.0173 -2.26907,0.0439 -3.37505,0.29577 -0.18987,0.0442 -0.38228,0.0787 -0.5696,0.13265 -0.17588,0.0507 -0.34006,0.13994 -0.51845,0.18085 -0.5305,0.12167 -1.11199,-0.006 -1.58885,0.34182 -0.45661,0.0805 -0.8735,0.20077 -1.27974,0.43637 -0.1621,0.094 -0.29608,0.23478 -0.46499,0.31591 -0.32893,0.15798 -0.73188,0.13085 -1.02469,0.38521 -1.37572,0.73336 0.25865,-0.10327 -1.04769,0.46614 -0.53881,0.23486 -1.016,0.57706 -1.5261,0.86094 -0.16351,0.091 -0.33748,0.16181 -0.50621,0.24272 -0.97275,0.64146 -2.07662,1.0359 -3.13675,1.51591 -0.96332,0.57855 -2.02397,0.96126 -3.15157,1.03974 -6.53373,0.9168 -13.21656,0.40562 -19.80163,0.0803 -0.95933,-0.1259 -1.88367,-0.33307 -2.63883,-0.98232 -0.10604,-0.0687 -0.20688,-0.14621 -0.31811,-0.20615 -0.10364,-0.0558 -0.22606,-0.075 -0.32425,-0.13994 -0.48585,-0.3213 -0.83668,-0.83746 -1.33318,-1.15011 -0.80099,-0.5817 -1.31015,-1.40233 -1.83476,-2.22662 -0.55247,-0.70026 -1.12087,-1.38129 -1.62879,-2.11589 -0.47584,-0.76939 -1.03404,-1.50737 -1.67558,-2.14495 -0.5343,-0.52043 -1.03104,-1.06634 -1.55672,-1.5877 -0.58912,-0.71585 -1.13244,-1.45841 -1.4996,-2.31831 -0.475784,-1.06737 -0.884323,-2.17543 -0.95613,-3.35366 -0.09743,-1.06256 -0.101658,-2.12451 -0.08866,-3.19119 -0.0017,-1.03281 -0.0051,-2.06563 -0.003,-3.09844 0.0062,-1.13727 0.01603,-2.27587 0.116269,-3.4096 0.121432,-1.18775 0.286998,-2.37314 0.659911,-3.51192 0.1337,-0.99779 0.42192,-1.97759 0.44048,-2.98351 0.0122,-1.02313 0.0272,-2.04948 0.16534,-3.06503 0.0766,-0.46827 0.1576,-0.93051 0.28497,-1.38824 0.0414,-0.1488 0.18629,-0.58446 0.20832,-0.74264 0.0258,-0.18502 0.023,-0.37291 0.0345,-0.55936 0.0951,-1.07719 0.2803,-2.13748 0.47202,-3.20082 0.2218,-1.18333 0.60356,-2.32518 0.7379,-3.52514 0.28363,-1.35173 0.53894,-2.71075 0.88927,-4.04465 0.35022,-1.226013 0.91452,-2.361932 1.31054,-3.572149 0.17694,-0.647184 0.13878,-0.610621 0.38895,-1.177263 0.0637,-0.144397 0.15045,-0.278564 0.20666,-0.426058 0.1954,-0.51266 0.31444,-1.059461 0.52522,-1.568 0.11376,-0.307558 0.26315,-0.602328 0.35892,-0.91595 0.19183,-0.628136 0.17629,-1.280024 0.16004,-1.92786 -0.006,-1.053259 -0.0228,-2.108597 0.056,-3.159778 0.12192,-1.082935 0.31029,-2.174747 1.15467,-2.944658 0.30827,-0.157125 0.58731,-0.375557 0.91133,-0.496941 0.16692,-0.06253 0.35199,-0.05817 0.52551,-0.09899 0.52166,-0.122714 1.03775,-0.269055 1.56327,-0.37867 0.70086,-0.257312 0.35565,-0.105642 1.03422,-0.458165 1.93576,-0.789423 -0.99434,0.537508 1.02634,-0.334933 0.17753,-0.07665 0.33752,-0.191416 0.51751,-0.262078 0.16113,-0.06326 0.33381,-0.09177 0.50071,-0.13766 0.68709,-0.23053 0.35142,-0.09253 1.00658,-0.415016 0.14553,-0.05309 0.30529,-0.05672 0.45327,-0.102549 0.45224,-0.140057 0.85397,-0.397134 1.28137,-0.593223 0.73783,-0.598248 0.0483,-0.103195 0.79458,-0.483735 0.14247,-0.07264 0.25766,-0.199749 0.40948,-0.249972 0.36691,-0.121366 0.94837,0.0083 1.31702,-0.172727 0.99606,-0.266216 2.07568,-0.147187 3.04889,-0.55554 0.17815,-0.07126 0.34751,-0.17056 0.53446,-0.213779 0.34578,-0.07994 0.70888,-0.0429 1.06132,-0.08455 0.17179,-0.02031 0.34093,-0.07057 0.51391,-0.07221 10.28341,-0.0972 11.73637,-0.09616 17.80321,-0.09593 6.15985,2.86e-4 14.7159,1.68e-4 -14.01378,1.73e-4 1.14063,0.002 0.27991,-0.0859 0.38527,2.648168 0.003,0.06634 -0.13274,0.0046 -0.19914,0.0045 -0.12119,-1.48e-4 -0.24239,-3.76e-4 -0.36359,-6.56e-4 -0.16922,-3.91e-4 -0.33845,-9.06e-4 -0.50767,-0.0014 -1.04338,-0.0039 -2.08673,-0.01115 -3.13009,-0.01726 -6.3726,9.79e-4 14.00893,-0.0021 15.73329,-0.0035 0.16921,-1.33e-4 -0.33837,-0.0059 -0.50755,-0.0088 -0.4986,-0.0086 -0.99718,-0.01833 -1.49569,-0.03125 -0.38536,-0.0041 -0.51526,0.0011 -0.8962,-0.02849 -0.37302,-0.02895 -0.74692,-0.170763 -1.05126,0.118721 -0.10122,0.513059 -0.0872,1.434145 0.42331,1.730769 0.30189,0.08643 0.68267,0.143253 0.99553,0.13808 0.15571,-0.0026 0.61842,-0.06494 0.46268,-0.0649 -14.64922,0.0037 -21.67582,0.274538 -15.65129,0.04773 1.43788,-0.108606 2.85191,-0.340106 4.23423,-0.764506 0.81718,-0.09608 1.6394,-0.208685 2.43843,-0.413124 0.24167,-0.06184 0.47245,-0.162149 0.71436,-0.223052 0.40993,-0.103207 0.84073,-0.112884 1.24009,-0.265485 0.19482,-0.07194 0.38262,-0.166912 0.58445,-0.215821 0.18726,-0.04538 0.38355,-0.03835 0.57438,-0.06499 0.79688,-0.111265 1.5803,-0.29482 2.38597,-0.344895 0.4574,-0.115237 0.60613,-0.132181 1.04178,-0.325467 0.18037,-0.08003 0.34136,-0.202596 0.52682,-0.270018 0.51358,-0.186712 1.10566,-0.182367 1.57257,-0.514474 0.52584,-0.08652 1.0466,-0.168639 1.55176,-0.345961 0.17986,-0.06314 0.34488,-0.170137 0.5305,-0.213525 0.34228,-0.08001 0.71062,0.01665 1.0506,-0.09092 0.34215,-0.05838 0.67663,-0.15714 1.01896,-0.214389 0.69509,-0.116239 1.41402,-0.113739 2.07904,-0.392258 0.17375,-0.07054 0.33948,-0.165571 0.52126,-0.211629 0.15809,-0.04005 0.32548,-0.02356 0.48729,-0.0439 0.6643,-0.08354 1.32583,-0.225574 1.92096,-0.543208 0.32742,-0.0126 0.57331,-0.01654 0.89817,-0.05032 0.29789,-0.03098 0.58887,-0.13158 0.88835,-0.134586 10.56074,-0.106021 11.69691,-0.104188 17.75594,-0.100401 0.51495,3.72e-4 1.0299,8.34e-4 1.54484,10e-4 0.17246,7.1e-5 0.68981,1.04e-4 0.51736,1.06e-4 -16.35372,2.02e-4 -21.66176,-0.0088 -15.71047,9.62e-4 0.99897,0.002 1.99799,0.0072 2.99693,-0.0021 0.91478,-0.01011 1.84015,-0.01144 2.73945,-0.198152 0.9928,-0.23552 2.03736,-0.04706 3.05081,-0.107978 6.60546,-0.01416 13.21227,-0.110664 19.81643,0.0215 0.99524,0.04328 2.00226,0.09693 2.9538,0.419757 0.3964,0.133408 0.81106,0.351047 1.22375,0.424721 0.12116,0.02163 0.24823,-0.0101 0.36898,0.0137 0.32573,0.06421 0.58492,0.216975 0.87822,0.361561 0.78665,0.526666 1.53271,1.098693 2.28848,1.665935 0.8411,0.69054 1.68435,1.371436 2.5075,2.083337 0.6906,0.573038 1.35809,1.188138 1.88607,1.913987 0.63851,0.808044 0.82299,1.837428 0.70738,2.845915 -0.0685,0.206275 -0.10911,0.424018 -0.20551,0.618825 -0.23456,0.474018 -0.71573,0.939522 -1.23622,1.072675 -0.34752,0.0889 -0.72769,-0.02287 -1.07,0.114757 -0.55734,0.139842 -1.10887,0.272539 -1.61916,0.548316 -0.17574,0.09498 -0.32648,0.233726 -0.50648,0.320344 -1.39938,0.673369 0.37171,-0.354398 -0.79624,0.347609 -0.8042,0.864803 0.11643,-0.03908 -0.65149,0.50599 -0.10655,0.07563 -0.17806,0.19258 -0.27997,0.27435 -0.0741,0.05944 -0.17895,0.07762 -0.24443,0.146416 -0.0893,0.09384 -0.12927,0.225414 -0.20769,0.328543 -0.0604,0.07945 -0.13789,0.144358 -0.20683,0.216538 -0.22119,0.580669 -0.37927,1.181477 -0.63284,1.750229 -0.32672,0.732849 -0.77431,1.398441 -1.19199,2.080307 -0.83272,1.541511 -1.62444,3.108029 -2.36994,4.693778 -0.36696,0.9455 -0.37599,1.86988 -0.42382,2.87198 0.009,0.10133 0.0113,0.33282 0.10235,0.28751 0.0624,-0.031 0.18133,-0.1751 0.11167,-0.1767 -5.54126,-0.12717 -11.08426,-0.22399 -16.62694,-0.20234 -0.12208,4.7e-4 0.1338,0.23365 0.25143,0.26631 0.12256,0.034 0.24658,-0.0625 0.36986,-0.0938 1.34026,-0.81326 2.24876,-2.13083 3.46438,-3.10819 0.40756,-0.412438 0.82339,-0.816839 1.22348,-1.236531 0.20742,-0.217589 0.39445,-0.454714 0.61008,-0.664174 0.66967,-0.65051 0.47273,-0.359618 1.16215,-0.909776 0.16437,-0.131161 0.31218,-0.28182 0.46826,-0.422731 0.45902,-0.481436 0.37661,-0.424482 0.86087,-0.826586 0.19608,-0.162816 0.43655,-0.271728 0.61661,-0.452103 0.0848,-0.085 0.11435,-0.217498 0.20497,-0.296306 0.0385,-0.0335 0.10164,-0.0097 0.15246,-0.01453 0.0179,0.169326 0.0602,0.337823 0.0538,0.507978 -0.006,0.161989 -0.25291,0.475249 -0.0908,0.477754 5.47547,0.08463 10.95122,-0.150175 16.42683,-0.225263 -0.17885,-5.3e-5 -0.36377,-0.04635 -0.53655,-1.59e-4 -0.57442,0.15356 -1.39907,0.742736 -1.84104,1.021743 -3.86552,2.556054 -7.74624,5.092934 -11.47421,7.849814 -1.05011,0.73677 -2.45017,1.62022 -3.35348,2.58482 -0.12969,0.13848 -0.23717,0.29658 -0.3656,0.43623 -0.12112,0.1317 -0.25479,0.25127 -0.38219,0.3769 -5.8039,2.24363 -0.58679,0.28825 -17.70892,0.17214 -0.66798,-0.005 -1.51933,-0.51153 -2.08825,-0.8207 -1.05753,-0.76114 -1.94115,-1.70426 -2.94053,-2.53299 -0.71768,-0.49494 -0.81621,-0.62887 -1.68659,-0.64899 -0.1594,-0.004 -0.63705,-0.0257 -0.47761,-0.0261 5.42936,-0.0123 10.85876,-0.007 16.28814,-0.01 -0.14681,-0.0357 -0.29032,-0.0899 -0.44043,-0.10709 -0.25019,-0.0286 -1.2142,-0.0363 -1.43335,0.0922 -0.0967,0.0567 -0.16375,0.15304 -0.24563,0.22956 -0.0825,0.11273 -0.16501,0.22547 -0.24752,0.3382 -0.0815,0.0548 -0.17956,0.0907 -0.24451,0.16443 -0.0889,0.10085 -0.13309,0.23376 -0.20601,0.34668 -0.0644,0.0997 -0.15389,0.18388 -0.20556,0.29074 -0.13577,0.28081 -0.16135,0.60858 -0.35083,0.86748 -0.10909,0.23079 -0.26072,0.44143 -0.35443,0.6789 -0.24796,0.62831 -0.0795,0.57073 -0.43003,1.16466 -2.96322,5.02073 -29.28847,-3.183 -17.48141,0.54383 -1.08258,-0.2517 -2.07176,-0.75593 -2.91071,-1.49029 -0.91072,-0.69951 -1.64282,-1.5809 -2.35915,-2.47253 -0.70932,-0.95543 -1.27673,-2.00557 -1.91454,-3.00909 -0.0999,-0.15917 -0.76954,-1.24106 -1.06722,-1.16228 -0.1034,0.0274 -0.28562,0.2673 -0.17866,0.26656 5.53292,-0.0385 11.06319,-0.2538 16.59478,-0.3807 -0.0583,-0.044 -0.10384,-0.115 -0.17486,-0.13204 -0.50625,-0.12149 -0.68039,1.11512 -0.7221,1.39269 -7.4e-4,1.04658 0.003,2.09433 -0.0624,3.13933 -0.0812,0.96971 -0.19808,1.94492 -0.56953,2.85352 -0.25357,0.55515 -0.0595,0.0679 -0.24791,0.84287 -0.179,0.73635 -0.47449,1.43702 -0.87771,2.07858 -0.44503,0.96811 -0.89482,1.93308 -1.29018,2.92298 -0.11803,0.29551 -0.20733,0.60207 -0.32786,0.89657 -0.10707,0.26162 -0.23627,0.51362 -0.35441,0.77043 -0.60682,1.36832 -1.12738,2.7648 -1.52432,4.20908 -0.22136,0.66839 -0.43554,1.34266 -0.62714,2.02023 -0.0428,0.15153 -0.20018,0.85895 -0.26349,1.02406 -0.0172,0.0447 -0.0637,0.0715 -0.0955,0.10731 -0.0208,0.19132 -0.0219,0.24007 -0.0131,-0.21391 0.003,-0.1673 0.18414,-0.49897 0.0168,-0.50172 -5.54752,-0.0913 -11.09549,0.15216 -16.64324,0.22823 0.0851,-10e-4 0.17592,0.0277 0.2552,-0.003 0.13969,-0.0544 0.25209,-0.16225 0.37813,-0.24337 0.50269,-0.19917 0.38486,-0.1209 0.85565,-0.44671 0.16671,-0.11537 0.31303,-0.26154 0.49031,-0.3599 0.1669,-0.0926 0.36054,-0.1273 0.53345,-0.20813 1.16681,-0.54544 -0.0982,-0.0639 1.02746,-0.46613 0.35492,-0.18576 0.68965,-0.40851 1.04473,-0.59396 0.31696,-0.16554 0.70936,-0.28474 1.03773,-0.42321 0.18372,-0.0775 0.35495,-0.18551 0.54417,-0.24837 0.16614,-0.0552 0.34327,-0.069 0.51491,-0.10347 0.16895,-0.0503 0.34057,-0.0925 0.50686,-0.15102 0.17477,-0.0615 0.33439,-0.16811 0.51516,-0.20877 0.16833,-0.0379 0.34487,-0.0127 0.51707,-0.0234 0.51749,-0.0321 1.03104,-0.0993 1.54143,-0.19029 0.53122,-0.11953 1.03784,-0.14576 1.57729,-0.20712 0.34913,-0.0397 0.69104,-0.13385 1.04089,-0.16669 0.16822,-0.0158 0.33792,-1e-4 0.50688,-1.5e-4 1.03825,-4.1e-4 2.07651,-0.001 3.11476,-0.005 6.51484,-6.5e-4 13.2556,-0.25539 19.85202,0.0871 1.08209,0.11417 2.14224,0.33801 3.15446,0.7489 1.66488,0.57696 -0.59099,-0.18251 1.02869,0.29299 0.71603,0.21021 1.39094,0.56072 2.07242,0.857 0.93104,0.46321 1.97373,0.71365 2.77292,1.408 0.78655,0.58094 1.50141,1.23034 2.20677,1.90741 0.36722,0.40055 0.72657,0.80624 1.08326,1.21613 0.17507,0.20119 0.37854,0.3779 0.54143,0.58908 0.10272,0.13318 0.18242,0.28263 0.27364,0.42395 0.49202,0.78146 0.84733,1.64197 1.24614,2.47304 0.36924,0.77306 0.69409,1.5638 1.07511,2.33185 0.46331,0.83984 0.99627,1.64105 1.53359,2.43509 0.44265,0.79538 0.9789,1.52175 1.53377,2.24197 0.81304,0.93157 1.63871,1.84958 2.44412,2.78777 0.64802,0.80485 1.19074,1.68245 1.64396,2.61113 0.50635,0.88835 1.01361,1.77652 1.59611,2.61819 0.52944,0.74474 1.14485,1.4218 1.61379,2.2084 0.48874,0.92801 1.04319,1.83772 1.2984,2.86496 0.26538,1.10118 0.45891,2.22384 0.50685,3.35744 8.9e-4,1.03834 0.002,2.07667 0.006,3.115 0.004,1.03473 0.012,2.06971 -0.0143,3.10423 -0.0448,1.1567 -0.11948,2.32216 -0.46759,3.43438 -0.19658,0.60805 -0.45363,1.16161 -0.69113,1.75135 -0.25758,0.6396 -0.43894,1.31369 -0.82333,1.89795 -0.17936,0.33648 -0.33442,0.68574 -0.5191,1.01932 -0.26573,0.47997 -0.59212,0.9381 -0.73618,1.47619 -0.37048,0.82071 -0.55255,1.70086 -0.64647,2.59238 -0.20402,1.03592 -0.53438,2.03754 -0.64267,3.09017 -0.21274,1.08204 -0.40224,2.1743 -0.78577,3.21251 -0.3494,0.9101 -0.51845,1.87798 -0.61989,2.84421 -0.0916,0.50747 -0.18801,1.00171 -0.37454,1.48482 -0.10027,0.2597 -0.25569,0.49772 -0.33841,0.76353 -0.0586,0.18837 -0.086,0.38506 -0.12903,0.57758 -0.32856,1.15436 -0.75744,2.27538 -1.0768,3.42962 -0.34348,1.13867 -0.64586,2.29115 -1.16091,3.36807 -0.46064,0.98761 -0.80136,2.03205 -1.32629,2.99136 -0.37155,0.59085 -0.60211,1.23027 -0.93755,1.84242 -0.32981,0.60188 -0.4885,0.77697 -0.82782,1.37322 -0.14425,0.25347 -0.27431,0.51476 -0.41147,0.77214 -0.50439,0.66547 -0.96504,1.35826 -1.49263,2.00515 -0.11568,0.14185 -0.21403,0.29893 -0.343,0.42881 -0.10708,0.10783 -0.24017,0.18625 -0.36025,0.27937 -0.9087,0.8943 0.33179,-0.36926 -0.67584,0.83588 -0.56003,0.6698 -0.93602,0.65564 -1.72016,0.81413 -0.3496,0.15354 -0.83244,0.23864 -1.12364,0.4503 -0.12738,0.0926 -0.21177,0.23904 -0.34554,0.32212 -0.10766,0.0669 -0.24114,0.0781 -0.36171,0.11719 -0.11665,0.077 -0.23331,0.15403 -0.34997,0.23105 -0.12641,0.10677 -0.23529,0.23872 -0.37924,0.32032 -0.11685,0.0662 -0.25771,0.0759 -0.38656,0.1138 -0.1165,0.0665 -0.23299,0.1329 -0.34949,0.19935 -0.11019,0.0671 -0.22206,0.13246 -0.32448,0.21087 -0.12196,0.0933 -0.212,0.22986 -0.34698,0.30312 -0.1034,0.0561 -0.23026,0.0484 -0.34539,0.0726 -1.08812,0.57638 0.60655,-0.36528 -0.59928,0.48544 -0.0871,0.0614 -0.21134,0.0461 -0.30419,0.0985 -0.11088,0.0625 -0.18884,0.17283 -0.29679,0.24026 -0.10082,0.063 -0.21635,0.0986 -0.32453,0.14788 -0.1077,0.071 -0.21541,0.142 -0.32311,0.21301 -0.69822,0.81596 0.0555,0.0209 -0.67355,0.5774 -0.13236,0.10103 -0.22402,0.25114 -0.36226,0.34395 -0.37179,0.24963 -0.97396,0.33372 -1.2675,0.76048 -0.48262,0.19721 -0.97871,0.44153 -1.41571,0.72845 -0.38104,0.25018 -0.47372,0.45077 -0.89278,0.62655 -0.13406,0.0562 -0.28359,0.0642 -0.42539,0.0963 -0.51544,0.13071 -0.99294,0.13387 -1.52036,0.18204 -6.32706,0.57784 -7.53263,3.61496 -18.34085,0.21817 -1.03108,-0.0162 -2.06627,-0.0394 -3.08589,-0.20913 -1.05169,-0.20079 -2.05526,-0.56784 -3.10653,-0.74885 -1.01611,-0.29383 -2.01265,-0.65837 -2.95421,-1.14319 -0.43733,-0.1216 -0.84341,-0.35451 -1.28441,-0.45309 -0.1413,-0.0316 -0.28939,-0.0199 -0.43204,-0.0446 -0.36534,-0.0633 -0.71786,-0.19002 -1.08574,-0.24176 -1.21556,-0.36029 -2.38572,-0.86079 -3.63677,-1.09402 -0.77621,-0.12711 -1.55315,-0.36157 -2.33655,-0.43447 -0.18526,-0.0172 -0.37234,9.7e-4 -0.55809,-0.01 -0.18227,-0.0105 -0.36338,-0.0359 -0.54507,-0.0539 -0.99081,-0.12691 -1.96789,-0.13892 -2.96664,-0.13156 -1.50618,-0.0586 -3.0137,-0.16165 -4.49637,-0.44841 -1.70992,-0.33959 -3.40548,-0.75106 -5.08149,-1.23104 -0.40871,-0.083 -0.81423,-0.18374 -1.22614,-0.24914 -0.16958,-0.0269 -0.34525,-0.0154 -0.51204,-0.0562 -0.4338,-0.1061 -0.80583,-0.47073 -0.69735,-0.48809 5.53088,-0.88506 11.09796,-1.52683 16.64693,-2.29025 0.90907,0.007 1.81931,0.012 2.72597,0.0861 0.9588,0.0922 1.8958,0.27847 2.81665,0.56504 0.97333,0.16068 -0.12864,0.0112 0.85095,0.0431 0.71276,0.0232 1.41841,0.21928 2.0966,0.42039 1.04765,0.36065 2.05148,0.81166 3.03827,1.31357 0.89033,0.51127 1.75534,1.07176 2.58195,1.67712 0.85397,0.57147 1.65102,1.22569 2.50473,1.79688 0.76937,0.54364 1.65327,1.07626 2.62905,0.93547 -5.43531,0.0253 -10.87092,0.0132 -16.30592,0.076 -0.14278,0.002 0.27284,0.091 0.41469,0.10747 0.1414,0.0164 0.84885,0.0219 0.99954,-0.0107 0.0724,-0.0157 0.13383,-0.0635 0.20075,-0.0952 0.25402,-0.47611 0.61745,-0.54013 0.12028,-1.06129 -0.782,-0.57274 -1.77139,-0.80996 -2.66811,-1.14372 -1.00877,-0.45448 -1.97421,-1.00339 -3.02843,-1.35215 -0.47603,-0.10624 -0.92464,-0.3171 -1.40048,-0.41118 -0.14014,-0.0277 -0.28626,-0.0117 -0.42705,-0.0359 -0.30215,-0.0519 -0.58899,-0.1756 -0.89277,-0.22108 -1.03173,-0.14789 -1.982,-0.60501 -3.01671,-0.72177 -0.51504,-0.11724 -1.04923,-0.28635 -1.57805,-0.32743 -0.53439,-0.0415 -1.08153,0.009 -1.61117,-0.12004 -1.21771,-0.17315 -2.45102,-0.31707 -3.63579,-0.65048 -1.01054,-0.30427 -2.06179,-0.40043 -3.05518,-0.77416 -1.83077,-0.53974 0.76484,0.19985 -0.97694,-0.21667 -0.63834,-0.15264 -1.1972,-0.50601 -1.79161,-0.76683 -0.0765,-0.049 -0.66143,-0.42953 -0.76528,-0.47562 -0.11206,-0.0497 -0.23971,-0.0555 -0.35393,-0.10003 -0.44702,-0.17433 -0.84361,-0.47677 -1.3348,-0.53149 -0.10638,-0.0432 -0.89614,-0.36713 -1.01747,-0.40472 -0.6436,-0.19941 -1.31339,-0.3334 -1.93672,-0.6028 -1.605382,-0.60572 0.56281,0.18736 -0.903115,-0.27515 -0.436822,-0.13783 -0.8087,-0.41314 -1.23507,-0.5702 -0.120499,-0.0444 -0.249058,-0.0627 -0.373586,-0.0941 -0.978608,-0.54447 -1.881801,-1.20619 -2.791591,-1.85676 -1.067938,-0.87462 -2.056594,-1.84364 -3.178731,-2.65042 -1.021953,-0.77679 -2.025628,-1.56149 -2.971992,-2.43045 -0.966683,-0.89646 -1.268447,-1.19103 -1.210133,-2.61758 0.129759,-0.43595 0.137093,-0.56235 0.384926,-0.96157 0.39926,-0.64315 1.067086,-1.0816 1.428335,-1.75612 0.729747,-0.78397 1.259237,-1.68435 1.702081,-2.65407 0.305727,-0.78358 0.767797,-1.4863 0.91322,-2.32671 0.08547,-0.25443 0.207124,-0.4982 0.265456,-0.76018 0.153748,-0.69052 0.161125,-1.4179 0.355638,-2.10265 0.172887,-0.98753 -0.0055,-2.00813 0.127885,-3.00408 0.08684,-0.77056 0.232893,-1.992 0.823411,-2.55519 0.09949,-0.0949 0.241456,-0.13156 0.362184,-0.19735 6.447862,-1.32035 13.202022,-0.36466 19.772822,-0.0997 1.0686,0.12561 2.11153,0.35508 3.1014,0.79095 1.05458,0.41758 2.14975,0.74625 3.07854,1.43101 0.94901,0.55315 1.73791,1.3701 2.14267,2.40291 0.33665,0.90958 0.51747,1.8714 0.60484,2.8363 0.093,1.12499 0.0902,2.2545 -0.13388,3.36669 -0.27459,1.10712 -0.6813,2.10059 -1.59494,2.84033 -6.36267,2.11454 -13.58137,1.70948 -20.01704,-0.0739 -2.319462,-0.82653 -4.510394,-1.96168 -6.736181,-3.00602 -3.860567,-1.93526 -7.711842,-3.9257 -11.232572,-6.44476 -2.748396,-1.90335 -5.497745,-3.80498 -8.220761,-5.7445 -2.695894,-1.84897 -5.296385,-3.83128 -8.013298,-5.65052 -2.356835,-1.62 -4.715849,-3.23951 -7.128463,-4.77552 -1.905533,-1.21272 -3.864275,-2.35469 -5.958289,-3.21477 -3.319322,-1.29099 -6.780183,-2.1797 -10.266388,-2.8927 -1.980271,-0.35105 -2.725093,-0.51357 -4.727521,-0.74591 -2.658351,-0.30844 -5.335012,-0.36358 -8.008325,-0.38642 28.146808,-0.005 17.032051,0.0309 10.710274,-0.0264 -1.403136,0.0144 -1.613337,-0.0268 -2.444667,1.24141 -0.656457,0.78121 -1.463331,2.05465 -1.800903,3.02263 -0.05082,0.14573 -0.06467,0.30182 -0.097,0.45273 0.03249,1.00808 0.09149,2.01806 0.34505,2.99938 0.326012,1.29749 0.568042,2.60504 0.801679,3.92218 0.463923,2.24485 0.786105,4.51439 1.195217,6.76974 0.401679,2.84295 0.929043,5.66525 1.39651,8.49786 0.346845,1.58228 0.681493,3.17519 1.190343,4.71458 0.401142,1.05873 0.757212,2.13215 0.981954,3.24421 0.183597,1.09285 0.518977,2.15061 0.685973,3.24649 0.226055,1.09722 0.469179,2.2081 0.98211,3.21259 0.387532,0.96291 0.692958,1.95204 0.947143,2.9585 0.262709,1.10722 0.464109,2.22719 0.766208,3.32221 0.342103,0.89232 0.656927,1.7985 1.151062,2.62291 0.990547,1.53446 2.146036,2.93052 3.326812,4.3227 2.087186,2.58582 4.166302,5.17882 6.433306,7.61194 1.370625,1.48473 2.763389,2.94892 4.159782,4.40883 0.171957,0.16579 0.374479,0.29807 0.544504,0.46583 0.37519,0.3702 0.643333,0.84219 1.049195,1.1815 0.758576,0.82985 1.522597,1.65317 2.244867,2.51723 1.108688,1.13591 2.159291,2.32259 3.160732,3.5546 0.882454,1.05277 1.878104,2.00185 2.898986,2.91987 0.866987,0.79468 1.777293,1.5384 2.767512,2.1753 1.063893,0.71148 2.093985,1.46933 3.077484,2.28903 0.893998,0.72172 1.684534,1.55068 2.53794,2.31841 0.707492,0.77244 1.487489,1.47172 2.242239,2.19611 0.69944,0.7319 1.54283,1.22775 2.396542,1.76058 0.858061,0.29183 1.691142,0.67847 2.498575,1.08618 0.888468,0.48386 1.776962,0.95919 2.658312,1.45262 0.923871,0.5911 1.802688,1.23736 2.61921,1.97137 0.929968,0.69581 1.676247,1.59122 2.540671,2.36145 0.633361,0.58001 1.334791,1.10758 2.108468,1.47497 1.12498,0.5514 -0.433955,-0.18127 0.696579,0.25046 0.432558,0.16518 0.366331,0.24226 0.7915,0.38737 0.119618,0.0408 0.251815,0.0363 0.370965,0.0785 0.156932,0.0555 0.301226,0.14182 0.451839,0.21274 1.034375,0.59634 2.069425,1.18686 3.167325,1.66235 1.51968,0.637 3.0459,1.26305 4.59,1.83713 0.87161,0.32735 1.78101,0.63233 2.71103,0.74927 0.15657,0.0197 0.31632,-0.005 0.47325,0.0121 0.15592,0.0165 0.30819,0.0579 0.46229,0.0869 0.8142,0.20251 1.54985,0.59431 2.36437,0.78936 1.2317,0.34175 -0.36999,-0.0692 0.82775,0.13503 0.66343,0.11315 1.27896,0.43943 1.87724,0.72723 0.83771,0.36978 0.0282,0.0452 0.88338,0.29499 0.78846,0.23025 1.54342,0.56255 2.30379,0.86857 1.13651,0.42339 2.16308,1.05359 3.24665,1.58931 0.38261,0.20274 0.85105,0.51727 1.28794,0.58581 0.45082,0.0707 0.9239,-0.20288 1.37724,-0.073 1.03969,0.0152 2.07992,0.0392 3.11589,0.13555 0.52225,0.0503 1.04432,0.11342 1.56773,0.1505 0.1781,0.0126 0.7134,0.0288 0.53486,0.029 -5.41585,0.004 -10.83169,-0.0123 -16.24753,-0.0185 0.17005,-2.5e-4 0.3401,-5e-4 0.51015,-7.4e-4 6.63411,-0.0186 13.26674,-0.20721 19.90217,-0.0148 0.9676,0.0264 1.99518,0.0155 2.82437,0.58324 0.93046,1.04261 0.97546,1.92496 0.56169,3.22105 -0.17677,0.45393 -0.16909,0.48513 -0.39725,0.88979 -0.10134,0.17973 -0.35545,0.5819 -0.39489,0.78811 -0.0206,0.10743 -0.005,0.21869 -0.007,0.32804 8e-5,10e-4 -0.0154,0.27485 0.0605,0.31561 0.16504,0.0886 0.40997,-0.23761 0.57394,-0.18286 -5.46526,0.003 -10.93051,0.005 -16.39577,0.008 0.69548,0.0539 1.37009,-0.0537 2.03125,-0.28415 0.17552,-0.0612 0.33595,-0.16741 0.51729,-0.20818 0.16839,-0.0379 0.34481,-0.0163 0.51722,-0.0244 0.65948,-0.0574 1.35211,-0.12049 1.97784,-0.35333 0.1582,-0.0589 0.29733,-0.16784 0.46076,-0.21005 0.13564,-0.035 0.27994,-0.0116 0.41991,-0.0174 0.28092,-0.0143 0.53131,-0.0168 0.80819,-0.0698 0.27767,-0.0532 0.53617,-0.18576 0.81393,-0.23842 0.29265,-0.0555 0.60047,0.007 0.88931,-0.0875 0.31438,-0.0815 0.57181,-0.13803 0.87583,-0.26013 0.15978,-0.0642 0.30054,-0.17827 0.46785,-0.21891 0.4554,-0.11061 0.98718,0.0606 1.4355,-0.13929 0.38678,-0.0941 0.56362,-0.11153 0.91943,-0.30066 0.15425,-0.082 0.2836,-0.20655 0.43929,-0.28578 0.13763,-0.07 0.29752,-0.089 0.43508,-0.15923 0.40384,-0.20605 0.52618,-0.38064 0.8552,-0.70355 0.96941,-0.80892 1.7582,-1.82971 2.82325,-2.53527 0.15013,-0.0888 0.28915,-0.19982 0.45038,-0.26632 0.14109,-0.0582 0.29775,-0.0673 0.44604,-0.10342 0.72207,-0.17586 1.45459,-0.18352 2.19054,-0.28929 1.16531,-0.17812 2.35101,-0.0529 3.52682,-0.089 1.03989,-9e-5 2.07977,-8e-5 3.11966,-0.001 6.70017,-0.0105 13.40071,-0.0584 20.10053,0.0116 1.38092,0.0282 2.76143,0.0823 4.13543,0.23192 0.86092,0.09 1.71988,0.19638 2.58056,0.28811 0.28686,0.0306 1.14986,0.0822 0.86139,0.0837 -5.1484,0.0258 -21.75319,-0.009 -15.44539,-0.008 0,0 16.76039,2.65458 16.76039,2.65458 z"
   inkscape:connector-curvature="0" /></svg>